M48
;GenerationSoftware,Autodesk,EAGLE,9.2.2*%
;CreationDate,2018-11-13T05:08:50Z*%
FMAT,2
ICI,OFF
METRIC,TZ,000.000
T7C0.508
T6C0.600
T5C0.800
T4C0.813
T3C1.016
T2C2.800
T1C3.000
%
G90
M71
T1
X4000Y4000
X96000Y4000
X96000Y76000
T2
X6350Y43180
X81270Y74100
X6350Y74100
X81270Y43180
T3
X29210Y6350
X36830Y6350
X68805Y14383
X66265Y14383
X63725Y14383
X70739Y32512
X68199Y29972
X70739Y29972
X68199Y27432
X70739Y27432
X68199Y24892
X53340Y6350
X70739Y24892
X50800Y6350
X68199Y32512
X19050Y6350
X21590Y6350
X24130Y6350
X26670Y6350
X48260Y6350
X31750Y6350
X34290Y6350
T4
X91440Y59690
X82550Y24130
X82550Y31750
X91440Y24130
X91440Y31750
X82550Y11430
X82550Y19050
X91440Y11430
X91440Y19050
X82550Y5080
X90170Y5080
X93980Y59690
X88900Y59690
T5
X24510Y74100
X27050Y74100
X29590Y74100
X32130Y74100
X34670Y74100
X37210Y74100
X39750Y74100
X42290Y74100
X44830Y74100
X47370Y74100
X49910Y74100
X46990Y31750
X16890Y74100
X44450Y31750
X41910Y31750
X39370Y31750
X36830Y31750
X34290Y31750
X31750Y31750
X29210Y31750
X26670Y31750
X24130Y31750
X21590Y31750
X19050Y31750
X46990Y16510
X44450Y16510
X41910Y16510
X26670Y16510
X24130Y16510
X21590Y16510
X19050Y16510
X11430Y16510
X11430Y31750
X13970Y31750
X16510Y31750
X13970Y16510
X16510Y16510
X39370Y16510
X45720Y21590
X45720Y24130
X45720Y26670
X29210Y16510
X31750Y16510
X34290Y16510
X36830Y16510
X48260Y21590
X48260Y24130
X48260Y26670
X11810Y74100
X14350Y74100
X19430Y74100
X21970Y74100
T6
X5080Y7620
T7
X18440Y67335
X41072Y47777
X42189Y47219
X78232Y36322
X45263Y4470
X8661Y15088
X69571Y23470
X43586Y28219
X56159Y35204
X72923Y31013
X74320Y29616
X18999Y77394
X17043Y69012
X54204Y34646
M30