G04 EAGLE Gerber RS-274X export*
G75*
%MOMM*%
%FSLAX34Y34*%
%LPD*%
%INBottom Copper*%
%IPPOS*%
%AMOC8*
5,1,8,0,0,1.08239X$1,22.5*%
G01*
%ADD10P,1.924489X8X112.500000*%
%ADD11P,1.814519X8X112.500000*%
%ADD12P,1.814519X8X22.500000*%
%ADD13C,1.320800*%
%ADD14C,1.524000*%
%ADD15P,1.814519X8X292.500000*%
%ADD16C,1.308000*%
%ADD17C,1.308000*%
%ADD18R,1.930400X1.930400*%
%ADD19C,1.930400*%
%ADD20C,0.304800*%
%ADD21C,0.914400*%
%ADD22C,1.006400*%

G36*
X1028720Y-26158D02*
X1028720Y-26158D01*
X1028739Y-26160D01*
X1028841Y-26138D01*
X1028943Y-26122D01*
X1028960Y-26112D01*
X1028980Y-26108D01*
X1029069Y-26055D01*
X1029160Y-26006D01*
X1029174Y-25992D01*
X1029191Y-25982D01*
X1029258Y-25903D01*
X1029330Y-25828D01*
X1029338Y-25810D01*
X1029351Y-25795D01*
X1029390Y-25699D01*
X1029433Y-25605D01*
X1029435Y-25585D01*
X1029443Y-25567D01*
X1029461Y-25400D01*
X1029461Y812800D01*
X1029458Y812820D01*
X1029460Y812839D01*
X1029438Y812941D01*
X1029422Y813043D01*
X1029412Y813060D01*
X1029408Y813080D01*
X1029355Y813169D01*
X1029306Y813260D01*
X1029292Y813274D01*
X1029282Y813291D01*
X1029203Y813358D01*
X1029128Y813430D01*
X1029110Y813438D01*
X1029095Y813451D01*
X1028999Y813490D01*
X1028905Y813533D01*
X1028885Y813535D01*
X1028867Y813543D01*
X1028700Y813561D01*
X-38100Y813561D01*
X-38120Y813558D01*
X-38139Y813560D01*
X-38241Y813538D01*
X-38343Y813522D01*
X-38360Y813512D01*
X-38380Y813508D01*
X-38469Y813455D01*
X-38560Y813406D01*
X-38574Y813392D01*
X-38591Y813382D01*
X-38658Y813303D01*
X-38730Y813228D01*
X-38738Y813210D01*
X-38751Y813195D01*
X-38790Y813099D01*
X-38833Y813005D01*
X-38835Y812985D01*
X-38843Y812967D01*
X-38861Y812800D01*
X-38861Y-25400D01*
X-38858Y-25420D01*
X-38860Y-25439D01*
X-38838Y-25541D01*
X-38822Y-25643D01*
X-38812Y-25660D01*
X-38808Y-25680D01*
X-38755Y-25769D01*
X-38706Y-25860D01*
X-38692Y-25874D01*
X-38682Y-25891D01*
X-38603Y-25958D01*
X-38528Y-26030D01*
X-38510Y-26038D01*
X-38495Y-26051D01*
X-38399Y-26090D01*
X-38305Y-26133D01*
X-38285Y-26135D01*
X-38267Y-26143D01*
X-38100Y-26161D01*
X1028700Y-26161D01*
X1028720Y-26158D01*
G37*
%LPC*%
G36*
X-2021Y-10161D02*
X-2021Y-10161D01*
X-5756Y-8614D01*
X-8614Y-5756D01*
X-10161Y-2021D01*
X-10161Y802021D01*
X-8614Y805756D01*
X-5756Y808614D01*
X-2021Y810161D01*
X1002021Y810161D01*
X1005756Y808614D01*
X1008614Y805756D01*
X1010161Y802021D01*
X1010161Y-2021D01*
X1008614Y-5756D01*
X1005756Y-8614D01*
X1002021Y-10161D01*
X-2021Y-10161D01*
G37*
%LPD*%
G36*
X989098Y10164D02*
X989098Y10164D01*
X989117Y10162D01*
X989219Y10184D01*
X989321Y10200D01*
X989338Y10210D01*
X989358Y10214D01*
X989447Y10267D01*
X989538Y10316D01*
X989552Y10330D01*
X989569Y10340D01*
X989636Y10419D01*
X989708Y10494D01*
X989716Y10512D01*
X989729Y10527D01*
X989768Y10623D01*
X989811Y10717D01*
X989813Y10737D01*
X989821Y10755D01*
X989839Y10922D01*
X989839Y789078D01*
X989836Y789098D01*
X989838Y789117D01*
X989816Y789219D01*
X989800Y789321D01*
X989790Y789338D01*
X989786Y789358D01*
X989733Y789447D01*
X989684Y789538D01*
X989670Y789552D01*
X989660Y789569D01*
X989581Y789636D01*
X989506Y789708D01*
X989488Y789716D01*
X989473Y789729D01*
X989377Y789768D01*
X989283Y789811D01*
X989263Y789813D01*
X989245Y789821D01*
X989078Y789839D01*
X10922Y789839D01*
X10902Y789836D01*
X10883Y789838D01*
X10781Y789816D01*
X10679Y789800D01*
X10662Y789790D01*
X10642Y789786D01*
X10553Y789733D01*
X10462Y789684D01*
X10448Y789670D01*
X10431Y789660D01*
X10364Y789581D01*
X10292Y789506D01*
X10284Y789488D01*
X10271Y789473D01*
X10232Y789377D01*
X10189Y789283D01*
X10187Y789263D01*
X10179Y789245D01*
X10161Y789078D01*
X10161Y10922D01*
X10164Y10902D01*
X10162Y10883D01*
X10184Y10781D01*
X10200Y10679D01*
X10210Y10662D01*
X10214Y10642D01*
X10267Y10553D01*
X10316Y10462D01*
X10330Y10448D01*
X10340Y10431D01*
X10419Y10364D01*
X10494Y10292D01*
X10512Y10284D01*
X10527Y10271D01*
X10623Y10232D01*
X10717Y10189D01*
X10737Y10187D01*
X10755Y10179D01*
X10922Y10161D01*
X989078Y10161D01*
X989098Y10164D01*
G37*
%LPC*%
G36*
X185514Y29463D02*
X185514Y29463D01*
X182910Y32067D01*
X90741Y124236D01*
X88137Y126840D01*
X88137Y143002D01*
X88134Y143022D01*
X88136Y143041D01*
X88114Y143143D01*
X88098Y143245D01*
X88088Y143262D01*
X88084Y143282D01*
X88031Y143371D01*
X87982Y143462D01*
X87968Y143476D01*
X87958Y143493D01*
X87879Y143560D01*
X87804Y143632D01*
X87786Y143640D01*
X87771Y143653D01*
X87675Y143692D01*
X87581Y143735D01*
X87561Y143737D01*
X87543Y143745D01*
X87376Y143763D01*
X85199Y143763D01*
X82585Y144846D01*
X80584Y146847D01*
X79501Y149461D01*
X79501Y152291D01*
X80584Y154905D01*
X82585Y156906D01*
X85199Y157989D01*
X88029Y157989D01*
X90643Y156906D01*
X92426Y155123D01*
X92484Y155081D01*
X92536Y155032D01*
X92583Y155010D01*
X92625Y154980D01*
X92694Y154959D01*
X92759Y154928D01*
X92811Y154923D01*
X92861Y154907D01*
X92932Y154909D01*
X93003Y154901D01*
X93054Y154912D01*
X93106Y154914D01*
X93174Y154938D01*
X93244Y154953D01*
X93289Y154980D01*
X93337Y154998D01*
X93393Y155043D01*
X93455Y155080D01*
X93489Y155119D01*
X93529Y155152D01*
X93568Y155212D01*
X93615Y155267D01*
X93634Y155315D01*
X93662Y155359D01*
X93680Y155428D01*
X93707Y155495D01*
X93715Y155566D01*
X93723Y155597D01*
X93721Y155621D01*
X93725Y155661D01*
X93725Y194470D01*
X96329Y197074D01*
X206925Y307670D01*
X206994Y307765D01*
X207063Y307858D01*
X207065Y307864D01*
X207069Y307869D01*
X207103Y307981D01*
X207139Y308092D01*
X207139Y308099D01*
X207141Y308105D01*
X207138Y308221D01*
X207137Y308338D01*
X207135Y308345D01*
X207135Y308350D01*
X207128Y308368D01*
X207090Y308499D01*
X206819Y309154D01*
X206819Y325846D01*
X208202Y329184D01*
X210756Y331738D01*
X214094Y333121D01*
X217706Y333121D01*
X221044Y331738D01*
X223598Y329184D01*
X224981Y325846D01*
X224981Y309154D01*
X223598Y305816D01*
X221044Y303262D01*
X217706Y301879D01*
X214094Y301879D01*
X213530Y302113D01*
X213416Y302139D01*
X213303Y302168D01*
X213296Y302168D01*
X213290Y302169D01*
X213174Y302158D01*
X213057Y302149D01*
X213052Y302147D01*
X213045Y302146D01*
X212938Y302098D01*
X212831Y302053D01*
X212825Y302048D01*
X212821Y302046D01*
X212807Y302033D01*
X212700Y301948D01*
X102078Y191325D01*
X102035Y191266D01*
X101994Y191223D01*
X101987Y191208D01*
X101965Y191182D01*
X101953Y191152D01*
X101934Y191126D01*
X101907Y191039D01*
X101899Y191017D01*
X101891Y191000D01*
X101890Y190997D01*
X101873Y190954D01*
X101869Y190913D01*
X101862Y190890D01*
X101863Y190858D01*
X101855Y190787D01*
X101855Y133317D01*
X101869Y133227D01*
X101877Y133136D01*
X101889Y133106D01*
X101894Y133074D01*
X101937Y132994D01*
X101973Y132910D01*
X101999Y132878D01*
X102010Y132857D01*
X102033Y132835D01*
X102078Y132779D01*
X191453Y43404D01*
X191527Y43351D01*
X191596Y43291D01*
X191626Y43279D01*
X191652Y43260D01*
X191739Y43233D01*
X191824Y43199D01*
X191865Y43195D01*
X191888Y43188D01*
X191920Y43189D01*
X191991Y43181D01*
X228633Y43181D01*
X228704Y43192D01*
X228776Y43194D01*
X228825Y43212D01*
X228876Y43220D01*
X228939Y43254D01*
X229007Y43279D01*
X229047Y43311D01*
X229093Y43336D01*
X229143Y43387D01*
X229199Y43432D01*
X229227Y43476D01*
X229263Y43514D01*
X229293Y43579D01*
X229332Y43639D01*
X229344Y43690D01*
X229366Y43737D01*
X229374Y43808D01*
X229392Y43878D01*
X229388Y43930D01*
X229393Y43981D01*
X229378Y44052D01*
X229372Y44123D01*
X229352Y44171D01*
X229341Y44222D01*
X229304Y44283D01*
X229276Y44349D01*
X229231Y44405D01*
X229215Y44433D01*
X229197Y44448D01*
X229171Y44480D01*
X221647Y52005D01*
X221631Y52016D01*
X221618Y52032D01*
X221531Y52088D01*
X221447Y52148D01*
X221428Y52154D01*
X221411Y52165D01*
X221311Y52190D01*
X221212Y52221D01*
X221192Y52220D01*
X221173Y52225D01*
X221070Y52217D01*
X220966Y52214D01*
X220947Y52207D01*
X220927Y52206D01*
X220833Y52166D01*
X220735Y52130D01*
X220719Y52117D01*
X220701Y52110D01*
X220651Y52069D01*
X211165Y52069D01*
X204469Y58765D01*
X204469Y68235D01*
X211165Y74931D01*
X220635Y74931D01*
X227331Y68235D01*
X227331Y58743D01*
X227312Y58714D01*
X227252Y58630D01*
X227246Y58611D01*
X227235Y58594D01*
X227210Y58494D01*
X227179Y58395D01*
X227180Y58375D01*
X227175Y58356D01*
X227183Y58253D01*
X227186Y58149D01*
X227193Y58130D01*
X227194Y58110D01*
X227235Y58015D01*
X227270Y57918D01*
X227283Y57902D01*
X227290Y57884D01*
X227395Y57753D01*
X236157Y48992D01*
X236231Y48939D01*
X236300Y48879D01*
X236330Y48867D01*
X236356Y48848D01*
X236443Y48821D01*
X236528Y48787D01*
X236569Y48783D01*
X236592Y48776D01*
X236624Y48777D01*
X236695Y48769D01*
X322105Y48769D01*
X322195Y48783D01*
X322286Y48791D01*
X322316Y48803D01*
X322348Y48808D01*
X322428Y48851D01*
X322512Y48887D01*
X322544Y48913D01*
X322565Y48924D01*
X322587Y48947D01*
X322643Y48992D01*
X331405Y57753D01*
X331416Y57769D01*
X331432Y57782D01*
X331488Y57869D01*
X331548Y57953D01*
X331554Y57972D01*
X331565Y57989D01*
X331590Y58089D01*
X331621Y58188D01*
X331620Y58208D01*
X331625Y58227D01*
X331617Y58330D01*
X331614Y58434D01*
X331607Y58453D01*
X331606Y58473D01*
X331566Y58567D01*
X331530Y58665D01*
X331517Y58681D01*
X331510Y58699D01*
X331469Y58749D01*
X331469Y68235D01*
X338165Y74931D01*
X347657Y74931D01*
X347686Y74912D01*
X347770Y74852D01*
X347789Y74846D01*
X347806Y74835D01*
X347906Y74810D01*
X348005Y74779D01*
X348025Y74780D01*
X348044Y74775D01*
X348147Y74783D01*
X348251Y74786D01*
X348270Y74793D01*
X348290Y74794D01*
X348384Y74834D01*
X348482Y74870D01*
X348498Y74883D01*
X348516Y74890D01*
X348647Y74995D01*
X417606Y143955D01*
X420210Y146559D01*
X450629Y146559D01*
X450719Y146573D01*
X450810Y146581D01*
X450840Y146593D01*
X450872Y146598D01*
X450952Y146641D01*
X451036Y146677D01*
X451068Y146703D01*
X451089Y146714D01*
X451111Y146737D01*
X451167Y146782D01*
X451929Y147544D01*
X451941Y147560D01*
X451957Y147572D01*
X452013Y147660D01*
X452073Y147743D01*
X452079Y147762D01*
X452090Y147779D01*
X452115Y147880D01*
X452145Y147979D01*
X452145Y147998D01*
X452150Y148018D01*
X452142Y148121D01*
X452139Y148224D01*
X452132Y148243D01*
X452130Y148263D01*
X452090Y148358D01*
X452054Y148455D01*
X452042Y148471D01*
X452034Y148489D01*
X451929Y148620D01*
X450035Y150515D01*
X449941Y150582D01*
X449846Y150653D01*
X449840Y150655D01*
X449835Y150658D01*
X449724Y150693D01*
X449612Y150729D01*
X449606Y150729D01*
X449600Y150731D01*
X449483Y150728D01*
X449366Y150727D01*
X449359Y150725D01*
X449354Y150724D01*
X449336Y150718D01*
X449205Y150680D01*
X446306Y149479D01*
X442694Y149479D01*
X439356Y150862D01*
X436802Y153416D01*
X435419Y156754D01*
X435419Y173446D01*
X436802Y176784D01*
X439356Y179338D01*
X442694Y180721D01*
X446306Y180721D01*
X449644Y179338D01*
X452198Y176784D01*
X453581Y173446D01*
X453581Y158781D01*
X453595Y158691D01*
X453603Y158600D01*
X453615Y158570D01*
X453620Y158538D01*
X453663Y158458D01*
X453699Y158374D01*
X453725Y158342D01*
X453736Y158321D01*
X453759Y158299D01*
X453804Y158243D01*
X459677Y152370D01*
X462504Y149543D01*
X504381Y107666D01*
X504455Y107613D01*
X504524Y107553D01*
X504554Y107541D01*
X504580Y107522D01*
X504667Y107495D01*
X504752Y107461D01*
X504793Y107457D01*
X504815Y107450D01*
X504848Y107451D01*
X504919Y107443D01*
X570771Y107443D01*
X570861Y107457D01*
X570952Y107465D01*
X570982Y107477D01*
X571014Y107482D01*
X571094Y107525D01*
X571178Y107561D01*
X571210Y107587D01*
X571231Y107598D01*
X571253Y107621D01*
X571309Y107666D01*
X629760Y166117D01*
X641510Y166117D01*
X642082Y165545D01*
X642098Y165533D01*
X642110Y165517D01*
X642198Y165461D01*
X642281Y165401D01*
X642300Y165395D01*
X642317Y165384D01*
X642418Y165359D01*
X642517Y165329D01*
X642536Y165329D01*
X642556Y165324D01*
X642659Y165332D01*
X642762Y165335D01*
X642781Y165342D01*
X642801Y165344D01*
X642896Y165384D01*
X642993Y165420D01*
X643009Y165432D01*
X643027Y165440D01*
X643158Y165545D01*
X702594Y224981D01*
X702647Y225055D01*
X702707Y225124D01*
X702719Y225154D01*
X702738Y225180D01*
X702765Y225267D01*
X702799Y225352D01*
X702803Y225393D01*
X702810Y225415D01*
X702809Y225448D01*
X702817Y225519D01*
X702817Y229911D01*
X702806Y229981D01*
X702804Y230053D01*
X702786Y230102D01*
X702778Y230153D01*
X702744Y230217D01*
X702719Y230284D01*
X702687Y230325D01*
X702662Y230371D01*
X702610Y230420D01*
X702566Y230476D01*
X702522Y230504D01*
X702484Y230540D01*
X702419Y230570D01*
X702359Y230609D01*
X702308Y230622D01*
X702261Y230644D01*
X702190Y230652D01*
X702120Y230669D01*
X702068Y230665D01*
X702017Y230671D01*
X701946Y230656D01*
X701875Y230650D01*
X701827Y230630D01*
X701776Y230619D01*
X701715Y230582D01*
X701649Y230554D01*
X701593Y230509D01*
X701565Y230492D01*
X701550Y230475D01*
X701518Y230449D01*
X699735Y228666D01*
X697121Y227583D01*
X694291Y227583D01*
X693818Y227779D01*
X693754Y227794D01*
X693693Y227819D01*
X693610Y227828D01*
X693578Y227835D01*
X693559Y227834D01*
X693527Y227837D01*
X671670Y227837D01*
X660907Y238600D01*
X660907Y258732D01*
X663511Y261336D01*
X670981Y268805D01*
X670993Y268822D01*
X671008Y268834D01*
X671064Y268921D01*
X671125Y269005D01*
X671130Y269024D01*
X671141Y269041D01*
X671166Y269141D01*
X671197Y269240D01*
X671196Y269260D01*
X671201Y269279D01*
X671193Y269382D01*
X671191Y269486D01*
X671184Y269505D01*
X671182Y269525D01*
X671142Y269619D01*
X671106Y269717D01*
X671094Y269733D01*
X671086Y269751D01*
X671067Y269774D01*
X671067Y278844D01*
X677466Y285243D01*
X686514Y285243D01*
X692913Y278844D01*
X692913Y269796D01*
X686514Y263397D01*
X677385Y263397D01*
X677295Y263383D01*
X677204Y263375D01*
X677174Y263363D01*
X677142Y263358D01*
X677062Y263315D01*
X676978Y263279D01*
X676946Y263253D01*
X676925Y263242D01*
X676903Y263219D01*
X676847Y263174D01*
X669260Y255587D01*
X669207Y255513D01*
X669147Y255444D01*
X669135Y255414D01*
X669116Y255388D01*
X669089Y255301D01*
X669055Y255216D01*
X669051Y255175D01*
X669044Y255152D01*
X669045Y255120D01*
X669037Y255049D01*
X669037Y242283D01*
X669051Y242193D01*
X669059Y242102D01*
X669071Y242072D01*
X669076Y242040D01*
X669119Y241960D01*
X669155Y241876D01*
X669181Y241844D01*
X669192Y241823D01*
X669215Y241801D01*
X669260Y241745D01*
X674815Y236190D01*
X674889Y236137D01*
X674958Y236077D01*
X674988Y236065D01*
X675014Y236046D01*
X675101Y236019D01*
X675186Y235985D01*
X675227Y235981D01*
X675250Y235974D01*
X675282Y235975D01*
X675353Y235967D01*
X688025Y235967D01*
X688140Y235986D01*
X688256Y236003D01*
X688262Y236005D01*
X688268Y236006D01*
X688370Y236061D01*
X688475Y236114D01*
X688480Y236119D01*
X688485Y236122D01*
X688565Y236206D01*
X688647Y236290D01*
X688651Y236296D01*
X688654Y236300D01*
X688662Y236317D01*
X688728Y236437D01*
X689676Y238725D01*
X691677Y240726D01*
X694291Y241809D01*
X697216Y241809D01*
X697287Y241820D01*
X697359Y241822D01*
X697408Y241840D01*
X697459Y241848D01*
X697522Y241882D01*
X697590Y241907D01*
X697630Y241939D01*
X697677Y241964D01*
X697726Y242016D01*
X697782Y242060D01*
X697810Y242104D01*
X697846Y242142D01*
X697876Y242207D01*
X697915Y242267D01*
X697928Y242318D01*
X697950Y242365D01*
X697957Y242436D01*
X697975Y242506D01*
X697971Y242558D01*
X697977Y242609D01*
X697961Y242680D01*
X697956Y242751D01*
X697935Y242799D01*
X697924Y242850D01*
X697888Y242911D01*
X697859Y242977D01*
X697815Y243033D01*
X697798Y243061D01*
X697780Y243076D01*
X697755Y243108D01*
X696467Y244396D01*
X696467Y253017D01*
X696453Y253107D01*
X696445Y253198D01*
X696433Y253228D01*
X696428Y253260D01*
X696385Y253340D01*
X696349Y253424D01*
X696323Y253456D01*
X696312Y253477D01*
X696289Y253499D01*
X696244Y253555D01*
X691641Y258158D01*
X691641Y264320D01*
X696254Y268932D01*
X696266Y268949D01*
X696281Y268961D01*
X696337Y269048D01*
X696398Y269132D01*
X696403Y269151D01*
X696414Y269168D01*
X696439Y269268D01*
X696470Y269367D01*
X696469Y269387D01*
X696474Y269406D01*
X696467Y269496D01*
X696467Y278844D01*
X702866Y285243D01*
X712127Y285243D01*
X712136Y285240D01*
X712156Y285241D01*
X712175Y285236D01*
X712278Y285244D01*
X712382Y285246D01*
X712401Y285253D01*
X712420Y285255D01*
X712515Y285295D01*
X712613Y285331D01*
X712628Y285343D01*
X712647Y285351D01*
X712778Y285456D01*
X729043Y301722D01*
X729085Y301780D01*
X729135Y301832D01*
X729157Y301879D01*
X729187Y301921D01*
X729208Y301990D01*
X729238Y302055D01*
X729244Y302107D01*
X729259Y302157D01*
X729257Y302228D01*
X729265Y302299D01*
X729254Y302350D01*
X729253Y302402D01*
X729228Y302470D01*
X729213Y302540D01*
X729186Y302584D01*
X729168Y302633D01*
X729124Y302689D01*
X729087Y302751D01*
X729047Y302785D01*
X729015Y302825D01*
X728954Y302864D01*
X728900Y302911D01*
X728852Y302930D01*
X728808Y302958D01*
X728738Y302976D01*
X728672Y303003D01*
X728600Y303011D01*
X728569Y303019D01*
X728546Y303017D01*
X728505Y303021D01*
X727819Y303021D01*
X725205Y304104D01*
X723204Y306105D01*
X722636Y307475D01*
X722612Y307514D01*
X722597Y307558D01*
X722548Y307618D01*
X722507Y307685D01*
X722471Y307714D01*
X722443Y307750D01*
X722377Y307792D01*
X722317Y307841D01*
X722275Y307858D01*
X722236Y307883D01*
X722160Y307902D01*
X722088Y307930D01*
X722042Y307931D01*
X721997Y307943D01*
X721920Y307937D01*
X721842Y307940D01*
X721798Y307927D01*
X721752Y307924D01*
X721681Y307893D01*
X721606Y307871D01*
X721568Y307845D01*
X721526Y307827D01*
X721419Y307742D01*
X721404Y307731D01*
X721401Y307727D01*
X721395Y307722D01*
X718536Y304863D01*
X718483Y304789D01*
X718423Y304720D01*
X718411Y304690D01*
X718392Y304664D01*
X718365Y304577D01*
X718331Y304492D01*
X718327Y304451D01*
X718320Y304429D01*
X718321Y304396D01*
X718313Y304325D01*
X718313Y295196D01*
X711914Y288797D01*
X702866Y288797D01*
X696467Y295196D01*
X696467Y304244D01*
X702866Y310643D01*
X711948Y310643D01*
X712028Y310585D01*
X712047Y310580D01*
X712064Y310569D01*
X712164Y310544D01*
X712263Y310513D01*
X712283Y310514D01*
X712302Y310509D01*
X712405Y310517D01*
X712509Y310519D01*
X712528Y310526D01*
X712547Y310528D01*
X712642Y310568D01*
X712740Y310604D01*
X712755Y310616D01*
X712774Y310624D01*
X712905Y310729D01*
X713770Y311595D01*
X713823Y311669D01*
X713883Y311738D01*
X713895Y311768D01*
X713914Y311794D01*
X713941Y311882D01*
X713975Y311966D01*
X713979Y312007D01*
X713986Y312030D01*
X713985Y312062D01*
X713993Y312133D01*
X713993Y314438D01*
X713982Y314509D01*
X713980Y314581D01*
X713962Y314630D01*
X713954Y314681D01*
X713920Y314744D01*
X713895Y314812D01*
X713863Y314852D01*
X713838Y314899D01*
X713786Y314948D01*
X713742Y315004D01*
X713698Y315032D01*
X713660Y315068D01*
X713595Y315098D01*
X713535Y315137D01*
X713484Y315150D01*
X713437Y315172D01*
X713366Y315179D01*
X713296Y315197D01*
X713244Y315193D01*
X713193Y315199D01*
X713122Y315183D01*
X713051Y315178D01*
X713003Y315157D01*
X712952Y315146D01*
X712891Y315110D01*
X712825Y315081D01*
X712769Y315037D01*
X712741Y315020D01*
X712726Y315002D01*
X712694Y314977D01*
X711914Y314197D01*
X702866Y314197D01*
X696467Y320596D01*
X696467Y329644D01*
X702866Y336043D01*
X711914Y336043D01*
X718313Y329644D01*
X718313Y320769D01*
X718324Y320698D01*
X718326Y320626D01*
X718344Y320578D01*
X718352Y320526D01*
X718386Y320463D01*
X718411Y320395D01*
X718443Y320355D01*
X718468Y320309D01*
X718520Y320259D01*
X718564Y320203D01*
X718608Y320175D01*
X718646Y320139D01*
X718711Y320109D01*
X718771Y320070D01*
X718822Y320058D01*
X718869Y320036D01*
X718940Y320028D01*
X719010Y320010D01*
X719062Y320014D01*
X719113Y320009D01*
X719184Y320024D01*
X719255Y320030D01*
X719303Y320050D01*
X719354Y320061D01*
X719415Y320098D01*
X719481Y320126D01*
X719537Y320171D01*
X719565Y320187D01*
X719580Y320205D01*
X719612Y320231D01*
X722152Y322771D01*
X722205Y322845D01*
X722265Y322914D01*
X722277Y322944D01*
X722296Y322970D01*
X722323Y323058D01*
X722357Y323142D01*
X722361Y323183D01*
X722368Y323206D01*
X722367Y323238D01*
X722375Y323309D01*
X722375Y327693D01*
X722361Y327783D01*
X722353Y327874D01*
X722341Y327904D01*
X722336Y327936D01*
X722293Y328016D01*
X722257Y328100D01*
X722231Y328132D01*
X722220Y328153D01*
X722197Y328175D01*
X722152Y328231D01*
X711009Y339374D01*
X710935Y339427D01*
X710866Y339487D01*
X710836Y339499D01*
X710810Y339518D01*
X710723Y339545D01*
X710638Y339579D01*
X710597Y339583D01*
X710574Y339590D01*
X710542Y339589D01*
X710471Y339597D01*
X678147Y339597D01*
X678057Y339583D01*
X677966Y339575D01*
X677936Y339563D01*
X677904Y339558D01*
X677824Y339515D01*
X677740Y339479D01*
X677708Y339453D01*
X677687Y339442D01*
X677665Y339419D01*
X677609Y339374D01*
X675450Y337215D01*
X675438Y337199D01*
X675422Y337187D01*
X675366Y337099D01*
X675306Y337016D01*
X675300Y336997D01*
X675289Y336980D01*
X675264Y336879D01*
X675234Y336780D01*
X675234Y336761D01*
X675229Y336741D01*
X675237Y336638D01*
X675240Y336535D01*
X675247Y336516D01*
X675249Y336496D01*
X675289Y336401D01*
X675325Y336304D01*
X675337Y336288D01*
X675345Y336270D01*
X675450Y336139D01*
X675967Y335621D01*
X675984Y335609D01*
X675996Y335594D01*
X676083Y335538D01*
X676167Y335477D01*
X676186Y335472D01*
X676203Y335461D01*
X676303Y335436D01*
X676402Y335405D01*
X676422Y335406D01*
X676441Y335401D01*
X676544Y335409D01*
X676648Y335411D01*
X676667Y335418D01*
X676687Y335420D01*
X676782Y335460D01*
X676879Y335496D01*
X676895Y335508D01*
X676913Y335516D01*
X677044Y335621D01*
X677466Y336043D01*
X686514Y336043D01*
X692913Y329644D01*
X692913Y320596D01*
X686514Y314197D01*
X677466Y314197D01*
X671067Y320596D01*
X671067Y328709D01*
X671053Y328799D01*
X671045Y328890D01*
X671033Y328920D01*
X671028Y328952D01*
X670985Y329032D01*
X670949Y329116D01*
X670923Y329149D01*
X670912Y329169D01*
X670889Y329191D01*
X670844Y329247D01*
X670336Y329755D01*
X670278Y329797D01*
X670226Y329847D01*
X670179Y329869D01*
X670137Y329899D01*
X670068Y329920D01*
X670003Y329950D01*
X669951Y329956D01*
X669901Y329971D01*
X669830Y329969D01*
X669759Y329977D01*
X669708Y329966D01*
X669656Y329965D01*
X669588Y329940D01*
X669518Y329925D01*
X669473Y329898D01*
X669425Y329880D01*
X669369Y329836D01*
X669307Y329799D01*
X669273Y329759D01*
X669233Y329727D01*
X669194Y329667D01*
X669147Y329612D01*
X669128Y329564D01*
X669100Y329520D01*
X669082Y329450D01*
X669055Y329384D01*
X669047Y329312D01*
X669039Y329281D01*
X669041Y329258D01*
X669037Y329217D01*
X669037Y317721D01*
X669051Y317631D01*
X669059Y317540D01*
X669071Y317510D01*
X669076Y317478D01*
X669119Y317398D01*
X669155Y317314D01*
X669181Y317282D01*
X669192Y317261D01*
X669215Y317239D01*
X669260Y317183D01*
X676094Y310348D01*
X676111Y310336D01*
X676123Y310321D01*
X676210Y310265D01*
X676294Y310204D01*
X676313Y310199D01*
X676330Y310188D01*
X676430Y310163D01*
X676529Y310132D01*
X676549Y310133D01*
X676568Y310128D01*
X676671Y310136D01*
X676775Y310138D01*
X676794Y310145D01*
X676814Y310147D01*
X676909Y310187D01*
X677006Y310223D01*
X677022Y310235D01*
X677040Y310243D01*
X677171Y310348D01*
X677466Y310643D01*
X686514Y310643D01*
X692913Y304244D01*
X692913Y295196D01*
X686514Y288797D01*
X677466Y288797D01*
X671067Y295196D01*
X671067Y303563D01*
X671053Y303653D01*
X671045Y303744D01*
X671033Y303774D01*
X671028Y303806D01*
X670985Y303886D01*
X670949Y303970D01*
X670923Y304002D01*
X670912Y304023D01*
X670889Y304045D01*
X670844Y304101D01*
X660907Y314038D01*
X660907Y330454D01*
X660904Y330474D01*
X660906Y330493D01*
X660884Y330595D01*
X660868Y330697D01*
X660858Y330714D01*
X660854Y330734D01*
X660801Y330823D01*
X660752Y330914D01*
X660738Y330928D01*
X660728Y330945D01*
X660649Y331012D01*
X660574Y331084D01*
X660556Y331092D01*
X660541Y331105D01*
X660445Y331144D01*
X660351Y331187D01*
X660331Y331189D01*
X660313Y331197D01*
X660146Y331215D01*
X537558Y331215D01*
X528604Y340169D01*
X528588Y340181D01*
X528576Y340197D01*
X528488Y340253D01*
X528405Y340313D01*
X528386Y340319D01*
X528369Y340330D01*
X528268Y340355D01*
X528169Y340385D01*
X528150Y340385D01*
X528130Y340390D01*
X528027Y340382D01*
X527924Y340379D01*
X527905Y340372D01*
X527885Y340370D01*
X527790Y340330D01*
X527693Y340294D01*
X527677Y340282D01*
X527659Y340274D01*
X527528Y340169D01*
X476664Y289305D01*
X463009Y289305D01*
X462919Y289291D01*
X462828Y289283D01*
X462798Y289271D01*
X462766Y289266D01*
X462686Y289223D01*
X462602Y289187D01*
X462570Y289161D01*
X462549Y289150D01*
X462527Y289127D01*
X462471Y289082D01*
X445740Y272351D01*
X445687Y272277D01*
X445627Y272208D01*
X445615Y272178D01*
X445596Y272152D01*
X445569Y272065D01*
X445535Y271980D01*
X445531Y271939D01*
X445524Y271916D01*
X445525Y271884D01*
X445517Y271813D01*
X445517Y213454D01*
X442913Y210850D01*
X403004Y170941D01*
X402951Y170867D01*
X402891Y170798D01*
X402879Y170768D01*
X402860Y170742D01*
X402833Y170655D01*
X402799Y170570D01*
X402795Y170529D01*
X402788Y170507D01*
X402789Y170474D01*
X402781Y170403D01*
X402781Y156754D01*
X401398Y153416D01*
X398844Y150862D01*
X395506Y149479D01*
X391894Y149479D01*
X388556Y150862D01*
X386002Y153416D01*
X384619Y156754D01*
X384619Y173446D01*
X386002Y176784D01*
X388556Y179338D01*
X391894Y180721D01*
X395506Y180721D01*
X398851Y179335D01*
X398852Y179335D01*
X398864Y179319D01*
X398951Y179263D01*
X399035Y179203D01*
X399054Y179197D01*
X399071Y179186D01*
X399172Y179161D01*
X399270Y179131D01*
X399290Y179131D01*
X399310Y179126D01*
X399413Y179134D01*
X399516Y179137D01*
X399535Y179144D01*
X399555Y179145D01*
X399650Y179186D01*
X399747Y179221D01*
X399763Y179234D01*
X399781Y179242D01*
X399912Y179347D01*
X437164Y216599D01*
X437217Y216673D01*
X437277Y216742D01*
X437289Y216772D01*
X437308Y216798D01*
X437335Y216885D01*
X437369Y216970D01*
X437373Y217011D01*
X437380Y217034D01*
X437379Y217066D01*
X437387Y217137D01*
X437387Y274320D01*
X437384Y274340D01*
X437386Y274359D01*
X437364Y274461D01*
X437348Y274563D01*
X437338Y274580D01*
X437334Y274600D01*
X437281Y274689D01*
X437232Y274780D01*
X437218Y274794D01*
X437208Y274811D01*
X437129Y274878D01*
X437054Y274950D01*
X437036Y274958D01*
X437021Y274971D01*
X436925Y275010D01*
X436831Y275053D01*
X436811Y275055D01*
X436793Y275063D01*
X436626Y275081D01*
X434449Y275081D01*
X431835Y276164D01*
X430093Y277906D01*
X430019Y277959D01*
X429949Y278019D01*
X429919Y278031D01*
X429893Y278050D01*
X429806Y278077D01*
X429721Y278111D01*
X429680Y278115D01*
X429658Y278122D01*
X429626Y278121D01*
X429554Y278129D01*
X306545Y278129D01*
X306455Y278115D01*
X306364Y278107D01*
X306334Y278095D01*
X306302Y278090D01*
X306222Y278047D01*
X306138Y278011D01*
X306106Y277985D01*
X306085Y277974D01*
X306063Y277951D01*
X306007Y277906D01*
X199804Y171703D01*
X199751Y171629D01*
X199691Y171560D01*
X199679Y171530D01*
X199660Y171504D01*
X199633Y171417D01*
X199599Y171332D01*
X199595Y171291D01*
X199588Y171269D01*
X199589Y171236D01*
X199581Y171165D01*
X199581Y156754D01*
X198198Y153416D01*
X195644Y150862D01*
X192306Y149479D01*
X188694Y149479D01*
X185356Y150862D01*
X182802Y153416D01*
X181419Y156754D01*
X181419Y173446D01*
X182802Y176784D01*
X185356Y179338D01*
X188694Y180721D01*
X192306Y180721D01*
X195385Y179446D01*
X195498Y179419D01*
X195612Y179390D01*
X195618Y179391D01*
X195624Y179389D01*
X195741Y179400D01*
X195857Y179410D01*
X195863Y179412D01*
X195869Y179413D01*
X195977Y179460D01*
X196083Y179506D01*
X196089Y179510D01*
X196094Y179513D01*
X196108Y179525D01*
X196214Y179611D01*
X300258Y283655D01*
X302862Y286259D01*
X429554Y286259D01*
X429645Y286273D01*
X429735Y286281D01*
X429765Y286293D01*
X429797Y286298D01*
X429878Y286341D01*
X429962Y286377D01*
X429994Y286403D01*
X430015Y286414D01*
X430037Y286437D01*
X430093Y286482D01*
X431835Y288224D01*
X434449Y289307D01*
X437279Y289307D01*
X439893Y288224D01*
X441894Y286223D01*
X442977Y283609D01*
X442977Y282923D01*
X442988Y282852D01*
X442990Y282780D01*
X443008Y282732D01*
X443016Y282680D01*
X443050Y282617D01*
X443075Y282549D01*
X443107Y282509D01*
X443132Y282463D01*
X443184Y282413D01*
X443228Y282357D01*
X443272Y282329D01*
X443310Y282293D01*
X443375Y282263D01*
X443435Y282224D01*
X443486Y282212D01*
X443533Y282190D01*
X443604Y282182D01*
X443674Y282164D01*
X443726Y282168D01*
X443777Y282163D01*
X443848Y282178D01*
X443919Y282184D01*
X443967Y282204D01*
X444018Y282215D01*
X444079Y282252D01*
X444145Y282280D01*
X444201Y282325D01*
X444229Y282341D01*
X444244Y282359D01*
X444276Y282385D01*
X456722Y294831D01*
X459326Y297435D01*
X472981Y297435D01*
X473071Y297449D01*
X473162Y297457D01*
X473192Y297469D01*
X473224Y297474D01*
X473304Y297517D01*
X473388Y297553D01*
X473420Y297579D01*
X473441Y297590D01*
X473463Y297613D01*
X473519Y297658D01*
X521779Y345918D01*
X521791Y345934D01*
X521807Y345946D01*
X521863Y346034D01*
X521923Y346117D01*
X521929Y346136D01*
X521940Y346153D01*
X521965Y346254D01*
X521995Y346353D01*
X521995Y346372D01*
X522000Y346392D01*
X521992Y346495D01*
X521989Y346598D01*
X521982Y346617D01*
X521980Y346637D01*
X521940Y346732D01*
X521904Y346829D01*
X521892Y346845D01*
X521884Y346863D01*
X521779Y346994D01*
X192464Y676310D01*
X192385Y676367D01*
X192309Y676429D01*
X192285Y676438D01*
X192264Y676454D01*
X192171Y676482D01*
X192080Y676517D01*
X192054Y676518D01*
X192029Y676526D01*
X191932Y676523D01*
X191834Y676528D01*
X191809Y676520D01*
X191783Y676520D01*
X191691Y676486D01*
X191598Y676459D01*
X191576Y676444D01*
X191552Y676435D01*
X191476Y676374D01*
X191396Y676319D01*
X191380Y676298D01*
X191360Y676281D01*
X191307Y676199D01*
X191249Y676121D01*
X191241Y676097D01*
X191227Y676075D01*
X191203Y675980D01*
X191173Y675888D01*
X191173Y675861D01*
X191167Y675836D01*
X191174Y675739D01*
X191175Y675642D01*
X191184Y675610D01*
X191186Y675591D01*
X191199Y675561D01*
X191222Y675480D01*
X191517Y674769D01*
X191517Y671939D01*
X190434Y669325D01*
X188692Y667583D01*
X188639Y667509D01*
X188579Y667439D01*
X188567Y667409D01*
X188548Y667383D01*
X188521Y667296D01*
X188487Y667211D01*
X188483Y667170D01*
X188476Y667148D01*
X188477Y667116D01*
X188469Y667044D01*
X188469Y367124D01*
X185865Y364520D01*
X148675Y327330D01*
X148606Y327235D01*
X148537Y327142D01*
X148535Y327136D01*
X148531Y327131D01*
X148497Y327019D01*
X148461Y326908D01*
X148461Y326901D01*
X148459Y326895D01*
X148462Y326779D01*
X148463Y326662D01*
X148465Y326655D01*
X148465Y326650D01*
X148472Y326632D01*
X148510Y326501D01*
X148781Y325846D01*
X148781Y309154D01*
X147398Y305816D01*
X144844Y303262D01*
X141506Y301879D01*
X137894Y301879D01*
X134556Y303262D01*
X132002Y305816D01*
X130619Y309154D01*
X130619Y325846D01*
X132002Y329184D01*
X134556Y331738D01*
X137894Y333121D01*
X141506Y333121D01*
X142070Y332887D01*
X142184Y332860D01*
X142297Y332832D01*
X142304Y332832D01*
X142310Y332831D01*
X142426Y332842D01*
X142542Y332851D01*
X142548Y332853D01*
X142554Y332854D01*
X142662Y332902D01*
X142769Y332947D01*
X142775Y332952D01*
X142779Y332954D01*
X142793Y332967D01*
X142900Y333052D01*
X180116Y370269D01*
X180169Y370343D01*
X180229Y370412D01*
X180241Y370442D01*
X180260Y370468D01*
X180287Y370555D01*
X180321Y370640D01*
X180325Y370681D01*
X180332Y370704D01*
X180331Y370736D01*
X180339Y370807D01*
X180339Y667044D01*
X180325Y667135D01*
X180317Y667225D01*
X180305Y667255D01*
X180300Y667287D01*
X180257Y667368D01*
X180221Y667452D01*
X180195Y667484D01*
X180184Y667505D01*
X180161Y667527D01*
X180116Y667583D01*
X178374Y669325D01*
X177291Y671939D01*
X177291Y674769D01*
X178374Y677383D01*
X180375Y679384D01*
X182989Y680467D01*
X185819Y680467D01*
X186530Y680172D01*
X186625Y680150D01*
X186718Y680121D01*
X186745Y680122D01*
X186770Y680116D01*
X186867Y680125D01*
X186964Y680127D01*
X186989Y680136D01*
X187015Y680139D01*
X187104Y680178D01*
X187195Y680212D01*
X187216Y680228D01*
X187240Y680239D01*
X187311Y680305D01*
X187387Y680366D01*
X187401Y680388D01*
X187421Y680405D01*
X187468Y680490D01*
X187520Y680572D01*
X187527Y680598D01*
X187539Y680621D01*
X187557Y680717D01*
X187580Y680811D01*
X187578Y680837D01*
X187583Y680863D01*
X187569Y680959D01*
X187561Y681056D01*
X187551Y681080D01*
X187547Y681106D01*
X187503Y681193D01*
X187465Y681283D01*
X187445Y681308D01*
X187436Y681325D01*
X187412Y681349D01*
X187360Y681414D01*
X178846Y689927D01*
X178788Y689969D01*
X178736Y690019D01*
X178689Y690041D01*
X178647Y690071D01*
X178578Y690092D01*
X178513Y690122D01*
X178461Y690128D01*
X178411Y690143D01*
X178340Y690141D01*
X178269Y690149D01*
X178218Y690138D01*
X178166Y690137D01*
X178098Y690112D01*
X178028Y690097D01*
X177983Y690070D01*
X177935Y690052D01*
X177879Y690008D01*
X177817Y689971D01*
X177783Y689931D01*
X177743Y689899D01*
X177704Y689838D01*
X177657Y689784D01*
X177638Y689736D01*
X177610Y689692D01*
X177592Y689622D01*
X177565Y689556D01*
X177557Y689484D01*
X177549Y689453D01*
X177551Y689430D01*
X177547Y689389D01*
X177547Y688703D01*
X176464Y686089D01*
X174722Y684347D01*
X174669Y684273D01*
X174609Y684203D01*
X174597Y684173D01*
X174578Y684147D01*
X174551Y684060D01*
X174517Y683975D01*
X174513Y683934D01*
X174506Y683912D01*
X174507Y683880D01*
X174499Y683808D01*
X174499Y378300D01*
X123349Y327151D01*
X123281Y327056D01*
X123211Y326962D01*
X123209Y326956D01*
X123206Y326951D01*
X123171Y326840D01*
X123135Y326728D01*
X123135Y326722D01*
X123133Y326716D01*
X123136Y326599D01*
X123137Y326482D01*
X123139Y326475D01*
X123140Y326470D01*
X123146Y326452D01*
X123184Y326321D01*
X123381Y325846D01*
X123381Y309154D01*
X121998Y305816D01*
X119444Y303262D01*
X116106Y301879D01*
X112494Y301879D01*
X109156Y303262D01*
X106602Y305816D01*
X105219Y309154D01*
X105219Y325846D01*
X106602Y329184D01*
X109156Y331738D01*
X112494Y333121D01*
X116106Y333121D01*
X116850Y332813D01*
X116964Y332786D01*
X117077Y332758D01*
X117083Y332758D01*
X117089Y332757D01*
X117206Y332768D01*
X117322Y332777D01*
X117328Y332779D01*
X117334Y332780D01*
X117441Y332827D01*
X117548Y332873D01*
X117554Y332878D01*
X117559Y332880D01*
X117573Y332892D01*
X117679Y332978D01*
X166146Y381445D01*
X166199Y381519D01*
X166259Y381588D01*
X166271Y381618D01*
X166290Y381644D01*
X166317Y381731D01*
X166351Y381816D01*
X166355Y381857D01*
X166362Y381880D01*
X166361Y381912D01*
X166369Y381983D01*
X166369Y683808D01*
X166355Y683899D01*
X166347Y683989D01*
X166335Y684019D01*
X166330Y684051D01*
X166287Y684132D01*
X166251Y684216D01*
X166225Y684248D01*
X166214Y684269D01*
X166191Y684291D01*
X166146Y684347D01*
X164404Y686089D01*
X163321Y688703D01*
X163321Y691533D01*
X164404Y694147D01*
X166405Y696148D01*
X169019Y697231D01*
X169705Y697231D01*
X169776Y697242D01*
X169848Y697244D01*
X169896Y697262D01*
X169948Y697270D01*
X170011Y697304D01*
X170079Y697329D01*
X170119Y697361D01*
X170165Y697386D01*
X170215Y697438D01*
X170271Y697482D01*
X170299Y697526D01*
X170335Y697564D01*
X170365Y697629D01*
X170404Y697689D01*
X170416Y697740D01*
X170438Y697787D01*
X170446Y697858D01*
X170464Y697928D01*
X170460Y697980D01*
X170465Y698031D01*
X170450Y698102D01*
X170444Y698173D01*
X170424Y698221D01*
X170413Y698272D01*
X170376Y698333D01*
X170348Y698399D01*
X170303Y698455D01*
X170287Y698483D01*
X170269Y698498D01*
X170243Y698530D01*
X143617Y725156D01*
X143543Y725209D01*
X143474Y725269D01*
X143444Y725281D01*
X143418Y725300D01*
X143331Y725327D01*
X143246Y725361D01*
X143205Y725365D01*
X143182Y725372D01*
X143150Y725371D01*
X143079Y725379D01*
X141694Y725379D01*
X138356Y726762D01*
X135802Y729316D01*
X134419Y732654D01*
X134419Y749346D01*
X135802Y752684D01*
X138356Y755238D01*
X141694Y756621D01*
X145306Y756621D01*
X148644Y755238D01*
X151198Y752684D01*
X152581Y749346D01*
X152581Y732654D01*
X151321Y729614D01*
X151295Y729500D01*
X151266Y729386D01*
X151267Y729380D01*
X151265Y729374D01*
X151276Y729257D01*
X151285Y729141D01*
X151288Y729135D01*
X151288Y729129D01*
X151336Y729022D01*
X151382Y728915D01*
X151386Y728909D01*
X151388Y728904D01*
X151401Y728891D01*
X151486Y728784D01*
X402306Y477965D01*
X402364Y477923D01*
X402416Y477873D01*
X402463Y477851D01*
X402505Y477821D01*
X402574Y477800D01*
X402639Y477770D01*
X402691Y477764D01*
X402741Y477749D01*
X402812Y477751D01*
X402883Y477743D01*
X402934Y477754D01*
X402986Y477755D01*
X403054Y477780D01*
X403124Y477795D01*
X403168Y477822D01*
X403217Y477840D01*
X403273Y477884D01*
X403335Y477921D01*
X403369Y477961D01*
X403409Y477993D01*
X403448Y478054D01*
X403495Y478108D01*
X403514Y478156D01*
X403542Y478200D01*
X403560Y478270D01*
X403587Y478336D01*
X403595Y478408D01*
X403603Y478439D01*
X403601Y478462D01*
X403605Y478503D01*
X403605Y479189D01*
X404688Y481803D01*
X406689Y483804D01*
X409303Y484887D01*
X411480Y484887D01*
X411500Y484890D01*
X411519Y484888D01*
X411621Y484910D01*
X411723Y484926D01*
X411740Y484936D01*
X411760Y484940D01*
X411849Y484993D01*
X411940Y485042D01*
X411954Y485056D01*
X411971Y485066D01*
X412038Y485145D01*
X412110Y485220D01*
X412118Y485238D01*
X412131Y485253D01*
X412170Y485349D01*
X412213Y485443D01*
X412215Y485463D01*
X412223Y485481D01*
X412241Y485648D01*
X412241Y725330D01*
X415176Y728265D01*
X415188Y728281D01*
X415204Y728294D01*
X415260Y728381D01*
X415320Y728465D01*
X415326Y728484D01*
X415337Y728501D01*
X415362Y728601D01*
X415392Y728700D01*
X415392Y728720D01*
X415397Y728739D01*
X415389Y728842D01*
X415386Y728946D01*
X415379Y728964D01*
X415378Y728984D01*
X415337Y729079D01*
X415302Y729177D01*
X415289Y729192D01*
X415281Y729211D01*
X415207Y729303D01*
X413819Y732654D01*
X413819Y749346D01*
X415202Y752684D01*
X417756Y755238D01*
X421094Y756621D01*
X424706Y756621D01*
X428044Y755238D01*
X430598Y752684D01*
X431981Y749346D01*
X431981Y732654D01*
X430598Y729316D01*
X428044Y726762D01*
X424706Y725379D01*
X424103Y725379D01*
X424013Y725365D01*
X423922Y725357D01*
X423892Y725345D01*
X423860Y725340D01*
X423780Y725297D01*
X423696Y725261D01*
X423664Y725235D01*
X423643Y725224D01*
X423621Y725201D01*
X423565Y725156D01*
X420594Y722185D01*
X420541Y722111D01*
X420481Y722042D01*
X420469Y722012D01*
X420450Y721986D01*
X420423Y721899D01*
X420389Y721814D01*
X420385Y721773D01*
X420378Y721750D01*
X420379Y721718D01*
X420371Y721647D01*
X420371Y710151D01*
X420382Y710080D01*
X420384Y710008D01*
X420402Y709960D01*
X420410Y709908D01*
X420444Y709845D01*
X420469Y709777D01*
X420501Y709737D01*
X420526Y709691D01*
X420578Y709641D01*
X420622Y709585D01*
X420666Y709557D01*
X420704Y709521D01*
X420769Y709491D01*
X420829Y709452D01*
X420880Y709440D01*
X420927Y709418D01*
X420998Y709410D01*
X421068Y709392D01*
X421120Y709396D01*
X421171Y709391D01*
X421242Y709406D01*
X421313Y709412D01*
X421361Y709432D01*
X421412Y709443D01*
X421473Y709480D01*
X421539Y709508D01*
X421595Y709553D01*
X421623Y709569D01*
X421638Y709587D01*
X421670Y709613D01*
X440468Y728411D01*
X440536Y728505D01*
X440606Y728599D01*
X440608Y728605D01*
X440612Y728610D01*
X440646Y728721D01*
X440682Y728833D01*
X440682Y728839D01*
X440684Y728845D01*
X440681Y728962D01*
X440680Y729079D01*
X440678Y729086D01*
X440678Y729091D01*
X440671Y729109D01*
X440633Y729240D01*
X439219Y732654D01*
X439219Y749346D01*
X440602Y752684D01*
X443156Y755238D01*
X446494Y756621D01*
X450106Y756621D01*
X453444Y755238D01*
X455998Y752684D01*
X457381Y749346D01*
X457381Y732654D01*
X455998Y729316D01*
X453444Y726762D01*
X450106Y725379D01*
X449249Y725379D01*
X449159Y725365D01*
X449068Y725357D01*
X449038Y725345D01*
X449006Y725340D01*
X448926Y725297D01*
X448842Y725261D01*
X448810Y725235D01*
X448789Y725224D01*
X448767Y725201D01*
X448711Y725156D01*
X426182Y702627D01*
X426129Y702553D01*
X426069Y702484D01*
X426057Y702454D01*
X426038Y702428D01*
X426011Y702341D01*
X425977Y702256D01*
X425973Y702215D01*
X425966Y702192D01*
X425967Y702160D01*
X425959Y702089D01*
X425959Y478496D01*
X425973Y478405D01*
X425981Y478315D01*
X425993Y478285D01*
X425998Y478253D01*
X426041Y478172D01*
X426077Y478088D01*
X426103Y478056D01*
X426114Y478035D01*
X426137Y478013D01*
X426182Y477957D01*
X427924Y476215D01*
X429007Y473601D01*
X429007Y470771D01*
X427924Y468157D01*
X425923Y466156D01*
X423309Y465073D01*
X420479Y465073D01*
X417865Y466156D01*
X415864Y468157D01*
X414724Y470910D01*
X414713Y470927D01*
X414708Y470947D01*
X414649Y471032D01*
X414594Y471120D01*
X414579Y471132D01*
X414567Y471149D01*
X414485Y471210D01*
X414405Y471276D01*
X414386Y471284D01*
X414370Y471295D01*
X414272Y471327D01*
X414175Y471365D01*
X414155Y471365D01*
X414136Y471372D01*
X414032Y471371D01*
X413929Y471375D01*
X413910Y471369D01*
X413890Y471369D01*
X413729Y471322D01*
X412133Y470661D01*
X411447Y470661D01*
X411376Y470650D01*
X411304Y470648D01*
X411256Y470630D01*
X411204Y470622D01*
X411141Y470588D01*
X411073Y470563D01*
X411033Y470531D01*
X410987Y470506D01*
X410937Y470454D01*
X410881Y470410D01*
X410853Y470366D01*
X410817Y470328D01*
X410787Y470263D01*
X410748Y470203D01*
X410736Y470152D01*
X410714Y470105D01*
X410706Y470034D01*
X410688Y469964D01*
X410692Y469912D01*
X410687Y469861D01*
X410702Y469790D01*
X410708Y469719D01*
X410728Y469671D01*
X410739Y469620D01*
X410776Y469559D01*
X410804Y469493D01*
X410849Y469437D01*
X410865Y469409D01*
X410883Y469394D01*
X410909Y469362D01*
X532354Y347917D01*
X533624Y346647D01*
X533682Y346605D01*
X533734Y346555D01*
X533781Y346533D01*
X533823Y346503D01*
X533892Y346482D01*
X533957Y346452D01*
X534009Y346446D01*
X534059Y346431D01*
X534130Y346433D01*
X534201Y346425D01*
X534252Y346436D01*
X534304Y346437D01*
X534372Y346462D01*
X534442Y346477D01*
X534487Y346504D01*
X534535Y346522D01*
X534591Y346566D01*
X534653Y346603D01*
X534687Y346643D01*
X534727Y346675D01*
X534766Y346736D01*
X534813Y346790D01*
X534832Y346838D01*
X534860Y346882D01*
X534878Y346952D01*
X534905Y347018D01*
X534913Y347089D01*
X534921Y347121D01*
X534919Y347144D01*
X534923Y347185D01*
X534923Y347871D01*
X536006Y350485D01*
X538007Y352486D01*
X540621Y353569D01*
X543451Y353569D01*
X546065Y352486D01*
X547807Y350744D01*
X547881Y350691D01*
X547951Y350631D01*
X547981Y350619D01*
X548007Y350600D01*
X548094Y350573D01*
X548179Y350539D01*
X548220Y350535D01*
X548242Y350528D01*
X548274Y350529D01*
X548345Y350521D01*
X553720Y350521D01*
X553740Y350524D01*
X553759Y350522D01*
X553861Y350544D01*
X553963Y350560D01*
X553980Y350570D01*
X554000Y350574D01*
X554089Y350627D01*
X554180Y350676D01*
X554194Y350690D01*
X554211Y350700D01*
X554278Y350779D01*
X554350Y350854D01*
X554358Y350872D01*
X554371Y350887D01*
X554410Y350983D01*
X554453Y351077D01*
X554455Y351097D01*
X554463Y351115D01*
X554481Y351282D01*
X554481Y353459D01*
X555564Y356073D01*
X557565Y358074D01*
X560179Y359157D01*
X563009Y359157D01*
X565623Y358074D01*
X567624Y356073D01*
X568707Y353459D01*
X568707Y351282D01*
X568710Y351262D01*
X568708Y351243D01*
X568730Y351141D01*
X568746Y351039D01*
X568756Y351022D01*
X568760Y351002D01*
X568813Y350913D01*
X568862Y350822D01*
X568876Y350808D01*
X568886Y350791D01*
X568965Y350724D01*
X569040Y350652D01*
X569058Y350644D01*
X569073Y350631D01*
X569169Y350592D01*
X569263Y350549D01*
X569283Y350547D01*
X569301Y350539D01*
X569468Y350521D01*
X668561Y350521D01*
X668651Y350535D01*
X668742Y350543D01*
X668772Y350555D01*
X668804Y350560D01*
X668884Y350603D01*
X668968Y350639D01*
X669000Y350665D01*
X669021Y350676D01*
X669043Y350699D01*
X669099Y350744D01*
X671670Y353315D01*
X716948Y353315D01*
X736093Y334170D01*
X736093Y312313D01*
X736103Y312249D01*
X736104Y312183D01*
X736127Y312103D01*
X736132Y312071D01*
X736142Y312054D01*
X736151Y312022D01*
X736347Y311549D01*
X736347Y310863D01*
X736358Y310792D01*
X736360Y310720D01*
X736378Y310671D01*
X736386Y310620D01*
X736420Y310557D01*
X736445Y310489D01*
X736477Y310449D01*
X736502Y310403D01*
X736553Y310353D01*
X736598Y310297D01*
X736642Y310269D01*
X736680Y310233D01*
X736745Y310203D01*
X736805Y310164D01*
X736856Y310152D01*
X736903Y310130D01*
X736974Y310122D01*
X737044Y310104D01*
X737096Y310108D01*
X737147Y310103D01*
X737218Y310118D01*
X737289Y310124D01*
X737337Y310144D01*
X737388Y310155D01*
X737449Y310192D01*
X737515Y310220D01*
X737571Y310265D01*
X737599Y310281D01*
X737614Y310299D01*
X737646Y310325D01*
X782129Y354808D01*
X782171Y354866D01*
X782221Y354918D01*
X782243Y354965D01*
X782273Y355007D01*
X782294Y355076D01*
X782324Y355141D01*
X782330Y355193D01*
X782345Y355243D01*
X782343Y355314D01*
X782351Y355385D01*
X782340Y355436D01*
X782339Y355488D01*
X782314Y355556D01*
X782299Y355626D01*
X782272Y355670D01*
X782254Y355719D01*
X782210Y355775D01*
X782173Y355837D01*
X782133Y355871D01*
X782101Y355911D01*
X782040Y355950D01*
X781986Y355997D01*
X781938Y356016D01*
X781894Y356044D01*
X781824Y356062D01*
X781758Y356089D01*
X781686Y356097D01*
X781655Y356105D01*
X781632Y356103D01*
X781591Y356107D01*
X780905Y356107D01*
X778291Y357190D01*
X776290Y359191D01*
X775207Y361805D01*
X775207Y364635D01*
X776290Y367249D01*
X778032Y368991D01*
X778085Y369065D01*
X778145Y369135D01*
X778157Y369165D01*
X778176Y369191D01*
X778203Y369278D01*
X778237Y369363D01*
X778241Y369404D01*
X778248Y369426D01*
X778247Y369458D01*
X778255Y369530D01*
X778255Y419895D01*
X778241Y419985D01*
X778233Y420076D01*
X778221Y420106D01*
X778216Y420138D01*
X778173Y420218D01*
X778137Y420302D01*
X778111Y420334D01*
X778100Y420355D01*
X778077Y420377D01*
X778032Y420433D01*
X473309Y725156D01*
X473235Y725209D01*
X473166Y725269D01*
X473136Y725281D01*
X473110Y725300D01*
X473023Y725327D01*
X472938Y725361D01*
X472897Y725365D01*
X472875Y725372D01*
X472842Y725371D01*
X472771Y725379D01*
X471894Y725379D01*
X468556Y726762D01*
X466002Y729316D01*
X464619Y732654D01*
X464619Y749346D01*
X466002Y752684D01*
X468556Y755238D01*
X471894Y756621D01*
X475506Y756621D01*
X478844Y755238D01*
X481398Y752684D01*
X482781Y749346D01*
X482781Y732654D01*
X481373Y729254D01*
X481364Y729217D01*
X481358Y729204D01*
X481355Y729178D01*
X481346Y729141D01*
X481317Y729027D01*
X481318Y729021D01*
X481316Y729015D01*
X481327Y728898D01*
X481337Y728782D01*
X481339Y728776D01*
X481340Y728770D01*
X481387Y728662D01*
X481433Y728556D01*
X481438Y728550D01*
X481440Y728545D01*
X481452Y728531D01*
X481538Y728425D01*
X783781Y426182D01*
X786385Y423578D01*
X786385Y369530D01*
X786399Y369439D01*
X786407Y369349D01*
X786419Y369319D01*
X786424Y369287D01*
X786467Y369206D01*
X786503Y369122D01*
X786529Y369090D01*
X786540Y369069D01*
X786563Y369047D01*
X786608Y368991D01*
X788350Y367249D01*
X789433Y364635D01*
X789433Y363949D01*
X789444Y363878D01*
X789446Y363806D01*
X789464Y363758D01*
X789472Y363706D01*
X789506Y363643D01*
X789531Y363575D01*
X789563Y363535D01*
X789588Y363489D01*
X789640Y363439D01*
X789684Y363383D01*
X789728Y363355D01*
X789766Y363319D01*
X789831Y363289D01*
X789891Y363250D01*
X789942Y363238D01*
X789989Y363216D01*
X790060Y363208D01*
X790130Y363190D01*
X790182Y363194D01*
X790233Y363189D01*
X790304Y363204D01*
X790375Y363210D01*
X790423Y363230D01*
X790474Y363241D01*
X790535Y363278D01*
X790601Y363306D01*
X790657Y363351D01*
X790685Y363367D01*
X790700Y363385D01*
X790732Y363411D01*
X839500Y412179D01*
X839553Y412253D01*
X839613Y412322D01*
X839625Y412352D01*
X839644Y412378D01*
X839671Y412465D01*
X839705Y412550D01*
X839709Y412591D01*
X839716Y412614D01*
X839715Y412646D01*
X839723Y412717D01*
X839723Y559595D01*
X839709Y559685D01*
X839701Y559776D01*
X839689Y559806D01*
X839684Y559838D01*
X839641Y559918D01*
X839605Y560002D01*
X839579Y560034D01*
X839568Y560055D01*
X839545Y560077D01*
X839500Y560133D01*
X663511Y736122D01*
X663437Y736175D01*
X663368Y736235D01*
X663338Y736247D01*
X663312Y736266D01*
X663225Y736293D01*
X663140Y736327D01*
X663099Y736331D01*
X663076Y736338D01*
X663044Y736337D01*
X662973Y736345D01*
X508942Y736345D01*
X508922Y736342D01*
X508903Y736344D01*
X508801Y736322D01*
X508699Y736306D01*
X508682Y736296D01*
X508662Y736292D01*
X508573Y736239D01*
X508482Y736190D01*
X508468Y736176D01*
X508451Y736166D01*
X508384Y736087D01*
X508312Y736012D01*
X508304Y735994D01*
X508291Y735979D01*
X508252Y735883D01*
X508209Y735789D01*
X508207Y735769D01*
X508199Y735751D01*
X508181Y735584D01*
X508181Y732654D01*
X506798Y729316D01*
X504244Y726762D01*
X500906Y725379D01*
X497294Y725379D01*
X493956Y726762D01*
X491402Y729316D01*
X490019Y732654D01*
X490019Y749346D01*
X491402Y752684D01*
X491802Y753085D01*
X491814Y753101D01*
X491830Y753113D01*
X491886Y753200D01*
X491946Y753284D01*
X491952Y753303D01*
X491963Y753320D01*
X491988Y753420D01*
X492018Y753519D01*
X492018Y753539D01*
X492023Y753559D01*
X492015Y753662D01*
X492012Y753765D01*
X492005Y753784D01*
X492004Y753804D01*
X491963Y753899D01*
X491928Y753996D01*
X491915Y754012D01*
X491907Y754030D01*
X491802Y754161D01*
X487489Y758474D01*
X487415Y758527D01*
X487346Y758587D01*
X487316Y758599D01*
X487290Y758618D01*
X487202Y758645D01*
X487118Y758679D01*
X487077Y758683D01*
X487054Y758690D01*
X487022Y758689D01*
X486951Y758697D01*
X215613Y758697D01*
X215542Y758686D01*
X215470Y758684D01*
X215422Y758666D01*
X215370Y758658D01*
X215307Y758624D01*
X215239Y758599D01*
X215199Y758567D01*
X215153Y758542D01*
X215103Y758490D01*
X215047Y758446D01*
X215019Y758402D01*
X214983Y758364D01*
X214953Y758299D01*
X214914Y758239D01*
X214902Y758188D01*
X214880Y758141D01*
X214872Y758070D01*
X214854Y758000D01*
X214858Y757948D01*
X214853Y757897D01*
X214868Y757826D01*
X214874Y757755D01*
X214894Y757707D01*
X214905Y757656D01*
X214942Y757595D01*
X214970Y757529D01*
X215015Y757473D01*
X215031Y757445D01*
X215039Y757438D01*
X215041Y757435D01*
X215052Y757425D01*
X215075Y757398D01*
X216090Y756382D01*
X216185Y756314D01*
X216279Y756244D01*
X216285Y756242D01*
X216290Y756239D01*
X216401Y756204D01*
X216513Y756168D01*
X216519Y756168D01*
X216525Y756166D01*
X216642Y756169D01*
X216759Y756171D01*
X216766Y756173D01*
X216771Y756173D01*
X216788Y756179D01*
X216920Y756217D01*
X217894Y756621D01*
X221506Y756621D01*
X224844Y755238D01*
X227398Y752684D01*
X228781Y749346D01*
X228781Y732654D01*
X227398Y729316D01*
X224844Y726762D01*
X221506Y725379D01*
X217894Y725379D01*
X214556Y726762D01*
X212002Y729316D01*
X210619Y732654D01*
X210619Y749346D01*
X210720Y749591D01*
X210747Y749704D01*
X210776Y749818D01*
X210775Y749824D01*
X210777Y749830D01*
X210766Y749946D01*
X210757Y750063D01*
X210754Y750069D01*
X210754Y750075D01*
X210706Y750182D01*
X210660Y750289D01*
X210656Y750295D01*
X210654Y750300D01*
X210641Y750313D01*
X210555Y750420D01*
X205295Y755680D01*
X202501Y758474D01*
X202427Y758527D01*
X202358Y758587D01*
X202328Y758599D01*
X202302Y758618D01*
X202215Y758645D01*
X202130Y758679D01*
X202089Y758683D01*
X202066Y758690D01*
X202034Y758689D01*
X201963Y758697D01*
X138905Y758697D01*
X138815Y758683D01*
X138724Y758675D01*
X138694Y758663D01*
X138662Y758658D01*
X138582Y758615D01*
X138498Y758579D01*
X138466Y758553D01*
X138445Y758542D01*
X138436Y758533D01*
X138435Y758533D01*
X138421Y758517D01*
X138367Y758474D01*
X127404Y747511D01*
X127351Y747437D01*
X127291Y747368D01*
X127279Y747338D01*
X127260Y747312D01*
X127233Y747225D01*
X127199Y747140D01*
X127195Y747099D01*
X127188Y747076D01*
X127189Y747044D01*
X127181Y746973D01*
X127181Y732654D01*
X125798Y729316D01*
X123244Y726762D01*
X119906Y725379D01*
X116294Y725379D01*
X112956Y726762D01*
X110402Y729316D01*
X109019Y732654D01*
X109019Y749346D01*
X110402Y752684D01*
X112956Y755238D01*
X116294Y756621D01*
X119906Y756621D01*
X123050Y755319D01*
X123163Y755292D01*
X123277Y755263D01*
X123283Y755264D01*
X123289Y755263D01*
X123406Y755274D01*
X123522Y755283D01*
X123528Y755285D01*
X123534Y755286D01*
X123642Y755333D01*
X123748Y755379D01*
X123754Y755384D01*
X123759Y755386D01*
X123773Y755398D01*
X123879Y755484D01*
X135222Y766827D01*
X185207Y766827D01*
X185277Y766838D01*
X185349Y766840D01*
X185398Y766858D01*
X185449Y766866D01*
X185513Y766900D01*
X185580Y766925D01*
X185621Y766957D01*
X185667Y766982D01*
X185716Y767034D01*
X185772Y767078D01*
X185800Y767122D01*
X185836Y767160D01*
X185866Y767225D01*
X185905Y767285D01*
X185918Y767336D01*
X185940Y767383D01*
X185948Y767454D01*
X185965Y767524D01*
X185961Y767576D01*
X185967Y767627D01*
X185952Y767698D01*
X185946Y767769D01*
X185926Y767817D01*
X185915Y767868D01*
X185878Y767929D01*
X185850Y767995D01*
X185805Y768051D01*
X185788Y768079D01*
X185771Y768094D01*
X185745Y768126D01*
X183962Y769909D01*
X182879Y772523D01*
X182879Y775353D01*
X183962Y777967D01*
X185963Y779968D01*
X188577Y781051D01*
X191407Y781051D01*
X194021Y779968D01*
X196022Y777967D01*
X197105Y775353D01*
X197105Y773176D01*
X197108Y773156D01*
X197106Y773137D01*
X197128Y773035D01*
X197144Y772933D01*
X197154Y772916D01*
X197158Y772896D01*
X197211Y772807D01*
X197260Y772716D01*
X197274Y772702D01*
X197284Y772685D01*
X197363Y772618D01*
X197438Y772546D01*
X197456Y772538D01*
X197471Y772525D01*
X197567Y772486D01*
X197661Y772443D01*
X197681Y772441D01*
X197699Y772433D01*
X197866Y772415D01*
X742094Y772415D01*
X889953Y624556D01*
X890027Y624503D01*
X890096Y624443D01*
X890126Y624431D01*
X890152Y624412D01*
X890239Y624385D01*
X890324Y624351D01*
X890365Y624347D01*
X890388Y624340D01*
X890420Y624341D01*
X890491Y624333D01*
X898558Y624333D01*
X910567Y612323D01*
X910661Y612256D01*
X910756Y612185D01*
X910762Y612183D01*
X910767Y612180D01*
X910878Y612146D01*
X910990Y612109D01*
X910996Y612109D01*
X911002Y612107D01*
X911119Y612110D01*
X911236Y612111D01*
X911243Y612114D01*
X911248Y612114D01*
X911265Y612120D01*
X911397Y612158D01*
X912581Y612649D01*
X916219Y612649D01*
X919580Y611257D01*
X922153Y608684D01*
X923545Y605323D01*
X923545Y588477D01*
X922153Y585116D01*
X919580Y582543D01*
X916219Y581151D01*
X912581Y581151D01*
X909220Y582543D01*
X906647Y585116D01*
X905255Y588477D01*
X905255Y605323D01*
X905299Y605430D01*
X905308Y605465D01*
X905311Y605471D01*
X905312Y605484D01*
X905326Y605543D01*
X905355Y605657D01*
X905354Y605663D01*
X905356Y605669D01*
X905345Y605785D01*
X905336Y605902D01*
X905333Y605908D01*
X905333Y605914D01*
X905285Y606021D01*
X905239Y606128D01*
X905235Y606134D01*
X905233Y606139D01*
X905220Y606152D01*
X905134Y606259D01*
X895413Y615980D01*
X895339Y616033D01*
X895270Y616093D01*
X895240Y616105D01*
X895214Y616124D01*
X895127Y616151D01*
X895042Y616185D01*
X895001Y616189D01*
X894978Y616196D01*
X894946Y616195D01*
X894875Y616203D01*
X886808Y616203D01*
X738949Y764062D01*
X738875Y764115D01*
X738806Y764175D01*
X738776Y764187D01*
X738750Y764206D01*
X738663Y764233D01*
X738578Y764267D01*
X738537Y764271D01*
X738514Y764278D01*
X738482Y764277D01*
X738411Y764285D01*
X495013Y764285D01*
X494942Y764274D01*
X494870Y764272D01*
X494821Y764254D01*
X494770Y764246D01*
X494707Y764212D01*
X494639Y764187D01*
X494599Y764155D01*
X494553Y764130D01*
X494503Y764079D01*
X494447Y764034D01*
X494419Y763990D01*
X494383Y763952D01*
X494353Y763887D01*
X494314Y763827D01*
X494302Y763776D01*
X494280Y763729D01*
X494272Y763658D01*
X494254Y763588D01*
X494258Y763536D01*
X494253Y763485D01*
X494268Y763414D01*
X494274Y763343D01*
X494294Y763295D01*
X494305Y763244D01*
X494342Y763183D01*
X494370Y763117D01*
X494415Y763061D01*
X494431Y763033D01*
X494449Y763018D01*
X494475Y762986D01*
X500685Y756775D01*
X500739Y756737D01*
X500785Y756691D01*
X500859Y756651D01*
X500885Y756631D01*
X500904Y756626D01*
X500932Y756610D01*
X504244Y755238D01*
X506798Y752684D01*
X508181Y749346D01*
X508181Y745236D01*
X508184Y745216D01*
X508182Y745197D01*
X508204Y745095D01*
X508220Y744993D01*
X508230Y744976D01*
X508234Y744956D01*
X508287Y744867D01*
X508336Y744776D01*
X508350Y744762D01*
X508360Y744745D01*
X508439Y744678D01*
X508514Y744606D01*
X508532Y744598D01*
X508547Y744585D01*
X508643Y744546D01*
X508737Y744503D01*
X508757Y744501D01*
X508775Y744493D01*
X508942Y744475D01*
X666656Y744475D01*
X843250Y567881D01*
X843266Y567869D01*
X843278Y567853D01*
X843366Y567797D01*
X843449Y567737D01*
X843468Y567731D01*
X843485Y567720D01*
X843586Y567695D01*
X843685Y567665D01*
X843704Y567665D01*
X843724Y567660D01*
X843827Y567668D01*
X843930Y567671D01*
X843949Y567678D01*
X843969Y567680D01*
X844064Y567720D01*
X844161Y567756D01*
X844177Y567768D01*
X844195Y567776D01*
X844326Y567881D01*
X875632Y599187D01*
X879094Y599187D01*
X879114Y599190D01*
X879133Y599188D01*
X879235Y599210D01*
X879337Y599226D01*
X879354Y599236D01*
X879374Y599240D01*
X879463Y599293D01*
X879554Y599342D01*
X879568Y599356D01*
X879585Y599366D01*
X879652Y599445D01*
X879724Y599520D01*
X879732Y599538D01*
X879745Y599553D01*
X879784Y599649D01*
X879827Y599743D01*
X879829Y599763D01*
X879837Y599781D01*
X879855Y599948D01*
X879855Y605323D01*
X881247Y608684D01*
X883820Y611257D01*
X887181Y612649D01*
X890819Y612649D01*
X894180Y611257D01*
X896753Y608684D01*
X898145Y605323D01*
X898145Y588477D01*
X896753Y585116D01*
X894180Y582543D01*
X890819Y581151D01*
X887181Y581151D01*
X883820Y582543D01*
X881247Y585116D01*
X879855Y588477D01*
X879855Y590075D01*
X879844Y590146D01*
X879842Y590218D01*
X879824Y590267D01*
X879816Y590318D01*
X879782Y590381D01*
X879757Y590449D01*
X879725Y590489D01*
X879700Y590535D01*
X879649Y590585D01*
X879604Y590641D01*
X879560Y590669D01*
X879522Y590705D01*
X879457Y590735D01*
X879397Y590774D01*
X879346Y590786D01*
X879299Y590808D01*
X879228Y590816D01*
X879158Y590834D01*
X879106Y590830D01*
X879055Y590835D01*
X878984Y590820D01*
X878913Y590814D01*
X878865Y590794D01*
X878814Y590783D01*
X878753Y590746D01*
X878687Y590718D01*
X878631Y590673D01*
X878603Y590657D01*
X878588Y590639D01*
X878556Y590613D01*
X848076Y560133D01*
X848023Y560059D01*
X847963Y559990D01*
X847951Y559960D01*
X847932Y559934D01*
X847905Y559847D01*
X847871Y559762D01*
X847867Y559721D01*
X847860Y559699D01*
X847861Y559666D01*
X847853Y559595D01*
X847853Y506189D01*
X847864Y506118D01*
X847866Y506046D01*
X847884Y505997D01*
X847892Y505946D01*
X847926Y505883D01*
X847951Y505815D01*
X847983Y505775D01*
X848008Y505729D01*
X848059Y505679D01*
X848104Y505623D01*
X848148Y505595D01*
X848186Y505559D01*
X848251Y505529D01*
X848311Y505490D01*
X848362Y505478D01*
X848409Y505456D01*
X848480Y505448D01*
X848550Y505430D01*
X848602Y505434D01*
X848653Y505429D01*
X848724Y505444D01*
X848795Y505450D01*
X848843Y505470D01*
X848894Y505481D01*
X848955Y505518D01*
X849021Y505546D01*
X849077Y505591D01*
X849105Y505607D01*
X849120Y505625D01*
X849152Y505651D01*
X930683Y587182D01*
X930751Y587276D01*
X930821Y587370D01*
X930823Y587376D01*
X930827Y587381D01*
X930861Y587493D01*
X930897Y587604D01*
X930897Y587610D01*
X930899Y587616D01*
X930896Y587733D01*
X930895Y587850D01*
X930893Y587857D01*
X930893Y587862D01*
X930886Y587880D01*
X930848Y588011D01*
X930655Y588477D01*
X930655Y605323D01*
X932047Y608684D01*
X934620Y611257D01*
X937981Y612649D01*
X941619Y612649D01*
X944980Y611257D01*
X947553Y608684D01*
X948945Y605323D01*
X948945Y588477D01*
X947553Y585116D01*
X944980Y582543D01*
X941619Y581151D01*
X937981Y581151D01*
X937156Y581493D01*
X937042Y581520D01*
X936929Y581548D01*
X936923Y581548D01*
X936916Y581549D01*
X936800Y581538D01*
X936684Y581529D01*
X936678Y581527D01*
X936672Y581526D01*
X936564Y581478D01*
X936457Y581433D01*
X936451Y581428D01*
X936447Y581426D01*
X936433Y581413D01*
X936326Y581328D01*
X853664Y498665D01*
X853611Y498591D01*
X853551Y498522D01*
X853539Y498492D01*
X853520Y498466D01*
X853493Y498379D01*
X853459Y498294D01*
X853455Y498253D01*
X853448Y498230D01*
X853449Y498198D01*
X853441Y498127D01*
X853441Y265905D01*
X853452Y265834D01*
X853454Y265762D01*
X853472Y265714D01*
X853480Y265662D01*
X853514Y265599D01*
X853539Y265531D01*
X853571Y265491D01*
X853596Y265445D01*
X853648Y265395D01*
X853692Y265339D01*
X853736Y265311D01*
X853774Y265275D01*
X853839Y265245D01*
X853899Y265206D01*
X853950Y265194D01*
X853997Y265172D01*
X854068Y265164D01*
X854138Y265146D01*
X854190Y265150D01*
X854241Y265145D01*
X854312Y265160D01*
X854383Y265166D01*
X854431Y265186D01*
X854482Y265197D01*
X854543Y265234D01*
X854609Y265262D01*
X854665Y265307D01*
X854693Y265323D01*
X854708Y265341D01*
X854740Y265367D01*
X903254Y313881D01*
X903307Y313955D01*
X903367Y314024D01*
X903379Y314054D01*
X903398Y314080D01*
X903425Y314167D01*
X903459Y314252D01*
X903463Y314293D01*
X903470Y314316D01*
X903469Y314348D01*
X903477Y314419D01*
X903477Y322024D01*
X909876Y328423D01*
X918924Y328423D01*
X925323Y322024D01*
X925323Y312976D01*
X918924Y306577D01*
X909876Y306577D01*
X909200Y307253D01*
X909184Y307265D01*
X909171Y307280D01*
X909084Y307336D01*
X909000Y307397D01*
X908981Y307402D01*
X908964Y307413D01*
X908864Y307438D01*
X908765Y307469D01*
X908745Y307468D01*
X908726Y307473D01*
X908623Y307465D01*
X908519Y307463D01*
X908500Y307456D01*
X908481Y307454D01*
X908386Y307414D01*
X908288Y307378D01*
X908273Y307366D01*
X908254Y307358D01*
X908123Y307253D01*
X848076Y247205D01*
X848023Y247131D01*
X847963Y247062D01*
X847951Y247032D01*
X847932Y247006D01*
X847905Y246919D01*
X847871Y246834D01*
X847867Y246793D01*
X847860Y246770D01*
X847861Y246738D01*
X847853Y246667D01*
X847853Y233012D01*
X834296Y219455D01*
X814164Y219455D01*
X744791Y288828D01*
X744717Y288881D01*
X744648Y288941D01*
X744618Y288953D01*
X744592Y288972D01*
X744505Y288999D01*
X744420Y289033D01*
X744379Y289037D01*
X744356Y289044D01*
X744324Y289043D01*
X744253Y289051D01*
X741789Y289051D01*
X739175Y290134D01*
X737174Y292135D01*
X736091Y294749D01*
X736091Y295435D01*
X736080Y295506D01*
X736078Y295578D01*
X736060Y295627D01*
X736052Y295678D01*
X736018Y295741D01*
X735993Y295809D01*
X735961Y295849D01*
X735936Y295895D01*
X735885Y295945D01*
X735840Y296001D01*
X735796Y296029D01*
X735758Y296065D01*
X735693Y296095D01*
X735633Y296134D01*
X735582Y296146D01*
X735535Y296168D01*
X735464Y296176D01*
X735394Y296194D01*
X735342Y296190D01*
X735291Y296195D01*
X735220Y296180D01*
X735149Y296174D01*
X735101Y296154D01*
X735050Y296143D01*
X734989Y296106D01*
X734923Y296078D01*
X734867Y296033D01*
X734839Y296017D01*
X734824Y295999D01*
X734792Y295973D01*
X718526Y279708D01*
X718514Y279691D01*
X718499Y279679D01*
X718443Y279592D01*
X718382Y279508D01*
X718377Y279489D01*
X718366Y279472D01*
X718341Y279372D01*
X718310Y279273D01*
X718311Y279253D01*
X718306Y279234D01*
X718313Y279144D01*
X718313Y269796D01*
X711914Y263397D01*
X702653Y263397D01*
X702644Y263400D01*
X702624Y263399D01*
X702605Y263404D01*
X702502Y263396D01*
X702398Y263394D01*
X702379Y263387D01*
X702360Y263385D01*
X702265Y263345D01*
X702167Y263309D01*
X702152Y263297D01*
X702133Y263289D01*
X702002Y263184D01*
X700596Y261777D01*
X700584Y261761D01*
X700568Y261749D01*
X700513Y261662D01*
X700452Y261578D01*
X700446Y261558D01*
X700435Y261542D01*
X700410Y261442D01*
X700380Y261342D01*
X700380Y261323D01*
X700375Y261303D01*
X700383Y261200D01*
X700386Y261097D01*
X700393Y261078D01*
X700395Y261058D01*
X700435Y260963D01*
X700471Y260866D01*
X700483Y260850D01*
X700491Y260832D01*
X700596Y260701D01*
X701621Y259675D01*
X701638Y259663D01*
X701650Y259648D01*
X701737Y259592D01*
X701821Y259531D01*
X701840Y259526D01*
X701857Y259515D01*
X701957Y259490D01*
X702056Y259459D01*
X702076Y259460D01*
X702095Y259455D01*
X702198Y259463D01*
X702302Y259465D01*
X702321Y259472D01*
X702341Y259474D01*
X702436Y259514D01*
X702533Y259550D01*
X702549Y259562D01*
X702567Y259570D01*
X702698Y259675D01*
X702866Y259843D01*
X711914Y259843D01*
X718313Y253444D01*
X718313Y244396D01*
X711914Y237997D01*
X711708Y237997D01*
X711688Y237994D01*
X711669Y237996D01*
X711567Y237974D01*
X711465Y237958D01*
X711448Y237948D01*
X711428Y237944D01*
X711339Y237891D01*
X711248Y237842D01*
X711234Y237828D01*
X711217Y237818D01*
X711150Y237739D01*
X711078Y237664D01*
X711070Y237646D01*
X711057Y237631D01*
X711018Y237535D01*
X710975Y237441D01*
X710973Y237421D01*
X710965Y237403D01*
X710947Y237236D01*
X710947Y228346D01*
X710950Y228326D01*
X710948Y228307D01*
X710970Y228205D01*
X710986Y228103D01*
X710996Y228086D01*
X711000Y228066D01*
X711053Y227977D01*
X711102Y227886D01*
X711116Y227872D01*
X711126Y227855D01*
X711205Y227788D01*
X711280Y227716D01*
X711298Y227708D01*
X711313Y227695D01*
X711409Y227656D01*
X711503Y227613D01*
X711523Y227611D01*
X711541Y227603D01*
X711708Y227585D01*
X716948Y227585D01*
X719552Y224981D01*
X805531Y139002D01*
X805547Y138990D01*
X805559Y138974D01*
X805647Y138918D01*
X805730Y138858D01*
X805749Y138852D01*
X805766Y138841D01*
X805867Y138816D01*
X805966Y138786D01*
X805985Y138786D01*
X806005Y138781D01*
X806108Y138789D01*
X806211Y138792D01*
X806230Y138799D01*
X806250Y138801D01*
X806345Y138841D01*
X806442Y138877D01*
X806458Y138889D01*
X806476Y138897D01*
X806607Y139002D01*
X903391Y235785D01*
X903403Y235802D01*
X903418Y235814D01*
X903474Y235901D01*
X903535Y235985D01*
X903540Y236004D01*
X903551Y236021D01*
X903576Y236121D01*
X903607Y236220D01*
X903606Y236240D01*
X903611Y236260D01*
X903603Y236363D01*
X903601Y236466D01*
X903594Y236485D01*
X903592Y236505D01*
X903552Y236600D01*
X903516Y236697D01*
X903504Y236713D01*
X903496Y236731D01*
X903477Y236754D01*
X903477Y245824D01*
X909876Y252223D01*
X918924Y252223D01*
X925323Y245824D01*
X925323Y236776D01*
X918924Y230377D01*
X909795Y230377D01*
X909705Y230363D01*
X909614Y230355D01*
X909584Y230343D01*
X909552Y230338D01*
X909472Y230295D01*
X909388Y230259D01*
X909356Y230233D01*
X909335Y230222D01*
X909313Y230199D01*
X909257Y230154D01*
X812356Y133253D01*
X812344Y133237D01*
X812328Y133225D01*
X812272Y133137D01*
X812212Y133054D01*
X812206Y133035D01*
X812195Y133018D01*
X812170Y132917D01*
X812140Y132818D01*
X812140Y132799D01*
X812135Y132779D01*
X812143Y132676D01*
X812146Y132573D01*
X812153Y132554D01*
X812155Y132534D01*
X812195Y132439D01*
X812231Y132342D01*
X812243Y132326D01*
X812251Y132308D01*
X812356Y132177D01*
X819604Y124928D01*
X819621Y124916D01*
X819633Y124901D01*
X819720Y124845D01*
X819804Y124784D01*
X819823Y124779D01*
X819840Y124768D01*
X819940Y124743D01*
X820039Y124712D01*
X820059Y124713D01*
X820078Y124708D01*
X820181Y124716D01*
X820285Y124718D01*
X820304Y124725D01*
X820324Y124727D01*
X820419Y124767D01*
X820516Y124803D01*
X820532Y124815D01*
X820550Y124823D01*
X820681Y124928D01*
X820976Y125223D01*
X830024Y125223D01*
X836423Y118824D01*
X836423Y109776D01*
X830024Y103377D01*
X820976Y103377D01*
X814577Y109776D01*
X814577Y118143D01*
X814563Y118233D01*
X814555Y118324D01*
X814543Y118354D01*
X814538Y118386D01*
X814495Y118466D01*
X814459Y118550D01*
X814433Y118582D01*
X814422Y118603D01*
X814399Y118625D01*
X814354Y118681D01*
X713803Y219232D01*
X713729Y219285D01*
X713660Y219345D01*
X713630Y219357D01*
X713604Y219376D01*
X713517Y219403D01*
X713432Y219437D01*
X713391Y219441D01*
X713368Y219448D01*
X713336Y219447D01*
X713265Y219455D01*
X708881Y219455D01*
X708791Y219441D01*
X708700Y219433D01*
X708670Y219421D01*
X708638Y219416D01*
X708558Y219373D01*
X708474Y219337D01*
X708442Y219311D01*
X708421Y219300D01*
X708399Y219277D01*
X708343Y219232D01*
X646908Y157797D01*
X644081Y154970D01*
X642783Y153672D01*
X642756Y153635D01*
X642722Y153604D01*
X642684Y153536D01*
X642639Y153472D01*
X642626Y153429D01*
X642603Y153388D01*
X642590Y153312D01*
X642567Y153237D01*
X642568Y153191D01*
X642560Y153146D01*
X642571Y153069D01*
X642573Y152991D01*
X642589Y152948D01*
X642595Y152903D01*
X642631Y152834D01*
X642657Y152760D01*
X642686Y152725D01*
X642707Y152684D01*
X642762Y152629D01*
X642811Y152568D01*
X642850Y152544D01*
X642883Y152511D01*
X642996Y152449D01*
X645862Y149583D01*
X647409Y145849D01*
X647409Y141806D01*
X645862Y138072D01*
X643004Y135214D01*
X639269Y133667D01*
X635227Y133667D01*
X631492Y135214D01*
X628634Y138072D01*
X627087Y141806D01*
X627087Y145849D01*
X628634Y149583D01*
X631492Y152441D01*
X632497Y152858D01*
X632597Y152919D01*
X632697Y152979D01*
X632701Y152984D01*
X632706Y152987D01*
X632781Y153077D01*
X632857Y153166D01*
X632859Y153172D01*
X632863Y153177D01*
X632905Y153285D01*
X632949Y153394D01*
X632950Y153402D01*
X632951Y153406D01*
X632952Y153425D01*
X632967Y153561D01*
X632967Y155354D01*
X634301Y156688D01*
X634343Y156746D01*
X634393Y156798D01*
X634415Y156845D01*
X634445Y156887D01*
X634466Y156956D01*
X634496Y157021D01*
X634502Y157073D01*
X634517Y157123D01*
X634515Y157194D01*
X634523Y157265D01*
X634512Y157316D01*
X634511Y157368D01*
X634486Y157436D01*
X634471Y157506D01*
X634444Y157551D01*
X634426Y157599D01*
X634382Y157655D01*
X634345Y157717D01*
X634305Y157751D01*
X634273Y157791D01*
X634212Y157830D01*
X634158Y157877D01*
X634110Y157896D01*
X634066Y157924D01*
X633996Y157942D01*
X633930Y157969D01*
X633858Y157977D01*
X633827Y157985D01*
X633804Y157983D01*
X633763Y157987D01*
X633443Y157987D01*
X633353Y157973D01*
X633262Y157965D01*
X633232Y157953D01*
X633200Y157948D01*
X633120Y157905D01*
X633036Y157869D01*
X633004Y157843D01*
X632983Y157832D01*
X632961Y157809D01*
X632905Y157764D01*
X574454Y99313D01*
X507746Y99313D01*
X507726Y99310D01*
X507707Y99312D01*
X507605Y99290D01*
X507503Y99274D01*
X507486Y99264D01*
X507466Y99260D01*
X507377Y99207D01*
X507286Y99158D01*
X507272Y99144D01*
X507255Y99134D01*
X507188Y99055D01*
X507116Y98980D01*
X507108Y98962D01*
X507095Y98947D01*
X507056Y98851D01*
X507013Y98757D01*
X507011Y98737D01*
X507003Y98719D01*
X506985Y98552D01*
X506985Y83025D01*
X506999Y82935D01*
X507007Y82844D01*
X507019Y82814D01*
X507024Y82782D01*
X507067Y82702D01*
X507103Y82618D01*
X507129Y82586D01*
X507140Y82565D01*
X507163Y82543D01*
X507208Y82487D01*
X509779Y79916D01*
X509779Y76454D01*
X509782Y76434D01*
X509780Y76415D01*
X509802Y76313D01*
X509818Y76211D01*
X509828Y76194D01*
X509832Y76174D01*
X509885Y76085D01*
X509934Y75994D01*
X509948Y75980D01*
X509958Y75963D01*
X510037Y75896D01*
X510112Y75824D01*
X510130Y75816D01*
X510145Y75803D01*
X510241Y75764D01*
X510335Y75721D01*
X510355Y75719D01*
X510373Y75711D01*
X510383Y75710D01*
X514907Y73836D01*
X518336Y70407D01*
X519997Y66399D01*
X520034Y66338D01*
X520064Y66272D01*
X520099Y66234D01*
X520126Y66189D01*
X520181Y66144D01*
X520230Y66091D01*
X520276Y66066D01*
X520316Y66033D01*
X520383Y66007D01*
X520446Y65972D01*
X520497Y65963D01*
X520545Y65944D01*
X520617Y65941D01*
X520688Y65929D01*
X520739Y65936D01*
X520791Y65934D01*
X520860Y65954D01*
X520931Y65964D01*
X520977Y65988D01*
X521027Y66003D01*
X521086Y66043D01*
X521150Y66076D01*
X521187Y66113D01*
X521229Y66143D01*
X521272Y66200D01*
X521322Y66252D01*
X521357Y66314D01*
X521376Y66340D01*
X521383Y66362D01*
X521403Y66399D01*
X523064Y70407D01*
X526493Y73836D01*
X530975Y75693D01*
X535825Y75693D01*
X535862Y75677D01*
X535975Y75651D01*
X536089Y75622D01*
X536096Y75623D01*
X536102Y75621D01*
X536218Y75632D01*
X536335Y75641D01*
X536340Y75644D01*
X536347Y75644D01*
X536454Y75692D01*
X536561Y75738D01*
X536567Y75742D01*
X536571Y75744D01*
X536585Y75757D01*
X536692Y75842D01*
X543146Y82297D01*
X595917Y82297D01*
X596007Y82311D01*
X596098Y82319D01*
X596128Y82331D01*
X596160Y82336D01*
X596240Y82379D01*
X596324Y82415D01*
X596356Y82441D01*
X596377Y82452D01*
X596399Y82475D01*
X596455Y82520D01*
X653081Y139145D01*
X653148Y139239D01*
X653219Y139334D01*
X653221Y139340D01*
X653224Y139345D01*
X653258Y139456D01*
X653295Y139568D01*
X653295Y139574D01*
X653297Y139580D01*
X653294Y139697D01*
X653293Y139814D01*
X653290Y139821D01*
X653290Y139826D01*
X653284Y139843D01*
X653246Y139975D01*
X652487Y141806D01*
X652487Y145849D01*
X654034Y149583D01*
X656892Y152441D01*
X660627Y153988D01*
X664669Y153988D01*
X668404Y152441D01*
X671262Y149583D01*
X672809Y145849D01*
X672809Y141806D01*
X671262Y138072D01*
X668404Y135214D01*
X664669Y133667D01*
X660627Y133667D01*
X660017Y133920D01*
X659903Y133946D01*
X659789Y133975D01*
X659783Y133974D01*
X659777Y133976D01*
X659661Y133965D01*
X659544Y133956D01*
X659538Y133953D01*
X659532Y133953D01*
X659425Y133905D01*
X659318Y133859D01*
X659312Y133855D01*
X659307Y133853D01*
X659294Y133840D01*
X659187Y133755D01*
X602204Y76771D01*
X599600Y74167D01*
X546829Y74167D01*
X546739Y74153D01*
X546648Y74145D01*
X546618Y74133D01*
X546586Y74128D01*
X546506Y74085D01*
X546422Y74049D01*
X546390Y74023D01*
X546369Y74012D01*
X546347Y73989D01*
X546291Y73944D01*
X543783Y71437D01*
X543771Y71420D01*
X543756Y71408D01*
X543700Y71321D01*
X543640Y71237D01*
X543634Y71218D01*
X543623Y71201D01*
X543598Y71101D01*
X543567Y71002D01*
X543568Y70982D01*
X543563Y70962D01*
X543571Y70859D01*
X543574Y70756D01*
X543580Y70737D01*
X543582Y70717D01*
X543622Y70622D01*
X543658Y70525D01*
X543670Y70509D01*
X543678Y70491D01*
X543727Y70431D01*
X545593Y65925D01*
X545593Y61075D01*
X543736Y56593D01*
X540307Y53164D01*
X535825Y51307D01*
X532351Y51307D01*
X532261Y51293D01*
X532170Y51285D01*
X532140Y51273D01*
X532108Y51268D01*
X532028Y51225D01*
X531944Y51189D01*
X531912Y51163D01*
X531891Y51152D01*
X531869Y51129D01*
X531813Y51084D01*
X521368Y40639D01*
X467708Y40639D01*
X465104Y43243D01*
X460688Y47660D01*
X460608Y47717D01*
X460533Y47779D01*
X460509Y47788D01*
X460488Y47804D01*
X460395Y47832D01*
X460304Y47867D01*
X460278Y47868D01*
X460253Y47876D01*
X460155Y47873D01*
X460058Y47878D01*
X460033Y47870D01*
X460007Y47870D01*
X459915Y47836D01*
X459822Y47809D01*
X459800Y47794D01*
X459776Y47785D01*
X459700Y47724D01*
X459620Y47669D01*
X459604Y47648D01*
X459584Y47631D01*
X459531Y47550D01*
X459473Y47471D01*
X459465Y47447D01*
X459451Y47425D01*
X459427Y47330D01*
X459397Y47238D01*
X459397Y47211D01*
X459391Y47186D01*
X459398Y47089D01*
X459399Y46992D01*
X459408Y46960D01*
X459410Y46941D01*
X459423Y46911D01*
X459446Y46831D01*
X459741Y46119D01*
X459741Y43289D01*
X458658Y40675D01*
X456875Y38892D01*
X456833Y38834D01*
X456784Y38782D01*
X456762Y38735D01*
X456732Y38693D01*
X456711Y38624D01*
X456680Y38559D01*
X456675Y38507D01*
X456659Y38457D01*
X456661Y38386D01*
X456653Y38315D01*
X456664Y38264D01*
X456666Y38212D01*
X456690Y38144D01*
X456705Y38074D01*
X456732Y38029D01*
X456750Y37981D01*
X456795Y37925D01*
X456832Y37863D01*
X456871Y37829D01*
X456904Y37789D01*
X456964Y37750D01*
X457019Y37703D01*
X457067Y37684D01*
X457111Y37656D01*
X457180Y37638D01*
X457247Y37611D01*
X457318Y37603D01*
X457349Y37595D01*
X457373Y37597D01*
X457413Y37593D01*
X576359Y37593D01*
X576449Y37607D01*
X576540Y37615D01*
X576570Y37627D01*
X576602Y37632D01*
X576682Y37675D01*
X576766Y37711D01*
X576798Y37737D01*
X576819Y37748D01*
X576841Y37771D01*
X576897Y37816D01*
X678406Y139325D01*
X678475Y139420D01*
X678544Y139514D01*
X678546Y139520D01*
X678550Y139525D01*
X678584Y139636D01*
X678621Y139747D01*
X678621Y139754D01*
X678622Y139760D01*
X678619Y139876D01*
X678618Y139993D01*
X678616Y140001D01*
X678616Y140006D01*
X678610Y140023D01*
X678571Y140154D01*
X677887Y141806D01*
X677887Y145849D01*
X679434Y149583D01*
X682292Y152441D01*
X686027Y153988D01*
X690069Y153988D01*
X693804Y152441D01*
X696662Y149583D01*
X698209Y145849D01*
X698209Y141806D01*
X696662Y138072D01*
X693804Y135214D01*
X690069Y133667D01*
X686027Y133667D01*
X685237Y133994D01*
X685124Y134020D01*
X685010Y134049D01*
X685004Y134049D01*
X684997Y134050D01*
X684881Y134039D01*
X684765Y134030D01*
X684759Y134028D01*
X684753Y134027D01*
X684645Y133979D01*
X684538Y133934D01*
X684533Y133929D01*
X684528Y133927D01*
X684514Y133914D01*
X684407Y133829D01*
X580042Y29463D01*
X185514Y29463D01*
G37*
%LPD*%
G36*
X830703Y227599D02*
X830703Y227599D01*
X830794Y227607D01*
X830824Y227619D01*
X830856Y227624D01*
X830936Y227667D01*
X831020Y227703D01*
X831052Y227729D01*
X831073Y227740D01*
X831095Y227763D01*
X831151Y227808D01*
X839500Y236157D01*
X839553Y236231D01*
X839613Y236300D01*
X839625Y236330D01*
X839644Y236356D01*
X839671Y236443D01*
X839705Y236528D01*
X839709Y236569D01*
X839716Y236592D01*
X839715Y236624D01*
X839723Y236695D01*
X839723Y248191D01*
X839712Y248262D01*
X839710Y248334D01*
X839692Y248383D01*
X839684Y248434D01*
X839650Y248497D01*
X839625Y248565D01*
X839593Y248605D01*
X839568Y248651D01*
X839517Y248701D01*
X839472Y248757D01*
X839428Y248785D01*
X839390Y248821D01*
X839325Y248851D01*
X839265Y248890D01*
X839214Y248902D01*
X839167Y248924D01*
X839096Y248932D01*
X839026Y248950D01*
X838974Y248946D01*
X838923Y248951D01*
X838852Y248936D01*
X838781Y248930D01*
X838733Y248910D01*
X838682Y248899D01*
X838621Y248862D01*
X838555Y248834D01*
X838499Y248789D01*
X838471Y248773D01*
X838456Y248755D01*
X838424Y248729D01*
X836509Y246815D01*
X836497Y246798D01*
X836482Y246786D01*
X836426Y246699D01*
X836365Y246615D01*
X836360Y246596D01*
X836349Y246579D01*
X836324Y246479D01*
X836293Y246380D01*
X836294Y246360D01*
X836289Y246341D01*
X836297Y246238D01*
X836299Y246134D01*
X836306Y246115D01*
X836308Y246095D01*
X836348Y246001D01*
X836384Y245903D01*
X836396Y245887D01*
X836404Y245869D01*
X836423Y245846D01*
X836423Y236776D01*
X830024Y230377D01*
X820976Y230377D01*
X814577Y236776D01*
X814577Y245824D01*
X820976Y252223D01*
X830105Y252223D01*
X830195Y252237D01*
X830286Y252245D01*
X830316Y252257D01*
X830348Y252262D01*
X830428Y252305D01*
X830512Y252341D01*
X830544Y252367D01*
X830565Y252378D01*
X830587Y252401D01*
X830643Y252446D01*
X845088Y266891D01*
X845141Y266965D01*
X845201Y267034D01*
X845213Y267064D01*
X845232Y267090D01*
X845259Y267177D01*
X845293Y267262D01*
X845297Y267303D01*
X845304Y267326D01*
X845303Y267358D01*
X845311Y267429D01*
X845311Y404655D01*
X845300Y404726D01*
X845298Y404798D01*
X845280Y404847D01*
X845272Y404898D01*
X845238Y404961D01*
X845213Y405029D01*
X845181Y405069D01*
X845156Y405115D01*
X845105Y405165D01*
X845060Y405221D01*
X845016Y405249D01*
X844978Y405285D01*
X844913Y405315D01*
X844853Y405354D01*
X844802Y405366D01*
X844755Y405388D01*
X844684Y405396D01*
X844614Y405414D01*
X844562Y405410D01*
X844511Y405415D01*
X844440Y405400D01*
X844369Y405394D01*
X844321Y405374D01*
X844270Y405363D01*
X844209Y405326D01*
X844143Y405298D01*
X844087Y405253D01*
X844059Y405237D01*
X844044Y405219D01*
X844012Y405193D01*
X743395Y304576D01*
X743353Y304518D01*
X743303Y304466D01*
X743281Y304419D01*
X743251Y304377D01*
X743230Y304308D01*
X743200Y304243D01*
X743194Y304191D01*
X743179Y304141D01*
X743181Y304070D01*
X743173Y303999D01*
X743184Y303948D01*
X743185Y303896D01*
X743210Y303828D01*
X743225Y303758D01*
X743252Y303714D01*
X743270Y303665D01*
X743314Y303609D01*
X743351Y303547D01*
X743391Y303513D01*
X743423Y303473D01*
X743484Y303434D01*
X743538Y303387D01*
X743586Y303368D01*
X743630Y303340D01*
X743700Y303322D01*
X743766Y303295D01*
X743838Y303287D01*
X743869Y303279D01*
X743892Y303281D01*
X743933Y303277D01*
X744619Y303277D01*
X747233Y302194D01*
X749234Y300193D01*
X750317Y297579D01*
X750317Y295115D01*
X750331Y295025D01*
X750339Y294934D01*
X750351Y294904D01*
X750356Y294872D01*
X750399Y294792D01*
X750435Y294708D01*
X750461Y294676D01*
X750472Y294655D01*
X750495Y294633D01*
X750540Y294577D01*
X817309Y227808D01*
X817383Y227755D01*
X817452Y227695D01*
X817482Y227683D01*
X817508Y227664D01*
X817595Y227637D01*
X817680Y227603D01*
X817721Y227599D01*
X817744Y227592D01*
X817776Y227593D01*
X817847Y227585D01*
X830613Y227585D01*
X830703Y227599D01*
G37*
G36*
X444774Y43184D02*
X444774Y43184D01*
X444793Y43182D01*
X444895Y43204D01*
X444997Y43220D01*
X445014Y43230D01*
X445034Y43234D01*
X445123Y43287D01*
X445214Y43336D01*
X445228Y43350D01*
X445245Y43360D01*
X445312Y43439D01*
X445384Y43514D01*
X445392Y43532D01*
X445405Y43547D01*
X445444Y43643D01*
X445487Y43737D01*
X445489Y43757D01*
X445497Y43775D01*
X445515Y43942D01*
X445515Y46119D01*
X446282Y47969D01*
X446292Y48013D01*
X446311Y48055D01*
X446320Y48132D01*
X446338Y48208D01*
X446333Y48254D01*
X446338Y48299D01*
X446322Y48376D01*
X446315Y48453D01*
X446296Y48495D01*
X446286Y48540D01*
X446246Y48607D01*
X446215Y48678D01*
X446184Y48712D01*
X446160Y48751D01*
X446101Y48802D01*
X446048Y48859D01*
X446008Y48881D01*
X445973Y48911D01*
X445901Y48940D01*
X445833Y48977D01*
X445788Y48986D01*
X445745Y49003D01*
X445609Y49018D01*
X445591Y49021D01*
X445586Y49020D01*
X445578Y49021D01*
X378300Y49021D01*
X375696Y51625D01*
X374682Y52640D01*
X374666Y52651D01*
X374653Y52667D01*
X374566Y52723D01*
X374482Y52783D01*
X374463Y52789D01*
X374446Y52800D01*
X374346Y52825D01*
X374247Y52856D01*
X374227Y52855D01*
X374208Y52860D01*
X374105Y52852D01*
X374001Y52849D01*
X373982Y52842D01*
X373963Y52841D01*
X373868Y52801D01*
X373770Y52765D01*
X373754Y52752D01*
X373736Y52745D01*
X373605Y52640D01*
X373035Y52069D01*
X363565Y52069D01*
X356869Y58765D01*
X356869Y68235D01*
X363565Y74931D01*
X373035Y74931D01*
X379731Y68235D01*
X379731Y59403D01*
X379745Y59313D01*
X379753Y59222D01*
X379765Y59192D01*
X379770Y59160D01*
X379813Y59080D01*
X379849Y58996D01*
X379875Y58964D01*
X379886Y58943D01*
X379909Y58921D01*
X379954Y58865D01*
X381445Y57374D01*
X381519Y57321D01*
X381588Y57261D01*
X381618Y57249D01*
X381644Y57230D01*
X381731Y57203D01*
X381816Y57169D01*
X381857Y57165D01*
X381880Y57158D01*
X381912Y57159D01*
X381983Y57151D01*
X445041Y57151D01*
X445131Y57165D01*
X445222Y57173D01*
X445252Y57185D01*
X445284Y57190D01*
X445364Y57233D01*
X445448Y57269D01*
X445480Y57295D01*
X445501Y57306D01*
X445523Y57329D01*
X445579Y57374D01*
X448150Y59945D01*
X459900Y59945D01*
X470853Y48992D01*
X470927Y48939D01*
X470996Y48879D01*
X471026Y48867D01*
X471052Y48848D01*
X471139Y48821D01*
X471224Y48787D01*
X471265Y48783D01*
X471288Y48776D01*
X471320Y48777D01*
X471391Y48769D01*
X517685Y48769D01*
X517775Y48783D01*
X517866Y48791D01*
X517896Y48803D01*
X517928Y48808D01*
X518008Y48851D01*
X518092Y48887D01*
X518124Y48913D01*
X518145Y48924D01*
X518167Y48947D01*
X518223Y48992D01*
X523906Y54674D01*
X523918Y54691D01*
X523933Y54703D01*
X523989Y54790D01*
X524049Y54874D01*
X524055Y54893D01*
X524066Y54910D01*
X524091Y55010D01*
X524122Y55109D01*
X524121Y55129D01*
X524126Y55148D01*
X524118Y55251D01*
X524115Y55355D01*
X524109Y55374D01*
X524107Y55394D01*
X524067Y55488D01*
X524031Y55586D01*
X524019Y55602D01*
X524011Y55620D01*
X523906Y55751D01*
X523064Y56593D01*
X521403Y60601D01*
X521365Y60662D01*
X521336Y60728D01*
X521301Y60766D01*
X521274Y60811D01*
X521218Y60856D01*
X521170Y60909D01*
X521124Y60934D01*
X521084Y60967D01*
X521017Y60993D01*
X520954Y61028D01*
X520903Y61037D01*
X520855Y61056D01*
X520783Y61059D01*
X520712Y61071D01*
X520661Y61064D01*
X520609Y61066D01*
X520540Y61046D01*
X520469Y61036D01*
X520423Y61012D01*
X520373Y60997D01*
X520314Y60957D01*
X520250Y60924D01*
X520213Y60887D01*
X520171Y60857D01*
X520128Y60800D01*
X520078Y60748D01*
X520043Y60686D01*
X520024Y60660D01*
X520017Y60638D01*
X519997Y60601D01*
X518336Y56593D01*
X514907Y53164D01*
X510425Y51307D01*
X505575Y51307D01*
X501093Y53164D01*
X497664Y56593D01*
X496257Y59988D01*
X496206Y60071D01*
X496160Y60157D01*
X496142Y60175D01*
X496128Y60197D01*
X496052Y60260D01*
X495982Y60327D01*
X495958Y60338D01*
X495938Y60354D01*
X495847Y60389D01*
X495759Y60430D01*
X495733Y60433D01*
X495709Y60442D01*
X495611Y60447D01*
X495515Y60457D01*
X495489Y60452D01*
X495463Y60453D01*
X495369Y60426D01*
X495274Y60405D01*
X495252Y60392D01*
X495227Y60384D01*
X495147Y60329D01*
X495063Y60279D01*
X495046Y60259D01*
X495025Y60244D01*
X494966Y60166D01*
X494903Y60092D01*
X494893Y60068D01*
X494878Y60047D01*
X494848Y59954D01*
X494811Y59864D01*
X494808Y59831D01*
X494802Y59813D01*
X494802Y59780D01*
X494793Y59697D01*
X494793Y52796D01*
X493304Y51307D01*
X471896Y51307D01*
X470407Y52796D01*
X470407Y74204D01*
X471896Y75693D01*
X493304Y75693D01*
X494793Y74204D01*
X494793Y67303D01*
X494808Y67207D01*
X494818Y67110D01*
X494828Y67086D01*
X494832Y67060D01*
X494878Y66974D01*
X494918Y66885D01*
X494935Y66866D01*
X494948Y66843D01*
X495018Y66776D01*
X495084Y66704D01*
X495107Y66692D01*
X495126Y66673D01*
X495214Y66632D01*
X495300Y66586D01*
X495325Y66581D01*
X495349Y66570D01*
X495446Y66559D01*
X495542Y66542D01*
X495568Y66546D01*
X495593Y66543D01*
X495689Y66563D01*
X495785Y66578D01*
X495808Y66589D01*
X495834Y66595D01*
X495917Y66645D01*
X496004Y66689D01*
X496023Y66708D01*
X496045Y66721D01*
X496108Y66795D01*
X496176Y66865D01*
X496192Y66893D01*
X496205Y66908D01*
X496217Y66939D01*
X496257Y67012D01*
X497664Y70407D01*
X501093Y73836D01*
X501179Y73872D01*
X501279Y73934D01*
X501379Y73994D01*
X501383Y73998D01*
X501388Y74002D01*
X501463Y74092D01*
X501539Y74181D01*
X501541Y74186D01*
X501545Y74191D01*
X501587Y74300D01*
X501631Y74409D01*
X501632Y74416D01*
X501633Y74421D01*
X501634Y74439D01*
X501649Y74575D01*
X501649Y76233D01*
X501635Y76323D01*
X501627Y76414D01*
X501615Y76444D01*
X501610Y76476D01*
X501567Y76556D01*
X501531Y76640D01*
X501505Y76672D01*
X501494Y76693D01*
X501471Y76715D01*
X501426Y76771D01*
X498855Y79342D01*
X498855Y101379D01*
X498841Y101469D01*
X498833Y101560D01*
X498821Y101590D01*
X498816Y101622D01*
X498773Y101702D01*
X498737Y101786D01*
X498711Y101818D01*
X498700Y101839D01*
X498677Y101861D01*
X498632Y101917D01*
X458754Y141795D01*
X458738Y141807D01*
X458726Y141823D01*
X458638Y141879D01*
X458555Y141939D01*
X458536Y141945D01*
X458519Y141956D01*
X458418Y141981D01*
X458319Y142011D01*
X458300Y142011D01*
X458280Y142016D01*
X458177Y142008D01*
X458074Y142005D01*
X458055Y141998D01*
X458035Y141996D01*
X457940Y141956D01*
X457843Y141920D01*
X457827Y141908D01*
X457809Y141900D01*
X457678Y141795D01*
X454312Y138429D01*
X423893Y138429D01*
X423803Y138415D01*
X423712Y138407D01*
X423682Y138395D01*
X423650Y138390D01*
X423570Y138347D01*
X423486Y138311D01*
X423454Y138285D01*
X423433Y138274D01*
X423411Y138251D01*
X423355Y138206D01*
X354395Y69247D01*
X354384Y69231D01*
X354368Y69218D01*
X354312Y69131D01*
X354252Y69047D01*
X354246Y69028D01*
X354235Y69011D01*
X354210Y68911D01*
X354179Y68812D01*
X354180Y68792D01*
X354175Y68773D01*
X354183Y68670D01*
X354186Y68566D01*
X354193Y68547D01*
X354194Y68527D01*
X354235Y68432D01*
X354270Y68335D01*
X354283Y68319D01*
X354290Y68301D01*
X354331Y68251D01*
X354331Y58765D01*
X347635Y52069D01*
X338143Y52069D01*
X338114Y52088D01*
X338030Y52148D01*
X338011Y52154D01*
X337994Y52165D01*
X337894Y52190D01*
X337795Y52221D01*
X337775Y52220D01*
X337756Y52225D01*
X337653Y52217D01*
X337549Y52214D01*
X337530Y52207D01*
X337510Y52206D01*
X337416Y52166D01*
X337318Y52130D01*
X337302Y52117D01*
X337284Y52110D01*
X337153Y52005D01*
X329629Y44480D01*
X329587Y44422D01*
X329537Y44370D01*
X329515Y44323D01*
X329485Y44281D01*
X329464Y44212D01*
X329434Y44147D01*
X329428Y44095D01*
X329413Y44045D01*
X329415Y43974D01*
X329407Y43903D01*
X329418Y43852D01*
X329419Y43800D01*
X329444Y43732D01*
X329459Y43662D01*
X329486Y43618D01*
X329504Y43569D01*
X329548Y43513D01*
X329585Y43451D01*
X329625Y43417D01*
X329657Y43377D01*
X329718Y43338D01*
X329772Y43291D01*
X329820Y43272D01*
X329864Y43244D01*
X329934Y43226D01*
X330000Y43199D01*
X330072Y43191D01*
X330103Y43183D01*
X330126Y43185D01*
X330167Y43181D01*
X444754Y43181D01*
X444774Y43184D01*
G37*
%LPC*%
G36*
X287365Y52069D02*
X287365Y52069D01*
X280669Y58765D01*
X280669Y68235D01*
X287365Y74931D01*
X289593Y74931D01*
X289683Y74945D01*
X289774Y74953D01*
X289804Y74965D01*
X289836Y74970D01*
X289916Y75013D01*
X290000Y75049D01*
X290032Y75075D01*
X290053Y75086D01*
X290075Y75109D01*
X290131Y75154D01*
X294670Y79693D01*
X294723Y79767D01*
X294783Y79836D01*
X294795Y79866D01*
X294814Y79892D01*
X294841Y79979D01*
X294875Y80064D01*
X294879Y80105D01*
X294886Y80128D01*
X294885Y80160D01*
X294893Y80231D01*
X294893Y146083D01*
X294879Y146173D01*
X294871Y146264D01*
X294859Y146294D01*
X294854Y146326D01*
X294811Y146406D01*
X294775Y146490D01*
X294749Y146522D01*
X294738Y146543D01*
X294715Y146565D01*
X294670Y146621D01*
X292035Y149256D01*
X291961Y149309D01*
X291892Y149369D01*
X291862Y149381D01*
X291836Y149400D01*
X291749Y149427D01*
X291664Y149461D01*
X291623Y149465D01*
X291600Y149472D01*
X291568Y149471D01*
X291497Y149479D01*
X290294Y149479D01*
X286956Y150862D01*
X284402Y153416D01*
X283019Y156754D01*
X283019Y173446D01*
X284402Y176784D01*
X286956Y179338D01*
X290294Y180721D01*
X293906Y180721D01*
X297244Y179338D01*
X299798Y176784D01*
X301181Y173446D01*
X301181Y156754D01*
X299868Y153585D01*
X299841Y153471D01*
X299813Y153358D01*
X299813Y153351D01*
X299812Y153345D01*
X299823Y153229D01*
X299832Y153113D01*
X299834Y153107D01*
X299835Y153100D01*
X299883Y152993D01*
X299928Y152886D01*
X299933Y152880D01*
X299935Y152876D01*
X299948Y152862D01*
X300033Y152755D01*
X303023Y149766D01*
X303023Y148557D01*
X303034Y148486D01*
X303036Y148414D01*
X303054Y148366D01*
X303062Y148314D01*
X303096Y148251D01*
X303121Y148183D01*
X303153Y148143D01*
X303178Y148097D01*
X303230Y148047D01*
X303274Y147991D01*
X303318Y147963D01*
X303356Y147927D01*
X303421Y147897D01*
X303481Y147858D01*
X303532Y147846D01*
X303579Y147824D01*
X303650Y147816D01*
X303720Y147798D01*
X303772Y147802D01*
X303823Y147797D01*
X303894Y147812D01*
X303965Y147818D01*
X304013Y147838D01*
X304064Y147849D01*
X304125Y147886D01*
X304191Y147914D01*
X304247Y147959D01*
X304275Y147975D01*
X304290Y147993D01*
X304322Y148019D01*
X305879Y149576D01*
X309418Y153114D01*
X309486Y153208D01*
X309556Y153303D01*
X309558Y153309D01*
X309562Y153314D01*
X309596Y153425D01*
X309632Y153537D01*
X309632Y153543D01*
X309634Y153549D01*
X309631Y153666D01*
X309630Y153783D01*
X309628Y153790D01*
X309628Y153795D01*
X309621Y153813D01*
X309583Y153944D01*
X308419Y156754D01*
X308419Y173446D01*
X309802Y176784D01*
X312356Y179338D01*
X315694Y180721D01*
X319306Y180721D01*
X322644Y179338D01*
X325198Y176784D01*
X326581Y173446D01*
X326581Y156754D01*
X325198Y153416D01*
X322644Y150862D01*
X319306Y149479D01*
X317595Y149479D01*
X317505Y149465D01*
X317414Y149457D01*
X317384Y149445D01*
X317352Y149440D01*
X317272Y149397D01*
X317188Y149361D01*
X317156Y149335D01*
X317135Y149324D01*
X317113Y149301D01*
X317057Y149256D01*
X311628Y143827D01*
X311575Y143753D01*
X311515Y143684D01*
X311503Y143654D01*
X311484Y143628D01*
X311457Y143541D01*
X311423Y143456D01*
X311419Y143415D01*
X311412Y143392D01*
X311413Y143360D01*
X311405Y143289D01*
X311405Y77437D01*
X311419Y77347D01*
X311427Y77256D01*
X311439Y77226D01*
X311444Y77194D01*
X311487Y77114D01*
X311523Y77030D01*
X311549Y76998D01*
X311560Y76977D01*
X311583Y76955D01*
X311628Y76899D01*
X313373Y75154D01*
X313447Y75101D01*
X313516Y75041D01*
X313546Y75029D01*
X313572Y75010D01*
X313659Y74983D01*
X313744Y74949D01*
X313785Y74945D01*
X313808Y74938D01*
X313840Y74939D01*
X313911Y74931D01*
X322235Y74931D01*
X328931Y68235D01*
X328931Y58765D01*
X322235Y52069D01*
X312765Y52069D01*
X306069Y58765D01*
X306069Y68235D01*
X306894Y69059D01*
X306905Y69075D01*
X306921Y69088D01*
X306977Y69175D01*
X307037Y69259D01*
X307043Y69278D01*
X307054Y69295D01*
X307079Y69395D01*
X307110Y69494D01*
X307109Y69514D01*
X307114Y69533D01*
X307106Y69636D01*
X307103Y69740D01*
X307096Y69759D01*
X307095Y69779D01*
X307055Y69873D01*
X307019Y69971D01*
X307006Y69987D01*
X306999Y70005D01*
X306894Y70136D01*
X303275Y73754D01*
X303275Y74963D01*
X303264Y75034D01*
X303262Y75106D01*
X303244Y75155D01*
X303236Y75206D01*
X303202Y75269D01*
X303177Y75337D01*
X303145Y75377D01*
X303120Y75423D01*
X303069Y75473D01*
X303024Y75529D01*
X302980Y75557D01*
X302942Y75593D01*
X302877Y75623D01*
X302817Y75662D01*
X302766Y75674D01*
X302719Y75696D01*
X302648Y75704D01*
X302578Y75722D01*
X302526Y75718D01*
X302475Y75723D01*
X302404Y75708D01*
X302333Y75702D01*
X302285Y75682D01*
X302234Y75671D01*
X302173Y75634D01*
X302107Y75606D01*
X302051Y75561D01*
X302023Y75545D01*
X302008Y75527D01*
X301976Y75501D01*
X299658Y73184D01*
X299647Y73168D01*
X299631Y73155D01*
X299575Y73068D01*
X299515Y72984D01*
X299509Y72965D01*
X299498Y72948D01*
X299473Y72848D01*
X299442Y72749D01*
X299443Y72729D01*
X299438Y72710D01*
X299446Y72607D01*
X299449Y72503D01*
X299456Y72484D01*
X299457Y72465D01*
X299497Y72370D01*
X299533Y72272D01*
X299546Y72256D01*
X299553Y72238D01*
X299658Y72107D01*
X303531Y68235D01*
X303531Y58765D01*
X296835Y52069D01*
X287365Y52069D01*
G37*
%LPD*%
%LPC*%
G36*
X956688Y734839D02*
X956688Y734839D01*
X950288Y736554D01*
X944551Y739866D01*
X939866Y744551D01*
X936554Y750288D01*
X934839Y756688D01*
X934839Y763312D01*
X936554Y769712D01*
X939866Y775449D01*
X944551Y780134D01*
X950288Y783446D01*
X956688Y785161D01*
X963312Y785161D01*
X969712Y783446D01*
X975449Y780134D01*
X980134Y775449D01*
X983446Y769712D01*
X985161Y763312D01*
X985161Y756688D01*
X983446Y750288D01*
X980134Y744551D01*
X975449Y739866D01*
X969712Y736554D01*
X963312Y734839D01*
X956688Y734839D01*
G37*
%LPD*%
%LPC*%
G36*
X36688Y14839D02*
X36688Y14839D01*
X30288Y16554D01*
X24551Y19866D01*
X19866Y24551D01*
X16554Y30288D01*
X14839Y36688D01*
X14839Y43312D01*
X16554Y49712D01*
X19866Y55449D01*
X24551Y60134D01*
X30288Y63446D01*
X36688Y65161D01*
X43312Y65161D01*
X49712Y63446D01*
X55449Y60134D01*
X60134Y55449D01*
X63446Y49712D01*
X65161Y43312D01*
X65161Y36688D01*
X63446Y30288D01*
X60134Y24551D01*
X55449Y19866D01*
X49712Y16554D01*
X43312Y14839D01*
X36688Y14839D01*
G37*
%LPD*%
%LPC*%
G36*
X956688Y14839D02*
X956688Y14839D01*
X950288Y16554D01*
X944551Y19866D01*
X939866Y24551D01*
X936554Y30288D01*
X934839Y36688D01*
X934839Y43312D01*
X936554Y49712D01*
X939866Y55449D01*
X944551Y60134D01*
X950288Y63446D01*
X956688Y65161D01*
X963312Y65161D01*
X969712Y63446D01*
X975449Y60134D01*
X980134Y55449D01*
X983446Y49712D01*
X985161Y43312D01*
X985161Y36688D01*
X983446Y30288D01*
X980134Y24551D01*
X975449Y19866D01*
X969712Y16554D01*
X963312Y14839D01*
X956688Y14839D01*
G37*
%LPD*%
%LPC*%
G36*
X897176Y39877D02*
X897176Y39877D01*
X890777Y46276D01*
X890777Y55358D01*
X890834Y55438D01*
X890840Y55457D01*
X890851Y55474D01*
X890876Y55574D01*
X890907Y55673D01*
X890906Y55693D01*
X890911Y55712D01*
X890903Y55815D01*
X890901Y55919D01*
X890894Y55937D01*
X890892Y55957D01*
X890852Y56052D01*
X890816Y56150D01*
X890804Y56165D01*
X890796Y56184D01*
X890691Y56315D01*
X887221Y59784D01*
X887221Y155354D01*
X910145Y178278D01*
X910187Y178336D01*
X910237Y178388D01*
X910259Y178435D01*
X910289Y178477D01*
X910310Y178546D01*
X910340Y178611D01*
X910346Y178663D01*
X910361Y178713D01*
X910359Y178784D01*
X910367Y178855D01*
X910356Y178906D01*
X910355Y178958D01*
X910330Y179026D01*
X910315Y179096D01*
X910288Y179140D01*
X910270Y179189D01*
X910226Y179245D01*
X910189Y179307D01*
X910149Y179341D01*
X910117Y179381D01*
X910056Y179420D01*
X910002Y179467D01*
X909975Y179478D01*
X903477Y185976D01*
X903477Y195024D01*
X909876Y201423D01*
X918924Y201423D01*
X925323Y195024D01*
X925323Y185976D01*
X920710Y181363D01*
X920698Y181347D01*
X920683Y181334D01*
X920627Y181247D01*
X920566Y181163D01*
X920561Y181144D01*
X920550Y181127D01*
X920525Y181027D01*
X920494Y180928D01*
X920495Y180908D01*
X920490Y180889D01*
X920497Y180800D01*
X920497Y177132D01*
X895574Y152209D01*
X895521Y152135D01*
X895461Y152066D01*
X895449Y152036D01*
X895430Y152010D01*
X895403Y151923D01*
X895369Y151838D01*
X895365Y151797D01*
X895358Y151774D01*
X895359Y151742D01*
X895351Y151671D01*
X895351Y63467D01*
X895365Y63377D01*
X895373Y63286D01*
X895385Y63256D01*
X895390Y63224D01*
X895433Y63144D01*
X895469Y63060D01*
X895495Y63028D01*
X895506Y63007D01*
X895529Y62985D01*
X895574Y62929D01*
X896557Y61946D01*
X896631Y61893D01*
X896700Y61833D01*
X896730Y61821D01*
X896756Y61802D01*
X896843Y61775D01*
X896928Y61741D01*
X896969Y61737D01*
X896992Y61730D01*
X897024Y61731D01*
X897095Y61723D01*
X906224Y61723D01*
X912623Y55324D01*
X912623Y46276D01*
X906224Y39877D01*
X897176Y39877D01*
G37*
%LPD*%
%LPC*%
G36*
X807894Y716839D02*
X807894Y716839D01*
X799014Y720518D01*
X792218Y727314D01*
X788539Y736194D01*
X788539Y745806D01*
X792218Y754686D01*
X799014Y761482D01*
X807894Y765161D01*
X817506Y765161D01*
X826386Y761482D01*
X833182Y754686D01*
X836861Y745806D01*
X836861Y736194D01*
X833182Y727314D01*
X826386Y720518D01*
X817506Y716839D01*
X807894Y716839D01*
G37*
%LPD*%
%LPC*%
G36*
X58694Y716839D02*
X58694Y716839D01*
X49814Y720518D01*
X43018Y727314D01*
X39339Y736194D01*
X39339Y745806D01*
X43018Y754686D01*
X49814Y761482D01*
X58694Y765161D01*
X68306Y765161D01*
X77186Y761482D01*
X83982Y754686D01*
X87661Y745806D01*
X87661Y736194D01*
X83982Y727314D01*
X77186Y720518D01*
X68306Y716839D01*
X58694Y716839D01*
G37*
%LPD*%
%LPC*%
G36*
X58694Y407639D02*
X58694Y407639D01*
X49814Y411318D01*
X43018Y418114D01*
X39339Y426994D01*
X39339Y436606D01*
X43018Y445486D01*
X49814Y452282D01*
X58694Y455961D01*
X68306Y455961D01*
X77186Y452282D01*
X83982Y445486D01*
X87661Y436606D01*
X87661Y426994D01*
X83982Y418114D01*
X77186Y411318D01*
X68306Y407639D01*
X58694Y407639D01*
G37*
%LPD*%
%LPC*%
G36*
X807894Y407639D02*
X807894Y407639D01*
X799014Y411318D01*
X792218Y418114D01*
X788539Y426994D01*
X788539Y436606D01*
X792218Y445486D01*
X799014Y452282D01*
X807894Y455961D01*
X817506Y455961D01*
X826386Y452282D01*
X833182Y445486D01*
X836861Y436606D01*
X836861Y426994D01*
X833182Y418114D01*
X826386Y411318D01*
X817506Y407639D01*
X807894Y407639D01*
G37*
%LPD*%
%LPC*%
G36*
X167094Y725379D02*
X167094Y725379D01*
X163756Y726762D01*
X161202Y729316D01*
X159819Y732654D01*
X159819Y749346D01*
X161202Y752684D01*
X163756Y755238D01*
X167094Y756621D01*
X170706Y756621D01*
X174044Y755238D01*
X176598Y752684D01*
X177981Y749346D01*
X177981Y732654D01*
X176598Y729316D01*
X174044Y726762D01*
X170706Y725379D01*
X167094Y725379D01*
G37*
%LPD*%
%LPC*%
G36*
X294094Y725379D02*
X294094Y725379D01*
X290756Y726762D01*
X288202Y729316D01*
X286819Y732654D01*
X286819Y749346D01*
X288202Y752684D01*
X290756Y755238D01*
X294094Y756621D01*
X297706Y756621D01*
X301044Y755238D01*
X303598Y752684D01*
X304981Y749346D01*
X304981Y732654D01*
X303598Y729316D01*
X301044Y726762D01*
X297706Y725379D01*
X294094Y725379D01*
G37*
%LPD*%
%LPC*%
G36*
X268694Y725379D02*
X268694Y725379D01*
X265356Y726762D01*
X262802Y729316D01*
X261419Y732654D01*
X261419Y749346D01*
X262802Y752684D01*
X265356Y755238D01*
X268694Y756621D01*
X272306Y756621D01*
X275644Y755238D01*
X278198Y752684D01*
X279581Y749346D01*
X279581Y732654D01*
X278198Y729316D01*
X275644Y726762D01*
X272306Y725379D01*
X268694Y725379D01*
G37*
%LPD*%
%LPC*%
G36*
X319494Y725379D02*
X319494Y725379D01*
X316156Y726762D01*
X313602Y729316D01*
X312219Y732654D01*
X312219Y749346D01*
X313602Y752684D01*
X316156Y755238D01*
X319494Y756621D01*
X323106Y756621D01*
X326444Y755238D01*
X328998Y752684D01*
X330381Y749346D01*
X330381Y732654D01*
X328998Y729316D01*
X326444Y726762D01*
X323106Y725379D01*
X319494Y725379D01*
G37*
%LPD*%
%LPC*%
G36*
X192494Y725379D02*
X192494Y725379D01*
X189156Y726762D01*
X186602Y729316D01*
X185219Y732654D01*
X185219Y749346D01*
X186602Y752684D01*
X189156Y755238D01*
X192494Y756621D01*
X196106Y756621D01*
X199444Y755238D01*
X201998Y752684D01*
X203381Y749346D01*
X203381Y732654D01*
X201998Y729316D01*
X199444Y726762D01*
X196106Y725379D01*
X192494Y725379D01*
G37*
%LPD*%
%LPC*%
G36*
X341094Y301879D02*
X341094Y301879D01*
X337756Y303262D01*
X335202Y305816D01*
X333819Y309154D01*
X333819Y325846D01*
X335202Y329184D01*
X337756Y331738D01*
X341094Y333121D01*
X344706Y333121D01*
X348044Y331738D01*
X350598Y329184D01*
X351981Y325846D01*
X351981Y309154D01*
X350598Y305816D01*
X348044Y303262D01*
X344706Y301879D01*
X341094Y301879D01*
G37*
%LPD*%
%LPC*%
G36*
X366494Y301879D02*
X366494Y301879D01*
X363156Y303262D01*
X360602Y305816D01*
X359219Y309154D01*
X359219Y325846D01*
X360602Y329184D01*
X363156Y331738D01*
X366494Y333121D01*
X370106Y333121D01*
X373444Y331738D01*
X375998Y329184D01*
X377381Y325846D01*
X377381Y309154D01*
X375998Y305816D01*
X373444Y303262D01*
X370106Y301879D01*
X366494Y301879D01*
G37*
%LPD*%
%LPC*%
G36*
X391894Y301879D02*
X391894Y301879D01*
X388556Y303262D01*
X386002Y305816D01*
X384619Y309154D01*
X384619Y325846D01*
X386002Y329184D01*
X388556Y331738D01*
X391894Y333121D01*
X395506Y333121D01*
X398844Y331738D01*
X401398Y329184D01*
X402781Y325846D01*
X402781Y309154D01*
X401398Y305816D01*
X398844Y303262D01*
X395506Y301879D01*
X391894Y301879D01*
G37*
%LPD*%
%LPC*%
G36*
X442694Y301879D02*
X442694Y301879D01*
X439356Y303262D01*
X436802Y305816D01*
X435419Y309154D01*
X435419Y325846D01*
X436802Y329184D01*
X439356Y331738D01*
X442694Y333121D01*
X446306Y333121D01*
X449644Y331738D01*
X452198Y329184D01*
X453581Y325846D01*
X453581Y309154D01*
X452198Y305816D01*
X449644Y303262D01*
X446306Y301879D01*
X442694Y301879D01*
G37*
%LPD*%
%LPC*%
G36*
X417294Y301879D02*
X417294Y301879D01*
X413956Y303262D01*
X411402Y305816D01*
X410019Y309154D01*
X410019Y325846D01*
X411402Y329184D01*
X413956Y331738D01*
X417294Y333121D01*
X420906Y333121D01*
X424244Y331738D01*
X426798Y329184D01*
X428181Y325846D01*
X428181Y309154D01*
X426798Y305816D01*
X424244Y303262D01*
X420906Y301879D01*
X417294Y301879D01*
G37*
%LPD*%
%LPC*%
G36*
X468094Y301879D02*
X468094Y301879D01*
X464756Y303262D01*
X462202Y305816D01*
X460819Y309154D01*
X460819Y325846D01*
X462202Y329184D01*
X464756Y331738D01*
X468094Y333121D01*
X471706Y333121D01*
X475044Y331738D01*
X477598Y329184D01*
X478981Y325846D01*
X478981Y309154D01*
X477598Y305816D01*
X475044Y303262D01*
X471706Y301879D01*
X468094Y301879D01*
G37*
%LPD*%
%LPC*%
G36*
X315694Y301879D02*
X315694Y301879D01*
X312356Y303262D01*
X309802Y305816D01*
X308419Y309154D01*
X308419Y325846D01*
X309802Y329184D01*
X312356Y331738D01*
X315694Y333121D01*
X319306Y333121D01*
X322644Y331738D01*
X325198Y329184D01*
X326581Y325846D01*
X326581Y309154D01*
X325198Y305816D01*
X322644Y303262D01*
X319306Y301879D01*
X315694Y301879D01*
G37*
%LPD*%
%LPC*%
G36*
X290294Y301879D02*
X290294Y301879D01*
X286956Y303262D01*
X284402Y305816D01*
X283019Y309154D01*
X283019Y325846D01*
X284402Y329184D01*
X286956Y331738D01*
X290294Y333121D01*
X293906Y333121D01*
X297244Y331738D01*
X299798Y329184D01*
X301181Y325846D01*
X301181Y309154D01*
X299798Y305816D01*
X297244Y303262D01*
X293906Y301879D01*
X290294Y301879D01*
G37*
%LPD*%
%LPC*%
G36*
X264894Y301879D02*
X264894Y301879D01*
X261556Y303262D01*
X259002Y305816D01*
X257619Y309154D01*
X257619Y325846D01*
X259002Y329184D01*
X261556Y331738D01*
X264894Y333121D01*
X268506Y333121D01*
X271844Y331738D01*
X274398Y329184D01*
X275781Y325846D01*
X275781Y309154D01*
X274398Y305816D01*
X271844Y303262D01*
X268506Y301879D01*
X264894Y301879D01*
G37*
%LPD*%
%LPC*%
G36*
X239494Y301879D02*
X239494Y301879D01*
X236156Y303262D01*
X233602Y305816D01*
X232219Y309154D01*
X232219Y325846D01*
X233602Y329184D01*
X236156Y331738D01*
X239494Y333121D01*
X243106Y333121D01*
X246444Y331738D01*
X248998Y329184D01*
X250381Y325846D01*
X250381Y309154D01*
X248998Y305816D01*
X246444Y303262D01*
X243106Y301879D01*
X239494Y301879D01*
G37*
%LPD*%
%LPC*%
G36*
X188694Y301879D02*
X188694Y301879D01*
X185356Y303262D01*
X182802Y305816D01*
X181419Y309154D01*
X181419Y325846D01*
X182802Y329184D01*
X185356Y331738D01*
X188694Y333121D01*
X192306Y333121D01*
X195644Y331738D01*
X198198Y329184D01*
X199581Y325846D01*
X199581Y309154D01*
X198198Y305816D01*
X195644Y303262D01*
X192306Y301879D01*
X188694Y301879D01*
G37*
%LPD*%
%LPC*%
G36*
X163294Y301879D02*
X163294Y301879D01*
X159956Y303262D01*
X157402Y305816D01*
X156019Y309154D01*
X156019Y325846D01*
X157402Y329184D01*
X159956Y331738D01*
X163294Y333121D01*
X166906Y333121D01*
X170244Y331738D01*
X172798Y329184D01*
X174181Y325846D01*
X174181Y309154D01*
X172798Y305816D01*
X170244Y303262D01*
X166906Y301879D01*
X163294Y301879D01*
G37*
%LPD*%
%LPC*%
G36*
X417294Y149479D02*
X417294Y149479D01*
X413956Y150862D01*
X411402Y153416D01*
X410019Y156754D01*
X410019Y173446D01*
X411402Y176784D01*
X413956Y179338D01*
X417294Y180721D01*
X420906Y180721D01*
X424244Y179338D01*
X426798Y176784D01*
X428181Y173446D01*
X428181Y156754D01*
X426798Y153416D01*
X424244Y150862D01*
X420906Y149479D01*
X417294Y149479D01*
G37*
%LPD*%
%LPC*%
G36*
X366494Y149479D02*
X366494Y149479D01*
X363156Y150862D01*
X360602Y153416D01*
X359219Y156754D01*
X359219Y173446D01*
X360602Y176784D01*
X363156Y179338D01*
X366494Y180721D01*
X370106Y180721D01*
X373444Y179338D01*
X375998Y176784D01*
X377381Y173446D01*
X377381Y156754D01*
X375998Y153416D01*
X373444Y150862D01*
X370106Y149479D01*
X366494Y149479D01*
G37*
%LPD*%
%LPC*%
G36*
X341094Y149479D02*
X341094Y149479D01*
X337756Y150862D01*
X335202Y153416D01*
X333819Y156754D01*
X333819Y173446D01*
X335202Y176784D01*
X337756Y179338D01*
X341094Y180721D01*
X344706Y180721D01*
X348044Y179338D01*
X350598Y176784D01*
X351981Y173446D01*
X351981Y156754D01*
X350598Y153416D01*
X348044Y150862D01*
X344706Y149479D01*
X341094Y149479D01*
G37*
%LPD*%
%LPC*%
G36*
X344894Y725379D02*
X344894Y725379D01*
X341556Y726762D01*
X339002Y729316D01*
X337619Y732654D01*
X337619Y749346D01*
X339002Y752684D01*
X341556Y755238D01*
X344894Y756621D01*
X348506Y756621D01*
X351844Y755238D01*
X354398Y752684D01*
X355781Y749346D01*
X355781Y732654D01*
X354398Y729316D01*
X351844Y726762D01*
X348506Y725379D01*
X344894Y725379D01*
G37*
%LPD*%
%LPC*%
G36*
X264894Y149479D02*
X264894Y149479D01*
X261556Y150862D01*
X259002Y153416D01*
X257619Y156754D01*
X257619Y173446D01*
X259002Y176784D01*
X261556Y179338D01*
X264894Y180721D01*
X268506Y180721D01*
X271844Y179338D01*
X274398Y176784D01*
X275781Y173446D01*
X275781Y156754D01*
X274398Y153416D01*
X271844Y150862D01*
X268506Y149479D01*
X264894Y149479D01*
G37*
%LPD*%
%LPC*%
G36*
X239494Y149479D02*
X239494Y149479D01*
X236156Y150862D01*
X233602Y153416D01*
X232219Y156754D01*
X232219Y173446D01*
X233602Y176784D01*
X236156Y179338D01*
X239494Y180721D01*
X243106Y180721D01*
X246444Y179338D01*
X248998Y176784D01*
X250381Y173446D01*
X250381Y156754D01*
X248998Y153416D01*
X246444Y150862D01*
X243106Y149479D01*
X239494Y149479D01*
G37*
%LPD*%
%LPC*%
G36*
X214094Y149479D02*
X214094Y149479D01*
X210756Y150862D01*
X208202Y153416D01*
X206819Y156754D01*
X206819Y173446D01*
X208202Y176784D01*
X210756Y179338D01*
X214094Y180721D01*
X217706Y180721D01*
X221044Y179338D01*
X223598Y176784D01*
X224981Y173446D01*
X224981Y156754D01*
X223598Y153416D01*
X221044Y150862D01*
X217706Y149479D01*
X214094Y149479D01*
G37*
%LPD*%
%LPC*%
G36*
X137894Y149479D02*
X137894Y149479D01*
X134556Y150862D01*
X132002Y153416D01*
X130619Y156754D01*
X130619Y173446D01*
X132002Y176784D01*
X134556Y179338D01*
X137894Y180721D01*
X141506Y180721D01*
X144844Y179338D01*
X147398Y176784D01*
X148781Y173446D01*
X148781Y156754D01*
X147398Y153416D01*
X144844Y150862D01*
X141506Y149479D01*
X137894Y149479D01*
G37*
%LPD*%
%LPC*%
G36*
X112494Y149479D02*
X112494Y149479D01*
X109156Y150862D01*
X106602Y153416D01*
X105219Y156754D01*
X105219Y173446D01*
X106602Y176784D01*
X109156Y179338D01*
X112494Y180721D01*
X116106Y180721D01*
X119444Y179338D01*
X121998Y176784D01*
X123381Y173446D01*
X123381Y156754D01*
X121998Y153416D01*
X119444Y150862D01*
X116106Y149479D01*
X112494Y149479D01*
G37*
%LPD*%
%LPC*%
G36*
X468094Y149479D02*
X468094Y149479D01*
X464756Y150862D01*
X462202Y153416D01*
X460819Y156754D01*
X460819Y173446D01*
X462202Y176784D01*
X464756Y179338D01*
X468094Y180721D01*
X471706Y180721D01*
X475044Y179338D01*
X477598Y176784D01*
X478981Y173446D01*
X478981Y156754D01*
X477598Y153416D01*
X475044Y150862D01*
X471706Y149479D01*
X468094Y149479D01*
G37*
%LPD*%
%LPC*%
G36*
X163294Y149479D02*
X163294Y149479D01*
X159956Y150862D01*
X157402Y153416D01*
X156019Y156754D01*
X156019Y173446D01*
X157402Y176784D01*
X159956Y179338D01*
X163294Y180721D01*
X166906Y180721D01*
X170244Y179338D01*
X172798Y176784D01*
X174181Y173446D01*
X174181Y156754D01*
X172798Y153416D01*
X170244Y150862D01*
X166906Y149479D01*
X163294Y149479D01*
G37*
%LPD*%
%LPC*%
G36*
X395694Y725379D02*
X395694Y725379D01*
X392356Y726762D01*
X389802Y729316D01*
X388419Y732654D01*
X388419Y749346D01*
X389802Y752684D01*
X392356Y755238D01*
X395694Y756621D01*
X399306Y756621D01*
X402644Y755238D01*
X405198Y752684D01*
X406581Y749346D01*
X406581Y732654D01*
X405198Y729316D01*
X402644Y726762D01*
X399306Y725379D01*
X395694Y725379D01*
G37*
%LPD*%
%LPC*%
G36*
X243294Y725379D02*
X243294Y725379D01*
X239956Y726762D01*
X237402Y729316D01*
X236019Y732654D01*
X236019Y749346D01*
X237402Y752684D01*
X239956Y755238D01*
X243294Y756621D01*
X246906Y756621D01*
X250244Y755238D01*
X252798Y752684D01*
X254181Y749346D01*
X254181Y732654D01*
X252798Y729316D01*
X250244Y726762D01*
X246906Y725379D01*
X243294Y725379D01*
G37*
%LPD*%
%LPC*%
G36*
X370294Y725379D02*
X370294Y725379D01*
X366956Y726762D01*
X364402Y729316D01*
X363019Y732654D01*
X363019Y749346D01*
X364402Y752684D01*
X366956Y755238D01*
X370294Y756621D01*
X373906Y756621D01*
X377244Y755238D01*
X379798Y752684D01*
X381181Y749346D01*
X381181Y732654D01*
X379798Y729316D01*
X377244Y726762D01*
X373906Y725379D01*
X370294Y725379D01*
G37*
%LPD*%
%LPC*%
G36*
X185765Y52069D02*
X185765Y52069D01*
X179069Y58765D01*
X179069Y68235D01*
X185765Y74931D01*
X195235Y74931D01*
X201931Y68235D01*
X201931Y58765D01*
X195235Y52069D01*
X185765Y52069D01*
G37*
%LPD*%
%LPC*%
G36*
X236565Y52069D02*
X236565Y52069D01*
X229869Y58765D01*
X229869Y68235D01*
X236565Y74931D01*
X246035Y74931D01*
X252731Y68235D01*
X252731Y58765D01*
X246035Y52069D01*
X236565Y52069D01*
G37*
%LPD*%
%LPC*%
G36*
X261965Y52069D02*
X261965Y52069D01*
X255269Y58765D01*
X255269Y68235D01*
X261965Y74931D01*
X271435Y74931D01*
X278131Y68235D01*
X278131Y58765D01*
X271435Y52069D01*
X261965Y52069D01*
G37*
%LPD*%
%LPC*%
G36*
X820976Y179577D02*
X820976Y179577D01*
X814577Y185976D01*
X814577Y195024D01*
X820976Y201423D01*
X830024Y201423D01*
X836423Y195024D01*
X836423Y185976D01*
X830024Y179577D01*
X820976Y179577D01*
G37*
%LPD*%
%LPC*%
G36*
X820976Y306577D02*
X820976Y306577D01*
X814577Y312976D01*
X814577Y322024D01*
X820976Y328423D01*
X830024Y328423D01*
X836423Y322024D01*
X836423Y312976D01*
X830024Y306577D01*
X820976Y306577D01*
G37*
%LPD*%
%LPC*%
G36*
X909876Y103377D02*
X909876Y103377D01*
X903477Y109776D01*
X903477Y118824D01*
X909876Y125223D01*
X918924Y125223D01*
X925323Y118824D01*
X925323Y109776D01*
X918924Y103377D01*
X909876Y103377D01*
G37*
%LPD*%
%LPC*%
G36*
X677466Y237997D02*
X677466Y237997D01*
X671067Y244396D01*
X671067Y253444D01*
X677466Y259843D01*
X686514Y259843D01*
X692913Y253444D01*
X692913Y244396D01*
X686514Y237997D01*
X677466Y237997D01*
G37*
%LPD*%
%LPC*%
G36*
X820976Y39877D02*
X820976Y39877D01*
X814577Y46276D01*
X814577Y55324D01*
X820976Y61723D01*
X830024Y61723D01*
X836423Y55324D01*
X836423Y46276D01*
X830024Y39877D01*
X820976Y39877D01*
G37*
%LPD*%
%LPC*%
G36*
X455394Y232219D02*
X455394Y232219D01*
X452056Y233602D01*
X449502Y236156D01*
X448119Y239494D01*
X448119Y243106D01*
X449502Y246444D01*
X452056Y248998D01*
X455394Y250381D01*
X459006Y250381D01*
X462344Y248998D01*
X464898Y246444D01*
X466281Y243106D01*
X466281Y239494D01*
X464898Y236156D01*
X462344Y233602D01*
X459006Y232219D01*
X455394Y232219D01*
G37*
%LPD*%
%LPC*%
G36*
X480794Y232219D02*
X480794Y232219D01*
X477456Y233602D01*
X474902Y236156D01*
X473519Y239494D01*
X473519Y243106D01*
X474902Y246444D01*
X477456Y248998D01*
X480794Y250381D01*
X484406Y250381D01*
X487744Y248998D01*
X490298Y246444D01*
X491681Y243106D01*
X491681Y239494D01*
X490298Y236156D01*
X487744Y233602D01*
X484406Y232219D01*
X480794Y232219D01*
G37*
%LPD*%
%LPC*%
G36*
X455394Y206819D02*
X455394Y206819D01*
X452056Y208202D01*
X449502Y210756D01*
X448119Y214094D01*
X448119Y217706D01*
X449502Y221044D01*
X452056Y223598D01*
X455394Y224981D01*
X459006Y224981D01*
X462344Y223598D01*
X464898Y221044D01*
X466281Y217706D01*
X466281Y214094D01*
X464898Y210756D01*
X462344Y208202D01*
X459006Y206819D01*
X455394Y206819D01*
G37*
%LPD*%
%LPC*%
G36*
X480794Y206819D02*
X480794Y206819D01*
X477456Y208202D01*
X474902Y210756D01*
X473519Y214094D01*
X473519Y217706D01*
X474902Y221044D01*
X477456Y223598D01*
X480794Y224981D01*
X484406Y224981D01*
X487744Y223598D01*
X490298Y221044D01*
X491681Y217706D01*
X491681Y214094D01*
X490298Y210756D01*
X487744Y208202D01*
X484406Y206819D01*
X480794Y206819D01*
G37*
%LPD*%
%LPC*%
G36*
X480794Y257619D02*
X480794Y257619D01*
X477456Y259002D01*
X474902Y261556D01*
X473519Y264894D01*
X473519Y268506D01*
X474902Y271844D01*
X477456Y274398D01*
X480794Y275781D01*
X484406Y275781D01*
X487744Y274398D01*
X490298Y271844D01*
X491681Y268506D01*
X491681Y264894D01*
X490298Y261556D01*
X487744Y259002D01*
X484406Y257619D01*
X480794Y257619D01*
G37*
%LPD*%
%LPC*%
G36*
X455394Y257619D02*
X455394Y257619D01*
X452056Y259002D01*
X449502Y261556D01*
X448119Y264894D01*
X448119Y268506D01*
X449502Y271844D01*
X452056Y274398D01*
X455394Y275781D01*
X459006Y275781D01*
X462344Y274398D01*
X464898Y271844D01*
X466281Y268506D01*
X466281Y264894D01*
X464898Y261556D01*
X462344Y259002D01*
X459006Y257619D01*
X455394Y257619D01*
G37*
%LPD*%
%LPC*%
G36*
X49294Y68627D02*
X49294Y68627D01*
X46510Y69780D01*
X44380Y71910D01*
X43227Y74694D01*
X43227Y77706D01*
X44380Y80490D01*
X46510Y82620D01*
X49294Y83773D01*
X52306Y83773D01*
X55090Y82620D01*
X57220Y80490D01*
X58373Y77706D01*
X58373Y74694D01*
X57220Y71910D01*
X55090Y69780D01*
X52306Y68627D01*
X49294Y68627D01*
G37*
%LPD*%
G36*
X552808Y339356D02*
X552808Y339356D01*
X552880Y339358D01*
X552928Y339376D01*
X552980Y339384D01*
X553043Y339418D01*
X553111Y339443D01*
X553151Y339475D01*
X553197Y339500D01*
X553247Y339552D01*
X553303Y339596D01*
X553331Y339640D01*
X553367Y339678D01*
X553397Y339743D01*
X553436Y339803D01*
X553448Y339854D01*
X553470Y339901D01*
X553478Y339972D01*
X553496Y340042D01*
X553492Y340094D01*
X553497Y340145D01*
X553482Y340216D01*
X553476Y340287D01*
X553456Y340335D01*
X553445Y340386D01*
X553408Y340447D01*
X553380Y340513D01*
X553335Y340569D01*
X553319Y340597D01*
X553301Y340612D01*
X553275Y340644D01*
X551751Y342168D01*
X551677Y342221D01*
X551608Y342281D01*
X551578Y342293D01*
X551552Y342312D01*
X551464Y342339D01*
X551380Y342373D01*
X551339Y342377D01*
X551316Y342384D01*
X551284Y342383D01*
X551213Y342391D01*
X548345Y342391D01*
X548255Y342377D01*
X548164Y342369D01*
X548135Y342357D01*
X548103Y342352D01*
X548022Y342309D01*
X547938Y342273D01*
X547906Y342247D01*
X547885Y342236D01*
X547863Y342213D01*
X547807Y342168D01*
X546283Y340644D01*
X546241Y340586D01*
X546192Y340534D01*
X546170Y340487D01*
X546140Y340445D01*
X546119Y340376D01*
X546088Y340311D01*
X546083Y340259D01*
X546067Y340209D01*
X546069Y340138D01*
X546061Y340067D01*
X546072Y340016D01*
X546074Y339964D01*
X546098Y339896D01*
X546113Y339826D01*
X546140Y339782D01*
X546158Y339733D01*
X546203Y339677D01*
X546240Y339615D01*
X546279Y339581D01*
X546312Y339541D01*
X546372Y339502D01*
X546427Y339455D01*
X546475Y339436D01*
X546519Y339408D01*
X546588Y339390D01*
X546655Y339363D01*
X546726Y339355D01*
X546757Y339347D01*
X546781Y339349D01*
X546821Y339345D01*
X552737Y339345D01*
X552808Y339356D01*
G37*
D10*
X190500Y63500D03*
X215900Y63500D03*
X241300Y63500D03*
X266700Y63500D03*
X292100Y63500D03*
X317500Y63500D03*
X342900Y63500D03*
X368300Y63500D03*
D11*
X825500Y241300D03*
X825500Y317500D03*
X914400Y241300D03*
X914400Y317500D03*
X825500Y114300D03*
X825500Y190500D03*
X914400Y114300D03*
X914400Y190500D03*
D12*
X825500Y50800D03*
X901700Y50800D03*
D13*
X939800Y590296D02*
X939800Y603504D01*
X889000Y603504D02*
X889000Y590296D01*
X914400Y590296D02*
X914400Y603504D01*
D14*
X688048Y143828D03*
X662648Y143828D03*
X637248Y143828D03*
D15*
X681990Y325120D03*
X707390Y325120D03*
X681990Y299720D03*
X707390Y299720D03*
X681990Y274320D03*
X707390Y274320D03*
X681990Y248920D03*
X707390Y248920D03*
D16*
X469900Y310960D02*
X469900Y324040D01*
X444500Y324040D02*
X444500Y310960D01*
X419100Y310960D02*
X419100Y324040D01*
X393700Y324040D02*
X393700Y310960D01*
X368300Y310960D02*
X368300Y324040D01*
X342900Y324040D02*
X342900Y310960D01*
X317500Y310960D02*
X317500Y324040D01*
X292100Y324040D02*
X292100Y310960D01*
X266700Y310960D02*
X266700Y324040D01*
X241300Y324040D02*
X241300Y310960D01*
X215900Y310960D02*
X215900Y324040D01*
X190500Y324040D02*
X190500Y310960D01*
X469900Y171640D02*
X469900Y158560D01*
X444500Y158560D02*
X444500Y171640D01*
X419100Y171640D02*
X419100Y158560D01*
X266700Y158560D02*
X266700Y171640D01*
X241300Y171640D02*
X241300Y158560D01*
X215900Y158560D02*
X215900Y171640D01*
X190500Y171640D02*
X190500Y158560D01*
X114300Y158560D02*
X114300Y171640D01*
X114300Y310960D02*
X114300Y324040D01*
X139700Y324040D02*
X139700Y310960D01*
X165100Y310960D02*
X165100Y324040D01*
X139700Y171640D02*
X139700Y158560D01*
X165100Y158560D02*
X165100Y171640D01*
X393700Y171640D02*
X393700Y158560D01*
D17*
X457200Y215900D03*
X457200Y241300D03*
X457200Y266700D03*
D16*
X292100Y171640D02*
X292100Y158560D01*
X317500Y158560D02*
X317500Y171640D01*
X342900Y171640D02*
X342900Y158560D01*
X368300Y158560D02*
X368300Y171640D01*
D17*
X482600Y215900D03*
X482600Y241300D03*
X482600Y266700D03*
D18*
X482600Y63500D03*
D19*
X508000Y63500D03*
X533400Y63500D03*
D16*
X118100Y734460D02*
X118100Y747540D01*
X143500Y747540D02*
X143500Y734460D01*
X168900Y734460D02*
X168900Y747540D01*
X194300Y747540D02*
X194300Y734460D01*
X219700Y734460D02*
X219700Y747540D01*
X245100Y747540D02*
X245100Y734460D01*
X270500Y734460D02*
X270500Y747540D01*
X295900Y747540D02*
X295900Y734460D01*
X321300Y734460D02*
X321300Y747540D01*
X346700Y747540D02*
X346700Y734460D01*
X372100Y734460D02*
X372100Y747540D01*
X397500Y747540D02*
X397500Y734460D01*
X422900Y734460D02*
X422900Y747540D01*
X448300Y747540D02*
X448300Y734460D01*
X473700Y734460D02*
X473700Y747540D01*
X499100Y747540D02*
X499100Y734460D01*
D20*
X114554Y324104D02*
X114554Y318516D01*
X114554Y324104D02*
X170434Y379984D01*
X170434Y690118D01*
X114554Y318516D02*
X114300Y317500D01*
D21*
X170434Y690118D03*
D20*
X139700Y324104D02*
X139700Y317500D01*
X139700Y324104D02*
X184404Y368808D01*
X184404Y673354D01*
D21*
X184404Y673354D03*
D20*
X215900Y63500D02*
X234696Y44704D01*
X324104Y44704D01*
X342900Y63500D01*
X447040Y159258D02*
X447040Y164846D01*
X458216Y148082D02*
X502920Y103378D01*
X458216Y148082D02*
X447040Y159258D01*
X502920Y103378D02*
X502920Y81026D01*
X505714Y78232D01*
X505714Y64262D01*
X447040Y164846D02*
X444500Y165100D01*
X505714Y64262D02*
X508000Y63500D01*
X421894Y142494D02*
X342900Y63500D01*
X421894Y142494D02*
X452628Y142494D01*
X458216Y148082D01*
X637032Y145288D02*
X637032Y153670D01*
X642620Y159258D02*
X706882Y223520D01*
X642620Y159258D02*
X637032Y153670D01*
X706882Y223520D02*
X706882Y248666D01*
X637032Y145288D02*
X637248Y143828D01*
X706882Y248666D02*
X707390Y248920D01*
X715264Y223520D02*
X804672Y134112D01*
X824230Y114554D01*
X715264Y223520D02*
X706882Y223520D01*
X824230Y114554D02*
X825500Y114300D01*
X807466Y134112D02*
X913638Y240284D01*
X807466Y134112D02*
X804672Y134112D01*
X913638Y240284D02*
X914400Y241300D01*
X572770Y103378D02*
X502920Y103378D01*
X572770Y103378D02*
X631444Y162052D01*
X639826Y162052D01*
X642620Y159258D01*
X120142Y743204D02*
X120142Y745998D01*
X136906Y762762D01*
X203962Y762762D01*
X206756Y759968D02*
X217932Y748792D01*
X206756Y759968D02*
X203962Y762762D01*
X217932Y748792D02*
X217932Y743204D01*
X120142Y743204D02*
X118100Y741000D01*
X217932Y743204D02*
X219700Y741000D01*
X497332Y743204D02*
X497332Y754380D01*
X488950Y762762D01*
X209550Y762762D01*
X206756Y759968D01*
X497332Y743204D02*
X499100Y741000D01*
X877316Y595122D02*
X888492Y595122D01*
X877316Y595122D02*
X843788Y561594D01*
X843788Y410718D01*
X712470Y279400D01*
X709676Y279400D01*
X706882Y276606D01*
X888492Y595122D02*
X889000Y596900D01*
X706882Y276606D02*
X707390Y274320D01*
X664972Y740410D02*
X500126Y740410D01*
X664972Y740410D02*
X843788Y561594D01*
X500126Y740410D02*
X499100Y741000D01*
X704088Y251460D02*
X706882Y251460D01*
X704088Y251460D02*
X695706Y259842D01*
X695706Y262636D01*
X707390Y274320D01*
X706882Y251460D02*
X707390Y248920D01*
X416306Y483362D02*
X410718Y477774D01*
X416306Y483362D02*
X416306Y723646D01*
X421894Y729234D01*
X421894Y740410D01*
X422900Y741000D01*
D21*
X410718Y477774D03*
D20*
X421894Y472186D02*
X421894Y704088D01*
X447040Y729234D01*
X447040Y740410D01*
X448300Y741000D01*
D21*
X421894Y472186D03*
D20*
X891286Y61468D02*
X899668Y53086D01*
X891286Y61468D02*
X891286Y153670D01*
X916432Y178816D01*
X913638Y181610D01*
X913638Y189992D01*
X899668Y53086D02*
X901700Y50800D01*
X913638Y189992D02*
X914400Y190500D01*
X938784Y589534D02*
X938784Y595122D01*
X938784Y589534D02*
X849376Y500126D01*
X849376Y265430D01*
X827024Y243078D01*
X938784Y595122D02*
X939800Y596900D01*
X827024Y243078D02*
X825500Y241300D01*
X662178Y142494D02*
X597916Y78232D01*
X544830Y78232D01*
X530860Y64262D01*
X662178Y142494D02*
X662648Y143828D01*
X533400Y63500D02*
X530860Y64262D01*
X371602Y61468D02*
X368808Y61468D01*
X371602Y61468D02*
X379984Y53086D01*
X447040Y53086D01*
X449834Y55880D01*
X458216Y55880D01*
X469392Y44704D01*
X519684Y44704D01*
X530860Y55880D01*
X530860Y61468D01*
X368808Y61468D02*
X368300Y63500D01*
X530860Y61468D02*
X533400Y63500D01*
X145288Y729234D02*
X145288Y740410D01*
X528066Y346456D02*
X539242Y335280D01*
X528066Y346456D02*
X145288Y729234D01*
X664972Y335280D02*
X670560Y335280D01*
X664972Y335280D02*
X539242Y335280D01*
X670560Y335280D02*
X681736Y324104D01*
X145288Y740410D02*
X143500Y741000D01*
X681990Y325120D02*
X681736Y324104D01*
X681736Y301752D02*
X678942Y301752D01*
X664972Y315722D01*
X664972Y335280D01*
X681736Y301752D02*
X681990Y299720D01*
X441452Y215138D02*
X393954Y167640D01*
X441452Y215138D02*
X441452Y273812D01*
X461010Y293370D01*
X474980Y293370D01*
X528066Y346456D01*
X393954Y167640D02*
X393700Y165100D01*
X474980Y729234D02*
X474980Y740410D01*
X474980Y729234D02*
X782320Y421894D01*
X782320Y363220D01*
X474980Y740410D02*
X473700Y741000D01*
D21*
X782320Y363220D03*
D20*
X215138Y315722D02*
X215138Y310134D01*
X97790Y192786D01*
X97790Y131318D01*
X189992Y39116D01*
X447040Y39116D01*
X452628Y44704D01*
X215138Y315722D02*
X215900Y317500D01*
D21*
X452628Y44704D03*
D20*
X315722Y153670D02*
X315722Y164846D01*
X315722Y153670D02*
X307340Y145288D01*
X307340Y75438D01*
X318516Y64262D01*
X315722Y164846D02*
X317500Y165100D01*
X318516Y64262D02*
X317500Y63500D01*
X293370Y153670D02*
X293370Y164846D01*
X293370Y153670D02*
X298958Y148082D01*
X298958Y78232D01*
X293370Y72644D01*
X293370Y64262D01*
X293370Y164846D02*
X292100Y165100D01*
X293370Y64262D02*
X292100Y63500D01*
X92202Y145288D02*
X86614Y150876D01*
X92202Y145288D02*
X92202Y128524D01*
X187198Y33528D01*
X578358Y33528D01*
X687324Y142494D01*
X688048Y143828D01*
D21*
X86614Y150876D03*
D20*
X664972Y257048D02*
X681736Y273812D01*
X664972Y257048D02*
X664972Y240284D01*
X673354Y231902D01*
X692912Y231902D01*
X695706Y234696D01*
X681736Y273812D02*
X681990Y274320D01*
D21*
X695706Y234696D03*
D20*
X192786Y170434D02*
X192786Y167640D01*
X192786Y170434D02*
X304546Y282194D01*
X435864Y282194D01*
X561594Y352044D02*
X567182Y346456D01*
X670560Y346456D01*
X673354Y349250D01*
X715264Y349250D01*
X732028Y332486D01*
X732028Y312928D01*
X729234Y310134D01*
X192786Y167640D02*
X190500Y165100D01*
X910844Y315722D02*
X913638Y315722D01*
X910844Y315722D02*
X843788Y248666D01*
X843788Y234696D01*
X832612Y223520D01*
X815848Y223520D01*
X743204Y296164D01*
X913638Y315722D02*
X914400Y317500D01*
D21*
X435864Y282194D03*
X561594Y352044D03*
X729234Y310134D03*
X743204Y296164D03*
D20*
X553212Y346456D02*
X542036Y346456D01*
X553212Y346456D02*
X558800Y340868D01*
X673354Y340868D01*
X676148Y343662D01*
X712470Y343662D01*
X726440Y329692D01*
X726440Y321310D01*
X718058Y312928D01*
X718058Y310134D01*
X712470Y304546D01*
X709676Y304546D01*
X706882Y301752D01*
X707390Y299720D01*
D21*
X542036Y346456D03*
D20*
X195580Y768350D02*
X189992Y773938D01*
X195580Y768350D02*
X740410Y768350D01*
X888492Y620268D01*
X896874Y620268D01*
X913638Y603504D01*
X913638Y597916D01*
X914400Y596900D01*
D21*
X189992Y773938D03*
D22*
X50800Y76200D03*
M02*
