G04 EAGLE Gerber RS-274X export*
G75*
%MOMM*%
%FSLAX34Y34*%
%LPD*%
%INBottom Soldermask*%
%IPPOS*%
%AMOC8*
5,1,8,0,0,1.08239X$1,22.5*%
G01*
%ADD10C,3.203200*%
%ADD11P,2.144431X8X112.500000*%
%ADD12P,2.034460X8X112.500000*%
%ADD13P,2.034460X8X22.500000*%
%ADD14C,1.524000*%
%ADD15C,1.727200*%
%ADD16P,2.034460X8X292.500000*%
%ADD17C,1.511200*%
%ADD18C,1.511200*%
%ADD19R,2.133600X2.133600*%
%ADD20C,2.133600*%
%ADD21C,3.003200*%
%ADD22C,1.117600*%
%ADD23C,1.209600*%


D10*
X40000Y40000D03*
X960000Y40000D03*
X960000Y760000D03*
D11*
X190500Y63500D03*
X215900Y63500D03*
X241300Y63500D03*
X266700Y63500D03*
X292100Y63500D03*
X317500Y63500D03*
X342900Y63500D03*
X368300Y63500D03*
D12*
X825500Y241300D03*
X825500Y317500D03*
X914400Y241300D03*
X914400Y317500D03*
X825500Y114300D03*
X825500Y190500D03*
X914400Y114300D03*
X914400Y190500D03*
D13*
X825500Y50800D03*
X901700Y50800D03*
D14*
X939800Y590296D02*
X939800Y603504D01*
X889000Y603504D02*
X889000Y590296D01*
X914400Y590296D02*
X914400Y603504D01*
D15*
X688048Y143828D03*
X662648Y143828D03*
X637248Y143828D03*
D16*
X681990Y325120D03*
X707390Y325120D03*
X681990Y299720D03*
X707390Y299720D03*
X681990Y274320D03*
X707390Y274320D03*
X681990Y248920D03*
X707390Y248920D03*
D17*
X469900Y310960D02*
X469900Y324040D01*
X444500Y324040D02*
X444500Y310960D01*
X419100Y310960D02*
X419100Y324040D01*
X393700Y324040D02*
X393700Y310960D01*
X368300Y310960D02*
X368300Y324040D01*
X342900Y324040D02*
X342900Y310960D01*
X317500Y310960D02*
X317500Y324040D01*
X292100Y324040D02*
X292100Y310960D01*
X266700Y310960D02*
X266700Y324040D01*
X241300Y324040D02*
X241300Y310960D01*
X215900Y310960D02*
X215900Y324040D01*
X190500Y324040D02*
X190500Y310960D01*
X469900Y171640D02*
X469900Y158560D01*
X444500Y158560D02*
X444500Y171640D01*
X419100Y171640D02*
X419100Y158560D01*
X266700Y158560D02*
X266700Y171640D01*
X241300Y171640D02*
X241300Y158560D01*
X215900Y158560D02*
X215900Y171640D01*
X190500Y171640D02*
X190500Y158560D01*
X114300Y158560D02*
X114300Y171640D01*
X114300Y310960D02*
X114300Y324040D01*
X139700Y324040D02*
X139700Y310960D01*
X165100Y310960D02*
X165100Y324040D01*
X139700Y171640D02*
X139700Y158560D01*
X165100Y158560D02*
X165100Y171640D01*
X393700Y171640D02*
X393700Y158560D01*
D18*
X457200Y215900D03*
X457200Y241300D03*
X457200Y266700D03*
D17*
X292100Y171640D02*
X292100Y158560D01*
X317500Y158560D02*
X317500Y171640D01*
X342900Y171640D02*
X342900Y158560D01*
X368300Y158560D02*
X368300Y171640D01*
D18*
X482600Y215900D03*
X482600Y241300D03*
X482600Y266700D03*
D19*
X482600Y63500D03*
D20*
X508000Y63500D03*
X533400Y63500D03*
D17*
X118100Y734460D02*
X118100Y747540D01*
X143500Y747540D02*
X143500Y734460D01*
X168900Y734460D02*
X168900Y747540D01*
X194300Y747540D02*
X194300Y734460D01*
X219700Y734460D02*
X219700Y747540D01*
X245100Y747540D02*
X245100Y734460D01*
X270500Y734460D02*
X270500Y747540D01*
X295900Y747540D02*
X295900Y734460D01*
X321300Y734460D02*
X321300Y747540D01*
X346700Y747540D02*
X346700Y734460D01*
X372100Y734460D02*
X372100Y747540D01*
X397500Y747540D02*
X397500Y734460D01*
X422900Y734460D02*
X422900Y747540D01*
X448300Y747540D02*
X448300Y734460D01*
X473700Y734460D02*
X473700Y747540D01*
X499100Y747540D02*
X499100Y734460D01*
D21*
X63500Y431800D03*
X63500Y741000D03*
X812700Y741000D03*
X812700Y431800D03*
D22*
X170434Y690118D03*
X184404Y673354D03*
X410718Y477774D03*
X421894Y472186D03*
X782320Y363220D03*
X452628Y44704D03*
X86614Y150876D03*
X695706Y234696D03*
X435864Y282194D03*
X561594Y352044D03*
X729234Y310134D03*
X743204Y296164D03*
X542036Y346456D03*
X189992Y773938D03*
D23*
X50800Y76200D03*
M02*
