G04 EAGLE Gerber RS-274X export*
G75*
%MOMM*%
%FSLAX34Y34*%
%LPD*%
%INTop Silkscreen*%
%IPPOS*%
%AMOC8*
5,1,8,0,0,1.08239X$1,22.5*%
G01*
%ADD10C,0.152400*%
%ADD11C,0.127000*%
%ADD12R,0.508000X0.381000*%
%ADD13R,0.381000X0.508000*%
%ADD14C,0.406400*%


D10*
X674522Y355991D02*
X685360Y355991D01*
X679941Y350572D02*
X679941Y361410D01*
X708911Y355991D02*
X719748Y355991D01*
X595231Y336893D02*
X595231Y320637D01*
X590715Y336893D02*
X599746Y336893D01*
X605771Y331474D02*
X605771Y320637D01*
X605771Y331474D02*
X611190Y331474D01*
X611190Y329668D01*
X616072Y331474D02*
X616072Y320637D01*
X615621Y335990D02*
X615621Y336893D01*
X616524Y336893D01*
X616524Y335990D01*
X615621Y335990D01*
X624996Y320637D02*
X629511Y320637D01*
X624996Y320637D02*
X624895Y320639D01*
X624794Y320645D01*
X624693Y320654D01*
X624592Y320667D01*
X624492Y320684D01*
X624393Y320705D01*
X624295Y320729D01*
X624198Y320757D01*
X624101Y320789D01*
X624006Y320824D01*
X623913Y320863D01*
X623821Y320905D01*
X623730Y320951D01*
X623642Y321000D01*
X623555Y321052D01*
X623470Y321108D01*
X623387Y321166D01*
X623307Y321228D01*
X623229Y321293D01*
X623153Y321360D01*
X623080Y321430D01*
X623010Y321503D01*
X622943Y321579D01*
X622878Y321657D01*
X622816Y321737D01*
X622758Y321820D01*
X622702Y321905D01*
X622650Y321992D01*
X622601Y322080D01*
X622555Y322171D01*
X622513Y322263D01*
X622474Y322356D01*
X622439Y322451D01*
X622407Y322548D01*
X622379Y322645D01*
X622355Y322743D01*
X622334Y322842D01*
X622317Y322942D01*
X622304Y323043D01*
X622295Y323144D01*
X622289Y323245D01*
X622287Y323346D01*
X622286Y323346D02*
X622286Y328765D01*
X622287Y328765D02*
X622289Y328866D01*
X622295Y328967D01*
X622304Y329068D01*
X622317Y329169D01*
X622334Y329269D01*
X622355Y329368D01*
X622379Y329466D01*
X622407Y329563D01*
X622439Y329660D01*
X622474Y329755D01*
X622513Y329848D01*
X622555Y329940D01*
X622601Y330031D01*
X622650Y330120D01*
X622702Y330206D01*
X622758Y330291D01*
X622816Y330374D01*
X622878Y330454D01*
X622943Y330532D01*
X623010Y330608D01*
X623080Y330681D01*
X623153Y330751D01*
X623229Y330818D01*
X623307Y330883D01*
X623387Y330945D01*
X623470Y331003D01*
X623555Y331059D01*
X623642Y331111D01*
X623730Y331160D01*
X623821Y331206D01*
X623913Y331248D01*
X624006Y331287D01*
X624101Y331322D01*
X624198Y331354D01*
X624295Y331382D01*
X624393Y331406D01*
X624492Y331427D01*
X624592Y331444D01*
X624693Y331457D01*
X624794Y331466D01*
X624895Y331472D01*
X624996Y331474D01*
X629511Y331474D01*
X629511Y317928D01*
X629509Y317824D01*
X629503Y317721D01*
X629493Y317617D01*
X629479Y317514D01*
X629461Y317412D01*
X629440Y317311D01*
X629414Y317210D01*
X629385Y317111D01*
X629352Y317012D01*
X629315Y316915D01*
X629274Y316820D01*
X629230Y316726D01*
X629182Y316634D01*
X629131Y316544D01*
X629076Y316455D01*
X629018Y316369D01*
X628956Y316286D01*
X628892Y316204D01*
X628824Y316126D01*
X628754Y316050D01*
X628681Y315976D01*
X628604Y315906D01*
X628526Y315838D01*
X628444Y315774D01*
X628361Y315712D01*
X628275Y315654D01*
X628186Y315599D01*
X628096Y315548D01*
X628004Y315500D01*
X627910Y315456D01*
X627815Y315415D01*
X627718Y315378D01*
X627619Y315345D01*
X627520Y315316D01*
X627419Y315290D01*
X627318Y315269D01*
X627216Y315251D01*
X627113Y315237D01*
X627009Y315227D01*
X626906Y315221D01*
X626802Y315219D01*
X626802Y315218D02*
X623189Y315218D01*
X644903Y333280D02*
X649419Y336893D01*
X649419Y320637D01*
X653934Y320637D02*
X644903Y320637D01*
X595231Y310223D02*
X595231Y293967D01*
X590715Y310223D02*
X599746Y310223D01*
X605771Y304804D02*
X605771Y293967D01*
X605771Y304804D02*
X611190Y304804D01*
X611190Y302998D01*
X616072Y304804D02*
X616072Y293967D01*
X615621Y309320D02*
X615621Y310223D01*
X616524Y310223D01*
X616524Y309320D01*
X615621Y309320D01*
X624996Y293967D02*
X629511Y293967D01*
X624996Y293967D02*
X624895Y293969D01*
X624794Y293975D01*
X624693Y293984D01*
X624592Y293997D01*
X624492Y294014D01*
X624393Y294035D01*
X624295Y294059D01*
X624198Y294087D01*
X624101Y294119D01*
X624006Y294154D01*
X623913Y294193D01*
X623821Y294235D01*
X623730Y294281D01*
X623642Y294330D01*
X623555Y294382D01*
X623470Y294438D01*
X623387Y294496D01*
X623307Y294558D01*
X623229Y294623D01*
X623153Y294690D01*
X623080Y294760D01*
X623010Y294833D01*
X622943Y294909D01*
X622878Y294987D01*
X622816Y295067D01*
X622758Y295150D01*
X622702Y295235D01*
X622650Y295322D01*
X622601Y295410D01*
X622555Y295501D01*
X622513Y295593D01*
X622474Y295686D01*
X622439Y295781D01*
X622407Y295878D01*
X622379Y295975D01*
X622355Y296073D01*
X622334Y296172D01*
X622317Y296272D01*
X622304Y296373D01*
X622295Y296474D01*
X622289Y296575D01*
X622287Y296676D01*
X622286Y296676D02*
X622286Y302095D01*
X622287Y302095D02*
X622289Y302196D01*
X622295Y302297D01*
X622304Y302398D01*
X622317Y302499D01*
X622334Y302599D01*
X622355Y302698D01*
X622379Y302796D01*
X622407Y302893D01*
X622439Y302990D01*
X622474Y303085D01*
X622513Y303178D01*
X622555Y303270D01*
X622601Y303361D01*
X622650Y303450D01*
X622702Y303536D01*
X622758Y303621D01*
X622816Y303704D01*
X622878Y303784D01*
X622943Y303862D01*
X623010Y303938D01*
X623080Y304011D01*
X623153Y304081D01*
X623229Y304148D01*
X623307Y304213D01*
X623387Y304275D01*
X623470Y304333D01*
X623555Y304389D01*
X623642Y304441D01*
X623730Y304490D01*
X623821Y304536D01*
X623913Y304578D01*
X624006Y304617D01*
X624101Y304652D01*
X624198Y304684D01*
X624295Y304712D01*
X624393Y304736D01*
X624492Y304757D01*
X624592Y304774D01*
X624693Y304787D01*
X624794Y304796D01*
X624895Y304802D01*
X624996Y304804D01*
X629511Y304804D01*
X629511Y291258D01*
X629509Y291154D01*
X629503Y291051D01*
X629493Y290947D01*
X629479Y290844D01*
X629461Y290742D01*
X629440Y290641D01*
X629414Y290540D01*
X629385Y290441D01*
X629352Y290342D01*
X629315Y290245D01*
X629274Y290150D01*
X629230Y290056D01*
X629182Y289964D01*
X629131Y289874D01*
X629076Y289785D01*
X629018Y289699D01*
X628956Y289616D01*
X628892Y289534D01*
X628824Y289456D01*
X628754Y289380D01*
X628681Y289306D01*
X628604Y289236D01*
X628526Y289168D01*
X628444Y289104D01*
X628361Y289042D01*
X628275Y288984D01*
X628186Y288929D01*
X628096Y288878D01*
X628004Y288830D01*
X627910Y288786D01*
X627815Y288745D01*
X627718Y288708D01*
X627619Y288675D01*
X627520Y288646D01*
X627419Y288620D01*
X627318Y288599D01*
X627216Y288581D01*
X627113Y288567D01*
X627009Y288557D01*
X626906Y288551D01*
X626802Y288549D01*
X626802Y288548D02*
X623189Y288548D01*
X649870Y310223D02*
X649995Y310221D01*
X650120Y310215D01*
X650245Y310206D01*
X650369Y310192D01*
X650493Y310175D01*
X650617Y310154D01*
X650739Y310129D01*
X650861Y310100D01*
X650982Y310068D01*
X651102Y310032D01*
X651221Y309992D01*
X651338Y309949D01*
X651454Y309902D01*
X651569Y309851D01*
X651681Y309797D01*
X651793Y309739D01*
X651902Y309679D01*
X652009Y309614D01*
X652115Y309547D01*
X652218Y309476D01*
X652319Y309402D01*
X652418Y309325D01*
X652514Y309245D01*
X652608Y309162D01*
X652699Y309077D01*
X652788Y308988D01*
X652873Y308897D01*
X652956Y308803D01*
X653036Y308707D01*
X653113Y308608D01*
X653187Y308507D01*
X653258Y308404D01*
X653325Y308298D01*
X653390Y308191D01*
X653450Y308082D01*
X653508Y307970D01*
X653562Y307858D01*
X653613Y307743D01*
X653660Y307627D01*
X653703Y307510D01*
X653743Y307391D01*
X653779Y307271D01*
X653811Y307150D01*
X653840Y307028D01*
X653865Y306906D01*
X653886Y306782D01*
X653903Y306658D01*
X653917Y306534D01*
X653926Y306409D01*
X653932Y306284D01*
X653934Y306159D01*
X649870Y310223D02*
X649727Y310221D01*
X649585Y310215D01*
X649442Y310205D01*
X649300Y310192D01*
X649159Y310174D01*
X649017Y310153D01*
X648877Y310128D01*
X648737Y310099D01*
X648598Y310066D01*
X648460Y310029D01*
X648323Y309989D01*
X648188Y309945D01*
X648053Y309897D01*
X647920Y309845D01*
X647788Y309790D01*
X647658Y309731D01*
X647530Y309669D01*
X647403Y309603D01*
X647278Y309534D01*
X647155Y309462D01*
X647035Y309386D01*
X646916Y309307D01*
X646799Y309224D01*
X646685Y309139D01*
X646573Y309050D01*
X646464Y308959D01*
X646357Y308864D01*
X646252Y308767D01*
X646151Y308666D01*
X646052Y308563D01*
X645956Y308458D01*
X645863Y308349D01*
X645773Y308238D01*
X645686Y308125D01*
X645602Y308010D01*
X645522Y307892D01*
X645444Y307772D01*
X645370Y307650D01*
X645300Y307526D01*
X645232Y307400D01*
X645169Y307272D01*
X645108Y307143D01*
X645051Y307012D01*
X644998Y306880D01*
X644949Y306746D01*
X644903Y306611D01*
X652579Y302998D02*
X652673Y303090D01*
X652763Y303184D01*
X652851Y303281D01*
X652936Y303381D01*
X653018Y303483D01*
X653097Y303588D01*
X653172Y303695D01*
X653244Y303804D01*
X653313Y303915D01*
X653379Y304029D01*
X653441Y304144D01*
X653500Y304261D01*
X653555Y304380D01*
X653606Y304500D01*
X653654Y304622D01*
X653699Y304745D01*
X653739Y304869D01*
X653776Y304995D01*
X653809Y305122D01*
X653838Y305249D01*
X653864Y305378D01*
X653885Y305507D01*
X653903Y305637D01*
X653916Y305767D01*
X653926Y305897D01*
X653932Y306028D01*
X653934Y306159D01*
X652580Y302998D02*
X644903Y293967D01*
X653934Y293967D01*
X590715Y283553D02*
X590715Y267297D01*
X597940Y267297D01*
X604262Y267297D02*
X611487Y267297D01*
X604262Y267297D02*
X604262Y283553D01*
X611487Y283553D01*
X609681Y276328D02*
X604262Y276328D01*
X617779Y283553D02*
X617779Y267297D01*
X617779Y283553D02*
X622295Y283553D01*
X622426Y283551D01*
X622558Y283545D01*
X622689Y283536D01*
X622819Y283522D01*
X622950Y283505D01*
X623079Y283484D01*
X623208Y283460D01*
X623336Y283431D01*
X623464Y283399D01*
X623590Y283363D01*
X623715Y283324D01*
X623840Y283281D01*
X623962Y283234D01*
X624084Y283184D01*
X624204Y283130D01*
X624322Y283073D01*
X624438Y283012D01*
X624553Y282948D01*
X624666Y282881D01*
X624777Y282810D01*
X624885Y282736D01*
X624992Y282659D01*
X625096Y282579D01*
X625198Y282496D01*
X625297Y282411D01*
X625394Y282322D01*
X625488Y282230D01*
X625580Y282136D01*
X625669Y282039D01*
X625754Y281940D01*
X625837Y281838D01*
X625917Y281734D01*
X625994Y281627D01*
X626068Y281519D01*
X626139Y281408D01*
X626206Y281295D01*
X626270Y281180D01*
X626331Y281064D01*
X626388Y280946D01*
X626442Y280826D01*
X626492Y280704D01*
X626539Y280582D01*
X626582Y280457D01*
X626621Y280332D01*
X626657Y280206D01*
X626689Y280078D01*
X626718Y279950D01*
X626742Y279821D01*
X626763Y279692D01*
X626780Y279561D01*
X626794Y279431D01*
X626803Y279300D01*
X626809Y279168D01*
X626811Y279037D01*
X626811Y271812D01*
X626809Y271681D01*
X626803Y271549D01*
X626794Y271418D01*
X626780Y271288D01*
X626763Y271157D01*
X626742Y271028D01*
X626718Y270899D01*
X626689Y270771D01*
X626657Y270643D01*
X626621Y270517D01*
X626582Y270392D01*
X626539Y270267D01*
X626492Y270145D01*
X626442Y270023D01*
X626388Y269903D01*
X626331Y269785D01*
X626270Y269669D01*
X626206Y269554D01*
X626139Y269441D01*
X626068Y269330D01*
X625994Y269222D01*
X625917Y269115D01*
X625837Y269011D01*
X625754Y268909D01*
X625669Y268810D01*
X625580Y268713D01*
X625488Y268619D01*
X625394Y268527D01*
X625297Y268438D01*
X625198Y268353D01*
X625096Y268270D01*
X624992Y268190D01*
X624885Y268113D01*
X624777Y268039D01*
X624666Y267968D01*
X624553Y267901D01*
X624438Y267837D01*
X624322Y267776D01*
X624204Y267719D01*
X624084Y267665D01*
X623962Y267615D01*
X623840Y267568D01*
X623715Y267525D01*
X623590Y267486D01*
X623464Y267450D01*
X623336Y267418D01*
X623208Y267389D01*
X623079Y267365D01*
X622949Y267344D01*
X622819Y267327D01*
X622689Y267313D01*
X622558Y267304D01*
X622426Y267298D01*
X622295Y267296D01*
X622295Y267297D02*
X617779Y267297D01*
X642268Y279940D02*
X646784Y283553D01*
X646784Y267297D01*
X651299Y267297D02*
X642268Y267297D01*
X590715Y256883D02*
X590715Y240627D01*
X597940Y240627D01*
X604262Y240627D02*
X611487Y240627D01*
X604262Y240627D02*
X604262Y256883D01*
X611487Y256883D01*
X609681Y249658D02*
X604262Y249658D01*
X617779Y256883D02*
X617779Y240627D01*
X617779Y256883D02*
X622295Y256883D01*
X622426Y256881D01*
X622558Y256875D01*
X622689Y256866D01*
X622819Y256852D01*
X622950Y256835D01*
X623079Y256814D01*
X623208Y256790D01*
X623336Y256761D01*
X623464Y256729D01*
X623590Y256693D01*
X623715Y256654D01*
X623840Y256611D01*
X623962Y256564D01*
X624084Y256514D01*
X624204Y256460D01*
X624322Y256403D01*
X624438Y256342D01*
X624553Y256278D01*
X624666Y256211D01*
X624777Y256140D01*
X624885Y256066D01*
X624992Y255989D01*
X625096Y255909D01*
X625198Y255826D01*
X625297Y255741D01*
X625394Y255652D01*
X625488Y255560D01*
X625580Y255466D01*
X625669Y255369D01*
X625754Y255270D01*
X625837Y255168D01*
X625917Y255064D01*
X625994Y254957D01*
X626068Y254849D01*
X626139Y254738D01*
X626206Y254625D01*
X626270Y254510D01*
X626331Y254394D01*
X626388Y254276D01*
X626442Y254156D01*
X626492Y254034D01*
X626539Y253912D01*
X626582Y253787D01*
X626621Y253662D01*
X626657Y253536D01*
X626689Y253408D01*
X626718Y253280D01*
X626742Y253151D01*
X626763Y253022D01*
X626780Y252891D01*
X626794Y252761D01*
X626803Y252630D01*
X626809Y252498D01*
X626811Y252367D01*
X626811Y245142D01*
X626809Y245011D01*
X626803Y244879D01*
X626794Y244748D01*
X626780Y244618D01*
X626763Y244487D01*
X626742Y244358D01*
X626718Y244229D01*
X626689Y244101D01*
X626657Y243973D01*
X626621Y243847D01*
X626582Y243722D01*
X626539Y243597D01*
X626492Y243475D01*
X626442Y243353D01*
X626388Y243233D01*
X626331Y243115D01*
X626270Y242999D01*
X626206Y242884D01*
X626139Y242771D01*
X626068Y242660D01*
X625994Y242552D01*
X625917Y242445D01*
X625837Y242341D01*
X625754Y242239D01*
X625669Y242140D01*
X625580Y242043D01*
X625488Y241949D01*
X625394Y241857D01*
X625297Y241768D01*
X625198Y241683D01*
X625096Y241600D01*
X624992Y241520D01*
X624885Y241443D01*
X624777Y241369D01*
X624666Y241298D01*
X624553Y241231D01*
X624438Y241167D01*
X624322Y241106D01*
X624204Y241049D01*
X624084Y240995D01*
X623962Y240945D01*
X623840Y240898D01*
X623715Y240855D01*
X623590Y240816D01*
X623464Y240780D01*
X623336Y240748D01*
X623208Y240719D01*
X623079Y240695D01*
X622949Y240674D01*
X622819Y240657D01*
X622689Y240643D01*
X622558Y240634D01*
X622426Y240628D01*
X622295Y240626D01*
X622295Y240627D02*
X617779Y240627D01*
X638899Y256883D02*
X639024Y256881D01*
X639149Y256875D01*
X639274Y256866D01*
X639398Y256852D01*
X639522Y256835D01*
X639646Y256814D01*
X639768Y256789D01*
X639890Y256760D01*
X640011Y256728D01*
X640131Y256692D01*
X640250Y256652D01*
X640367Y256609D01*
X640483Y256562D01*
X640598Y256511D01*
X640710Y256457D01*
X640822Y256399D01*
X640931Y256339D01*
X641038Y256274D01*
X641144Y256207D01*
X641247Y256136D01*
X641348Y256062D01*
X641447Y255985D01*
X641543Y255905D01*
X641637Y255822D01*
X641728Y255737D01*
X641817Y255648D01*
X641902Y255557D01*
X641985Y255463D01*
X642065Y255367D01*
X642142Y255268D01*
X642216Y255167D01*
X642287Y255064D01*
X642354Y254958D01*
X642419Y254851D01*
X642479Y254742D01*
X642537Y254630D01*
X642591Y254518D01*
X642642Y254403D01*
X642689Y254287D01*
X642732Y254170D01*
X642772Y254051D01*
X642808Y253931D01*
X642840Y253810D01*
X642869Y253688D01*
X642894Y253566D01*
X642915Y253442D01*
X642932Y253318D01*
X642946Y253194D01*
X642955Y253069D01*
X642961Y252944D01*
X642963Y252819D01*
X638899Y256883D02*
X638756Y256881D01*
X638614Y256875D01*
X638471Y256865D01*
X638329Y256852D01*
X638188Y256834D01*
X638046Y256813D01*
X637906Y256788D01*
X637766Y256759D01*
X637627Y256726D01*
X637489Y256689D01*
X637352Y256649D01*
X637217Y256605D01*
X637082Y256557D01*
X636949Y256505D01*
X636817Y256450D01*
X636687Y256391D01*
X636559Y256329D01*
X636432Y256263D01*
X636307Y256194D01*
X636184Y256122D01*
X636064Y256046D01*
X635945Y255967D01*
X635828Y255884D01*
X635714Y255799D01*
X635602Y255710D01*
X635493Y255619D01*
X635386Y255524D01*
X635281Y255427D01*
X635180Y255326D01*
X635081Y255223D01*
X634985Y255118D01*
X634892Y255009D01*
X634802Y254898D01*
X634715Y254785D01*
X634631Y254670D01*
X634551Y254552D01*
X634473Y254432D01*
X634399Y254310D01*
X634329Y254186D01*
X634261Y254060D01*
X634198Y253932D01*
X634137Y253803D01*
X634080Y253672D01*
X634027Y253540D01*
X633978Y253406D01*
X633932Y253271D01*
X641608Y249658D02*
X641702Y249750D01*
X641792Y249844D01*
X641880Y249941D01*
X641965Y250041D01*
X642047Y250143D01*
X642126Y250248D01*
X642201Y250355D01*
X642273Y250464D01*
X642342Y250575D01*
X642408Y250689D01*
X642470Y250804D01*
X642529Y250921D01*
X642584Y251040D01*
X642635Y251160D01*
X642683Y251282D01*
X642728Y251405D01*
X642768Y251529D01*
X642805Y251655D01*
X642838Y251782D01*
X642867Y251909D01*
X642893Y252038D01*
X642914Y252167D01*
X642932Y252297D01*
X642945Y252427D01*
X642955Y252557D01*
X642961Y252688D01*
X642963Y252819D01*
X641608Y249658D02*
X633932Y240627D01*
X642963Y240627D01*
X641342Y173593D02*
X630504Y173593D01*
X664893Y173593D02*
X675730Y173593D01*
X670312Y168175D02*
X670312Y179012D01*
X704040Y167272D02*
X704158Y167274D01*
X704276Y167280D01*
X704394Y167289D01*
X704511Y167303D01*
X704628Y167320D01*
X704745Y167341D01*
X704860Y167366D01*
X704975Y167395D01*
X705089Y167428D01*
X705201Y167464D01*
X705312Y167504D01*
X705422Y167547D01*
X705531Y167594D01*
X705638Y167644D01*
X705743Y167699D01*
X705846Y167756D01*
X705947Y167817D01*
X706047Y167881D01*
X706144Y167948D01*
X706239Y168018D01*
X706331Y168092D01*
X706422Y168168D01*
X706509Y168248D01*
X706594Y168330D01*
X706676Y168415D01*
X706756Y168502D01*
X706832Y168593D01*
X706906Y168685D01*
X706976Y168780D01*
X707043Y168877D01*
X707107Y168977D01*
X707168Y169078D01*
X707225Y169181D01*
X707280Y169286D01*
X707330Y169393D01*
X707377Y169502D01*
X707420Y169612D01*
X707460Y169723D01*
X707496Y169835D01*
X707529Y169949D01*
X707558Y170064D01*
X707583Y170179D01*
X707604Y170296D01*
X707621Y170413D01*
X707635Y170530D01*
X707644Y170648D01*
X707650Y170766D01*
X707652Y170884D01*
X704040Y167272D02*
X703857Y167274D01*
X703675Y167281D01*
X703493Y167292D01*
X703311Y167307D01*
X703129Y167327D01*
X702948Y167350D01*
X702768Y167379D01*
X702588Y167411D01*
X702409Y167448D01*
X702232Y167489D01*
X702055Y167535D01*
X701879Y167584D01*
X701705Y167638D01*
X701531Y167696D01*
X701360Y167758D01*
X701190Y167824D01*
X701021Y167895D01*
X700854Y167969D01*
X700689Y168047D01*
X700526Y168129D01*
X700365Y168215D01*
X700206Y168305D01*
X700049Y168399D01*
X699895Y168496D01*
X699743Y168597D01*
X699593Y168702D01*
X699446Y168810D01*
X699302Y168921D01*
X699160Y169036D01*
X699021Y169155D01*
X698885Y169277D01*
X698752Y169402D01*
X698622Y169530D01*
X699073Y179915D02*
X699075Y180033D01*
X699081Y180151D01*
X699090Y180269D01*
X699104Y180386D01*
X699121Y180503D01*
X699142Y180620D01*
X699167Y180735D01*
X699196Y180850D01*
X699229Y180964D01*
X699265Y181076D01*
X699305Y181187D01*
X699348Y181297D01*
X699395Y181406D01*
X699445Y181513D01*
X699500Y181618D01*
X699557Y181721D01*
X699618Y181822D01*
X699682Y181922D01*
X699749Y182019D01*
X699819Y182114D01*
X699893Y182206D01*
X699969Y182297D01*
X700049Y182384D01*
X700131Y182469D01*
X700216Y182551D01*
X700303Y182631D01*
X700394Y182707D01*
X700486Y182781D01*
X700581Y182851D01*
X700678Y182918D01*
X700778Y182982D01*
X700879Y183043D01*
X700982Y183101D01*
X701087Y183155D01*
X701194Y183205D01*
X701303Y183252D01*
X701413Y183296D01*
X701524Y183335D01*
X701637Y183371D01*
X701750Y183404D01*
X701865Y183433D01*
X701980Y183458D01*
X702097Y183479D01*
X702214Y183496D01*
X702331Y183510D01*
X702449Y183519D01*
X702567Y183525D01*
X702685Y183527D01*
X702846Y183525D01*
X703008Y183519D01*
X703169Y183510D01*
X703330Y183496D01*
X703490Y183479D01*
X703650Y183458D01*
X703810Y183433D01*
X703969Y183404D01*
X704127Y183372D01*
X704284Y183336D01*
X704440Y183296D01*
X704596Y183252D01*
X704750Y183204D01*
X704903Y183153D01*
X705055Y183099D01*
X705206Y183040D01*
X705355Y182979D01*
X705502Y182913D01*
X705648Y182844D01*
X705793Y182772D01*
X705935Y182696D01*
X706076Y182617D01*
X706215Y182535D01*
X706351Y182449D01*
X706486Y182360D01*
X706619Y182268D01*
X706749Y182172D01*
X700879Y176754D02*
X700778Y176816D01*
X700678Y176881D01*
X700581Y176950D01*
X700486Y177022D01*
X700393Y177096D01*
X700303Y177174D01*
X700215Y177255D01*
X700130Y177338D01*
X700048Y177424D01*
X699969Y177513D01*
X699892Y177604D01*
X699819Y177698D01*
X699748Y177794D01*
X699681Y177892D01*
X699617Y177992D01*
X699556Y178095D01*
X699499Y178199D01*
X699445Y178305D01*
X699395Y178413D01*
X699348Y178522D01*
X699304Y178633D01*
X699264Y178745D01*
X699228Y178859D01*
X699196Y178973D01*
X699167Y179089D01*
X699142Y179205D01*
X699121Y179322D01*
X699104Y179440D01*
X699090Y179558D01*
X699081Y179677D01*
X699075Y179796D01*
X699073Y179915D01*
X705847Y174045D02*
X705948Y173983D01*
X706048Y173918D01*
X706145Y173849D01*
X706240Y173777D01*
X706333Y173703D01*
X706423Y173625D01*
X706511Y173544D01*
X706596Y173461D01*
X706678Y173375D01*
X706757Y173286D01*
X706834Y173195D01*
X706907Y173101D01*
X706978Y173005D01*
X707045Y172907D01*
X707109Y172807D01*
X707170Y172704D01*
X707227Y172600D01*
X707281Y172494D01*
X707331Y172386D01*
X707378Y172277D01*
X707422Y172166D01*
X707462Y172054D01*
X707498Y171940D01*
X707530Y171826D01*
X707559Y171710D01*
X707584Y171594D01*
X707605Y171477D01*
X707622Y171359D01*
X707636Y171241D01*
X707645Y171122D01*
X707651Y171003D01*
X707653Y170884D01*
X705846Y174045D02*
X700879Y176754D01*
X482322Y91001D02*
X482320Y90883D01*
X482314Y90765D01*
X482305Y90647D01*
X482291Y90530D01*
X482274Y90413D01*
X482253Y90296D01*
X482228Y90181D01*
X482199Y90066D01*
X482166Y89952D01*
X482130Y89840D01*
X482090Y89729D01*
X482047Y89619D01*
X482000Y89510D01*
X481950Y89403D01*
X481895Y89298D01*
X481838Y89195D01*
X481777Y89094D01*
X481713Y88994D01*
X481646Y88897D01*
X481576Y88802D01*
X481502Y88710D01*
X481426Y88619D01*
X481346Y88532D01*
X481264Y88447D01*
X481179Y88365D01*
X481092Y88285D01*
X481001Y88209D01*
X480909Y88135D01*
X480814Y88065D01*
X480717Y87998D01*
X480617Y87934D01*
X480516Y87873D01*
X480413Y87816D01*
X480308Y87761D01*
X480201Y87711D01*
X480092Y87664D01*
X479982Y87621D01*
X479871Y87581D01*
X479759Y87545D01*
X479645Y87512D01*
X479530Y87483D01*
X479415Y87458D01*
X479298Y87437D01*
X479181Y87420D01*
X479064Y87406D01*
X478946Y87397D01*
X478828Y87391D01*
X478710Y87389D01*
X478527Y87391D01*
X478345Y87398D01*
X478163Y87409D01*
X477981Y87424D01*
X477799Y87444D01*
X477618Y87467D01*
X477438Y87496D01*
X477258Y87528D01*
X477079Y87565D01*
X476902Y87606D01*
X476725Y87652D01*
X476549Y87701D01*
X476375Y87755D01*
X476201Y87813D01*
X476030Y87875D01*
X475860Y87941D01*
X475691Y88012D01*
X475524Y88086D01*
X475359Y88164D01*
X475196Y88246D01*
X475035Y88332D01*
X474876Y88422D01*
X474719Y88516D01*
X474565Y88613D01*
X474413Y88714D01*
X474263Y88819D01*
X474116Y88927D01*
X473972Y89038D01*
X473830Y89153D01*
X473691Y89272D01*
X473555Y89394D01*
X473422Y89519D01*
X473292Y89647D01*
X473743Y100032D02*
X473745Y100150D01*
X473751Y100268D01*
X473760Y100386D01*
X473774Y100503D01*
X473791Y100620D01*
X473812Y100737D01*
X473837Y100852D01*
X473866Y100967D01*
X473899Y101081D01*
X473935Y101193D01*
X473975Y101304D01*
X474018Y101414D01*
X474065Y101523D01*
X474115Y101630D01*
X474170Y101735D01*
X474227Y101838D01*
X474288Y101939D01*
X474352Y102039D01*
X474419Y102136D01*
X474489Y102231D01*
X474563Y102323D01*
X474639Y102414D01*
X474719Y102501D01*
X474801Y102586D01*
X474886Y102668D01*
X474973Y102748D01*
X475064Y102824D01*
X475156Y102898D01*
X475251Y102968D01*
X475348Y103035D01*
X475448Y103099D01*
X475549Y103160D01*
X475652Y103218D01*
X475757Y103272D01*
X475864Y103322D01*
X475973Y103369D01*
X476083Y103413D01*
X476194Y103452D01*
X476307Y103488D01*
X476420Y103521D01*
X476535Y103550D01*
X476650Y103575D01*
X476767Y103596D01*
X476884Y103613D01*
X477001Y103627D01*
X477119Y103636D01*
X477237Y103642D01*
X477355Y103644D01*
X477516Y103642D01*
X477678Y103636D01*
X477839Y103627D01*
X478000Y103613D01*
X478160Y103596D01*
X478320Y103575D01*
X478480Y103550D01*
X478639Y103521D01*
X478797Y103489D01*
X478954Y103453D01*
X479110Y103413D01*
X479266Y103369D01*
X479420Y103321D01*
X479573Y103270D01*
X479725Y103216D01*
X479876Y103157D01*
X480025Y103096D01*
X480172Y103030D01*
X480318Y102961D01*
X480463Y102889D01*
X480605Y102813D01*
X480746Y102734D01*
X480885Y102652D01*
X481021Y102566D01*
X481156Y102477D01*
X481289Y102385D01*
X481419Y102289D01*
X475548Y96871D02*
X475447Y96933D01*
X475347Y96998D01*
X475250Y97067D01*
X475155Y97139D01*
X475062Y97213D01*
X474972Y97291D01*
X474884Y97372D01*
X474799Y97455D01*
X474717Y97541D01*
X474638Y97630D01*
X474561Y97721D01*
X474488Y97815D01*
X474417Y97911D01*
X474350Y98009D01*
X474286Y98109D01*
X474225Y98212D01*
X474168Y98316D01*
X474114Y98422D01*
X474064Y98530D01*
X474017Y98639D01*
X473973Y98750D01*
X473933Y98862D01*
X473897Y98976D01*
X473865Y99090D01*
X473836Y99206D01*
X473811Y99322D01*
X473790Y99439D01*
X473773Y99557D01*
X473759Y99675D01*
X473750Y99794D01*
X473744Y99913D01*
X473742Y100032D01*
X480516Y94162D02*
X480617Y94100D01*
X480717Y94035D01*
X480814Y93966D01*
X480909Y93894D01*
X481002Y93820D01*
X481092Y93742D01*
X481180Y93661D01*
X481265Y93578D01*
X481347Y93492D01*
X481426Y93403D01*
X481503Y93312D01*
X481576Y93218D01*
X481647Y93122D01*
X481714Y93024D01*
X481778Y92924D01*
X481839Y92821D01*
X481896Y92717D01*
X481950Y92611D01*
X482000Y92503D01*
X482047Y92394D01*
X482091Y92283D01*
X482131Y92171D01*
X482167Y92057D01*
X482199Y91943D01*
X482228Y91827D01*
X482253Y91711D01*
X482274Y91594D01*
X482291Y91476D01*
X482305Y91358D01*
X482314Y91239D01*
X482320Y91120D01*
X482322Y91001D01*
X480516Y94162D02*
X475549Y96871D01*
X505213Y93710D02*
X516051Y93710D01*
X539602Y93710D02*
X550439Y93710D01*
X545021Y88292D02*
X545021Y99129D01*
X211318Y94467D02*
X211318Y83630D01*
X294037Y92660D02*
X294155Y92658D01*
X294273Y92652D01*
X294391Y92643D01*
X294508Y92629D01*
X294625Y92612D01*
X294742Y92591D01*
X294857Y92566D01*
X294972Y92537D01*
X295086Y92504D01*
X295198Y92468D01*
X295309Y92428D01*
X295419Y92385D01*
X295528Y92338D01*
X295635Y92288D01*
X295740Y92233D01*
X295843Y92176D01*
X295944Y92115D01*
X296044Y92051D01*
X296141Y91984D01*
X296236Y91914D01*
X296328Y91840D01*
X296419Y91764D01*
X296506Y91684D01*
X296591Y91602D01*
X296673Y91517D01*
X296753Y91430D01*
X296829Y91339D01*
X296903Y91247D01*
X296973Y91152D01*
X297040Y91055D01*
X297104Y90955D01*
X297165Y90854D01*
X297222Y90751D01*
X297277Y90646D01*
X297327Y90539D01*
X297374Y90430D01*
X297417Y90320D01*
X297457Y90209D01*
X297493Y90097D01*
X297526Y89983D01*
X297555Y89868D01*
X297580Y89753D01*
X297601Y89636D01*
X297618Y89519D01*
X297632Y89402D01*
X297641Y89284D01*
X297647Y89166D01*
X297649Y89048D01*
X297650Y89048D02*
X297648Y88865D01*
X297641Y88683D01*
X297630Y88501D01*
X297615Y88319D01*
X297595Y88137D01*
X297572Y87956D01*
X297543Y87776D01*
X297511Y87596D01*
X297474Y87417D01*
X297433Y87240D01*
X297387Y87063D01*
X297338Y86887D01*
X297284Y86713D01*
X297226Y86539D01*
X297164Y86368D01*
X297098Y86198D01*
X297027Y86029D01*
X296953Y85862D01*
X296875Y85697D01*
X296793Y85534D01*
X296707Y85373D01*
X296617Y85214D01*
X296523Y85057D01*
X296426Y84903D01*
X296325Y84751D01*
X296220Y84601D01*
X296112Y84454D01*
X296001Y84310D01*
X295886Y84168D01*
X295767Y84029D01*
X295645Y83893D01*
X295520Y83760D01*
X295392Y83630D01*
X285006Y84082D02*
X284888Y84084D01*
X284770Y84090D01*
X284652Y84099D01*
X284535Y84113D01*
X284418Y84130D01*
X284301Y84151D01*
X284186Y84176D01*
X284071Y84205D01*
X283957Y84238D01*
X283845Y84274D01*
X283734Y84314D01*
X283624Y84357D01*
X283515Y84404D01*
X283408Y84454D01*
X283303Y84509D01*
X283200Y84566D01*
X283099Y84627D01*
X282999Y84691D01*
X282902Y84758D01*
X282807Y84828D01*
X282715Y84902D01*
X282624Y84978D01*
X282537Y85058D01*
X282452Y85140D01*
X282370Y85225D01*
X282290Y85312D01*
X282214Y85403D01*
X282140Y85495D01*
X282070Y85590D01*
X282003Y85687D01*
X281939Y85787D01*
X281878Y85888D01*
X281821Y85991D01*
X281766Y86096D01*
X281716Y86203D01*
X281669Y86312D01*
X281626Y86422D01*
X281586Y86533D01*
X281550Y86645D01*
X281517Y86759D01*
X281488Y86874D01*
X281463Y86989D01*
X281442Y87106D01*
X281425Y87223D01*
X281411Y87340D01*
X281402Y87458D01*
X281396Y87576D01*
X281394Y87694D01*
X281396Y87855D01*
X281402Y88017D01*
X281411Y88178D01*
X281425Y88339D01*
X281442Y88499D01*
X281463Y88659D01*
X281488Y88819D01*
X281517Y88978D01*
X281549Y89136D01*
X281585Y89293D01*
X281625Y89449D01*
X281669Y89605D01*
X281717Y89759D01*
X281768Y89912D01*
X281822Y90064D01*
X281881Y90215D01*
X281942Y90364D01*
X282008Y90511D01*
X282077Y90657D01*
X282149Y90802D01*
X282225Y90944D01*
X282304Y91085D01*
X282386Y91224D01*
X282472Y91360D01*
X282561Y91495D01*
X282653Y91628D01*
X282749Y91758D01*
X288167Y85887D02*
X288105Y85786D01*
X288040Y85686D01*
X287971Y85589D01*
X287899Y85494D01*
X287825Y85401D01*
X287747Y85311D01*
X287666Y85223D01*
X287583Y85138D01*
X287497Y85056D01*
X287408Y84977D01*
X287317Y84900D01*
X287223Y84827D01*
X287127Y84756D01*
X287029Y84689D01*
X286929Y84625D01*
X286826Y84564D01*
X286722Y84507D01*
X286616Y84453D01*
X286508Y84403D01*
X286399Y84356D01*
X286288Y84312D01*
X286176Y84272D01*
X286062Y84236D01*
X285948Y84204D01*
X285832Y84175D01*
X285716Y84150D01*
X285599Y84129D01*
X285481Y84112D01*
X285363Y84098D01*
X285244Y84089D01*
X285125Y84083D01*
X285006Y84081D01*
X290876Y90855D02*
X290938Y90956D01*
X291003Y91056D01*
X291072Y91153D01*
X291144Y91248D01*
X291218Y91341D01*
X291296Y91431D01*
X291377Y91519D01*
X291460Y91604D01*
X291546Y91686D01*
X291635Y91765D01*
X291726Y91842D01*
X291820Y91915D01*
X291916Y91986D01*
X292014Y92053D01*
X292114Y92117D01*
X292217Y92178D01*
X292321Y92235D01*
X292427Y92289D01*
X292535Y92339D01*
X292644Y92386D01*
X292755Y92430D01*
X292867Y92470D01*
X292981Y92506D01*
X293095Y92538D01*
X293211Y92567D01*
X293327Y92592D01*
X293444Y92613D01*
X293562Y92630D01*
X293680Y92644D01*
X293799Y92653D01*
X293918Y92659D01*
X294037Y92661D01*
X290877Y90854D02*
X288167Y85887D01*
X281394Y99261D02*
X297650Y99261D01*
X281394Y99261D02*
X281394Y103776D01*
X281393Y103776D02*
X281395Y103907D01*
X281401Y104039D01*
X281410Y104170D01*
X281424Y104300D01*
X281441Y104431D01*
X281462Y104560D01*
X281486Y104689D01*
X281515Y104817D01*
X281547Y104945D01*
X281583Y105071D01*
X281622Y105196D01*
X281665Y105321D01*
X281712Y105443D01*
X281762Y105565D01*
X281816Y105685D01*
X281873Y105803D01*
X281934Y105919D01*
X281998Y106034D01*
X282065Y106147D01*
X282136Y106258D01*
X282210Y106366D01*
X282287Y106473D01*
X282367Y106577D01*
X282450Y106679D01*
X282535Y106778D01*
X282624Y106875D01*
X282716Y106969D01*
X282810Y107061D01*
X282907Y107150D01*
X283006Y107235D01*
X283108Y107318D01*
X283212Y107398D01*
X283319Y107475D01*
X283427Y107549D01*
X283538Y107620D01*
X283651Y107687D01*
X283766Y107751D01*
X283882Y107812D01*
X284000Y107869D01*
X284120Y107923D01*
X284242Y107973D01*
X284364Y108020D01*
X284489Y108063D01*
X284614Y108102D01*
X284740Y108138D01*
X284868Y108170D01*
X284996Y108199D01*
X285125Y108223D01*
X285254Y108244D01*
X285385Y108261D01*
X285515Y108275D01*
X285646Y108284D01*
X285778Y108290D01*
X285909Y108292D01*
X293134Y108292D01*
X293265Y108290D01*
X293397Y108284D01*
X293528Y108275D01*
X293658Y108261D01*
X293789Y108244D01*
X293918Y108223D01*
X294047Y108199D01*
X294175Y108170D01*
X294303Y108138D01*
X294429Y108102D01*
X294554Y108063D01*
X294679Y108020D01*
X294801Y107973D01*
X294923Y107923D01*
X295043Y107869D01*
X295161Y107812D01*
X295277Y107751D01*
X295392Y107687D01*
X295505Y107620D01*
X295616Y107549D01*
X295724Y107475D01*
X295831Y107398D01*
X295935Y107318D01*
X296037Y107235D01*
X296136Y107150D01*
X296233Y107061D01*
X296327Y106969D01*
X296419Y106875D01*
X296508Y106778D01*
X296593Y106679D01*
X296676Y106577D01*
X296756Y106473D01*
X296833Y106366D01*
X296907Y106258D01*
X296978Y106147D01*
X297045Y106034D01*
X297109Y105919D01*
X297170Y105803D01*
X297227Y105685D01*
X297281Y105565D01*
X297331Y105443D01*
X297378Y105321D01*
X297421Y105196D01*
X297460Y105071D01*
X297496Y104945D01*
X297528Y104817D01*
X297557Y104689D01*
X297581Y104560D01*
X297602Y104430D01*
X297619Y104300D01*
X297633Y104170D01*
X297642Y104039D01*
X297648Y103907D01*
X297650Y103776D01*
X297650Y99261D01*
X297650Y114510D02*
X281394Y119929D01*
X297650Y125347D01*
X293586Y123993D02*
X293586Y115865D01*
X320707Y92660D02*
X320825Y92658D01*
X320943Y92652D01*
X321061Y92643D01*
X321178Y92629D01*
X321295Y92612D01*
X321412Y92591D01*
X321527Y92566D01*
X321642Y92537D01*
X321756Y92504D01*
X321868Y92468D01*
X321979Y92428D01*
X322089Y92385D01*
X322198Y92338D01*
X322305Y92288D01*
X322410Y92233D01*
X322513Y92176D01*
X322614Y92115D01*
X322714Y92051D01*
X322811Y91984D01*
X322906Y91914D01*
X322998Y91840D01*
X323089Y91764D01*
X323176Y91684D01*
X323261Y91602D01*
X323343Y91517D01*
X323423Y91430D01*
X323499Y91339D01*
X323573Y91247D01*
X323643Y91152D01*
X323710Y91055D01*
X323774Y90955D01*
X323835Y90854D01*
X323892Y90751D01*
X323947Y90646D01*
X323997Y90539D01*
X324044Y90430D01*
X324087Y90320D01*
X324127Y90209D01*
X324163Y90097D01*
X324196Y89983D01*
X324225Y89868D01*
X324250Y89753D01*
X324271Y89636D01*
X324288Y89519D01*
X324302Y89402D01*
X324311Y89284D01*
X324317Y89166D01*
X324319Y89048D01*
X324320Y89048D02*
X324318Y88865D01*
X324311Y88683D01*
X324300Y88501D01*
X324285Y88319D01*
X324265Y88137D01*
X324242Y87956D01*
X324213Y87776D01*
X324181Y87596D01*
X324144Y87417D01*
X324103Y87240D01*
X324057Y87063D01*
X324008Y86887D01*
X323954Y86713D01*
X323896Y86539D01*
X323834Y86368D01*
X323768Y86198D01*
X323697Y86029D01*
X323623Y85862D01*
X323545Y85697D01*
X323463Y85534D01*
X323377Y85373D01*
X323287Y85214D01*
X323193Y85057D01*
X323096Y84903D01*
X322995Y84751D01*
X322890Y84601D01*
X322782Y84454D01*
X322671Y84310D01*
X322556Y84168D01*
X322437Y84029D01*
X322315Y83893D01*
X322190Y83760D01*
X322062Y83630D01*
X311676Y84082D02*
X311558Y84084D01*
X311440Y84090D01*
X311322Y84099D01*
X311205Y84113D01*
X311088Y84130D01*
X310971Y84151D01*
X310856Y84176D01*
X310741Y84205D01*
X310627Y84238D01*
X310515Y84274D01*
X310404Y84314D01*
X310294Y84357D01*
X310185Y84404D01*
X310078Y84454D01*
X309973Y84509D01*
X309870Y84566D01*
X309769Y84627D01*
X309669Y84691D01*
X309572Y84758D01*
X309477Y84828D01*
X309385Y84902D01*
X309294Y84978D01*
X309207Y85058D01*
X309122Y85140D01*
X309040Y85225D01*
X308960Y85312D01*
X308884Y85403D01*
X308810Y85495D01*
X308740Y85590D01*
X308673Y85687D01*
X308609Y85787D01*
X308548Y85888D01*
X308491Y85991D01*
X308436Y86096D01*
X308386Y86203D01*
X308339Y86312D01*
X308296Y86422D01*
X308256Y86533D01*
X308220Y86645D01*
X308187Y86759D01*
X308158Y86874D01*
X308133Y86989D01*
X308112Y87106D01*
X308095Y87223D01*
X308081Y87340D01*
X308072Y87458D01*
X308066Y87576D01*
X308064Y87694D01*
X308066Y87855D01*
X308072Y88017D01*
X308081Y88178D01*
X308095Y88339D01*
X308112Y88499D01*
X308133Y88659D01*
X308158Y88819D01*
X308187Y88978D01*
X308219Y89136D01*
X308255Y89293D01*
X308295Y89449D01*
X308339Y89605D01*
X308387Y89759D01*
X308438Y89912D01*
X308492Y90064D01*
X308551Y90215D01*
X308612Y90364D01*
X308678Y90511D01*
X308747Y90657D01*
X308819Y90802D01*
X308895Y90944D01*
X308974Y91085D01*
X309056Y91224D01*
X309142Y91360D01*
X309231Y91495D01*
X309323Y91628D01*
X309419Y91758D01*
X314837Y85887D02*
X314775Y85786D01*
X314710Y85686D01*
X314641Y85589D01*
X314569Y85494D01*
X314495Y85401D01*
X314417Y85311D01*
X314336Y85223D01*
X314253Y85138D01*
X314167Y85056D01*
X314078Y84977D01*
X313987Y84900D01*
X313893Y84827D01*
X313797Y84756D01*
X313699Y84689D01*
X313599Y84625D01*
X313496Y84564D01*
X313392Y84507D01*
X313286Y84453D01*
X313178Y84403D01*
X313069Y84356D01*
X312958Y84312D01*
X312846Y84272D01*
X312732Y84236D01*
X312618Y84204D01*
X312502Y84175D01*
X312386Y84150D01*
X312269Y84129D01*
X312151Y84112D01*
X312033Y84098D01*
X311914Y84089D01*
X311795Y84083D01*
X311676Y84081D01*
X317546Y90855D02*
X317608Y90956D01*
X317673Y91056D01*
X317742Y91153D01*
X317814Y91248D01*
X317888Y91341D01*
X317966Y91431D01*
X318047Y91519D01*
X318130Y91604D01*
X318216Y91686D01*
X318305Y91765D01*
X318396Y91842D01*
X318490Y91915D01*
X318586Y91986D01*
X318684Y92053D01*
X318784Y92117D01*
X318887Y92178D01*
X318991Y92235D01*
X319097Y92289D01*
X319205Y92339D01*
X319314Y92386D01*
X319425Y92430D01*
X319537Y92470D01*
X319651Y92506D01*
X319765Y92538D01*
X319881Y92567D01*
X319997Y92592D01*
X320114Y92613D01*
X320232Y92630D01*
X320350Y92644D01*
X320469Y92653D01*
X320588Y92659D01*
X320707Y92661D01*
X317547Y90854D02*
X314837Y85887D01*
X324320Y102313D02*
X324320Y105925D01*
X324319Y102313D02*
X324317Y102195D01*
X324311Y102077D01*
X324302Y101959D01*
X324288Y101842D01*
X324271Y101725D01*
X324250Y101608D01*
X324225Y101493D01*
X324196Y101378D01*
X324163Y101264D01*
X324127Y101152D01*
X324087Y101041D01*
X324044Y100931D01*
X323997Y100822D01*
X323947Y100715D01*
X323892Y100610D01*
X323835Y100507D01*
X323774Y100406D01*
X323710Y100306D01*
X323643Y100209D01*
X323573Y100114D01*
X323499Y100022D01*
X323423Y99931D01*
X323343Y99844D01*
X323261Y99759D01*
X323176Y99677D01*
X323089Y99597D01*
X322998Y99521D01*
X322906Y99447D01*
X322811Y99377D01*
X322714Y99310D01*
X322614Y99246D01*
X322513Y99185D01*
X322410Y99128D01*
X322305Y99073D01*
X322198Y99023D01*
X322089Y98976D01*
X321979Y98933D01*
X321868Y98893D01*
X321756Y98857D01*
X321642Y98824D01*
X321527Y98795D01*
X321412Y98770D01*
X321295Y98749D01*
X321178Y98732D01*
X321061Y98718D01*
X320943Y98709D01*
X320825Y98703D01*
X320707Y98701D01*
X320707Y98700D02*
X311676Y98700D01*
X311558Y98702D01*
X311440Y98708D01*
X311322Y98717D01*
X311204Y98731D01*
X311087Y98748D01*
X310971Y98769D01*
X310856Y98794D01*
X310741Y98823D01*
X310627Y98856D01*
X310515Y98892D01*
X310403Y98932D01*
X310293Y98975D01*
X310185Y99022D01*
X310078Y99073D01*
X309973Y99127D01*
X309870Y99184D01*
X309768Y99245D01*
X309669Y99309D01*
X309572Y99376D01*
X309477Y99447D01*
X309384Y99520D01*
X309294Y99597D01*
X309206Y99676D01*
X309121Y99758D01*
X309039Y99843D01*
X308960Y99931D01*
X308883Y100021D01*
X308810Y100114D01*
X308739Y100208D01*
X308672Y100306D01*
X308608Y100405D01*
X308547Y100506D01*
X308490Y100610D01*
X308436Y100715D01*
X308385Y100822D01*
X308338Y100930D01*
X308295Y101040D01*
X308255Y101152D01*
X308219Y101264D01*
X308186Y101378D01*
X308157Y101493D01*
X308132Y101608D01*
X308111Y101724D01*
X308094Y101841D01*
X308080Y101959D01*
X308071Y102077D01*
X308065Y102195D01*
X308063Y102313D01*
X308064Y102313D02*
X308064Y105925D01*
X308064Y112317D02*
X324320Y112317D01*
X324320Y119541D01*
X344668Y94467D02*
X344668Y83630D01*
X371338Y83630D02*
X371338Y94467D01*
X376757Y89048D02*
X365919Y89048D01*
X652074Y79502D02*
X655687Y79502D01*
X652074Y79502D02*
X651956Y79504D01*
X651838Y79510D01*
X651720Y79519D01*
X651603Y79533D01*
X651486Y79550D01*
X651369Y79571D01*
X651254Y79596D01*
X651139Y79625D01*
X651025Y79658D01*
X650913Y79694D01*
X650802Y79734D01*
X650692Y79777D01*
X650583Y79824D01*
X650476Y79874D01*
X650371Y79929D01*
X650268Y79986D01*
X650167Y80047D01*
X650067Y80111D01*
X649970Y80178D01*
X649875Y80248D01*
X649783Y80322D01*
X649692Y80398D01*
X649605Y80478D01*
X649520Y80560D01*
X649438Y80645D01*
X649358Y80732D01*
X649282Y80823D01*
X649208Y80915D01*
X649138Y81010D01*
X649071Y81107D01*
X649007Y81207D01*
X648946Y81308D01*
X648889Y81411D01*
X648834Y81516D01*
X648784Y81623D01*
X648737Y81732D01*
X648694Y81842D01*
X648654Y81953D01*
X648618Y82065D01*
X648585Y82179D01*
X648556Y82294D01*
X648531Y82409D01*
X648510Y82526D01*
X648493Y82643D01*
X648479Y82760D01*
X648470Y82878D01*
X648464Y82996D01*
X648462Y83114D01*
X648462Y92146D01*
X648464Y92264D01*
X648470Y92382D01*
X648479Y92500D01*
X648493Y92617D01*
X648510Y92734D01*
X648531Y92851D01*
X648556Y92966D01*
X648585Y93081D01*
X648618Y93195D01*
X648654Y93307D01*
X648694Y93418D01*
X648737Y93528D01*
X648784Y93637D01*
X648834Y93744D01*
X648888Y93849D01*
X648946Y93952D01*
X649007Y94053D01*
X649071Y94153D01*
X649138Y94250D01*
X649208Y94345D01*
X649282Y94437D01*
X649358Y94528D01*
X649438Y94615D01*
X649520Y94700D01*
X649605Y94782D01*
X649692Y94862D01*
X649783Y94938D01*
X649875Y95012D01*
X649970Y95082D01*
X650067Y95149D01*
X650167Y95213D01*
X650268Y95274D01*
X650371Y95331D01*
X650476Y95385D01*
X650583Y95436D01*
X650692Y95483D01*
X650802Y95526D01*
X650913Y95566D01*
X651025Y95602D01*
X651139Y95635D01*
X651254Y95664D01*
X651369Y95689D01*
X651486Y95710D01*
X651603Y95727D01*
X651720Y95741D01*
X651838Y95750D01*
X651956Y95756D01*
X652074Y95758D01*
X655687Y95758D01*
X661910Y95758D02*
X661910Y79502D01*
X661910Y90339D02*
X666425Y90339D01*
X666529Y90337D01*
X666632Y90331D01*
X666736Y90321D01*
X666839Y90307D01*
X666941Y90289D01*
X667042Y90268D01*
X667143Y90242D01*
X667242Y90213D01*
X667341Y90180D01*
X667438Y90143D01*
X667533Y90102D01*
X667627Y90058D01*
X667719Y90010D01*
X667809Y89959D01*
X667898Y89904D01*
X667984Y89846D01*
X668067Y89784D01*
X668149Y89720D01*
X668227Y89652D01*
X668303Y89582D01*
X668377Y89509D01*
X668447Y89432D01*
X668515Y89354D01*
X668579Y89272D01*
X668641Y89189D01*
X668699Y89103D01*
X668754Y89014D01*
X668805Y88924D01*
X668853Y88832D01*
X668897Y88738D01*
X668938Y88643D01*
X668975Y88546D01*
X669008Y88447D01*
X669037Y88348D01*
X669063Y88247D01*
X669084Y88146D01*
X669102Y88044D01*
X669116Y87941D01*
X669126Y87837D01*
X669132Y87734D01*
X669134Y87630D01*
X669134Y79502D01*
X676584Y79502D02*
X676584Y90339D01*
X682002Y90339D01*
X682002Y88533D01*
X686920Y86727D02*
X686920Y83114D01*
X686920Y86727D02*
X686922Y86846D01*
X686928Y86966D01*
X686938Y87085D01*
X686952Y87203D01*
X686969Y87322D01*
X686991Y87439D01*
X687016Y87556D01*
X687046Y87671D01*
X687079Y87786D01*
X687116Y87900D01*
X687156Y88012D01*
X687201Y88123D01*
X687249Y88232D01*
X687300Y88340D01*
X687355Y88446D01*
X687414Y88550D01*
X687476Y88652D01*
X687541Y88752D01*
X687610Y88850D01*
X687682Y88946D01*
X687757Y89039D01*
X687834Y89129D01*
X687915Y89217D01*
X687999Y89302D01*
X688086Y89384D01*
X688175Y89464D01*
X688267Y89540D01*
X688361Y89614D01*
X688458Y89684D01*
X688556Y89751D01*
X688657Y89815D01*
X688761Y89875D01*
X688866Y89932D01*
X688973Y89985D01*
X689081Y90035D01*
X689191Y90081D01*
X689303Y90123D01*
X689416Y90162D01*
X689530Y90197D01*
X689645Y90228D01*
X689762Y90256D01*
X689879Y90279D01*
X689996Y90299D01*
X690115Y90315D01*
X690234Y90327D01*
X690353Y90335D01*
X690472Y90339D01*
X690592Y90339D01*
X690711Y90335D01*
X690830Y90327D01*
X690949Y90315D01*
X691068Y90299D01*
X691185Y90279D01*
X691302Y90256D01*
X691419Y90228D01*
X691534Y90197D01*
X691648Y90162D01*
X691761Y90123D01*
X691873Y90081D01*
X691983Y90035D01*
X692091Y89985D01*
X692198Y89932D01*
X692303Y89875D01*
X692407Y89815D01*
X692508Y89751D01*
X692606Y89684D01*
X692703Y89614D01*
X692797Y89540D01*
X692889Y89464D01*
X692978Y89384D01*
X693065Y89302D01*
X693149Y89217D01*
X693230Y89129D01*
X693307Y89039D01*
X693382Y88946D01*
X693454Y88850D01*
X693523Y88752D01*
X693588Y88652D01*
X693650Y88550D01*
X693709Y88446D01*
X693764Y88340D01*
X693815Y88232D01*
X693863Y88123D01*
X693908Y88012D01*
X693948Y87900D01*
X693985Y87786D01*
X694018Y87671D01*
X694048Y87556D01*
X694073Y87439D01*
X694095Y87322D01*
X694112Y87203D01*
X694126Y87085D01*
X694136Y86966D01*
X694142Y86846D01*
X694144Y86727D01*
X694144Y83114D01*
X694142Y82995D01*
X694136Y82875D01*
X694126Y82756D01*
X694112Y82638D01*
X694095Y82519D01*
X694073Y82402D01*
X694048Y82285D01*
X694018Y82170D01*
X693985Y82055D01*
X693948Y81941D01*
X693908Y81829D01*
X693863Y81718D01*
X693815Y81609D01*
X693764Y81501D01*
X693709Y81395D01*
X693650Y81291D01*
X693588Y81189D01*
X693523Y81089D01*
X693454Y80991D01*
X693382Y80895D01*
X693307Y80802D01*
X693230Y80712D01*
X693149Y80624D01*
X693065Y80539D01*
X692978Y80457D01*
X692889Y80377D01*
X692797Y80301D01*
X692703Y80227D01*
X692606Y80157D01*
X692508Y80090D01*
X692407Y80026D01*
X692303Y79966D01*
X692198Y79909D01*
X692091Y79856D01*
X691983Y79806D01*
X691873Y79760D01*
X691761Y79718D01*
X691648Y79679D01*
X691534Y79644D01*
X691419Y79613D01*
X691302Y79585D01*
X691185Y79562D01*
X691068Y79542D01*
X690949Y79526D01*
X690830Y79514D01*
X690711Y79506D01*
X690592Y79502D01*
X690472Y79502D01*
X690353Y79506D01*
X690234Y79514D01*
X690115Y79526D01*
X689996Y79542D01*
X689879Y79562D01*
X689762Y79585D01*
X689645Y79613D01*
X689530Y79644D01*
X689416Y79679D01*
X689303Y79718D01*
X689191Y79760D01*
X689081Y79806D01*
X688973Y79856D01*
X688866Y79909D01*
X688761Y79966D01*
X688657Y80026D01*
X688556Y80090D01*
X688458Y80157D01*
X688361Y80227D01*
X688267Y80301D01*
X688175Y80377D01*
X688086Y80457D01*
X687999Y80539D01*
X687915Y80624D01*
X687834Y80712D01*
X687757Y80802D01*
X687682Y80895D01*
X687610Y80991D01*
X687541Y81089D01*
X687476Y81189D01*
X687414Y81291D01*
X687355Y81395D01*
X687300Y81501D01*
X687249Y81609D01*
X687201Y81718D01*
X687156Y81829D01*
X687116Y81941D01*
X687079Y82055D01*
X687046Y82170D01*
X687016Y82285D01*
X686991Y82402D01*
X686969Y82519D01*
X686952Y82638D01*
X686938Y82756D01*
X686928Y82875D01*
X686922Y82995D01*
X686920Y83114D01*
X700988Y79502D02*
X700988Y90339D01*
X705503Y90339D01*
X705607Y90337D01*
X705710Y90331D01*
X705814Y90321D01*
X705917Y90307D01*
X706019Y90289D01*
X706120Y90268D01*
X706221Y90242D01*
X706320Y90213D01*
X706419Y90180D01*
X706516Y90143D01*
X706611Y90102D01*
X706705Y90058D01*
X706797Y90010D01*
X706887Y89959D01*
X706976Y89904D01*
X707062Y89846D01*
X707145Y89784D01*
X707227Y89720D01*
X707305Y89652D01*
X707381Y89582D01*
X707455Y89509D01*
X707525Y89432D01*
X707593Y89354D01*
X707657Y89272D01*
X707719Y89189D01*
X707777Y89103D01*
X707832Y89014D01*
X707883Y88924D01*
X707931Y88832D01*
X707975Y88738D01*
X708016Y88643D01*
X708053Y88546D01*
X708086Y88447D01*
X708115Y88348D01*
X708141Y88247D01*
X708162Y88146D01*
X708180Y88044D01*
X708194Y87941D01*
X708204Y87837D01*
X708210Y87734D01*
X708212Y87630D01*
X708212Y79502D01*
X715056Y83114D02*
X715056Y86727D01*
X715058Y86846D01*
X715064Y86966D01*
X715074Y87085D01*
X715088Y87203D01*
X715105Y87322D01*
X715127Y87439D01*
X715152Y87556D01*
X715182Y87671D01*
X715215Y87786D01*
X715252Y87900D01*
X715292Y88012D01*
X715337Y88123D01*
X715385Y88232D01*
X715436Y88340D01*
X715491Y88446D01*
X715550Y88550D01*
X715612Y88652D01*
X715677Y88752D01*
X715746Y88850D01*
X715818Y88946D01*
X715893Y89039D01*
X715970Y89129D01*
X716051Y89217D01*
X716135Y89302D01*
X716222Y89384D01*
X716311Y89464D01*
X716403Y89540D01*
X716497Y89614D01*
X716594Y89684D01*
X716692Y89751D01*
X716793Y89815D01*
X716897Y89875D01*
X717002Y89932D01*
X717109Y89985D01*
X717217Y90035D01*
X717327Y90081D01*
X717439Y90123D01*
X717552Y90162D01*
X717666Y90197D01*
X717781Y90228D01*
X717898Y90256D01*
X718015Y90279D01*
X718132Y90299D01*
X718251Y90315D01*
X718370Y90327D01*
X718489Y90335D01*
X718608Y90339D01*
X718728Y90339D01*
X718847Y90335D01*
X718966Y90327D01*
X719085Y90315D01*
X719204Y90299D01*
X719321Y90279D01*
X719438Y90256D01*
X719555Y90228D01*
X719670Y90197D01*
X719784Y90162D01*
X719897Y90123D01*
X720009Y90081D01*
X720119Y90035D01*
X720227Y89985D01*
X720334Y89932D01*
X720439Y89875D01*
X720543Y89815D01*
X720644Y89751D01*
X720742Y89684D01*
X720839Y89614D01*
X720933Y89540D01*
X721025Y89464D01*
X721114Y89384D01*
X721201Y89302D01*
X721285Y89217D01*
X721366Y89129D01*
X721443Y89039D01*
X721518Y88946D01*
X721590Y88850D01*
X721659Y88752D01*
X721724Y88652D01*
X721786Y88550D01*
X721845Y88446D01*
X721900Y88340D01*
X721951Y88232D01*
X721999Y88123D01*
X722044Y88012D01*
X722084Y87900D01*
X722121Y87786D01*
X722154Y87671D01*
X722184Y87556D01*
X722209Y87439D01*
X722231Y87322D01*
X722248Y87203D01*
X722262Y87085D01*
X722272Y86966D01*
X722278Y86846D01*
X722280Y86727D01*
X722281Y86727D02*
X722281Y83114D01*
X722280Y83114D02*
X722278Y82995D01*
X722272Y82875D01*
X722262Y82756D01*
X722248Y82638D01*
X722231Y82519D01*
X722209Y82402D01*
X722184Y82285D01*
X722154Y82170D01*
X722121Y82055D01*
X722084Y81941D01*
X722044Y81829D01*
X721999Y81718D01*
X721951Y81609D01*
X721900Y81501D01*
X721845Y81395D01*
X721786Y81291D01*
X721724Y81189D01*
X721659Y81089D01*
X721590Y80991D01*
X721518Y80895D01*
X721443Y80802D01*
X721366Y80712D01*
X721285Y80624D01*
X721201Y80539D01*
X721114Y80457D01*
X721025Y80377D01*
X720933Y80301D01*
X720839Y80227D01*
X720742Y80157D01*
X720644Y80090D01*
X720543Y80026D01*
X720439Y79966D01*
X720334Y79909D01*
X720227Y79856D01*
X720119Y79806D01*
X720009Y79760D01*
X719897Y79718D01*
X719784Y79679D01*
X719670Y79644D01*
X719555Y79613D01*
X719438Y79585D01*
X719321Y79562D01*
X719204Y79542D01*
X719085Y79526D01*
X718966Y79514D01*
X718847Y79506D01*
X718728Y79502D01*
X718608Y79502D01*
X718489Y79506D01*
X718370Y79514D01*
X718251Y79526D01*
X718132Y79542D01*
X718015Y79562D01*
X717898Y79585D01*
X717781Y79613D01*
X717666Y79644D01*
X717552Y79679D01*
X717439Y79718D01*
X717327Y79760D01*
X717217Y79806D01*
X717109Y79856D01*
X717002Y79909D01*
X716897Y79966D01*
X716793Y80026D01*
X716692Y80090D01*
X716594Y80157D01*
X716497Y80227D01*
X716403Y80301D01*
X716311Y80377D01*
X716222Y80457D01*
X716135Y80539D01*
X716051Y80624D01*
X715970Y80712D01*
X715893Y80802D01*
X715818Y80895D01*
X715746Y80991D01*
X715677Y81089D01*
X715612Y81189D01*
X715550Y81291D01*
X715491Y81395D01*
X715436Y81501D01*
X715385Y81609D01*
X715337Y81718D01*
X715292Y81829D01*
X715252Y81941D01*
X715215Y82055D01*
X715182Y82170D01*
X715152Y82285D01*
X715127Y82402D01*
X715105Y82519D01*
X715088Y82638D01*
X715074Y82756D01*
X715064Y82875D01*
X715058Y82995D01*
X715056Y83114D01*
X731239Y79502D02*
X735754Y79502D01*
X731239Y79502D02*
X731138Y79504D01*
X731037Y79510D01*
X730936Y79519D01*
X730835Y79532D01*
X730735Y79549D01*
X730636Y79570D01*
X730538Y79594D01*
X730441Y79622D01*
X730344Y79654D01*
X730249Y79689D01*
X730156Y79728D01*
X730064Y79770D01*
X729973Y79816D01*
X729885Y79865D01*
X729798Y79917D01*
X729713Y79973D01*
X729630Y80031D01*
X729550Y80093D01*
X729472Y80158D01*
X729396Y80225D01*
X729323Y80295D01*
X729253Y80368D01*
X729186Y80444D01*
X729121Y80522D01*
X729059Y80602D01*
X729001Y80685D01*
X728945Y80770D01*
X728893Y80857D01*
X728844Y80945D01*
X728798Y81036D01*
X728756Y81128D01*
X728717Y81221D01*
X728682Y81316D01*
X728650Y81413D01*
X728622Y81510D01*
X728598Y81608D01*
X728577Y81707D01*
X728560Y81807D01*
X728547Y81908D01*
X728538Y82009D01*
X728532Y82110D01*
X728530Y82211D01*
X728529Y82211D02*
X728529Y87630D01*
X728530Y87630D02*
X728532Y87731D01*
X728538Y87832D01*
X728547Y87933D01*
X728560Y88034D01*
X728577Y88134D01*
X728598Y88233D01*
X728622Y88331D01*
X728650Y88428D01*
X728682Y88525D01*
X728717Y88620D01*
X728756Y88713D01*
X728798Y88805D01*
X728844Y88896D01*
X728893Y88985D01*
X728945Y89071D01*
X729001Y89156D01*
X729059Y89239D01*
X729121Y89319D01*
X729186Y89397D01*
X729253Y89473D01*
X729323Y89546D01*
X729396Y89616D01*
X729472Y89683D01*
X729550Y89748D01*
X729630Y89810D01*
X729713Y89868D01*
X729798Y89924D01*
X729885Y89976D01*
X729973Y90025D01*
X730064Y90071D01*
X730156Y90113D01*
X730249Y90152D01*
X730344Y90187D01*
X730441Y90219D01*
X730538Y90247D01*
X730636Y90271D01*
X730735Y90292D01*
X730835Y90309D01*
X730936Y90322D01*
X731037Y90331D01*
X731138Y90337D01*
X731239Y90339D01*
X735754Y90339D01*
X735754Y76793D01*
X735752Y76689D01*
X735746Y76586D01*
X735736Y76482D01*
X735722Y76379D01*
X735704Y76277D01*
X735683Y76176D01*
X735657Y76075D01*
X735628Y75976D01*
X735595Y75877D01*
X735558Y75780D01*
X735517Y75685D01*
X735473Y75591D01*
X735425Y75499D01*
X735374Y75409D01*
X735319Y75320D01*
X735261Y75234D01*
X735199Y75151D01*
X735135Y75069D01*
X735067Y74991D01*
X734997Y74915D01*
X734924Y74841D01*
X734847Y74771D01*
X734769Y74703D01*
X734687Y74639D01*
X734604Y74577D01*
X734518Y74519D01*
X734429Y74464D01*
X734339Y74413D01*
X734247Y74365D01*
X734153Y74321D01*
X734058Y74280D01*
X733961Y74243D01*
X733862Y74210D01*
X733763Y74181D01*
X733662Y74155D01*
X733561Y74134D01*
X733459Y74116D01*
X733356Y74102D01*
X733252Y74092D01*
X733149Y74086D01*
X733045Y74084D01*
X733045Y74083D02*
X729433Y74083D01*
X743277Y79502D02*
X743277Y90339D01*
X748695Y90339D01*
X748695Y88533D01*
X756700Y85824D02*
X760764Y85824D01*
X756700Y85824D02*
X756588Y85822D01*
X756477Y85816D01*
X756366Y85806D01*
X756255Y85793D01*
X756145Y85775D01*
X756036Y85753D01*
X755927Y85728D01*
X755819Y85699D01*
X755713Y85666D01*
X755607Y85629D01*
X755503Y85589D01*
X755401Y85545D01*
X755300Y85497D01*
X755201Y85446D01*
X755103Y85391D01*
X755008Y85333D01*
X754915Y85272D01*
X754824Y85207D01*
X754735Y85139D01*
X754649Y85068D01*
X754566Y84995D01*
X754485Y84918D01*
X754406Y84838D01*
X754331Y84756D01*
X754259Y84671D01*
X754189Y84584D01*
X754123Y84494D01*
X754060Y84402D01*
X754000Y84307D01*
X753944Y84211D01*
X753891Y84113D01*
X753842Y84013D01*
X753796Y83911D01*
X753754Y83808D01*
X753715Y83703D01*
X753680Y83597D01*
X753649Y83490D01*
X753622Y83382D01*
X753598Y83273D01*
X753579Y83163D01*
X753563Y83053D01*
X753551Y82942D01*
X753543Y82830D01*
X753539Y82719D01*
X753539Y82607D01*
X753543Y82496D01*
X753551Y82384D01*
X753563Y82273D01*
X753579Y82163D01*
X753598Y82053D01*
X753622Y81944D01*
X753649Y81836D01*
X753680Y81729D01*
X753715Y81623D01*
X753754Y81518D01*
X753796Y81415D01*
X753842Y81313D01*
X753891Y81213D01*
X753944Y81115D01*
X754000Y81019D01*
X754060Y80924D01*
X754123Y80832D01*
X754189Y80742D01*
X754259Y80655D01*
X754331Y80570D01*
X754406Y80488D01*
X754485Y80408D01*
X754566Y80331D01*
X754649Y80258D01*
X754735Y80187D01*
X754824Y80119D01*
X754915Y80054D01*
X755008Y79993D01*
X755103Y79935D01*
X755201Y79880D01*
X755300Y79829D01*
X755401Y79781D01*
X755503Y79737D01*
X755607Y79697D01*
X755713Y79660D01*
X755819Y79627D01*
X755927Y79598D01*
X756036Y79573D01*
X756145Y79551D01*
X756255Y79533D01*
X756366Y79520D01*
X756477Y79510D01*
X756588Y79504D01*
X756700Y79502D01*
X760764Y79502D01*
X760764Y87630D01*
X760762Y87731D01*
X760756Y87832D01*
X760747Y87933D01*
X760734Y88034D01*
X760717Y88134D01*
X760696Y88233D01*
X760672Y88331D01*
X760644Y88428D01*
X760612Y88525D01*
X760577Y88620D01*
X760538Y88713D01*
X760496Y88805D01*
X760450Y88896D01*
X760401Y88985D01*
X760349Y89071D01*
X760293Y89156D01*
X760235Y89239D01*
X760173Y89319D01*
X760108Y89397D01*
X760041Y89473D01*
X759971Y89546D01*
X759898Y89616D01*
X759822Y89683D01*
X759744Y89748D01*
X759664Y89810D01*
X759581Y89868D01*
X759496Y89924D01*
X759410Y89976D01*
X759321Y90025D01*
X759230Y90071D01*
X759138Y90113D01*
X759045Y90152D01*
X758950Y90187D01*
X758853Y90219D01*
X758756Y90247D01*
X758658Y90271D01*
X758559Y90292D01*
X758459Y90309D01*
X758358Y90322D01*
X758257Y90331D01*
X758156Y90337D01*
X758055Y90339D01*
X754443Y90339D01*
X768275Y90339D02*
X768275Y74083D01*
X768275Y90339D02*
X772791Y90339D01*
X772895Y90337D01*
X772998Y90331D01*
X773102Y90321D01*
X773205Y90307D01*
X773307Y90289D01*
X773408Y90268D01*
X773509Y90242D01*
X773608Y90213D01*
X773707Y90180D01*
X773804Y90143D01*
X773899Y90102D01*
X773993Y90058D01*
X774085Y90010D01*
X774175Y89959D01*
X774264Y89904D01*
X774350Y89846D01*
X774433Y89784D01*
X774515Y89720D01*
X774593Y89652D01*
X774669Y89582D01*
X774743Y89509D01*
X774813Y89432D01*
X774881Y89354D01*
X774945Y89272D01*
X775007Y89189D01*
X775065Y89103D01*
X775120Y89014D01*
X775171Y88924D01*
X775219Y88832D01*
X775263Y88738D01*
X775304Y88643D01*
X775341Y88546D01*
X775374Y88447D01*
X775403Y88348D01*
X775429Y88247D01*
X775450Y88146D01*
X775468Y88044D01*
X775482Y87941D01*
X775492Y87837D01*
X775498Y87734D01*
X775500Y87630D01*
X775500Y82211D01*
X775498Y82110D01*
X775492Y82009D01*
X775483Y81908D01*
X775470Y81807D01*
X775453Y81707D01*
X775432Y81608D01*
X775408Y81510D01*
X775380Y81413D01*
X775348Y81316D01*
X775313Y81221D01*
X775274Y81128D01*
X775232Y81036D01*
X775186Y80945D01*
X775137Y80856D01*
X775085Y80770D01*
X775029Y80685D01*
X774971Y80602D01*
X774909Y80522D01*
X774844Y80444D01*
X774777Y80368D01*
X774707Y80295D01*
X774634Y80225D01*
X774558Y80158D01*
X774480Y80093D01*
X774400Y80031D01*
X774317Y79973D01*
X774232Y79917D01*
X774146Y79865D01*
X774057Y79816D01*
X773966Y79770D01*
X773874Y79728D01*
X773781Y79689D01*
X773686Y79654D01*
X773589Y79622D01*
X773492Y79594D01*
X773394Y79570D01*
X773295Y79549D01*
X773195Y79532D01*
X773094Y79519D01*
X772993Y79510D01*
X772892Y79504D01*
X772791Y79502D01*
X768275Y79502D01*
X782270Y79502D02*
X782270Y95758D01*
X782270Y90339D02*
X786785Y90339D01*
X786889Y90337D01*
X786992Y90331D01*
X787096Y90321D01*
X787199Y90307D01*
X787301Y90289D01*
X787402Y90268D01*
X787503Y90242D01*
X787602Y90213D01*
X787701Y90180D01*
X787798Y90143D01*
X787893Y90102D01*
X787987Y90058D01*
X788079Y90010D01*
X788169Y89959D01*
X788258Y89904D01*
X788344Y89846D01*
X788427Y89784D01*
X788509Y89720D01*
X788587Y89652D01*
X788663Y89582D01*
X788737Y89509D01*
X788807Y89432D01*
X788875Y89354D01*
X788939Y89272D01*
X789001Y89189D01*
X789059Y89103D01*
X789114Y89014D01*
X789165Y88924D01*
X789213Y88832D01*
X789257Y88738D01*
X789298Y88643D01*
X789335Y88546D01*
X789368Y88447D01*
X789397Y88348D01*
X789423Y88247D01*
X789444Y88146D01*
X789462Y88044D01*
X789476Y87941D01*
X789486Y87837D01*
X789492Y87734D01*
X789494Y87630D01*
X789495Y87630D02*
X789495Y79502D01*
X655687Y52832D02*
X648462Y52832D01*
X648462Y69088D01*
X655687Y69088D01*
X653881Y61863D02*
X648462Y61863D01*
X660022Y63669D02*
X665441Y63669D01*
X661828Y69088D02*
X661828Y55541D01*
X661829Y55541D02*
X661831Y55440D01*
X661837Y55339D01*
X661846Y55238D01*
X661859Y55137D01*
X661876Y55037D01*
X661897Y54938D01*
X661921Y54840D01*
X661949Y54743D01*
X661981Y54646D01*
X662016Y54551D01*
X662055Y54458D01*
X662097Y54366D01*
X662143Y54275D01*
X662192Y54186D01*
X662244Y54100D01*
X662300Y54015D01*
X662358Y53932D01*
X662420Y53852D01*
X662485Y53774D01*
X662552Y53698D01*
X662622Y53625D01*
X662695Y53555D01*
X662771Y53488D01*
X662849Y53423D01*
X662929Y53361D01*
X663012Y53303D01*
X663097Y53247D01*
X663184Y53195D01*
X663272Y53146D01*
X663363Y53100D01*
X663455Y53058D01*
X663548Y53019D01*
X663643Y52984D01*
X663740Y52952D01*
X663837Y52924D01*
X663935Y52900D01*
X664034Y52879D01*
X664134Y52862D01*
X664235Y52849D01*
X664336Y52840D01*
X664437Y52834D01*
X664538Y52832D01*
X665441Y52832D01*
X671740Y52832D02*
X671740Y69088D01*
X671740Y63669D02*
X676256Y63669D01*
X676360Y63667D01*
X676463Y63661D01*
X676567Y63651D01*
X676670Y63637D01*
X676772Y63619D01*
X676873Y63598D01*
X676974Y63572D01*
X677073Y63543D01*
X677172Y63510D01*
X677269Y63473D01*
X677364Y63432D01*
X677458Y63388D01*
X677550Y63340D01*
X677640Y63289D01*
X677729Y63234D01*
X677815Y63176D01*
X677898Y63114D01*
X677980Y63050D01*
X678058Y62982D01*
X678134Y62912D01*
X678208Y62839D01*
X678278Y62762D01*
X678346Y62684D01*
X678410Y62602D01*
X678472Y62519D01*
X678530Y62433D01*
X678585Y62344D01*
X678636Y62254D01*
X678684Y62162D01*
X678728Y62068D01*
X678769Y61973D01*
X678806Y61876D01*
X678839Y61777D01*
X678868Y61678D01*
X678894Y61577D01*
X678915Y61476D01*
X678933Y61374D01*
X678947Y61271D01*
X678957Y61167D01*
X678963Y61064D01*
X678965Y60960D01*
X678965Y52832D01*
X688896Y59154D02*
X692960Y59154D01*
X688896Y59154D02*
X688784Y59152D01*
X688673Y59146D01*
X688562Y59136D01*
X688451Y59123D01*
X688341Y59105D01*
X688232Y59083D01*
X688123Y59058D01*
X688015Y59029D01*
X687909Y58996D01*
X687803Y58959D01*
X687699Y58919D01*
X687597Y58875D01*
X687496Y58827D01*
X687397Y58776D01*
X687299Y58721D01*
X687204Y58663D01*
X687111Y58602D01*
X687020Y58537D01*
X686931Y58469D01*
X686845Y58398D01*
X686762Y58325D01*
X686681Y58248D01*
X686602Y58168D01*
X686527Y58086D01*
X686455Y58001D01*
X686385Y57914D01*
X686319Y57824D01*
X686256Y57732D01*
X686196Y57637D01*
X686140Y57541D01*
X686087Y57443D01*
X686038Y57343D01*
X685992Y57241D01*
X685950Y57138D01*
X685911Y57033D01*
X685876Y56927D01*
X685845Y56820D01*
X685818Y56712D01*
X685794Y56603D01*
X685775Y56493D01*
X685759Y56383D01*
X685747Y56272D01*
X685739Y56160D01*
X685735Y56049D01*
X685735Y55937D01*
X685739Y55826D01*
X685747Y55714D01*
X685759Y55603D01*
X685775Y55493D01*
X685794Y55383D01*
X685818Y55274D01*
X685845Y55166D01*
X685876Y55059D01*
X685911Y54953D01*
X685950Y54848D01*
X685992Y54745D01*
X686038Y54643D01*
X686087Y54543D01*
X686140Y54445D01*
X686196Y54349D01*
X686256Y54254D01*
X686319Y54162D01*
X686385Y54072D01*
X686455Y53985D01*
X686527Y53900D01*
X686602Y53818D01*
X686681Y53738D01*
X686762Y53661D01*
X686845Y53588D01*
X686931Y53517D01*
X687020Y53449D01*
X687111Y53384D01*
X687204Y53323D01*
X687299Y53265D01*
X687397Y53210D01*
X687496Y53159D01*
X687597Y53111D01*
X687699Y53067D01*
X687803Y53027D01*
X687909Y52990D01*
X688015Y52957D01*
X688123Y52928D01*
X688232Y52903D01*
X688341Y52881D01*
X688451Y52863D01*
X688562Y52850D01*
X688673Y52840D01*
X688784Y52834D01*
X688896Y52832D01*
X692960Y52832D01*
X692960Y60960D01*
X692959Y60960D02*
X692957Y61061D01*
X692951Y61162D01*
X692942Y61263D01*
X692929Y61364D01*
X692912Y61464D01*
X692891Y61563D01*
X692867Y61661D01*
X692839Y61758D01*
X692807Y61855D01*
X692772Y61950D01*
X692733Y62043D01*
X692691Y62135D01*
X692645Y62226D01*
X692596Y62315D01*
X692544Y62401D01*
X692488Y62486D01*
X692430Y62569D01*
X692368Y62649D01*
X692303Y62727D01*
X692236Y62803D01*
X692166Y62876D01*
X692093Y62946D01*
X692017Y63013D01*
X691939Y63078D01*
X691859Y63140D01*
X691776Y63198D01*
X691691Y63254D01*
X691605Y63306D01*
X691516Y63355D01*
X691425Y63401D01*
X691333Y63443D01*
X691240Y63482D01*
X691145Y63517D01*
X691048Y63549D01*
X690951Y63577D01*
X690853Y63601D01*
X690754Y63622D01*
X690654Y63639D01*
X690553Y63652D01*
X690452Y63661D01*
X690351Y63667D01*
X690250Y63669D01*
X686638Y63669D01*
X700397Y63669D02*
X700397Y52832D01*
X700397Y63669D02*
X704913Y63669D01*
X705017Y63667D01*
X705120Y63661D01*
X705224Y63651D01*
X705327Y63637D01*
X705429Y63619D01*
X705530Y63598D01*
X705631Y63572D01*
X705730Y63543D01*
X705829Y63510D01*
X705926Y63473D01*
X706021Y63432D01*
X706115Y63388D01*
X706207Y63340D01*
X706297Y63289D01*
X706386Y63234D01*
X706472Y63176D01*
X706555Y63114D01*
X706637Y63050D01*
X706715Y62982D01*
X706791Y62912D01*
X706865Y62839D01*
X706935Y62762D01*
X707003Y62684D01*
X707067Y62602D01*
X707129Y62519D01*
X707187Y62433D01*
X707242Y62344D01*
X707293Y62254D01*
X707341Y62162D01*
X707385Y62068D01*
X707426Y61973D01*
X707463Y61876D01*
X707496Y61777D01*
X707525Y61678D01*
X707551Y61577D01*
X707572Y61476D01*
X707590Y61374D01*
X707604Y61271D01*
X707614Y61167D01*
X707620Y61064D01*
X707622Y60960D01*
X707622Y52832D01*
X729784Y61863D02*
X732493Y61863D01*
X732493Y52832D01*
X727074Y52832D01*
X726956Y52834D01*
X726838Y52840D01*
X726720Y52849D01*
X726603Y52863D01*
X726486Y52880D01*
X726369Y52901D01*
X726254Y52926D01*
X726139Y52955D01*
X726025Y52988D01*
X725913Y53024D01*
X725802Y53064D01*
X725692Y53107D01*
X725583Y53154D01*
X725476Y53204D01*
X725371Y53259D01*
X725268Y53316D01*
X725167Y53377D01*
X725067Y53441D01*
X724970Y53508D01*
X724875Y53578D01*
X724783Y53652D01*
X724692Y53728D01*
X724605Y53808D01*
X724520Y53890D01*
X724438Y53975D01*
X724358Y54062D01*
X724282Y54153D01*
X724208Y54245D01*
X724138Y54340D01*
X724071Y54437D01*
X724007Y54537D01*
X723946Y54638D01*
X723889Y54741D01*
X723834Y54846D01*
X723784Y54953D01*
X723737Y55062D01*
X723694Y55172D01*
X723654Y55283D01*
X723618Y55395D01*
X723585Y55509D01*
X723556Y55624D01*
X723531Y55739D01*
X723510Y55856D01*
X723493Y55973D01*
X723479Y56090D01*
X723470Y56208D01*
X723464Y56326D01*
X723462Y56444D01*
X723462Y65476D01*
X723464Y65594D01*
X723470Y65712D01*
X723479Y65830D01*
X723493Y65947D01*
X723510Y66064D01*
X723531Y66181D01*
X723556Y66296D01*
X723585Y66411D01*
X723618Y66525D01*
X723654Y66637D01*
X723694Y66748D01*
X723737Y66858D01*
X723784Y66967D01*
X723834Y67074D01*
X723888Y67179D01*
X723946Y67282D01*
X724007Y67383D01*
X724071Y67483D01*
X724138Y67580D01*
X724208Y67675D01*
X724282Y67767D01*
X724358Y67858D01*
X724438Y67945D01*
X724520Y68030D01*
X724605Y68112D01*
X724692Y68192D01*
X724783Y68268D01*
X724875Y68342D01*
X724970Y68412D01*
X725067Y68479D01*
X725167Y68543D01*
X725268Y68604D01*
X725371Y68661D01*
X725476Y68715D01*
X725583Y68766D01*
X725692Y68813D01*
X725802Y68856D01*
X725913Y68896D01*
X726025Y68932D01*
X726139Y68965D01*
X726254Y68994D01*
X726369Y69019D01*
X726486Y69040D01*
X726603Y69057D01*
X726720Y69071D01*
X726838Y69080D01*
X726956Y69086D01*
X727074Y69088D01*
X732493Y69088D01*
X740081Y63669D02*
X740081Y52832D01*
X740081Y63669D02*
X745500Y63669D01*
X745500Y61863D01*
X753126Y52832D02*
X757642Y52832D01*
X753126Y52832D02*
X753025Y52834D01*
X752924Y52840D01*
X752823Y52849D01*
X752722Y52862D01*
X752622Y52879D01*
X752523Y52900D01*
X752425Y52924D01*
X752328Y52952D01*
X752231Y52984D01*
X752136Y53019D01*
X752043Y53058D01*
X751951Y53100D01*
X751860Y53146D01*
X751772Y53195D01*
X751685Y53247D01*
X751600Y53303D01*
X751517Y53361D01*
X751437Y53423D01*
X751359Y53488D01*
X751283Y53555D01*
X751210Y53625D01*
X751140Y53698D01*
X751073Y53774D01*
X751008Y53852D01*
X750946Y53932D01*
X750888Y54015D01*
X750832Y54100D01*
X750780Y54186D01*
X750731Y54275D01*
X750685Y54366D01*
X750643Y54458D01*
X750604Y54551D01*
X750569Y54646D01*
X750537Y54743D01*
X750509Y54840D01*
X750485Y54938D01*
X750464Y55037D01*
X750447Y55137D01*
X750434Y55238D01*
X750425Y55339D01*
X750419Y55440D01*
X750417Y55541D01*
X750417Y60057D01*
X750418Y60057D02*
X750420Y60176D01*
X750426Y60296D01*
X750436Y60415D01*
X750450Y60533D01*
X750467Y60652D01*
X750489Y60769D01*
X750514Y60886D01*
X750544Y61001D01*
X750577Y61116D01*
X750614Y61230D01*
X750654Y61342D01*
X750699Y61453D01*
X750747Y61562D01*
X750798Y61670D01*
X750853Y61776D01*
X750912Y61880D01*
X750974Y61982D01*
X751039Y62082D01*
X751108Y62180D01*
X751180Y62276D01*
X751255Y62369D01*
X751332Y62459D01*
X751413Y62547D01*
X751497Y62632D01*
X751584Y62714D01*
X751673Y62794D01*
X751765Y62870D01*
X751859Y62944D01*
X751956Y63014D01*
X752054Y63081D01*
X752155Y63145D01*
X752259Y63205D01*
X752364Y63262D01*
X752471Y63315D01*
X752579Y63365D01*
X752689Y63411D01*
X752801Y63453D01*
X752914Y63492D01*
X753028Y63527D01*
X753143Y63558D01*
X753260Y63586D01*
X753377Y63609D01*
X753494Y63629D01*
X753613Y63645D01*
X753732Y63657D01*
X753851Y63665D01*
X753970Y63669D01*
X754090Y63669D01*
X754209Y63665D01*
X754328Y63657D01*
X754447Y63645D01*
X754566Y63629D01*
X754683Y63609D01*
X754800Y63586D01*
X754917Y63558D01*
X755032Y63527D01*
X755146Y63492D01*
X755259Y63453D01*
X755371Y63411D01*
X755481Y63365D01*
X755589Y63315D01*
X755696Y63262D01*
X755801Y63205D01*
X755905Y63145D01*
X756006Y63081D01*
X756104Y63014D01*
X756201Y62944D01*
X756295Y62870D01*
X756387Y62794D01*
X756476Y62714D01*
X756563Y62632D01*
X756647Y62547D01*
X756728Y62459D01*
X756805Y62369D01*
X756880Y62276D01*
X756952Y62180D01*
X757021Y62082D01*
X757086Y61982D01*
X757148Y61880D01*
X757207Y61776D01*
X757262Y61670D01*
X757313Y61562D01*
X757361Y61453D01*
X757406Y61342D01*
X757446Y61230D01*
X757483Y61116D01*
X757516Y61001D01*
X757546Y60886D01*
X757571Y60769D01*
X757593Y60652D01*
X757610Y60533D01*
X757624Y60415D01*
X757634Y60296D01*
X757640Y60176D01*
X757642Y60057D01*
X757642Y58251D01*
X750417Y58251D01*
X763443Y47413D02*
X765249Y47413D01*
X770668Y63669D01*
X763443Y63669D02*
X767056Y52832D01*
X648462Y42418D02*
X648462Y26162D01*
X648462Y42418D02*
X652978Y42418D01*
X653111Y42416D01*
X653243Y42410D01*
X653375Y42400D01*
X653507Y42387D01*
X653639Y42369D01*
X653769Y42348D01*
X653900Y42323D01*
X654029Y42294D01*
X654157Y42261D01*
X654285Y42225D01*
X654411Y42185D01*
X654536Y42141D01*
X654660Y42093D01*
X654782Y42042D01*
X654903Y41987D01*
X655022Y41929D01*
X655140Y41867D01*
X655255Y41802D01*
X655369Y41733D01*
X655480Y41662D01*
X655589Y41586D01*
X655696Y41508D01*
X655801Y41427D01*
X655903Y41342D01*
X656003Y41255D01*
X656100Y41165D01*
X656195Y41072D01*
X656286Y40976D01*
X656375Y40878D01*
X656461Y40777D01*
X656544Y40673D01*
X656624Y40567D01*
X656700Y40459D01*
X656774Y40349D01*
X656844Y40236D01*
X656911Y40122D01*
X656974Y40005D01*
X657034Y39887D01*
X657091Y39767D01*
X657144Y39645D01*
X657193Y39522D01*
X657239Y39398D01*
X657281Y39272D01*
X657319Y39145D01*
X657354Y39017D01*
X657385Y38888D01*
X657412Y38759D01*
X657435Y38628D01*
X657455Y38497D01*
X657470Y38365D01*
X657482Y38233D01*
X657490Y38101D01*
X657494Y37968D01*
X657494Y37836D01*
X657490Y37703D01*
X657482Y37571D01*
X657470Y37439D01*
X657455Y37307D01*
X657435Y37176D01*
X657412Y37045D01*
X657385Y36916D01*
X657354Y36787D01*
X657319Y36659D01*
X657281Y36532D01*
X657239Y36406D01*
X657193Y36282D01*
X657144Y36159D01*
X657091Y36037D01*
X657034Y35917D01*
X656974Y35799D01*
X656911Y35682D01*
X656844Y35568D01*
X656774Y35455D01*
X656700Y35345D01*
X656624Y35237D01*
X656544Y35131D01*
X656461Y35027D01*
X656375Y34926D01*
X656286Y34828D01*
X656195Y34732D01*
X656100Y34639D01*
X656003Y34549D01*
X655903Y34462D01*
X655801Y34377D01*
X655696Y34296D01*
X655589Y34218D01*
X655480Y34142D01*
X655369Y34071D01*
X655255Y34002D01*
X655140Y33937D01*
X655022Y33875D01*
X654903Y33817D01*
X654782Y33762D01*
X654660Y33711D01*
X654536Y33663D01*
X654411Y33619D01*
X654285Y33579D01*
X654157Y33543D01*
X654029Y33510D01*
X653900Y33481D01*
X653769Y33456D01*
X653639Y33435D01*
X653507Y33417D01*
X653375Y33404D01*
X653243Y33394D01*
X653111Y33388D01*
X652978Y33386D01*
X652978Y33387D02*
X648462Y33387D01*
X653881Y33387D02*
X657493Y26162D01*
X666572Y26162D02*
X671088Y26162D01*
X666572Y26162D02*
X666471Y26164D01*
X666370Y26170D01*
X666269Y26179D01*
X666168Y26192D01*
X666068Y26209D01*
X665969Y26230D01*
X665871Y26254D01*
X665774Y26282D01*
X665677Y26314D01*
X665582Y26349D01*
X665489Y26388D01*
X665397Y26430D01*
X665306Y26476D01*
X665218Y26525D01*
X665131Y26577D01*
X665046Y26633D01*
X664963Y26691D01*
X664883Y26753D01*
X664805Y26818D01*
X664729Y26885D01*
X664656Y26955D01*
X664586Y27028D01*
X664519Y27104D01*
X664454Y27182D01*
X664392Y27262D01*
X664334Y27345D01*
X664278Y27430D01*
X664226Y27516D01*
X664177Y27605D01*
X664131Y27696D01*
X664089Y27788D01*
X664050Y27881D01*
X664015Y27976D01*
X663983Y28073D01*
X663955Y28170D01*
X663931Y28268D01*
X663910Y28367D01*
X663893Y28467D01*
X663880Y28568D01*
X663871Y28669D01*
X663865Y28770D01*
X663863Y28871D01*
X663863Y33387D01*
X663865Y33506D01*
X663871Y33626D01*
X663881Y33745D01*
X663895Y33863D01*
X663912Y33982D01*
X663934Y34099D01*
X663959Y34216D01*
X663989Y34331D01*
X664022Y34446D01*
X664059Y34560D01*
X664099Y34672D01*
X664144Y34783D01*
X664192Y34892D01*
X664243Y35000D01*
X664298Y35106D01*
X664357Y35210D01*
X664419Y35312D01*
X664484Y35412D01*
X664553Y35510D01*
X664625Y35606D01*
X664700Y35699D01*
X664777Y35789D01*
X664858Y35877D01*
X664942Y35962D01*
X665029Y36044D01*
X665118Y36124D01*
X665210Y36200D01*
X665304Y36274D01*
X665401Y36344D01*
X665499Y36411D01*
X665600Y36475D01*
X665704Y36535D01*
X665809Y36592D01*
X665916Y36645D01*
X666024Y36695D01*
X666134Y36741D01*
X666246Y36783D01*
X666359Y36822D01*
X666473Y36857D01*
X666588Y36888D01*
X666705Y36916D01*
X666822Y36939D01*
X666939Y36959D01*
X667058Y36975D01*
X667177Y36987D01*
X667296Y36995D01*
X667415Y36999D01*
X667535Y36999D01*
X667654Y36995D01*
X667773Y36987D01*
X667892Y36975D01*
X668011Y36959D01*
X668128Y36939D01*
X668245Y36916D01*
X668362Y36888D01*
X668477Y36857D01*
X668591Y36822D01*
X668704Y36783D01*
X668816Y36741D01*
X668926Y36695D01*
X669034Y36645D01*
X669141Y36592D01*
X669246Y36535D01*
X669350Y36475D01*
X669451Y36411D01*
X669549Y36344D01*
X669646Y36274D01*
X669740Y36200D01*
X669832Y36124D01*
X669921Y36044D01*
X670008Y35962D01*
X670092Y35877D01*
X670173Y35789D01*
X670250Y35699D01*
X670325Y35606D01*
X670397Y35510D01*
X670466Y35412D01*
X670531Y35312D01*
X670593Y35210D01*
X670652Y35106D01*
X670707Y35000D01*
X670758Y34892D01*
X670806Y34783D01*
X670851Y34672D01*
X670891Y34560D01*
X670928Y34446D01*
X670961Y34331D01*
X670991Y34216D01*
X671016Y34099D01*
X671038Y33982D01*
X671055Y33863D01*
X671069Y33745D01*
X671079Y33626D01*
X671085Y33506D01*
X671087Y33387D01*
X671088Y33387D02*
X671088Y31581D01*
X663863Y31581D01*
X676889Y36999D02*
X680501Y26162D01*
X684114Y36999D01*
X698390Y38806D02*
X702906Y42418D01*
X702906Y26162D01*
X707421Y26162D02*
X698390Y26162D01*
D11*
X381000Y76200D02*
X177800Y76200D01*
X381000Y76200D02*
X381000Y50800D01*
X177800Y50800D01*
X177800Y76200D01*
X182283Y43726D02*
X178473Y32296D01*
X186093Y32296D02*
X182283Y43726D01*
X185141Y35154D02*
X179426Y35154D01*
X193041Y32296D02*
X195581Y32296D01*
X193041Y32296D02*
X192941Y32298D01*
X192842Y32304D01*
X192742Y32314D01*
X192644Y32327D01*
X192545Y32345D01*
X192448Y32366D01*
X192352Y32391D01*
X192256Y32420D01*
X192162Y32453D01*
X192069Y32489D01*
X191978Y32529D01*
X191888Y32573D01*
X191800Y32620D01*
X191714Y32670D01*
X191630Y32724D01*
X191548Y32781D01*
X191469Y32841D01*
X191391Y32905D01*
X191317Y32971D01*
X191245Y33040D01*
X191176Y33112D01*
X191110Y33186D01*
X191046Y33264D01*
X190986Y33343D01*
X190929Y33425D01*
X190875Y33509D01*
X190825Y33595D01*
X190778Y33683D01*
X190734Y33773D01*
X190694Y33864D01*
X190658Y33957D01*
X190625Y34051D01*
X190596Y34147D01*
X190571Y34243D01*
X190550Y34340D01*
X190532Y34439D01*
X190519Y34537D01*
X190509Y34637D01*
X190503Y34736D01*
X190501Y34836D01*
X190501Y41186D01*
X190503Y41286D01*
X190509Y41385D01*
X190519Y41485D01*
X190532Y41583D01*
X190550Y41682D01*
X190571Y41779D01*
X190596Y41875D01*
X190625Y41971D01*
X190658Y42065D01*
X190694Y42158D01*
X190734Y42249D01*
X190778Y42339D01*
X190825Y42427D01*
X190875Y42513D01*
X190929Y42597D01*
X190986Y42679D01*
X191046Y42758D01*
X191110Y42836D01*
X191176Y42910D01*
X191245Y42982D01*
X191317Y43051D01*
X191391Y43117D01*
X191469Y43181D01*
X191548Y43241D01*
X191630Y43298D01*
X191714Y43352D01*
X191800Y43402D01*
X191888Y43449D01*
X191978Y43493D01*
X192069Y43533D01*
X192162Y43569D01*
X192256Y43602D01*
X192352Y43631D01*
X192448Y43656D01*
X192545Y43677D01*
X192644Y43695D01*
X192742Y43708D01*
X192842Y43718D01*
X192941Y43724D01*
X193041Y43726D01*
X195581Y43726D01*
X202566Y32296D02*
X205106Y32296D01*
X202566Y32296D02*
X202466Y32298D01*
X202367Y32304D01*
X202267Y32314D01*
X202169Y32327D01*
X202070Y32345D01*
X201973Y32366D01*
X201877Y32391D01*
X201781Y32420D01*
X201687Y32453D01*
X201594Y32489D01*
X201503Y32529D01*
X201413Y32573D01*
X201325Y32620D01*
X201239Y32670D01*
X201155Y32724D01*
X201073Y32781D01*
X200994Y32841D01*
X200916Y32905D01*
X200842Y32971D01*
X200770Y33040D01*
X200701Y33112D01*
X200635Y33186D01*
X200571Y33264D01*
X200511Y33343D01*
X200454Y33425D01*
X200400Y33509D01*
X200350Y33595D01*
X200303Y33683D01*
X200259Y33773D01*
X200219Y33864D01*
X200183Y33957D01*
X200150Y34051D01*
X200121Y34147D01*
X200096Y34243D01*
X200075Y34340D01*
X200057Y34439D01*
X200044Y34537D01*
X200034Y34637D01*
X200028Y34736D01*
X200026Y34836D01*
X200026Y41186D01*
X200028Y41286D01*
X200034Y41385D01*
X200044Y41485D01*
X200057Y41583D01*
X200075Y41682D01*
X200096Y41779D01*
X200121Y41875D01*
X200150Y41971D01*
X200183Y42065D01*
X200219Y42158D01*
X200259Y42249D01*
X200303Y42339D01*
X200350Y42427D01*
X200400Y42513D01*
X200454Y42597D01*
X200511Y42679D01*
X200571Y42758D01*
X200635Y42836D01*
X200701Y42910D01*
X200770Y42982D01*
X200842Y43051D01*
X200916Y43117D01*
X200994Y43181D01*
X201073Y43241D01*
X201155Y43298D01*
X201239Y43352D01*
X201325Y43402D01*
X201413Y43449D01*
X201503Y43493D01*
X201594Y43533D01*
X201687Y43569D01*
X201781Y43602D01*
X201877Y43631D01*
X201973Y43656D01*
X202070Y43677D01*
X202169Y43695D01*
X202267Y43708D01*
X202367Y43718D01*
X202466Y43724D01*
X202566Y43726D01*
X205106Y43726D01*
X209994Y32296D02*
X215074Y32296D01*
X209994Y32296D02*
X209994Y43726D01*
X215074Y43726D01*
X213804Y38646D02*
X209994Y38646D01*
X219900Y43726D02*
X219900Y32296D01*
X224980Y32296D01*
D10*
X815340Y256540D02*
X815342Y256440D01*
X815348Y256341D01*
X815358Y256241D01*
X815371Y256143D01*
X815389Y256044D01*
X815410Y255947D01*
X815435Y255851D01*
X815464Y255755D01*
X815497Y255661D01*
X815533Y255568D01*
X815573Y255477D01*
X815617Y255387D01*
X815664Y255299D01*
X815714Y255213D01*
X815768Y255129D01*
X815825Y255047D01*
X815885Y254968D01*
X815949Y254890D01*
X816015Y254816D01*
X816084Y254744D01*
X816156Y254675D01*
X816230Y254609D01*
X816308Y254545D01*
X816387Y254485D01*
X816469Y254428D01*
X816553Y254374D01*
X816639Y254324D01*
X816727Y254277D01*
X816817Y254233D01*
X816908Y254193D01*
X817001Y254157D01*
X817095Y254124D01*
X817191Y254095D01*
X817287Y254070D01*
X817384Y254049D01*
X817483Y254031D01*
X817581Y254018D01*
X817681Y254008D01*
X817780Y254002D01*
X817880Y254000D01*
X833120Y254000D02*
X833220Y254002D01*
X833319Y254008D01*
X833419Y254018D01*
X833517Y254031D01*
X833616Y254049D01*
X833713Y254070D01*
X833809Y254095D01*
X833905Y254124D01*
X833999Y254157D01*
X834092Y254193D01*
X834183Y254233D01*
X834273Y254277D01*
X834361Y254324D01*
X834447Y254374D01*
X834531Y254428D01*
X834613Y254485D01*
X834692Y254545D01*
X834770Y254609D01*
X834844Y254675D01*
X834916Y254744D01*
X834985Y254816D01*
X835051Y254890D01*
X835115Y254968D01*
X835175Y255047D01*
X835232Y255129D01*
X835286Y255213D01*
X835336Y255299D01*
X835383Y255387D01*
X835427Y255477D01*
X835467Y255568D01*
X835503Y255661D01*
X835536Y255755D01*
X835565Y255851D01*
X835590Y255947D01*
X835611Y256044D01*
X835629Y256143D01*
X835642Y256241D01*
X835652Y256341D01*
X835658Y256440D01*
X835660Y256540D01*
X835660Y302260D02*
X835658Y302360D01*
X835652Y302459D01*
X835642Y302559D01*
X835629Y302657D01*
X835611Y302756D01*
X835590Y302853D01*
X835565Y302949D01*
X835536Y303045D01*
X835503Y303139D01*
X835467Y303232D01*
X835427Y303323D01*
X835383Y303413D01*
X835336Y303501D01*
X835286Y303587D01*
X835232Y303671D01*
X835175Y303753D01*
X835115Y303832D01*
X835051Y303910D01*
X834985Y303984D01*
X834916Y304056D01*
X834844Y304125D01*
X834770Y304191D01*
X834692Y304255D01*
X834613Y304315D01*
X834531Y304372D01*
X834447Y304426D01*
X834361Y304476D01*
X834273Y304523D01*
X834183Y304567D01*
X834092Y304607D01*
X833999Y304643D01*
X833905Y304676D01*
X833809Y304705D01*
X833713Y304730D01*
X833616Y304751D01*
X833517Y304769D01*
X833419Y304782D01*
X833319Y304792D01*
X833220Y304798D01*
X833120Y304800D01*
X817880Y304800D02*
X817780Y304798D01*
X817681Y304792D01*
X817581Y304782D01*
X817483Y304769D01*
X817384Y304751D01*
X817287Y304730D01*
X817191Y304705D01*
X817095Y304676D01*
X817001Y304643D01*
X816908Y304607D01*
X816817Y304567D01*
X816727Y304523D01*
X816639Y304476D01*
X816553Y304426D01*
X816469Y304372D01*
X816387Y304315D01*
X816308Y304255D01*
X816230Y304191D01*
X816156Y304125D01*
X816084Y304056D01*
X816015Y303984D01*
X815949Y303910D01*
X815885Y303832D01*
X815825Y303753D01*
X815768Y303671D01*
X815714Y303587D01*
X815664Y303501D01*
X815617Y303413D01*
X815573Y303323D01*
X815533Y303232D01*
X815497Y303139D01*
X815464Y303045D01*
X815435Y302949D01*
X815410Y302853D01*
X815389Y302756D01*
X815371Y302657D01*
X815358Y302559D01*
X815348Y302459D01*
X815342Y302360D01*
X815340Y302260D01*
X817880Y254000D02*
X833120Y254000D01*
X815340Y256540D02*
X815340Y260350D01*
X816610Y261620D01*
X835660Y260350D02*
X835660Y256540D01*
X835660Y260350D02*
X834390Y261620D01*
X816610Y297180D02*
X815340Y298450D01*
X816610Y297180D02*
X816610Y261620D01*
X834390Y297180D02*
X835660Y298450D01*
X834390Y297180D02*
X834390Y261620D01*
X815340Y298450D02*
X815340Y302260D01*
X835660Y302260D02*
X835660Y298450D01*
X833120Y304800D02*
X817880Y304800D01*
D12*
X825500Y306705D03*
X825500Y252095D03*
D11*
X807276Y263906D02*
X798640Y263906D01*
X798640Y266305D01*
X798639Y266305D02*
X798641Y266402D01*
X798647Y266498D01*
X798656Y266594D01*
X798670Y266690D01*
X798687Y266785D01*
X798709Y266879D01*
X798734Y266972D01*
X798762Y267065D01*
X798795Y267156D01*
X798831Y267245D01*
X798871Y267333D01*
X798914Y267420D01*
X798960Y267505D01*
X799010Y267587D01*
X799064Y267668D01*
X799120Y267746D01*
X799180Y267822D01*
X799242Y267896D01*
X799308Y267967D01*
X799376Y268035D01*
X799447Y268101D01*
X799521Y268163D01*
X799597Y268223D01*
X799675Y268279D01*
X799756Y268333D01*
X799839Y268383D01*
X799923Y268429D01*
X800010Y268472D01*
X800098Y268512D01*
X800187Y268548D01*
X800278Y268581D01*
X800371Y268609D01*
X800464Y268634D01*
X800558Y268656D01*
X800653Y268673D01*
X800749Y268687D01*
X800845Y268696D01*
X800941Y268702D01*
X801038Y268704D01*
X801135Y268702D01*
X801231Y268696D01*
X801327Y268687D01*
X801423Y268673D01*
X801518Y268656D01*
X801612Y268634D01*
X801705Y268609D01*
X801798Y268581D01*
X801889Y268548D01*
X801978Y268512D01*
X802066Y268472D01*
X802153Y268429D01*
X802238Y268383D01*
X802320Y268333D01*
X802401Y268279D01*
X802479Y268223D01*
X802555Y268163D01*
X802629Y268101D01*
X802700Y268035D01*
X802768Y267967D01*
X802834Y267896D01*
X802896Y267822D01*
X802956Y267746D01*
X803012Y267668D01*
X803066Y267587D01*
X803116Y267505D01*
X803162Y267420D01*
X803205Y267333D01*
X803245Y267245D01*
X803281Y267156D01*
X803314Y267065D01*
X803342Y266972D01*
X803367Y266879D01*
X803389Y266785D01*
X803406Y266690D01*
X803420Y266594D01*
X803429Y266498D01*
X803435Y266402D01*
X803437Y266305D01*
X803437Y263906D01*
X803437Y266785D02*
X807276Y268704D01*
X800559Y272747D02*
X798640Y275146D01*
X807276Y275146D01*
X807276Y277544D02*
X807276Y272747D01*
X821055Y266418D02*
X821057Y266510D01*
X821063Y266601D01*
X821072Y266692D01*
X821086Y266783D01*
X821103Y266873D01*
X821125Y266962D01*
X821150Y267050D01*
X821178Y267137D01*
X821211Y267223D01*
X821247Y267307D01*
X821286Y267390D01*
X821329Y267471D01*
X821376Y267550D01*
X821425Y267627D01*
X821478Y267702D01*
X821534Y267774D01*
X821593Y267844D01*
X821655Y267912D01*
X821720Y267977D01*
X821788Y268039D01*
X821858Y268098D01*
X821930Y268154D01*
X822005Y268207D01*
X822082Y268256D01*
X822161Y268303D01*
X822242Y268346D01*
X822325Y268385D01*
X822409Y268421D01*
X822495Y268454D01*
X822582Y268482D01*
X822670Y268507D01*
X822759Y268529D01*
X822849Y268546D01*
X822940Y268560D01*
X823031Y268569D01*
X823122Y268575D01*
X823214Y268577D01*
X821055Y266418D02*
X821057Y266315D01*
X821063Y266213D01*
X821072Y266111D01*
X821085Y266009D01*
X821102Y265908D01*
X821123Y265807D01*
X821147Y265708D01*
X821176Y265609D01*
X821207Y265512D01*
X821243Y265415D01*
X821281Y265320D01*
X821324Y265227D01*
X821370Y265135D01*
X821419Y265045D01*
X821471Y264957D01*
X821527Y264870D01*
X821586Y264786D01*
X821647Y264705D01*
X821712Y264625D01*
X821780Y264548D01*
X821851Y264473D01*
X821924Y264402D01*
X822000Y264333D01*
X822078Y264266D01*
X822159Y264203D01*
X822242Y264143D01*
X822327Y264086D01*
X822414Y264032D01*
X822504Y263981D01*
X822595Y263934D01*
X822687Y263890D01*
X822782Y263849D01*
X822877Y263812D01*
X822974Y263779D01*
X824893Y267857D02*
X824827Y267924D01*
X824758Y267988D01*
X824687Y268049D01*
X824613Y268107D01*
X824537Y268162D01*
X824459Y268214D01*
X824379Y268263D01*
X824297Y268309D01*
X824213Y268351D01*
X824127Y268390D01*
X824040Y268425D01*
X823952Y268456D01*
X823862Y268484D01*
X823772Y268509D01*
X823680Y268530D01*
X823588Y268547D01*
X823495Y268560D01*
X823402Y268569D01*
X823308Y268575D01*
X823214Y268577D01*
X824893Y267857D02*
X829691Y263779D01*
X829691Y268577D01*
X821055Y275333D02*
X821057Y275425D01*
X821063Y275516D01*
X821072Y275607D01*
X821086Y275698D01*
X821103Y275788D01*
X821125Y275877D01*
X821150Y275965D01*
X821178Y276052D01*
X821211Y276138D01*
X821247Y276222D01*
X821286Y276305D01*
X821329Y276386D01*
X821376Y276465D01*
X821425Y276542D01*
X821478Y276617D01*
X821534Y276689D01*
X821593Y276759D01*
X821655Y276827D01*
X821720Y276892D01*
X821788Y276954D01*
X821858Y277013D01*
X821930Y277069D01*
X822005Y277122D01*
X822082Y277171D01*
X822161Y277218D01*
X822242Y277261D01*
X822325Y277300D01*
X822409Y277336D01*
X822495Y277369D01*
X822582Y277397D01*
X822670Y277422D01*
X822759Y277444D01*
X822849Y277461D01*
X822940Y277475D01*
X823031Y277484D01*
X823122Y277490D01*
X823214Y277492D01*
X821055Y275333D02*
X821057Y275230D01*
X821063Y275128D01*
X821072Y275026D01*
X821085Y274924D01*
X821102Y274823D01*
X821123Y274722D01*
X821147Y274623D01*
X821176Y274524D01*
X821207Y274427D01*
X821243Y274330D01*
X821281Y274235D01*
X821324Y274142D01*
X821370Y274050D01*
X821419Y273960D01*
X821471Y273872D01*
X821527Y273785D01*
X821586Y273701D01*
X821647Y273620D01*
X821712Y273540D01*
X821780Y273463D01*
X821851Y273388D01*
X821924Y273317D01*
X822000Y273248D01*
X822078Y273181D01*
X822159Y273118D01*
X822242Y273058D01*
X822327Y273001D01*
X822414Y272947D01*
X822504Y272896D01*
X822595Y272849D01*
X822687Y272805D01*
X822782Y272764D01*
X822877Y272727D01*
X822974Y272694D01*
X824893Y276772D02*
X824827Y276839D01*
X824758Y276903D01*
X824687Y276964D01*
X824613Y277022D01*
X824537Y277077D01*
X824459Y277129D01*
X824379Y277178D01*
X824297Y277224D01*
X824213Y277266D01*
X824127Y277305D01*
X824040Y277340D01*
X823952Y277371D01*
X823862Y277399D01*
X823772Y277424D01*
X823680Y277445D01*
X823588Y277462D01*
X823495Y277475D01*
X823402Y277484D01*
X823308Y277490D01*
X823214Y277492D01*
X824893Y276772D02*
X829691Y272694D01*
X829691Y277492D01*
X825373Y281610D02*
X825203Y281612D01*
X825033Y281618D01*
X824864Y281628D01*
X824694Y281642D01*
X824525Y281661D01*
X824357Y281683D01*
X824189Y281709D01*
X824022Y281739D01*
X823856Y281774D01*
X823690Y281812D01*
X823525Y281854D01*
X823362Y281900D01*
X823200Y281950D01*
X823038Y282004D01*
X822879Y282061D01*
X822720Y282123D01*
X822563Y282188D01*
X822408Y282257D01*
X822254Y282330D01*
X822178Y282358D01*
X822103Y282390D01*
X822029Y282425D01*
X821957Y282463D01*
X821887Y282505D01*
X821819Y282550D01*
X821753Y282598D01*
X821689Y282649D01*
X821628Y282703D01*
X821569Y282759D01*
X821513Y282819D01*
X821460Y282880D01*
X821410Y282944D01*
X821362Y283011D01*
X821318Y283079D01*
X821277Y283150D01*
X821239Y283222D01*
X821205Y283296D01*
X821174Y283371D01*
X821146Y283448D01*
X821122Y283526D01*
X821102Y283605D01*
X821085Y283685D01*
X821072Y283765D01*
X821062Y283846D01*
X821057Y283927D01*
X821055Y284009D01*
X821057Y284091D01*
X821062Y284172D01*
X821072Y284253D01*
X821085Y284333D01*
X821102Y284413D01*
X821122Y284492D01*
X821146Y284570D01*
X821174Y284647D01*
X821205Y284722D01*
X821239Y284796D01*
X821277Y284868D01*
X821318Y284939D01*
X821362Y285007D01*
X821410Y285074D01*
X821460Y285138D01*
X821513Y285199D01*
X821569Y285259D01*
X821628Y285315D01*
X821689Y285369D01*
X821753Y285420D01*
X821819Y285468D01*
X821887Y285513D01*
X821957Y285555D01*
X822029Y285593D01*
X822103Y285628D01*
X822178Y285660D01*
X822254Y285688D01*
X822408Y285761D01*
X822563Y285830D01*
X822720Y285895D01*
X822879Y285957D01*
X823038Y286014D01*
X823200Y286068D01*
X823362Y286118D01*
X823525Y286164D01*
X823690Y286206D01*
X823856Y286244D01*
X824022Y286279D01*
X824189Y286309D01*
X824357Y286335D01*
X824525Y286357D01*
X824694Y286376D01*
X824864Y286390D01*
X825033Y286400D01*
X825203Y286406D01*
X825373Y286408D01*
X825373Y281610D02*
X825543Y281612D01*
X825713Y281618D01*
X825882Y281628D01*
X826052Y281642D01*
X826221Y281661D01*
X826389Y281683D01*
X826557Y281709D01*
X826724Y281739D01*
X826890Y281774D01*
X827056Y281812D01*
X827221Y281854D01*
X827384Y281900D01*
X827546Y281950D01*
X827708Y282004D01*
X827867Y282061D01*
X828026Y282123D01*
X828183Y282188D01*
X828338Y282257D01*
X828492Y282330D01*
X828568Y282358D01*
X828643Y282390D01*
X828717Y282425D01*
X828789Y282463D01*
X828859Y282505D01*
X828927Y282550D01*
X828993Y282598D01*
X829057Y282649D01*
X829118Y282703D01*
X829177Y282759D01*
X829233Y282819D01*
X829286Y282880D01*
X829336Y282944D01*
X829384Y283011D01*
X829428Y283079D01*
X829469Y283150D01*
X829507Y283222D01*
X829541Y283296D01*
X829572Y283371D01*
X829600Y283448D01*
X829624Y283526D01*
X829644Y283605D01*
X829661Y283685D01*
X829674Y283765D01*
X829684Y283846D01*
X829689Y283927D01*
X829691Y284009D01*
X828492Y285688D02*
X828338Y285761D01*
X828183Y285830D01*
X828026Y285895D01*
X827867Y285957D01*
X827708Y286014D01*
X827546Y286068D01*
X827384Y286118D01*
X827221Y286164D01*
X827056Y286206D01*
X826890Y286244D01*
X826724Y286279D01*
X826557Y286309D01*
X826389Y286335D01*
X826221Y286357D01*
X826052Y286376D01*
X825882Y286390D01*
X825713Y286400D01*
X825543Y286406D01*
X825373Y286408D01*
X828492Y285688D02*
X828568Y285660D01*
X828643Y285628D01*
X828717Y285593D01*
X828789Y285555D01*
X828859Y285513D01*
X828927Y285468D01*
X828993Y285420D01*
X829057Y285369D01*
X829118Y285315D01*
X829177Y285259D01*
X829233Y285199D01*
X829286Y285138D01*
X829336Y285074D01*
X829384Y285007D01*
X829428Y284939D01*
X829469Y284868D01*
X829507Y284796D01*
X829541Y284722D01*
X829572Y284647D01*
X829600Y284570D01*
X829624Y284492D01*
X829644Y284413D01*
X829661Y284333D01*
X829674Y284253D01*
X829684Y284172D01*
X829689Y284091D01*
X829691Y284009D01*
X827772Y282090D02*
X822974Y285928D01*
D10*
X904240Y256540D02*
X904242Y256440D01*
X904248Y256341D01*
X904258Y256241D01*
X904271Y256143D01*
X904289Y256044D01*
X904310Y255947D01*
X904335Y255851D01*
X904364Y255755D01*
X904397Y255661D01*
X904433Y255568D01*
X904473Y255477D01*
X904517Y255387D01*
X904564Y255299D01*
X904614Y255213D01*
X904668Y255129D01*
X904725Y255047D01*
X904785Y254968D01*
X904849Y254890D01*
X904915Y254816D01*
X904984Y254744D01*
X905056Y254675D01*
X905130Y254609D01*
X905208Y254545D01*
X905287Y254485D01*
X905369Y254428D01*
X905453Y254374D01*
X905539Y254324D01*
X905627Y254277D01*
X905717Y254233D01*
X905808Y254193D01*
X905901Y254157D01*
X905995Y254124D01*
X906091Y254095D01*
X906187Y254070D01*
X906284Y254049D01*
X906383Y254031D01*
X906481Y254018D01*
X906581Y254008D01*
X906680Y254002D01*
X906780Y254000D01*
X922020Y254000D02*
X922120Y254002D01*
X922219Y254008D01*
X922319Y254018D01*
X922417Y254031D01*
X922516Y254049D01*
X922613Y254070D01*
X922709Y254095D01*
X922805Y254124D01*
X922899Y254157D01*
X922992Y254193D01*
X923083Y254233D01*
X923173Y254277D01*
X923261Y254324D01*
X923347Y254374D01*
X923431Y254428D01*
X923513Y254485D01*
X923592Y254545D01*
X923670Y254609D01*
X923744Y254675D01*
X923816Y254744D01*
X923885Y254816D01*
X923951Y254890D01*
X924015Y254968D01*
X924075Y255047D01*
X924132Y255129D01*
X924186Y255213D01*
X924236Y255299D01*
X924283Y255387D01*
X924327Y255477D01*
X924367Y255568D01*
X924403Y255661D01*
X924436Y255755D01*
X924465Y255851D01*
X924490Y255947D01*
X924511Y256044D01*
X924529Y256143D01*
X924542Y256241D01*
X924552Y256341D01*
X924558Y256440D01*
X924560Y256540D01*
X924560Y302260D02*
X924558Y302360D01*
X924552Y302459D01*
X924542Y302559D01*
X924529Y302657D01*
X924511Y302756D01*
X924490Y302853D01*
X924465Y302949D01*
X924436Y303045D01*
X924403Y303139D01*
X924367Y303232D01*
X924327Y303323D01*
X924283Y303413D01*
X924236Y303501D01*
X924186Y303587D01*
X924132Y303671D01*
X924075Y303753D01*
X924015Y303832D01*
X923951Y303910D01*
X923885Y303984D01*
X923816Y304056D01*
X923744Y304125D01*
X923670Y304191D01*
X923592Y304255D01*
X923513Y304315D01*
X923431Y304372D01*
X923347Y304426D01*
X923261Y304476D01*
X923173Y304523D01*
X923083Y304567D01*
X922992Y304607D01*
X922899Y304643D01*
X922805Y304676D01*
X922709Y304705D01*
X922613Y304730D01*
X922516Y304751D01*
X922417Y304769D01*
X922319Y304782D01*
X922219Y304792D01*
X922120Y304798D01*
X922020Y304800D01*
X906780Y304800D02*
X906680Y304798D01*
X906581Y304792D01*
X906481Y304782D01*
X906383Y304769D01*
X906284Y304751D01*
X906187Y304730D01*
X906091Y304705D01*
X905995Y304676D01*
X905901Y304643D01*
X905808Y304607D01*
X905717Y304567D01*
X905627Y304523D01*
X905539Y304476D01*
X905453Y304426D01*
X905369Y304372D01*
X905287Y304315D01*
X905208Y304255D01*
X905130Y304191D01*
X905056Y304125D01*
X904984Y304056D01*
X904915Y303984D01*
X904849Y303910D01*
X904785Y303832D01*
X904725Y303753D01*
X904668Y303671D01*
X904614Y303587D01*
X904564Y303501D01*
X904517Y303413D01*
X904473Y303323D01*
X904433Y303232D01*
X904397Y303139D01*
X904364Y303045D01*
X904335Y302949D01*
X904310Y302853D01*
X904289Y302756D01*
X904271Y302657D01*
X904258Y302559D01*
X904248Y302459D01*
X904242Y302360D01*
X904240Y302260D01*
X906780Y254000D02*
X922020Y254000D01*
X904240Y256540D02*
X904240Y260350D01*
X905510Y261620D01*
X924560Y260350D02*
X924560Y256540D01*
X924560Y260350D02*
X923290Y261620D01*
X905510Y297180D02*
X904240Y298450D01*
X905510Y297180D02*
X905510Y261620D01*
X923290Y297180D02*
X924560Y298450D01*
X923290Y297180D02*
X923290Y261620D01*
X904240Y298450D02*
X904240Y302260D01*
X924560Y302260D02*
X924560Y298450D01*
X922020Y304800D02*
X906780Y304800D01*
D12*
X914400Y306705D03*
X914400Y252095D03*
D11*
X900811Y254635D02*
X892175Y254635D01*
X892175Y257034D01*
X892177Y257131D01*
X892183Y257227D01*
X892192Y257323D01*
X892206Y257419D01*
X892223Y257514D01*
X892245Y257608D01*
X892270Y257701D01*
X892298Y257794D01*
X892331Y257885D01*
X892367Y257974D01*
X892407Y258062D01*
X892450Y258149D01*
X892496Y258234D01*
X892546Y258316D01*
X892600Y258397D01*
X892656Y258475D01*
X892716Y258551D01*
X892778Y258625D01*
X892844Y258696D01*
X892912Y258764D01*
X892983Y258830D01*
X893057Y258892D01*
X893133Y258952D01*
X893211Y259008D01*
X893292Y259062D01*
X893375Y259112D01*
X893459Y259158D01*
X893546Y259201D01*
X893634Y259241D01*
X893723Y259277D01*
X893814Y259310D01*
X893907Y259338D01*
X894000Y259363D01*
X894094Y259385D01*
X894189Y259402D01*
X894285Y259416D01*
X894381Y259425D01*
X894477Y259431D01*
X894574Y259433D01*
X894671Y259431D01*
X894767Y259425D01*
X894863Y259416D01*
X894959Y259402D01*
X895054Y259385D01*
X895148Y259363D01*
X895241Y259338D01*
X895334Y259310D01*
X895425Y259277D01*
X895514Y259241D01*
X895602Y259201D01*
X895689Y259158D01*
X895774Y259112D01*
X895856Y259062D01*
X895937Y259008D01*
X896015Y258952D01*
X896091Y258892D01*
X896165Y258830D01*
X896236Y258764D01*
X896304Y258696D01*
X896370Y258625D01*
X896432Y258551D01*
X896492Y258475D01*
X896548Y258397D01*
X896602Y258316D01*
X896652Y258234D01*
X896698Y258149D01*
X896741Y258062D01*
X896781Y257974D01*
X896817Y257885D01*
X896850Y257794D01*
X896878Y257701D01*
X896903Y257608D01*
X896925Y257514D01*
X896942Y257419D01*
X896956Y257323D01*
X896965Y257227D01*
X896971Y257131D01*
X896973Y257034D01*
X896973Y254635D01*
X896973Y257514D02*
X900811Y259433D01*
X892175Y266114D02*
X892177Y266206D01*
X892183Y266297D01*
X892192Y266388D01*
X892206Y266479D01*
X892223Y266569D01*
X892245Y266658D01*
X892270Y266746D01*
X892298Y266833D01*
X892331Y266919D01*
X892367Y267003D01*
X892406Y267086D01*
X892449Y267167D01*
X892496Y267246D01*
X892545Y267323D01*
X892598Y267398D01*
X892654Y267470D01*
X892713Y267540D01*
X892775Y267608D01*
X892840Y267673D01*
X892908Y267735D01*
X892978Y267794D01*
X893050Y267850D01*
X893125Y267903D01*
X893202Y267952D01*
X893281Y267999D01*
X893362Y268042D01*
X893445Y268081D01*
X893529Y268117D01*
X893615Y268150D01*
X893702Y268178D01*
X893790Y268203D01*
X893879Y268225D01*
X893969Y268242D01*
X894060Y268256D01*
X894151Y268265D01*
X894242Y268271D01*
X894334Y268273D01*
X892175Y266114D02*
X892177Y266011D01*
X892183Y265909D01*
X892192Y265807D01*
X892205Y265705D01*
X892222Y265604D01*
X892243Y265503D01*
X892267Y265404D01*
X892296Y265305D01*
X892327Y265208D01*
X892363Y265111D01*
X892401Y265016D01*
X892444Y264923D01*
X892490Y264831D01*
X892539Y264741D01*
X892591Y264653D01*
X892647Y264566D01*
X892706Y264482D01*
X892767Y264401D01*
X892832Y264321D01*
X892900Y264244D01*
X892971Y264169D01*
X893044Y264098D01*
X893120Y264029D01*
X893198Y263962D01*
X893279Y263899D01*
X893362Y263839D01*
X893447Y263782D01*
X893534Y263728D01*
X893624Y263677D01*
X893715Y263630D01*
X893807Y263586D01*
X893902Y263545D01*
X893997Y263508D01*
X894094Y263475D01*
X896013Y267553D02*
X895947Y267620D01*
X895878Y267684D01*
X895807Y267745D01*
X895733Y267803D01*
X895657Y267858D01*
X895579Y267910D01*
X895499Y267959D01*
X895417Y268005D01*
X895333Y268047D01*
X895247Y268086D01*
X895160Y268121D01*
X895072Y268152D01*
X894982Y268180D01*
X894892Y268205D01*
X894800Y268226D01*
X894708Y268243D01*
X894615Y268256D01*
X894522Y268265D01*
X894428Y268271D01*
X894334Y268273D01*
X896013Y267554D02*
X900811Y263476D01*
X900811Y268273D01*
X909955Y266178D02*
X911874Y263779D01*
X909955Y266178D02*
X918591Y266178D01*
X918591Y263779D02*
X918591Y268577D01*
X914273Y272694D02*
X914103Y272696D01*
X913933Y272702D01*
X913764Y272712D01*
X913594Y272726D01*
X913425Y272745D01*
X913257Y272767D01*
X913089Y272793D01*
X912922Y272823D01*
X912756Y272858D01*
X912590Y272896D01*
X912425Y272938D01*
X912262Y272984D01*
X912100Y273034D01*
X911938Y273088D01*
X911779Y273145D01*
X911620Y273207D01*
X911463Y273272D01*
X911308Y273341D01*
X911154Y273414D01*
X911078Y273442D01*
X911003Y273474D01*
X910929Y273509D01*
X910857Y273547D01*
X910787Y273589D01*
X910719Y273634D01*
X910653Y273682D01*
X910589Y273733D01*
X910528Y273787D01*
X910469Y273843D01*
X910413Y273903D01*
X910360Y273964D01*
X910310Y274028D01*
X910262Y274095D01*
X910218Y274163D01*
X910177Y274234D01*
X910139Y274306D01*
X910105Y274380D01*
X910074Y274455D01*
X910046Y274532D01*
X910022Y274610D01*
X910002Y274689D01*
X909985Y274769D01*
X909972Y274849D01*
X909962Y274930D01*
X909957Y275011D01*
X909955Y275093D01*
X909957Y275175D01*
X909962Y275256D01*
X909972Y275337D01*
X909985Y275417D01*
X910002Y275497D01*
X910022Y275576D01*
X910046Y275654D01*
X910074Y275731D01*
X910105Y275806D01*
X910139Y275880D01*
X910177Y275952D01*
X910218Y276023D01*
X910262Y276091D01*
X910310Y276158D01*
X910360Y276222D01*
X910413Y276283D01*
X910469Y276343D01*
X910528Y276399D01*
X910589Y276453D01*
X910653Y276504D01*
X910719Y276552D01*
X910787Y276597D01*
X910857Y276639D01*
X910929Y276677D01*
X911003Y276712D01*
X911078Y276744D01*
X911154Y276772D01*
X911308Y276845D01*
X911463Y276914D01*
X911620Y276979D01*
X911779Y277041D01*
X911938Y277098D01*
X912100Y277152D01*
X912262Y277202D01*
X912425Y277248D01*
X912590Y277290D01*
X912756Y277328D01*
X912922Y277363D01*
X913089Y277393D01*
X913257Y277419D01*
X913425Y277441D01*
X913594Y277460D01*
X913764Y277474D01*
X913933Y277484D01*
X914103Y277490D01*
X914273Y277492D01*
X914273Y272694D02*
X914443Y272696D01*
X914613Y272702D01*
X914782Y272712D01*
X914952Y272726D01*
X915121Y272745D01*
X915289Y272767D01*
X915457Y272793D01*
X915624Y272823D01*
X915790Y272858D01*
X915956Y272896D01*
X916121Y272938D01*
X916284Y272984D01*
X916446Y273034D01*
X916608Y273088D01*
X916767Y273145D01*
X916926Y273207D01*
X917083Y273272D01*
X917238Y273341D01*
X917392Y273414D01*
X917468Y273442D01*
X917543Y273474D01*
X917617Y273509D01*
X917689Y273547D01*
X917759Y273589D01*
X917827Y273634D01*
X917893Y273682D01*
X917957Y273733D01*
X918018Y273787D01*
X918077Y273843D01*
X918133Y273903D01*
X918186Y273964D01*
X918236Y274028D01*
X918284Y274095D01*
X918328Y274163D01*
X918369Y274234D01*
X918407Y274306D01*
X918441Y274380D01*
X918472Y274455D01*
X918500Y274532D01*
X918524Y274610D01*
X918544Y274689D01*
X918561Y274769D01*
X918574Y274849D01*
X918584Y274930D01*
X918589Y275011D01*
X918591Y275093D01*
X917392Y276772D02*
X917238Y276845D01*
X917083Y276914D01*
X916926Y276979D01*
X916767Y277041D01*
X916608Y277098D01*
X916446Y277152D01*
X916284Y277202D01*
X916121Y277248D01*
X915956Y277290D01*
X915790Y277328D01*
X915624Y277363D01*
X915457Y277393D01*
X915289Y277419D01*
X915121Y277441D01*
X914952Y277460D01*
X914782Y277474D01*
X914613Y277484D01*
X914443Y277490D01*
X914273Y277492D01*
X917392Y276772D02*
X917468Y276744D01*
X917543Y276712D01*
X917617Y276677D01*
X917689Y276639D01*
X917759Y276597D01*
X917827Y276552D01*
X917893Y276504D01*
X917957Y276453D01*
X918018Y276399D01*
X918077Y276343D01*
X918133Y276283D01*
X918186Y276222D01*
X918236Y276158D01*
X918284Y276091D01*
X918328Y276023D01*
X918369Y275952D01*
X918407Y275880D01*
X918441Y275806D01*
X918472Y275731D01*
X918500Y275654D01*
X918524Y275576D01*
X918544Y275497D01*
X918561Y275417D01*
X918574Y275337D01*
X918584Y275256D01*
X918589Y275175D01*
X918591Y275093D01*
X916672Y273174D02*
X911874Y277012D01*
X909955Y281930D02*
X918591Y281930D01*
X915712Y281930D02*
X912834Y285768D01*
X914513Y283609D02*
X918591Y285768D01*
D10*
X815340Y129540D02*
X815342Y129440D01*
X815348Y129341D01*
X815358Y129241D01*
X815371Y129143D01*
X815389Y129044D01*
X815410Y128947D01*
X815435Y128851D01*
X815464Y128755D01*
X815497Y128661D01*
X815533Y128568D01*
X815573Y128477D01*
X815617Y128387D01*
X815664Y128299D01*
X815714Y128213D01*
X815768Y128129D01*
X815825Y128047D01*
X815885Y127968D01*
X815949Y127890D01*
X816015Y127816D01*
X816084Y127744D01*
X816156Y127675D01*
X816230Y127609D01*
X816308Y127545D01*
X816387Y127485D01*
X816469Y127428D01*
X816553Y127374D01*
X816639Y127324D01*
X816727Y127277D01*
X816817Y127233D01*
X816908Y127193D01*
X817001Y127157D01*
X817095Y127124D01*
X817191Y127095D01*
X817287Y127070D01*
X817384Y127049D01*
X817483Y127031D01*
X817581Y127018D01*
X817681Y127008D01*
X817780Y127002D01*
X817880Y127000D01*
X833120Y127000D02*
X833220Y127002D01*
X833319Y127008D01*
X833419Y127018D01*
X833517Y127031D01*
X833616Y127049D01*
X833713Y127070D01*
X833809Y127095D01*
X833905Y127124D01*
X833999Y127157D01*
X834092Y127193D01*
X834183Y127233D01*
X834273Y127277D01*
X834361Y127324D01*
X834447Y127374D01*
X834531Y127428D01*
X834613Y127485D01*
X834692Y127545D01*
X834770Y127609D01*
X834844Y127675D01*
X834916Y127744D01*
X834985Y127816D01*
X835051Y127890D01*
X835115Y127968D01*
X835175Y128047D01*
X835232Y128129D01*
X835286Y128213D01*
X835336Y128299D01*
X835383Y128387D01*
X835427Y128477D01*
X835467Y128568D01*
X835503Y128661D01*
X835536Y128755D01*
X835565Y128851D01*
X835590Y128947D01*
X835611Y129044D01*
X835629Y129143D01*
X835642Y129241D01*
X835652Y129341D01*
X835658Y129440D01*
X835660Y129540D01*
X835660Y175260D02*
X835658Y175360D01*
X835652Y175459D01*
X835642Y175559D01*
X835629Y175657D01*
X835611Y175756D01*
X835590Y175853D01*
X835565Y175949D01*
X835536Y176045D01*
X835503Y176139D01*
X835467Y176232D01*
X835427Y176323D01*
X835383Y176413D01*
X835336Y176501D01*
X835286Y176587D01*
X835232Y176671D01*
X835175Y176753D01*
X835115Y176832D01*
X835051Y176910D01*
X834985Y176984D01*
X834916Y177056D01*
X834844Y177125D01*
X834770Y177191D01*
X834692Y177255D01*
X834613Y177315D01*
X834531Y177372D01*
X834447Y177426D01*
X834361Y177476D01*
X834273Y177523D01*
X834183Y177567D01*
X834092Y177607D01*
X833999Y177643D01*
X833905Y177676D01*
X833809Y177705D01*
X833713Y177730D01*
X833616Y177751D01*
X833517Y177769D01*
X833419Y177782D01*
X833319Y177792D01*
X833220Y177798D01*
X833120Y177800D01*
X817880Y177800D02*
X817780Y177798D01*
X817681Y177792D01*
X817581Y177782D01*
X817483Y177769D01*
X817384Y177751D01*
X817287Y177730D01*
X817191Y177705D01*
X817095Y177676D01*
X817001Y177643D01*
X816908Y177607D01*
X816817Y177567D01*
X816727Y177523D01*
X816639Y177476D01*
X816553Y177426D01*
X816469Y177372D01*
X816387Y177315D01*
X816308Y177255D01*
X816230Y177191D01*
X816156Y177125D01*
X816084Y177056D01*
X816015Y176984D01*
X815949Y176910D01*
X815885Y176832D01*
X815825Y176753D01*
X815768Y176671D01*
X815714Y176587D01*
X815664Y176501D01*
X815617Y176413D01*
X815573Y176323D01*
X815533Y176232D01*
X815497Y176139D01*
X815464Y176045D01*
X815435Y175949D01*
X815410Y175853D01*
X815389Y175756D01*
X815371Y175657D01*
X815358Y175559D01*
X815348Y175459D01*
X815342Y175360D01*
X815340Y175260D01*
X817880Y127000D02*
X833120Y127000D01*
X815340Y129540D02*
X815340Y133350D01*
X816610Y134620D01*
X835660Y133350D02*
X835660Y129540D01*
X835660Y133350D02*
X834390Y134620D01*
X816610Y170180D02*
X815340Y171450D01*
X816610Y170180D02*
X816610Y134620D01*
X834390Y170180D02*
X835660Y171450D01*
X834390Y170180D02*
X834390Y134620D01*
X815340Y171450D02*
X815340Y175260D01*
X835660Y175260D02*
X835660Y171450D01*
X833120Y177800D02*
X817880Y177800D01*
D12*
X825500Y179705D03*
X825500Y125095D03*
D11*
X811911Y127635D02*
X803275Y127635D01*
X803275Y130034D01*
X803277Y130131D01*
X803283Y130227D01*
X803292Y130323D01*
X803306Y130419D01*
X803323Y130514D01*
X803345Y130608D01*
X803370Y130701D01*
X803398Y130794D01*
X803431Y130885D01*
X803467Y130974D01*
X803507Y131062D01*
X803550Y131149D01*
X803596Y131234D01*
X803646Y131316D01*
X803700Y131397D01*
X803756Y131475D01*
X803816Y131551D01*
X803878Y131625D01*
X803944Y131696D01*
X804012Y131764D01*
X804083Y131830D01*
X804157Y131892D01*
X804233Y131952D01*
X804311Y132008D01*
X804392Y132062D01*
X804475Y132112D01*
X804559Y132158D01*
X804646Y132201D01*
X804734Y132241D01*
X804823Y132277D01*
X804914Y132310D01*
X805007Y132338D01*
X805100Y132363D01*
X805194Y132385D01*
X805289Y132402D01*
X805385Y132416D01*
X805481Y132425D01*
X805577Y132431D01*
X805674Y132433D01*
X805771Y132431D01*
X805867Y132425D01*
X805963Y132416D01*
X806059Y132402D01*
X806154Y132385D01*
X806248Y132363D01*
X806341Y132338D01*
X806434Y132310D01*
X806525Y132277D01*
X806614Y132241D01*
X806702Y132201D01*
X806789Y132158D01*
X806874Y132112D01*
X806956Y132062D01*
X807037Y132008D01*
X807115Y131952D01*
X807191Y131892D01*
X807265Y131830D01*
X807336Y131764D01*
X807404Y131696D01*
X807470Y131625D01*
X807532Y131551D01*
X807592Y131475D01*
X807648Y131397D01*
X807702Y131316D01*
X807752Y131234D01*
X807798Y131149D01*
X807841Y131062D01*
X807881Y130974D01*
X807917Y130885D01*
X807950Y130794D01*
X807978Y130701D01*
X808003Y130608D01*
X808025Y130514D01*
X808042Y130419D01*
X808056Y130323D01*
X808065Y130227D01*
X808071Y130131D01*
X808073Y130034D01*
X808073Y127635D01*
X808073Y130514D02*
X811911Y132433D01*
X811911Y136476D02*
X811911Y138875D01*
X811909Y138972D01*
X811903Y139068D01*
X811894Y139164D01*
X811880Y139260D01*
X811863Y139355D01*
X811841Y139449D01*
X811816Y139542D01*
X811788Y139635D01*
X811755Y139726D01*
X811719Y139815D01*
X811679Y139903D01*
X811636Y139990D01*
X811590Y140075D01*
X811540Y140157D01*
X811486Y140238D01*
X811430Y140316D01*
X811370Y140392D01*
X811308Y140466D01*
X811242Y140537D01*
X811174Y140605D01*
X811103Y140671D01*
X811029Y140733D01*
X810953Y140793D01*
X810875Y140849D01*
X810794Y140903D01*
X810712Y140953D01*
X810627Y140999D01*
X810540Y141042D01*
X810452Y141082D01*
X810363Y141118D01*
X810272Y141151D01*
X810179Y141179D01*
X810086Y141204D01*
X809992Y141226D01*
X809897Y141243D01*
X809801Y141257D01*
X809705Y141266D01*
X809609Y141272D01*
X809512Y141274D01*
X809415Y141272D01*
X809319Y141266D01*
X809223Y141257D01*
X809127Y141243D01*
X809032Y141226D01*
X808938Y141204D01*
X808845Y141179D01*
X808752Y141151D01*
X808661Y141118D01*
X808572Y141082D01*
X808484Y141042D01*
X808397Y140999D01*
X808313Y140953D01*
X808230Y140903D01*
X808149Y140849D01*
X808071Y140793D01*
X807995Y140733D01*
X807921Y140671D01*
X807850Y140605D01*
X807782Y140537D01*
X807716Y140466D01*
X807654Y140392D01*
X807594Y140316D01*
X807538Y140238D01*
X807484Y140157D01*
X807434Y140075D01*
X807388Y139990D01*
X807345Y139903D01*
X807305Y139815D01*
X807269Y139726D01*
X807236Y139635D01*
X807208Y139542D01*
X807183Y139449D01*
X807161Y139355D01*
X807144Y139260D01*
X807130Y139164D01*
X807121Y139068D01*
X807115Y138972D01*
X807113Y138875D01*
X803275Y139354D02*
X803275Y136476D01*
X803275Y139354D02*
X803277Y139440D01*
X803283Y139526D01*
X803292Y139612D01*
X803306Y139697D01*
X803323Y139781D01*
X803344Y139865D01*
X803369Y139947D01*
X803397Y140028D01*
X803429Y140108D01*
X803465Y140187D01*
X803504Y140263D01*
X803547Y140338D01*
X803592Y140411D01*
X803641Y140482D01*
X803694Y140550D01*
X803749Y140617D01*
X803807Y140680D01*
X803868Y140741D01*
X803931Y140799D01*
X803998Y140854D01*
X804066Y140907D01*
X804137Y140956D01*
X804210Y141001D01*
X804285Y141044D01*
X804361Y141083D01*
X804440Y141119D01*
X804520Y141151D01*
X804601Y141179D01*
X804683Y141204D01*
X804767Y141225D01*
X804851Y141242D01*
X804936Y141256D01*
X805022Y141265D01*
X805108Y141271D01*
X805194Y141273D01*
X805280Y141271D01*
X805366Y141265D01*
X805452Y141256D01*
X805537Y141242D01*
X805621Y141225D01*
X805705Y141204D01*
X805787Y141179D01*
X805868Y141151D01*
X805948Y141119D01*
X806027Y141083D01*
X806103Y141044D01*
X806178Y141001D01*
X806251Y140956D01*
X806322Y140907D01*
X806390Y140854D01*
X806457Y140799D01*
X806520Y140741D01*
X806581Y140680D01*
X806639Y140617D01*
X806694Y140550D01*
X806747Y140482D01*
X806796Y140411D01*
X806841Y140338D01*
X806884Y140263D01*
X806923Y140187D01*
X806959Y140108D01*
X806991Y140028D01*
X807019Y139947D01*
X807044Y139865D01*
X807065Y139781D01*
X807082Y139697D01*
X807096Y139612D01*
X807105Y139526D01*
X807111Y139440D01*
X807113Y139354D01*
X807113Y137435D01*
X821055Y139178D02*
X822974Y136779D01*
X821055Y139178D02*
X829691Y139178D01*
X829691Y136779D02*
X829691Y141577D01*
X825373Y145694D02*
X825203Y145696D01*
X825033Y145702D01*
X824864Y145712D01*
X824694Y145726D01*
X824525Y145745D01*
X824357Y145767D01*
X824189Y145793D01*
X824022Y145823D01*
X823856Y145858D01*
X823690Y145896D01*
X823525Y145938D01*
X823362Y145984D01*
X823200Y146034D01*
X823038Y146088D01*
X822879Y146145D01*
X822720Y146207D01*
X822563Y146272D01*
X822408Y146341D01*
X822254Y146414D01*
X822178Y146442D01*
X822103Y146474D01*
X822029Y146509D01*
X821957Y146547D01*
X821887Y146589D01*
X821819Y146634D01*
X821753Y146682D01*
X821689Y146733D01*
X821628Y146787D01*
X821569Y146843D01*
X821513Y146903D01*
X821460Y146964D01*
X821410Y147028D01*
X821362Y147095D01*
X821318Y147163D01*
X821277Y147234D01*
X821239Y147306D01*
X821205Y147380D01*
X821174Y147455D01*
X821146Y147532D01*
X821122Y147610D01*
X821102Y147689D01*
X821085Y147769D01*
X821072Y147849D01*
X821062Y147930D01*
X821057Y148011D01*
X821055Y148093D01*
X821057Y148175D01*
X821062Y148256D01*
X821072Y148337D01*
X821085Y148417D01*
X821102Y148497D01*
X821122Y148576D01*
X821146Y148654D01*
X821174Y148731D01*
X821205Y148806D01*
X821239Y148880D01*
X821277Y148952D01*
X821318Y149023D01*
X821362Y149091D01*
X821410Y149158D01*
X821460Y149222D01*
X821513Y149283D01*
X821569Y149343D01*
X821628Y149399D01*
X821689Y149453D01*
X821753Y149504D01*
X821819Y149552D01*
X821887Y149597D01*
X821957Y149639D01*
X822029Y149677D01*
X822103Y149712D01*
X822178Y149744D01*
X822254Y149772D01*
X822408Y149845D01*
X822563Y149914D01*
X822720Y149979D01*
X822879Y150041D01*
X823038Y150098D01*
X823200Y150152D01*
X823362Y150202D01*
X823525Y150248D01*
X823690Y150290D01*
X823856Y150328D01*
X824022Y150363D01*
X824189Y150393D01*
X824357Y150419D01*
X824525Y150441D01*
X824694Y150460D01*
X824864Y150474D01*
X825033Y150484D01*
X825203Y150490D01*
X825373Y150492D01*
X825373Y145694D02*
X825543Y145696D01*
X825713Y145702D01*
X825882Y145712D01*
X826052Y145726D01*
X826221Y145745D01*
X826389Y145767D01*
X826557Y145793D01*
X826724Y145823D01*
X826890Y145858D01*
X827056Y145896D01*
X827221Y145938D01*
X827384Y145984D01*
X827546Y146034D01*
X827708Y146088D01*
X827867Y146145D01*
X828026Y146207D01*
X828183Y146272D01*
X828338Y146341D01*
X828492Y146414D01*
X828568Y146442D01*
X828643Y146474D01*
X828717Y146509D01*
X828789Y146547D01*
X828859Y146589D01*
X828927Y146634D01*
X828993Y146682D01*
X829057Y146733D01*
X829118Y146787D01*
X829177Y146843D01*
X829233Y146903D01*
X829286Y146964D01*
X829336Y147028D01*
X829384Y147095D01*
X829428Y147163D01*
X829469Y147234D01*
X829507Y147306D01*
X829541Y147380D01*
X829572Y147455D01*
X829600Y147532D01*
X829624Y147610D01*
X829644Y147689D01*
X829661Y147769D01*
X829674Y147849D01*
X829684Y147930D01*
X829689Y148011D01*
X829691Y148093D01*
X828492Y149772D02*
X828338Y149845D01*
X828183Y149914D01*
X828026Y149979D01*
X827867Y150041D01*
X827708Y150098D01*
X827546Y150152D01*
X827384Y150202D01*
X827221Y150248D01*
X827056Y150290D01*
X826890Y150328D01*
X826724Y150363D01*
X826557Y150393D01*
X826389Y150419D01*
X826221Y150441D01*
X826052Y150460D01*
X825882Y150474D01*
X825713Y150484D01*
X825543Y150490D01*
X825373Y150492D01*
X828492Y149772D02*
X828568Y149744D01*
X828643Y149712D01*
X828717Y149677D01*
X828789Y149639D01*
X828859Y149597D01*
X828927Y149552D01*
X828993Y149504D01*
X829057Y149453D01*
X829118Y149399D01*
X829177Y149343D01*
X829233Y149283D01*
X829286Y149222D01*
X829336Y149158D01*
X829384Y149091D01*
X829428Y149023D01*
X829469Y148952D01*
X829507Y148880D01*
X829541Y148806D01*
X829572Y148731D01*
X829600Y148654D01*
X829624Y148576D01*
X829644Y148497D01*
X829661Y148417D01*
X829674Y148337D01*
X829684Y148256D01*
X829689Y148175D01*
X829691Y148093D01*
X827772Y146174D02*
X822974Y150012D01*
X821055Y154930D02*
X829691Y154930D01*
X826812Y154930D02*
X823934Y158768D01*
X825613Y156609D02*
X829691Y158768D01*
D10*
X904240Y129540D02*
X904242Y129440D01*
X904248Y129341D01*
X904258Y129241D01*
X904271Y129143D01*
X904289Y129044D01*
X904310Y128947D01*
X904335Y128851D01*
X904364Y128755D01*
X904397Y128661D01*
X904433Y128568D01*
X904473Y128477D01*
X904517Y128387D01*
X904564Y128299D01*
X904614Y128213D01*
X904668Y128129D01*
X904725Y128047D01*
X904785Y127968D01*
X904849Y127890D01*
X904915Y127816D01*
X904984Y127744D01*
X905056Y127675D01*
X905130Y127609D01*
X905208Y127545D01*
X905287Y127485D01*
X905369Y127428D01*
X905453Y127374D01*
X905539Y127324D01*
X905627Y127277D01*
X905717Y127233D01*
X905808Y127193D01*
X905901Y127157D01*
X905995Y127124D01*
X906091Y127095D01*
X906187Y127070D01*
X906284Y127049D01*
X906383Y127031D01*
X906481Y127018D01*
X906581Y127008D01*
X906680Y127002D01*
X906780Y127000D01*
X922020Y127000D02*
X922120Y127002D01*
X922219Y127008D01*
X922319Y127018D01*
X922417Y127031D01*
X922516Y127049D01*
X922613Y127070D01*
X922709Y127095D01*
X922805Y127124D01*
X922899Y127157D01*
X922992Y127193D01*
X923083Y127233D01*
X923173Y127277D01*
X923261Y127324D01*
X923347Y127374D01*
X923431Y127428D01*
X923513Y127485D01*
X923592Y127545D01*
X923670Y127609D01*
X923744Y127675D01*
X923816Y127744D01*
X923885Y127816D01*
X923951Y127890D01*
X924015Y127968D01*
X924075Y128047D01*
X924132Y128129D01*
X924186Y128213D01*
X924236Y128299D01*
X924283Y128387D01*
X924327Y128477D01*
X924367Y128568D01*
X924403Y128661D01*
X924436Y128755D01*
X924465Y128851D01*
X924490Y128947D01*
X924511Y129044D01*
X924529Y129143D01*
X924542Y129241D01*
X924552Y129341D01*
X924558Y129440D01*
X924560Y129540D01*
X924560Y175260D02*
X924558Y175360D01*
X924552Y175459D01*
X924542Y175559D01*
X924529Y175657D01*
X924511Y175756D01*
X924490Y175853D01*
X924465Y175949D01*
X924436Y176045D01*
X924403Y176139D01*
X924367Y176232D01*
X924327Y176323D01*
X924283Y176413D01*
X924236Y176501D01*
X924186Y176587D01*
X924132Y176671D01*
X924075Y176753D01*
X924015Y176832D01*
X923951Y176910D01*
X923885Y176984D01*
X923816Y177056D01*
X923744Y177125D01*
X923670Y177191D01*
X923592Y177255D01*
X923513Y177315D01*
X923431Y177372D01*
X923347Y177426D01*
X923261Y177476D01*
X923173Y177523D01*
X923083Y177567D01*
X922992Y177607D01*
X922899Y177643D01*
X922805Y177676D01*
X922709Y177705D01*
X922613Y177730D01*
X922516Y177751D01*
X922417Y177769D01*
X922319Y177782D01*
X922219Y177792D01*
X922120Y177798D01*
X922020Y177800D01*
X906780Y177800D02*
X906680Y177798D01*
X906581Y177792D01*
X906481Y177782D01*
X906383Y177769D01*
X906284Y177751D01*
X906187Y177730D01*
X906091Y177705D01*
X905995Y177676D01*
X905901Y177643D01*
X905808Y177607D01*
X905717Y177567D01*
X905627Y177523D01*
X905539Y177476D01*
X905453Y177426D01*
X905369Y177372D01*
X905287Y177315D01*
X905208Y177255D01*
X905130Y177191D01*
X905056Y177125D01*
X904984Y177056D01*
X904915Y176984D01*
X904849Y176910D01*
X904785Y176832D01*
X904725Y176753D01*
X904668Y176671D01*
X904614Y176587D01*
X904564Y176501D01*
X904517Y176413D01*
X904473Y176323D01*
X904433Y176232D01*
X904397Y176139D01*
X904364Y176045D01*
X904335Y175949D01*
X904310Y175853D01*
X904289Y175756D01*
X904271Y175657D01*
X904258Y175559D01*
X904248Y175459D01*
X904242Y175360D01*
X904240Y175260D01*
X906780Y127000D02*
X922020Y127000D01*
X904240Y129540D02*
X904240Y133350D01*
X905510Y134620D01*
X924560Y133350D02*
X924560Y129540D01*
X924560Y133350D02*
X923290Y134620D01*
X905510Y170180D02*
X904240Y171450D01*
X905510Y170180D02*
X905510Y134620D01*
X923290Y170180D02*
X924560Y171450D01*
X923290Y170180D02*
X923290Y134620D01*
X904240Y171450D02*
X904240Y175260D01*
X924560Y175260D02*
X924560Y171450D01*
X922020Y177800D02*
X906780Y177800D01*
D12*
X914400Y179705D03*
X914400Y125095D03*
D11*
X900811Y127635D02*
X892175Y127635D01*
X892175Y130034D01*
X892177Y130131D01*
X892183Y130227D01*
X892192Y130323D01*
X892206Y130419D01*
X892223Y130514D01*
X892245Y130608D01*
X892270Y130701D01*
X892298Y130794D01*
X892331Y130885D01*
X892367Y130974D01*
X892407Y131062D01*
X892450Y131149D01*
X892496Y131234D01*
X892546Y131316D01*
X892600Y131397D01*
X892656Y131475D01*
X892716Y131551D01*
X892778Y131625D01*
X892844Y131696D01*
X892912Y131764D01*
X892983Y131830D01*
X893057Y131892D01*
X893133Y131952D01*
X893211Y132008D01*
X893292Y132062D01*
X893375Y132112D01*
X893459Y132158D01*
X893546Y132201D01*
X893634Y132241D01*
X893723Y132277D01*
X893814Y132310D01*
X893907Y132338D01*
X894000Y132363D01*
X894094Y132385D01*
X894189Y132402D01*
X894285Y132416D01*
X894381Y132425D01*
X894477Y132431D01*
X894574Y132433D01*
X894671Y132431D01*
X894767Y132425D01*
X894863Y132416D01*
X894959Y132402D01*
X895054Y132385D01*
X895148Y132363D01*
X895241Y132338D01*
X895334Y132310D01*
X895425Y132277D01*
X895514Y132241D01*
X895602Y132201D01*
X895689Y132158D01*
X895774Y132112D01*
X895856Y132062D01*
X895937Y132008D01*
X896015Y131952D01*
X896091Y131892D01*
X896165Y131830D01*
X896236Y131764D01*
X896304Y131696D01*
X896370Y131625D01*
X896432Y131551D01*
X896492Y131475D01*
X896548Y131397D01*
X896602Y131316D01*
X896652Y131234D01*
X896698Y131149D01*
X896741Y131062D01*
X896781Y130974D01*
X896817Y130885D01*
X896850Y130794D01*
X896878Y130701D01*
X896903Y130608D01*
X896925Y130514D01*
X896942Y130419D01*
X896956Y130323D01*
X896965Y130227D01*
X896971Y130131D01*
X896973Y130034D01*
X896973Y127635D01*
X896973Y130514D02*
X900811Y132433D01*
X898892Y136476D02*
X892175Y138395D01*
X898892Y136476D02*
X898892Y141273D01*
X896973Y139834D02*
X900811Y139834D01*
X909955Y139178D02*
X911874Y136779D01*
X909955Y139178D02*
X918591Y139178D01*
X918591Y136779D02*
X918591Y141577D01*
X914273Y145694D02*
X914103Y145696D01*
X913933Y145702D01*
X913764Y145712D01*
X913594Y145726D01*
X913425Y145745D01*
X913257Y145767D01*
X913089Y145793D01*
X912922Y145823D01*
X912756Y145858D01*
X912590Y145896D01*
X912425Y145938D01*
X912262Y145984D01*
X912100Y146034D01*
X911938Y146088D01*
X911779Y146145D01*
X911620Y146207D01*
X911463Y146272D01*
X911308Y146341D01*
X911154Y146414D01*
X911078Y146442D01*
X911003Y146474D01*
X910929Y146509D01*
X910857Y146547D01*
X910787Y146589D01*
X910719Y146634D01*
X910653Y146682D01*
X910589Y146733D01*
X910528Y146787D01*
X910469Y146843D01*
X910413Y146903D01*
X910360Y146964D01*
X910310Y147028D01*
X910262Y147095D01*
X910218Y147163D01*
X910177Y147234D01*
X910139Y147306D01*
X910105Y147380D01*
X910074Y147455D01*
X910046Y147532D01*
X910022Y147610D01*
X910002Y147689D01*
X909985Y147769D01*
X909972Y147849D01*
X909962Y147930D01*
X909957Y148011D01*
X909955Y148093D01*
X909957Y148175D01*
X909962Y148256D01*
X909972Y148337D01*
X909985Y148417D01*
X910002Y148497D01*
X910022Y148576D01*
X910046Y148654D01*
X910074Y148731D01*
X910105Y148806D01*
X910139Y148880D01*
X910177Y148952D01*
X910218Y149023D01*
X910262Y149091D01*
X910310Y149158D01*
X910360Y149222D01*
X910413Y149283D01*
X910469Y149343D01*
X910528Y149399D01*
X910589Y149453D01*
X910653Y149504D01*
X910719Y149552D01*
X910787Y149597D01*
X910857Y149639D01*
X910929Y149677D01*
X911003Y149712D01*
X911078Y149744D01*
X911154Y149772D01*
X911308Y149845D01*
X911463Y149914D01*
X911620Y149979D01*
X911779Y150041D01*
X911938Y150098D01*
X912100Y150152D01*
X912262Y150202D01*
X912425Y150248D01*
X912590Y150290D01*
X912756Y150328D01*
X912922Y150363D01*
X913089Y150393D01*
X913257Y150419D01*
X913425Y150441D01*
X913594Y150460D01*
X913764Y150474D01*
X913933Y150484D01*
X914103Y150490D01*
X914273Y150492D01*
X914273Y145694D02*
X914443Y145696D01*
X914613Y145702D01*
X914782Y145712D01*
X914952Y145726D01*
X915121Y145745D01*
X915289Y145767D01*
X915457Y145793D01*
X915624Y145823D01*
X915790Y145858D01*
X915956Y145896D01*
X916121Y145938D01*
X916284Y145984D01*
X916446Y146034D01*
X916608Y146088D01*
X916767Y146145D01*
X916926Y146207D01*
X917083Y146272D01*
X917238Y146341D01*
X917392Y146414D01*
X917468Y146442D01*
X917543Y146474D01*
X917617Y146509D01*
X917689Y146547D01*
X917759Y146589D01*
X917827Y146634D01*
X917893Y146682D01*
X917957Y146733D01*
X918018Y146787D01*
X918077Y146843D01*
X918133Y146903D01*
X918186Y146964D01*
X918236Y147028D01*
X918284Y147095D01*
X918328Y147163D01*
X918369Y147234D01*
X918407Y147306D01*
X918441Y147380D01*
X918472Y147455D01*
X918500Y147532D01*
X918524Y147610D01*
X918544Y147689D01*
X918561Y147769D01*
X918574Y147849D01*
X918584Y147930D01*
X918589Y148011D01*
X918591Y148093D01*
X917392Y149772D02*
X917238Y149845D01*
X917083Y149914D01*
X916926Y149979D01*
X916767Y150041D01*
X916608Y150098D01*
X916446Y150152D01*
X916284Y150202D01*
X916121Y150248D01*
X915956Y150290D01*
X915790Y150328D01*
X915624Y150363D01*
X915457Y150393D01*
X915289Y150419D01*
X915121Y150441D01*
X914952Y150460D01*
X914782Y150474D01*
X914613Y150484D01*
X914443Y150490D01*
X914273Y150492D01*
X917392Y149772D02*
X917468Y149744D01*
X917543Y149712D01*
X917617Y149677D01*
X917689Y149639D01*
X917759Y149597D01*
X917827Y149552D01*
X917893Y149504D01*
X917957Y149453D01*
X918018Y149399D01*
X918077Y149343D01*
X918133Y149283D01*
X918186Y149222D01*
X918236Y149158D01*
X918284Y149091D01*
X918328Y149023D01*
X918369Y148952D01*
X918407Y148880D01*
X918441Y148806D01*
X918472Y148731D01*
X918500Y148654D01*
X918524Y148576D01*
X918544Y148497D01*
X918561Y148417D01*
X918574Y148337D01*
X918584Y148256D01*
X918589Y148175D01*
X918591Y148093D01*
X916672Y146174D02*
X911874Y150012D01*
X914273Y154610D02*
X914103Y154612D01*
X913933Y154618D01*
X913764Y154628D01*
X913594Y154642D01*
X913425Y154661D01*
X913257Y154683D01*
X913089Y154709D01*
X912922Y154739D01*
X912756Y154774D01*
X912590Y154812D01*
X912425Y154854D01*
X912262Y154900D01*
X912100Y154950D01*
X911938Y155004D01*
X911779Y155061D01*
X911620Y155123D01*
X911463Y155188D01*
X911308Y155257D01*
X911154Y155330D01*
X911078Y155358D01*
X911003Y155390D01*
X910929Y155425D01*
X910857Y155463D01*
X910787Y155505D01*
X910719Y155550D01*
X910653Y155598D01*
X910589Y155649D01*
X910528Y155703D01*
X910469Y155759D01*
X910413Y155819D01*
X910360Y155880D01*
X910310Y155944D01*
X910262Y156011D01*
X910218Y156079D01*
X910177Y156150D01*
X910139Y156222D01*
X910105Y156296D01*
X910074Y156371D01*
X910046Y156448D01*
X910022Y156526D01*
X910002Y156605D01*
X909985Y156685D01*
X909972Y156765D01*
X909962Y156846D01*
X909957Y156927D01*
X909955Y157009D01*
X909957Y157091D01*
X909962Y157172D01*
X909972Y157253D01*
X909985Y157333D01*
X910002Y157413D01*
X910022Y157492D01*
X910046Y157570D01*
X910074Y157647D01*
X910105Y157722D01*
X910139Y157796D01*
X910177Y157868D01*
X910218Y157939D01*
X910262Y158007D01*
X910310Y158074D01*
X910360Y158138D01*
X910413Y158199D01*
X910469Y158259D01*
X910528Y158315D01*
X910589Y158369D01*
X910653Y158420D01*
X910719Y158468D01*
X910787Y158513D01*
X910857Y158555D01*
X910929Y158593D01*
X911003Y158628D01*
X911078Y158660D01*
X911154Y158688D01*
X911308Y158761D01*
X911463Y158830D01*
X911620Y158895D01*
X911779Y158957D01*
X911938Y159014D01*
X912100Y159068D01*
X912262Y159118D01*
X912425Y159164D01*
X912590Y159206D01*
X912756Y159244D01*
X912922Y159279D01*
X913089Y159309D01*
X913257Y159335D01*
X913425Y159357D01*
X913594Y159376D01*
X913764Y159390D01*
X913933Y159400D01*
X914103Y159406D01*
X914273Y159408D01*
X914273Y154610D02*
X914443Y154612D01*
X914613Y154618D01*
X914782Y154628D01*
X914952Y154642D01*
X915121Y154661D01*
X915289Y154683D01*
X915457Y154709D01*
X915624Y154739D01*
X915790Y154774D01*
X915956Y154812D01*
X916121Y154854D01*
X916284Y154900D01*
X916446Y154950D01*
X916608Y155004D01*
X916767Y155061D01*
X916926Y155123D01*
X917083Y155188D01*
X917238Y155257D01*
X917392Y155330D01*
X917468Y155358D01*
X917543Y155390D01*
X917617Y155425D01*
X917689Y155463D01*
X917759Y155505D01*
X917827Y155550D01*
X917893Y155598D01*
X917957Y155649D01*
X918018Y155703D01*
X918077Y155759D01*
X918133Y155819D01*
X918186Y155880D01*
X918236Y155944D01*
X918284Y156011D01*
X918328Y156079D01*
X918369Y156150D01*
X918407Y156222D01*
X918441Y156296D01*
X918472Y156371D01*
X918500Y156448D01*
X918524Y156526D01*
X918544Y156605D01*
X918561Y156685D01*
X918574Y156765D01*
X918584Y156846D01*
X918589Y156927D01*
X918591Y157009D01*
X917392Y158688D02*
X917238Y158761D01*
X917083Y158830D01*
X916926Y158895D01*
X916767Y158957D01*
X916608Y159014D01*
X916446Y159068D01*
X916284Y159118D01*
X916121Y159164D01*
X915956Y159206D01*
X915790Y159244D01*
X915624Y159279D01*
X915457Y159309D01*
X915289Y159335D01*
X915121Y159357D01*
X914952Y159376D01*
X914782Y159390D01*
X914613Y159400D01*
X914443Y159406D01*
X914273Y159408D01*
X917392Y158688D02*
X917468Y158660D01*
X917543Y158628D01*
X917617Y158593D01*
X917689Y158555D01*
X917759Y158513D01*
X917827Y158468D01*
X917893Y158420D01*
X917957Y158369D01*
X918018Y158315D01*
X918077Y158259D01*
X918133Y158199D01*
X918186Y158138D01*
X918236Y158074D01*
X918284Y158007D01*
X918328Y157939D01*
X918369Y157868D01*
X918407Y157796D01*
X918441Y157722D01*
X918472Y157647D01*
X918500Y157570D01*
X918524Y157492D01*
X918544Y157413D01*
X918561Y157333D01*
X918574Y157253D01*
X918584Y157172D01*
X918589Y157091D01*
X918591Y157009D01*
X916672Y155090D02*
X911874Y158928D01*
D10*
X840740Y60960D02*
X840640Y60958D01*
X840541Y60952D01*
X840441Y60942D01*
X840343Y60929D01*
X840244Y60911D01*
X840147Y60890D01*
X840051Y60865D01*
X839955Y60836D01*
X839861Y60803D01*
X839768Y60767D01*
X839677Y60727D01*
X839587Y60683D01*
X839499Y60636D01*
X839413Y60586D01*
X839329Y60532D01*
X839247Y60475D01*
X839168Y60415D01*
X839090Y60351D01*
X839016Y60285D01*
X838944Y60216D01*
X838875Y60144D01*
X838809Y60070D01*
X838745Y59992D01*
X838685Y59913D01*
X838628Y59831D01*
X838574Y59747D01*
X838524Y59661D01*
X838477Y59573D01*
X838433Y59483D01*
X838393Y59392D01*
X838357Y59299D01*
X838324Y59205D01*
X838295Y59109D01*
X838270Y59013D01*
X838249Y58916D01*
X838231Y58817D01*
X838218Y58719D01*
X838208Y58619D01*
X838202Y58520D01*
X838200Y58420D01*
X838200Y43180D02*
X838202Y43080D01*
X838208Y42981D01*
X838218Y42881D01*
X838231Y42783D01*
X838249Y42684D01*
X838270Y42587D01*
X838295Y42491D01*
X838324Y42395D01*
X838357Y42301D01*
X838393Y42208D01*
X838433Y42117D01*
X838477Y42027D01*
X838524Y41939D01*
X838574Y41853D01*
X838628Y41769D01*
X838685Y41687D01*
X838745Y41608D01*
X838809Y41530D01*
X838875Y41456D01*
X838944Y41384D01*
X839016Y41315D01*
X839090Y41249D01*
X839168Y41185D01*
X839247Y41125D01*
X839329Y41068D01*
X839413Y41014D01*
X839499Y40964D01*
X839587Y40917D01*
X839677Y40873D01*
X839768Y40833D01*
X839861Y40797D01*
X839955Y40764D01*
X840051Y40735D01*
X840147Y40710D01*
X840244Y40689D01*
X840343Y40671D01*
X840441Y40658D01*
X840541Y40648D01*
X840640Y40642D01*
X840740Y40640D01*
X886460Y40640D02*
X886560Y40642D01*
X886659Y40648D01*
X886759Y40658D01*
X886857Y40671D01*
X886956Y40689D01*
X887053Y40710D01*
X887149Y40735D01*
X887245Y40764D01*
X887339Y40797D01*
X887432Y40833D01*
X887523Y40873D01*
X887613Y40917D01*
X887701Y40964D01*
X887787Y41014D01*
X887871Y41068D01*
X887953Y41125D01*
X888032Y41185D01*
X888110Y41249D01*
X888184Y41315D01*
X888256Y41384D01*
X888325Y41456D01*
X888391Y41530D01*
X888455Y41608D01*
X888515Y41687D01*
X888572Y41769D01*
X888626Y41853D01*
X888676Y41939D01*
X888723Y42027D01*
X888767Y42117D01*
X888807Y42208D01*
X888843Y42301D01*
X888876Y42395D01*
X888905Y42491D01*
X888930Y42587D01*
X888951Y42684D01*
X888969Y42783D01*
X888982Y42881D01*
X888992Y42981D01*
X888998Y43080D01*
X889000Y43180D01*
X889000Y58420D02*
X888998Y58520D01*
X888992Y58619D01*
X888982Y58719D01*
X888969Y58817D01*
X888951Y58916D01*
X888930Y59013D01*
X888905Y59109D01*
X888876Y59205D01*
X888843Y59299D01*
X888807Y59392D01*
X888767Y59483D01*
X888723Y59573D01*
X888676Y59661D01*
X888626Y59747D01*
X888572Y59831D01*
X888515Y59913D01*
X888455Y59992D01*
X888391Y60070D01*
X888325Y60144D01*
X888256Y60216D01*
X888184Y60285D01*
X888110Y60351D01*
X888032Y60415D01*
X887953Y60475D01*
X887871Y60532D01*
X887787Y60586D01*
X887701Y60636D01*
X887613Y60683D01*
X887523Y60727D01*
X887432Y60767D01*
X887339Y60803D01*
X887245Y60836D01*
X887149Y60865D01*
X887053Y60890D01*
X886956Y60911D01*
X886857Y60929D01*
X886759Y60942D01*
X886659Y60952D01*
X886560Y60958D01*
X886460Y60960D01*
X838200Y58420D02*
X838200Y43180D01*
X840740Y60960D02*
X844550Y60960D01*
X845820Y59690D01*
X844550Y40640D02*
X840740Y40640D01*
X844550Y40640D02*
X845820Y41910D01*
X881380Y59690D02*
X882650Y60960D01*
X881380Y59690D02*
X845820Y59690D01*
X881380Y41910D02*
X882650Y40640D01*
X881380Y41910D02*
X845820Y41910D01*
X882650Y60960D02*
X886460Y60960D01*
X886460Y40640D02*
X882650Y40640D01*
X889000Y43180D02*
X889000Y58420D01*
D13*
X890905Y50800D03*
X836295Y50800D03*
D11*
X838835Y64389D02*
X838835Y73025D01*
X841234Y73025D01*
X841331Y73023D01*
X841427Y73017D01*
X841523Y73008D01*
X841619Y72994D01*
X841714Y72977D01*
X841808Y72955D01*
X841901Y72930D01*
X841994Y72902D01*
X842085Y72869D01*
X842174Y72833D01*
X842262Y72793D01*
X842349Y72750D01*
X842434Y72704D01*
X842516Y72654D01*
X842597Y72600D01*
X842675Y72544D01*
X842751Y72484D01*
X842825Y72422D01*
X842896Y72356D01*
X842964Y72288D01*
X843030Y72217D01*
X843092Y72143D01*
X843152Y72067D01*
X843208Y71989D01*
X843262Y71908D01*
X843312Y71825D01*
X843358Y71741D01*
X843401Y71654D01*
X843441Y71566D01*
X843477Y71477D01*
X843510Y71386D01*
X843538Y71293D01*
X843563Y71200D01*
X843585Y71106D01*
X843602Y71011D01*
X843616Y70915D01*
X843625Y70819D01*
X843631Y70723D01*
X843633Y70626D01*
X843631Y70529D01*
X843625Y70433D01*
X843616Y70337D01*
X843602Y70241D01*
X843585Y70146D01*
X843563Y70052D01*
X843538Y69959D01*
X843510Y69866D01*
X843477Y69775D01*
X843441Y69686D01*
X843401Y69598D01*
X843358Y69511D01*
X843312Y69426D01*
X843262Y69344D01*
X843208Y69263D01*
X843152Y69185D01*
X843092Y69109D01*
X843030Y69035D01*
X842964Y68964D01*
X842896Y68896D01*
X842825Y68830D01*
X842751Y68768D01*
X842675Y68708D01*
X842597Y68652D01*
X842516Y68598D01*
X842434Y68548D01*
X842349Y68502D01*
X842262Y68459D01*
X842174Y68419D01*
X842085Y68383D01*
X841994Y68350D01*
X841901Y68322D01*
X841808Y68297D01*
X841714Y68275D01*
X841619Y68258D01*
X841523Y68244D01*
X841427Y68235D01*
X841331Y68229D01*
X841234Y68227D01*
X838835Y68227D01*
X841714Y68227D02*
X843633Y64389D01*
X847676Y64389D02*
X850554Y64389D01*
X850640Y64391D01*
X850726Y64397D01*
X850812Y64406D01*
X850897Y64420D01*
X850981Y64437D01*
X851065Y64458D01*
X851147Y64483D01*
X851228Y64511D01*
X851308Y64543D01*
X851387Y64579D01*
X851463Y64618D01*
X851538Y64661D01*
X851611Y64706D01*
X851682Y64756D01*
X851750Y64808D01*
X851817Y64863D01*
X851880Y64921D01*
X851941Y64982D01*
X851999Y65045D01*
X852054Y65112D01*
X852107Y65180D01*
X852156Y65251D01*
X852201Y65324D01*
X852244Y65399D01*
X852283Y65475D01*
X852319Y65554D01*
X852351Y65634D01*
X852379Y65715D01*
X852404Y65798D01*
X852425Y65881D01*
X852442Y65965D01*
X852456Y66050D01*
X852465Y66136D01*
X852471Y66222D01*
X852473Y66308D01*
X852473Y67268D01*
X852471Y67354D01*
X852465Y67440D01*
X852456Y67526D01*
X852442Y67611D01*
X852425Y67695D01*
X852404Y67779D01*
X852379Y67861D01*
X852351Y67942D01*
X852319Y68022D01*
X852283Y68101D01*
X852244Y68177D01*
X852201Y68252D01*
X852156Y68325D01*
X852107Y68396D01*
X852054Y68464D01*
X851999Y68531D01*
X851941Y68594D01*
X851880Y68655D01*
X851817Y68713D01*
X851750Y68768D01*
X851682Y68821D01*
X851611Y68870D01*
X851538Y68915D01*
X851463Y68958D01*
X851387Y68997D01*
X851308Y69033D01*
X851228Y69065D01*
X851147Y69093D01*
X851065Y69118D01*
X850981Y69139D01*
X850897Y69156D01*
X850812Y69170D01*
X850726Y69179D01*
X850640Y69185D01*
X850554Y69187D01*
X847676Y69187D01*
X847676Y73025D01*
X852473Y73025D01*
X850378Y55245D02*
X847979Y53326D01*
X850378Y55245D02*
X850378Y46609D01*
X847979Y46609D02*
X852777Y46609D01*
X856894Y50927D02*
X856896Y51097D01*
X856902Y51267D01*
X856912Y51436D01*
X856926Y51606D01*
X856945Y51775D01*
X856967Y51943D01*
X856993Y52111D01*
X857023Y52278D01*
X857058Y52444D01*
X857096Y52610D01*
X857138Y52775D01*
X857184Y52938D01*
X857234Y53101D01*
X857288Y53262D01*
X857345Y53422D01*
X857407Y53580D01*
X857472Y53737D01*
X857541Y53892D01*
X857614Y54046D01*
X857642Y54122D01*
X857674Y54197D01*
X857709Y54271D01*
X857747Y54343D01*
X857789Y54413D01*
X857834Y54481D01*
X857882Y54547D01*
X857933Y54611D01*
X857987Y54672D01*
X858043Y54731D01*
X858103Y54787D01*
X858164Y54840D01*
X858228Y54890D01*
X858295Y54938D01*
X858363Y54982D01*
X858434Y55023D01*
X858506Y55061D01*
X858580Y55095D01*
X858655Y55126D01*
X858732Y55154D01*
X858810Y55178D01*
X858889Y55198D01*
X858969Y55215D01*
X859049Y55228D01*
X859130Y55238D01*
X859211Y55243D01*
X859293Y55245D01*
X859375Y55243D01*
X859456Y55238D01*
X859537Y55228D01*
X859617Y55215D01*
X859697Y55198D01*
X859776Y55178D01*
X859854Y55154D01*
X859931Y55126D01*
X860006Y55095D01*
X860080Y55061D01*
X860152Y55023D01*
X860223Y54982D01*
X860291Y54938D01*
X860358Y54890D01*
X860422Y54840D01*
X860483Y54787D01*
X860543Y54731D01*
X860599Y54672D01*
X860653Y54611D01*
X860704Y54547D01*
X860752Y54481D01*
X860797Y54413D01*
X860839Y54343D01*
X860877Y54271D01*
X860912Y54197D01*
X860944Y54122D01*
X860972Y54046D01*
X860973Y54046D02*
X861046Y53892D01*
X861115Y53737D01*
X861180Y53580D01*
X861242Y53422D01*
X861299Y53262D01*
X861353Y53101D01*
X861403Y52938D01*
X861449Y52775D01*
X861491Y52610D01*
X861529Y52444D01*
X861564Y52278D01*
X861594Y52111D01*
X861620Y51943D01*
X861642Y51775D01*
X861661Y51606D01*
X861675Y51436D01*
X861685Y51267D01*
X861691Y51097D01*
X861693Y50927D01*
X856894Y50927D02*
X856896Y50757D01*
X856902Y50587D01*
X856912Y50418D01*
X856926Y50248D01*
X856945Y50079D01*
X856967Y49911D01*
X856993Y49743D01*
X857023Y49576D01*
X857058Y49410D01*
X857096Y49244D01*
X857138Y49079D01*
X857184Y48916D01*
X857234Y48754D01*
X857288Y48592D01*
X857345Y48433D01*
X857407Y48274D01*
X857472Y48117D01*
X857541Y47962D01*
X857614Y47808D01*
X857642Y47732D01*
X857674Y47657D01*
X857709Y47583D01*
X857747Y47511D01*
X857789Y47441D01*
X857834Y47373D01*
X857882Y47307D01*
X857933Y47243D01*
X857987Y47182D01*
X858043Y47123D01*
X858103Y47067D01*
X858164Y47014D01*
X858228Y46964D01*
X858295Y46916D01*
X858363Y46872D01*
X858434Y46831D01*
X858506Y46793D01*
X858580Y46759D01*
X858655Y46728D01*
X858732Y46700D01*
X858810Y46676D01*
X858889Y46656D01*
X858969Y46639D01*
X859049Y46626D01*
X859130Y46616D01*
X859211Y46611D01*
X859293Y46609D01*
X860972Y47808D02*
X861045Y47962D01*
X861114Y48117D01*
X861179Y48274D01*
X861241Y48433D01*
X861298Y48592D01*
X861352Y48754D01*
X861402Y48916D01*
X861448Y49079D01*
X861490Y49244D01*
X861528Y49410D01*
X861563Y49576D01*
X861593Y49743D01*
X861619Y49911D01*
X861641Y50079D01*
X861660Y50248D01*
X861674Y50418D01*
X861684Y50587D01*
X861690Y50757D01*
X861692Y50927D01*
X860972Y47808D02*
X860944Y47732D01*
X860912Y47657D01*
X860877Y47583D01*
X860839Y47511D01*
X860797Y47441D01*
X860752Y47373D01*
X860704Y47307D01*
X860653Y47243D01*
X860599Y47182D01*
X860543Y47123D01*
X860483Y47067D01*
X860422Y47014D01*
X860358Y46964D01*
X860291Y46916D01*
X860223Y46872D01*
X860152Y46831D01*
X860080Y46793D01*
X860006Y46759D01*
X859931Y46728D01*
X859854Y46700D01*
X859776Y46676D01*
X859697Y46656D01*
X859617Y46639D01*
X859537Y46626D01*
X859456Y46616D01*
X859375Y46611D01*
X859293Y46609D01*
X857374Y48528D02*
X861212Y53326D01*
X865809Y50927D02*
X865811Y51097D01*
X865817Y51267D01*
X865827Y51436D01*
X865841Y51606D01*
X865860Y51775D01*
X865882Y51943D01*
X865908Y52111D01*
X865938Y52278D01*
X865973Y52444D01*
X866011Y52610D01*
X866053Y52775D01*
X866099Y52938D01*
X866149Y53101D01*
X866203Y53262D01*
X866260Y53422D01*
X866322Y53580D01*
X866387Y53737D01*
X866456Y53892D01*
X866529Y54046D01*
X866530Y54046D02*
X866558Y54122D01*
X866590Y54197D01*
X866625Y54271D01*
X866663Y54343D01*
X866705Y54413D01*
X866750Y54481D01*
X866798Y54547D01*
X866849Y54611D01*
X866903Y54672D01*
X866959Y54731D01*
X867019Y54787D01*
X867080Y54840D01*
X867144Y54890D01*
X867211Y54938D01*
X867279Y54982D01*
X867350Y55023D01*
X867422Y55061D01*
X867496Y55095D01*
X867571Y55126D01*
X867648Y55154D01*
X867726Y55178D01*
X867805Y55198D01*
X867885Y55215D01*
X867965Y55228D01*
X868046Y55238D01*
X868127Y55243D01*
X868209Y55245D01*
X868291Y55243D01*
X868372Y55238D01*
X868453Y55228D01*
X868533Y55215D01*
X868613Y55198D01*
X868692Y55178D01*
X868770Y55154D01*
X868847Y55126D01*
X868922Y55095D01*
X868996Y55061D01*
X869068Y55023D01*
X869139Y54982D01*
X869207Y54938D01*
X869274Y54890D01*
X869338Y54840D01*
X869399Y54787D01*
X869459Y54731D01*
X869515Y54672D01*
X869569Y54611D01*
X869620Y54547D01*
X869668Y54481D01*
X869713Y54413D01*
X869755Y54343D01*
X869793Y54271D01*
X869828Y54197D01*
X869860Y54122D01*
X869888Y54046D01*
X869961Y53892D01*
X870030Y53737D01*
X870095Y53580D01*
X870157Y53422D01*
X870214Y53262D01*
X870268Y53101D01*
X870318Y52938D01*
X870364Y52775D01*
X870406Y52610D01*
X870444Y52444D01*
X870479Y52278D01*
X870509Y52111D01*
X870535Y51943D01*
X870557Y51775D01*
X870576Y51606D01*
X870590Y51436D01*
X870600Y51267D01*
X870606Y51097D01*
X870608Y50927D01*
X865810Y50927D02*
X865812Y50757D01*
X865818Y50587D01*
X865828Y50418D01*
X865842Y50248D01*
X865861Y50079D01*
X865883Y49911D01*
X865909Y49743D01*
X865939Y49576D01*
X865974Y49410D01*
X866012Y49244D01*
X866054Y49079D01*
X866100Y48916D01*
X866150Y48754D01*
X866204Y48592D01*
X866261Y48433D01*
X866323Y48274D01*
X866388Y48117D01*
X866457Y47962D01*
X866530Y47808D01*
X866558Y47732D01*
X866590Y47657D01*
X866625Y47583D01*
X866663Y47511D01*
X866705Y47441D01*
X866750Y47373D01*
X866798Y47307D01*
X866849Y47243D01*
X866903Y47182D01*
X866959Y47123D01*
X867019Y47067D01*
X867080Y47014D01*
X867144Y46964D01*
X867211Y46916D01*
X867279Y46872D01*
X867350Y46831D01*
X867422Y46793D01*
X867496Y46759D01*
X867571Y46728D01*
X867648Y46700D01*
X867726Y46676D01*
X867805Y46656D01*
X867885Y46639D01*
X867965Y46626D01*
X868046Y46616D01*
X868127Y46611D01*
X868209Y46609D01*
X869888Y47808D02*
X869961Y47962D01*
X870030Y48117D01*
X870095Y48274D01*
X870157Y48433D01*
X870214Y48592D01*
X870268Y48754D01*
X870318Y48916D01*
X870364Y49079D01*
X870406Y49244D01*
X870444Y49410D01*
X870479Y49576D01*
X870509Y49743D01*
X870535Y49911D01*
X870557Y50079D01*
X870576Y50248D01*
X870590Y50418D01*
X870600Y50587D01*
X870606Y50757D01*
X870608Y50927D01*
X869888Y47808D02*
X869860Y47732D01*
X869828Y47657D01*
X869793Y47583D01*
X869755Y47511D01*
X869713Y47441D01*
X869668Y47373D01*
X869620Y47307D01*
X869569Y47243D01*
X869515Y47182D01*
X869459Y47123D01*
X869399Y47067D01*
X869338Y47014D01*
X869274Y46964D01*
X869207Y46916D01*
X869139Y46872D01*
X869068Y46831D01*
X868996Y46793D01*
X868922Y46759D01*
X868847Y46728D01*
X868770Y46700D01*
X868692Y46676D01*
X868613Y46656D01*
X868533Y46639D01*
X868453Y46626D01*
X868372Y46616D01*
X868291Y46611D01*
X868209Y46609D01*
X866290Y48528D02*
X870128Y53326D01*
D10*
X882650Y617220D02*
X946150Y617220D01*
X882650Y617220D02*
X882650Y610870D01*
X882650Y582930D02*
X882650Y574802D01*
X946150Y574802D01*
X946150Y582930D01*
X946150Y610870D02*
X946150Y617220D01*
X905510Y582930D02*
X904240Y581660D01*
X905510Y582930D02*
X904240Y584200D01*
X902970Y585470D02*
X902970Y580390D01*
X901700Y579120D01*
X902970Y585470D02*
X901700Y586740D01*
X904240Y584200D02*
X904240Y581660D01*
X902970Y580390D01*
X904240Y584200D02*
X902970Y585470D01*
X901700Y582930D02*
X905510Y582930D01*
X901700Y582930D02*
X886460Y582930D01*
X901700Y582930D02*
X901700Y586740D01*
X901700Y582930D02*
X901700Y579120D01*
X900430Y577850D01*
X901700Y586740D02*
X900430Y588010D01*
X900430Y577850D01*
D11*
X883285Y621665D02*
X883285Y633095D01*
X886460Y633095D01*
X886571Y633093D01*
X886681Y633087D01*
X886792Y633078D01*
X886902Y633064D01*
X887011Y633047D01*
X887120Y633026D01*
X887228Y633001D01*
X887335Y632972D01*
X887441Y632940D01*
X887546Y632904D01*
X887649Y632864D01*
X887751Y632821D01*
X887852Y632774D01*
X887951Y632723D01*
X888048Y632670D01*
X888142Y632613D01*
X888235Y632552D01*
X888326Y632489D01*
X888415Y632422D01*
X888501Y632352D01*
X888584Y632279D01*
X888666Y632204D01*
X888744Y632126D01*
X888819Y632044D01*
X888892Y631961D01*
X888962Y631875D01*
X889029Y631786D01*
X889092Y631695D01*
X889153Y631602D01*
X889210Y631507D01*
X889263Y631411D01*
X889314Y631312D01*
X889361Y631211D01*
X889404Y631109D01*
X889444Y631006D01*
X889480Y630901D01*
X889512Y630795D01*
X889541Y630688D01*
X889566Y630580D01*
X889587Y630471D01*
X889604Y630362D01*
X889618Y630252D01*
X889627Y630141D01*
X889633Y630031D01*
X889635Y629920D01*
X889633Y629809D01*
X889627Y629699D01*
X889618Y629588D01*
X889604Y629478D01*
X889587Y629369D01*
X889566Y629260D01*
X889541Y629152D01*
X889512Y629045D01*
X889480Y628939D01*
X889444Y628834D01*
X889404Y628731D01*
X889361Y628629D01*
X889314Y628528D01*
X889263Y628429D01*
X889210Y628333D01*
X889153Y628238D01*
X889092Y628145D01*
X889029Y628054D01*
X888962Y627965D01*
X888892Y627879D01*
X888819Y627796D01*
X888744Y627714D01*
X888666Y627636D01*
X888584Y627561D01*
X888501Y627488D01*
X888415Y627418D01*
X888326Y627351D01*
X888235Y627288D01*
X888142Y627227D01*
X888048Y627170D01*
X887951Y627117D01*
X887852Y627066D01*
X887751Y627019D01*
X887649Y626976D01*
X887546Y626936D01*
X887441Y626900D01*
X887335Y626868D01*
X887228Y626839D01*
X887120Y626814D01*
X887011Y626793D01*
X886902Y626776D01*
X886792Y626762D01*
X886681Y626753D01*
X886571Y626747D01*
X886460Y626745D01*
X883285Y626745D01*
X887095Y626745D02*
X889635Y621665D01*
X894632Y628015D02*
X898442Y628015D01*
X898542Y628013D01*
X898641Y628007D01*
X898741Y627997D01*
X898839Y627984D01*
X898938Y627966D01*
X899035Y627945D01*
X899131Y627920D01*
X899227Y627891D01*
X899321Y627858D01*
X899414Y627822D01*
X899505Y627782D01*
X899595Y627738D01*
X899683Y627691D01*
X899769Y627641D01*
X899853Y627587D01*
X899935Y627530D01*
X900014Y627470D01*
X900092Y627406D01*
X900166Y627340D01*
X900238Y627271D01*
X900307Y627199D01*
X900373Y627125D01*
X900437Y627047D01*
X900497Y626968D01*
X900554Y626886D01*
X900608Y626802D01*
X900658Y626716D01*
X900705Y626628D01*
X900749Y626538D01*
X900789Y626447D01*
X900825Y626354D01*
X900858Y626260D01*
X900887Y626164D01*
X900912Y626068D01*
X900933Y625971D01*
X900951Y625872D01*
X900964Y625774D01*
X900974Y625674D01*
X900980Y625575D01*
X900982Y625475D01*
X900982Y624840D01*
X900980Y624729D01*
X900974Y624619D01*
X900965Y624508D01*
X900951Y624398D01*
X900934Y624289D01*
X900913Y624180D01*
X900888Y624072D01*
X900859Y623965D01*
X900827Y623859D01*
X900791Y623754D01*
X900751Y623651D01*
X900708Y623549D01*
X900661Y623448D01*
X900610Y623349D01*
X900557Y623253D01*
X900500Y623158D01*
X900439Y623065D01*
X900376Y622974D01*
X900309Y622885D01*
X900239Y622799D01*
X900166Y622716D01*
X900091Y622634D01*
X900013Y622556D01*
X899931Y622481D01*
X899848Y622408D01*
X899762Y622338D01*
X899673Y622271D01*
X899582Y622208D01*
X899489Y622147D01*
X899395Y622090D01*
X899298Y622037D01*
X899199Y621986D01*
X899098Y621939D01*
X898996Y621896D01*
X898893Y621856D01*
X898788Y621820D01*
X898682Y621788D01*
X898575Y621759D01*
X898467Y621734D01*
X898358Y621713D01*
X898249Y621696D01*
X898139Y621682D01*
X898028Y621673D01*
X897918Y621667D01*
X897807Y621665D01*
X897696Y621667D01*
X897586Y621673D01*
X897475Y621682D01*
X897365Y621696D01*
X897256Y621713D01*
X897147Y621734D01*
X897039Y621759D01*
X896932Y621788D01*
X896826Y621820D01*
X896721Y621856D01*
X896618Y621896D01*
X896516Y621939D01*
X896415Y621986D01*
X896316Y622037D01*
X896220Y622090D01*
X896125Y622147D01*
X896032Y622208D01*
X895941Y622271D01*
X895852Y622338D01*
X895766Y622408D01*
X895683Y622481D01*
X895601Y622556D01*
X895523Y622634D01*
X895448Y622716D01*
X895375Y622799D01*
X895305Y622885D01*
X895238Y622974D01*
X895175Y623065D01*
X895114Y623158D01*
X895057Y623253D01*
X895004Y623349D01*
X894953Y623448D01*
X894906Y623549D01*
X894863Y623651D01*
X894823Y623754D01*
X894787Y623859D01*
X894755Y623965D01*
X894726Y624072D01*
X894701Y624180D01*
X894680Y624289D01*
X894663Y624398D01*
X894649Y624508D01*
X894640Y624619D01*
X894634Y624729D01*
X894632Y624840D01*
X894632Y628015D01*
X894634Y628155D01*
X894640Y628295D01*
X894649Y628435D01*
X894663Y628574D01*
X894680Y628713D01*
X894701Y628851D01*
X894726Y628989D01*
X894755Y629126D01*
X894787Y629262D01*
X894824Y629397D01*
X894864Y629531D01*
X894907Y629664D01*
X894955Y629796D01*
X895005Y629927D01*
X895060Y630056D01*
X895118Y630183D01*
X895179Y630309D01*
X895244Y630433D01*
X895313Y630555D01*
X895384Y630675D01*
X895459Y630793D01*
X895537Y630910D01*
X895619Y631024D01*
X895703Y631135D01*
X895791Y631244D01*
X895881Y631351D01*
X895975Y631456D01*
X896071Y631557D01*
X896170Y631656D01*
X896271Y631752D01*
X896376Y631846D01*
X896483Y631936D01*
X896592Y632024D01*
X896703Y632108D01*
X896817Y632190D01*
X896934Y632268D01*
X897052Y632343D01*
X897172Y632414D01*
X897294Y632483D01*
X897418Y632548D01*
X897544Y632609D01*
X897671Y632667D01*
X897800Y632722D01*
X897931Y632772D01*
X898063Y632820D01*
X898196Y632863D01*
X898330Y632903D01*
X898465Y632940D01*
X898601Y632972D01*
X898738Y633001D01*
X898876Y633026D01*
X899014Y633047D01*
X899153Y633064D01*
X899292Y633078D01*
X899432Y633087D01*
X899572Y633093D01*
X899712Y633095D01*
X886460Y570865D02*
X883285Y568325D01*
X886460Y570865D02*
X886460Y559435D01*
X883285Y559435D02*
X889635Y559435D01*
X894715Y565150D02*
X894718Y565375D01*
X894726Y565600D01*
X894739Y565824D01*
X894758Y566048D01*
X894782Y566272D01*
X894811Y566495D01*
X894846Y566717D01*
X894886Y566938D01*
X894932Y567158D01*
X894982Y567377D01*
X895038Y567595D01*
X895099Y567812D01*
X895165Y568027D01*
X895236Y568240D01*
X895313Y568451D01*
X895394Y568661D01*
X895480Y568869D01*
X895571Y569074D01*
X895667Y569277D01*
X895667Y569278D02*
X895699Y569366D01*
X895735Y569453D01*
X895774Y569539D01*
X895817Y569623D01*
X895863Y569705D01*
X895912Y569785D01*
X895964Y569863D01*
X896020Y569939D01*
X896078Y570013D01*
X896140Y570084D01*
X896204Y570153D01*
X896271Y570219D01*
X896340Y570282D01*
X896412Y570343D01*
X896486Y570401D01*
X896563Y570455D01*
X896641Y570507D01*
X896722Y570555D01*
X896804Y570600D01*
X896889Y570642D01*
X896975Y570680D01*
X897062Y570715D01*
X897150Y570747D01*
X897240Y570774D01*
X897331Y570799D01*
X897423Y570819D01*
X897515Y570836D01*
X897609Y570849D01*
X897702Y570858D01*
X897796Y570864D01*
X897890Y570866D01*
X897984Y570864D01*
X898078Y570858D01*
X898171Y570849D01*
X898265Y570836D01*
X898357Y570819D01*
X898449Y570799D01*
X898540Y570774D01*
X898630Y570747D01*
X898718Y570715D01*
X898805Y570680D01*
X898891Y570642D01*
X898976Y570600D01*
X899058Y570555D01*
X899139Y570507D01*
X899217Y570455D01*
X899294Y570401D01*
X899368Y570343D01*
X899440Y570282D01*
X899509Y570219D01*
X899576Y570153D01*
X899640Y570084D01*
X899702Y570013D01*
X899760Y569939D01*
X899816Y569863D01*
X899868Y569785D01*
X899917Y569705D01*
X899963Y569623D01*
X900006Y569539D01*
X900045Y569453D01*
X900081Y569366D01*
X900113Y569278D01*
X900113Y569277D02*
X900209Y569074D01*
X900300Y568869D01*
X900386Y568661D01*
X900467Y568451D01*
X900544Y568240D01*
X900615Y568027D01*
X900681Y567812D01*
X900742Y567595D01*
X900798Y567377D01*
X900848Y567158D01*
X900894Y566938D01*
X900934Y566717D01*
X900969Y566495D01*
X900998Y566272D01*
X901022Y566048D01*
X901041Y565824D01*
X901054Y565600D01*
X901062Y565375D01*
X901065Y565150D01*
X894715Y565150D02*
X894718Y564925D01*
X894726Y564700D01*
X894739Y564476D01*
X894758Y564252D01*
X894782Y564028D01*
X894811Y563805D01*
X894846Y563583D01*
X894886Y563362D01*
X894932Y563142D01*
X894982Y562923D01*
X895038Y562705D01*
X895099Y562488D01*
X895165Y562273D01*
X895236Y562060D01*
X895313Y561849D01*
X895394Y561639D01*
X895480Y561431D01*
X895571Y561226D01*
X895667Y561023D01*
X895699Y560935D01*
X895735Y560848D01*
X895774Y560762D01*
X895817Y560678D01*
X895863Y560596D01*
X895912Y560516D01*
X895964Y560438D01*
X896020Y560362D01*
X896078Y560288D01*
X896140Y560217D01*
X896204Y560148D01*
X896271Y560082D01*
X896340Y560019D01*
X896412Y559958D01*
X896486Y559900D01*
X896563Y559846D01*
X896641Y559794D01*
X896722Y559746D01*
X896804Y559701D01*
X896889Y559659D01*
X896975Y559621D01*
X897062Y559586D01*
X897150Y559554D01*
X897240Y559527D01*
X897331Y559502D01*
X897423Y559482D01*
X897515Y559465D01*
X897609Y559452D01*
X897702Y559443D01*
X897796Y559437D01*
X897890Y559435D01*
X900113Y561023D02*
X900209Y561226D01*
X900300Y561431D01*
X900386Y561639D01*
X900467Y561849D01*
X900544Y562060D01*
X900615Y562273D01*
X900681Y562488D01*
X900742Y562705D01*
X900798Y562923D01*
X900848Y563142D01*
X900894Y563362D01*
X900934Y563583D01*
X900969Y563805D01*
X900998Y564028D01*
X901022Y564252D01*
X901041Y564476D01*
X901054Y564700D01*
X901062Y564925D01*
X901065Y565150D01*
X900113Y561023D02*
X900081Y560935D01*
X900045Y560848D01*
X900006Y560762D01*
X899963Y560678D01*
X899917Y560596D01*
X899868Y560516D01*
X899816Y560438D01*
X899760Y560362D01*
X899702Y560288D01*
X899640Y560217D01*
X899576Y560148D01*
X899509Y560082D01*
X899440Y560019D01*
X899368Y559958D01*
X899294Y559900D01*
X899217Y559846D01*
X899139Y559794D01*
X899058Y559746D01*
X898976Y559701D01*
X898891Y559659D01*
X898805Y559621D01*
X898718Y559586D01*
X898630Y559554D01*
X898540Y559527D01*
X898449Y559502D01*
X898357Y559482D01*
X898265Y559465D01*
X898171Y559452D01*
X898078Y559443D01*
X897984Y559437D01*
X897890Y559435D01*
X895350Y561975D02*
X900430Y568325D01*
X906551Y570865D02*
X906551Y559435D01*
X906551Y563245D02*
X911631Y567055D01*
X908774Y564833D02*
X911631Y559435D01*
D10*
X694398Y131128D02*
X681698Y131128D01*
X675348Y137478D01*
X675348Y150178D01*
X681698Y156528D01*
X675348Y137478D02*
X668998Y131128D01*
X656298Y131128D01*
X649948Y137478D01*
X649948Y150178D01*
X656298Y156528D01*
X668998Y156528D01*
X675348Y150178D01*
X700748Y150178D02*
X700748Y137478D01*
X694398Y131128D01*
X700748Y150178D02*
X694398Y156528D01*
X681698Y156528D01*
X649948Y137478D02*
X643598Y131128D01*
X630898Y131128D01*
X624548Y137478D01*
X624548Y150178D01*
X630898Y156528D01*
X643598Y156528D01*
X649948Y150178D01*
D11*
X651301Y124905D02*
X651301Y113475D01*
X651301Y124905D02*
X654476Y124905D01*
X654587Y124903D01*
X654697Y124897D01*
X654808Y124888D01*
X654918Y124874D01*
X655027Y124857D01*
X655136Y124836D01*
X655244Y124811D01*
X655351Y124782D01*
X655457Y124750D01*
X655562Y124714D01*
X655665Y124674D01*
X655767Y124631D01*
X655868Y124584D01*
X655967Y124533D01*
X656064Y124480D01*
X656158Y124423D01*
X656251Y124362D01*
X656342Y124299D01*
X656431Y124232D01*
X656517Y124162D01*
X656600Y124089D01*
X656682Y124014D01*
X656760Y123936D01*
X656835Y123854D01*
X656908Y123771D01*
X656978Y123685D01*
X657045Y123596D01*
X657108Y123505D01*
X657169Y123412D01*
X657226Y123317D01*
X657279Y123221D01*
X657330Y123122D01*
X657377Y123021D01*
X657420Y122919D01*
X657460Y122816D01*
X657496Y122711D01*
X657528Y122605D01*
X657557Y122498D01*
X657582Y122390D01*
X657603Y122281D01*
X657620Y122172D01*
X657634Y122062D01*
X657643Y121951D01*
X657649Y121841D01*
X657651Y121730D01*
X657649Y121619D01*
X657643Y121509D01*
X657634Y121398D01*
X657620Y121288D01*
X657603Y121179D01*
X657582Y121070D01*
X657557Y120962D01*
X657528Y120855D01*
X657496Y120749D01*
X657460Y120644D01*
X657420Y120541D01*
X657377Y120439D01*
X657330Y120338D01*
X657279Y120239D01*
X657226Y120142D01*
X657169Y120048D01*
X657108Y119955D01*
X657045Y119864D01*
X656978Y119775D01*
X656908Y119689D01*
X656835Y119606D01*
X656760Y119524D01*
X656682Y119446D01*
X656600Y119371D01*
X656517Y119298D01*
X656431Y119228D01*
X656342Y119161D01*
X656251Y119098D01*
X656158Y119037D01*
X656064Y118980D01*
X655967Y118927D01*
X655868Y118876D01*
X655767Y118829D01*
X655665Y118786D01*
X655562Y118746D01*
X655457Y118710D01*
X655351Y118678D01*
X655244Y118649D01*
X655136Y118624D01*
X655027Y118603D01*
X654918Y118586D01*
X654808Y118572D01*
X654697Y118563D01*
X654587Y118557D01*
X654476Y118555D01*
X651301Y118555D01*
X655111Y118555D02*
X657651Y113475D01*
X663054Y113475D02*
X668134Y113475D01*
X663054Y113475D02*
X663054Y124905D01*
X668134Y124905D01*
X666864Y119825D02*
X663054Y119825D01*
X672960Y124905D02*
X672960Y113475D01*
X678040Y113475D01*
X681825Y113475D02*
X685635Y124905D01*
X689445Y113475D01*
X688492Y116332D02*
X682777Y116332D01*
X693255Y124905D02*
X697065Y119507D01*
X700875Y124905D01*
X697065Y119507D02*
X697065Y113475D01*
D10*
X669290Y331470D02*
X675640Y337820D01*
X669290Y318770D02*
X675640Y312420D01*
X669290Y306070D01*
X669290Y293370D02*
X675640Y287020D01*
X669290Y280670D01*
X669290Y267970D02*
X675640Y261620D01*
X675640Y337820D02*
X713740Y337820D01*
X720090Y331470D01*
X720090Y318770D01*
X713740Y312420D01*
X720090Y306070D01*
X720090Y293370D01*
X713740Y287020D01*
X720090Y280670D01*
X720090Y267970D01*
X713740Y261620D01*
X713740Y312420D02*
X675640Y312420D01*
X675640Y287020D02*
X713740Y287020D01*
X713740Y261620D02*
X675640Y261620D01*
X669290Y267970D02*
X669290Y280670D01*
X669290Y293370D02*
X669290Y306070D01*
X669290Y318770D02*
X669290Y331470D01*
X675640Y261620D02*
X669290Y255270D01*
X669290Y242570D02*
X675640Y236220D01*
X713740Y261620D02*
X720090Y255270D01*
X720090Y242570D01*
X713740Y236220D01*
X675640Y236220D01*
X669290Y242570D02*
X669290Y255270D01*
D11*
X735965Y304419D02*
X736065Y304417D01*
X736164Y304411D01*
X736264Y304401D01*
X736362Y304388D01*
X736461Y304370D01*
X736558Y304349D01*
X736654Y304324D01*
X736750Y304295D01*
X736844Y304262D01*
X736937Y304226D01*
X737028Y304186D01*
X737118Y304142D01*
X737206Y304095D01*
X737292Y304045D01*
X737376Y303991D01*
X737458Y303934D01*
X737537Y303874D01*
X737615Y303810D01*
X737689Y303744D01*
X737761Y303675D01*
X737830Y303603D01*
X737896Y303529D01*
X737960Y303451D01*
X738020Y303372D01*
X738077Y303290D01*
X738131Y303206D01*
X738181Y303120D01*
X738228Y303032D01*
X738272Y302942D01*
X738312Y302851D01*
X738348Y302758D01*
X738381Y302664D01*
X738410Y302568D01*
X738435Y302472D01*
X738456Y302375D01*
X738474Y302276D01*
X738487Y302178D01*
X738497Y302078D01*
X738503Y301979D01*
X738505Y301879D01*
X738503Y301738D01*
X738498Y301597D01*
X738488Y301456D01*
X738475Y301315D01*
X738459Y301175D01*
X738438Y301035D01*
X738414Y300896D01*
X738386Y300757D01*
X738355Y300620D01*
X738320Y300483D01*
X738282Y300347D01*
X738240Y300212D01*
X738194Y300079D01*
X738145Y299946D01*
X738092Y299815D01*
X738036Y299686D01*
X737977Y299557D01*
X737914Y299431D01*
X737848Y299306D01*
X737779Y299183D01*
X737706Y299062D01*
X737630Y298943D01*
X737551Y298825D01*
X737470Y298710D01*
X737385Y298598D01*
X737297Y298487D01*
X737206Y298379D01*
X737113Y298273D01*
X737016Y298170D01*
X736917Y298069D01*
X729615Y298387D02*
X729515Y298389D01*
X729416Y298395D01*
X729316Y298405D01*
X729218Y298418D01*
X729119Y298436D01*
X729022Y298457D01*
X728926Y298482D01*
X728830Y298511D01*
X728736Y298544D01*
X728643Y298580D01*
X728552Y298620D01*
X728462Y298664D01*
X728374Y298711D01*
X728288Y298761D01*
X728204Y298815D01*
X728122Y298872D01*
X728043Y298932D01*
X727965Y298996D01*
X727891Y299062D01*
X727819Y299131D01*
X727750Y299203D01*
X727684Y299277D01*
X727620Y299355D01*
X727560Y299434D01*
X727503Y299516D01*
X727449Y299600D01*
X727399Y299686D01*
X727352Y299774D01*
X727308Y299864D01*
X727268Y299955D01*
X727232Y300048D01*
X727199Y300142D01*
X727170Y300238D01*
X727145Y300334D01*
X727124Y300431D01*
X727106Y300530D01*
X727093Y300628D01*
X727083Y300728D01*
X727077Y300827D01*
X727075Y300927D01*
X727077Y301060D01*
X727082Y301193D01*
X727092Y301326D01*
X727105Y301459D01*
X727122Y301591D01*
X727142Y301723D01*
X727166Y301854D01*
X727194Y301984D01*
X727225Y302114D01*
X727260Y302242D01*
X727299Y302370D01*
X727341Y302496D01*
X727387Y302621D01*
X727436Y302745D01*
X727488Y302868D01*
X727544Y302989D01*
X727604Y303108D01*
X727666Y303226D01*
X727732Y303341D01*
X727801Y303455D01*
X727874Y303567D01*
X727949Y303677D01*
X728028Y303785D01*
X731838Y299656D02*
X731786Y299572D01*
X731731Y299489D01*
X731672Y299409D01*
X731611Y299331D01*
X731547Y299256D01*
X731479Y299183D01*
X731409Y299112D01*
X731337Y299045D01*
X731262Y298980D01*
X731184Y298918D01*
X731104Y298859D01*
X731022Y298803D01*
X730938Y298751D01*
X730852Y298702D01*
X730764Y298656D01*
X730674Y298613D01*
X730583Y298574D01*
X730490Y298539D01*
X730396Y298507D01*
X730301Y298479D01*
X730205Y298454D01*
X730108Y298434D01*
X730010Y298416D01*
X729912Y298403D01*
X729813Y298394D01*
X729714Y298388D01*
X729615Y298386D01*
X733742Y303149D02*
X733794Y303233D01*
X733849Y303316D01*
X733908Y303396D01*
X733969Y303474D01*
X734033Y303549D01*
X734101Y303622D01*
X734171Y303693D01*
X734243Y303760D01*
X734318Y303825D01*
X734396Y303887D01*
X734476Y303946D01*
X734558Y304002D01*
X734642Y304054D01*
X734728Y304103D01*
X734816Y304149D01*
X734906Y304192D01*
X734997Y304231D01*
X735090Y304266D01*
X735184Y304298D01*
X735279Y304326D01*
X735375Y304351D01*
X735472Y304371D01*
X735570Y304389D01*
X735668Y304402D01*
X735767Y304411D01*
X735866Y304417D01*
X735965Y304419D01*
X733743Y303149D02*
X731838Y299657D01*
X738505Y309524D02*
X738505Y314604D01*
X738505Y309524D02*
X727075Y309524D01*
X727075Y314604D01*
X732155Y313334D02*
X732155Y309524D01*
X727075Y319405D02*
X738505Y319405D01*
X738505Y325755D02*
X727075Y319405D01*
X727075Y325755D02*
X738505Y325755D01*
X738505Y334645D02*
X738503Y334745D01*
X738497Y334844D01*
X738487Y334944D01*
X738474Y335042D01*
X738456Y335141D01*
X738435Y335238D01*
X738410Y335334D01*
X738381Y335430D01*
X738348Y335524D01*
X738312Y335617D01*
X738272Y335708D01*
X738228Y335798D01*
X738181Y335886D01*
X738131Y335972D01*
X738077Y336056D01*
X738020Y336138D01*
X737960Y336217D01*
X737896Y336295D01*
X737830Y336369D01*
X737761Y336441D01*
X737689Y336510D01*
X737615Y336576D01*
X737537Y336640D01*
X737458Y336700D01*
X737376Y336757D01*
X737292Y336811D01*
X737206Y336861D01*
X737118Y336908D01*
X737028Y336952D01*
X736937Y336992D01*
X736844Y337028D01*
X736750Y337061D01*
X736654Y337090D01*
X736558Y337115D01*
X736461Y337136D01*
X736362Y337154D01*
X736264Y337167D01*
X736164Y337177D01*
X736065Y337183D01*
X735965Y337185D01*
X738505Y334645D02*
X738503Y334504D01*
X738498Y334363D01*
X738488Y334222D01*
X738475Y334081D01*
X738459Y333941D01*
X738438Y333801D01*
X738414Y333662D01*
X738386Y333523D01*
X738355Y333386D01*
X738320Y333249D01*
X738282Y333113D01*
X738240Y332978D01*
X738194Y332845D01*
X738145Y332712D01*
X738092Y332581D01*
X738036Y332452D01*
X737977Y332323D01*
X737914Y332197D01*
X737848Y332072D01*
X737779Y331949D01*
X737706Y331828D01*
X737630Y331709D01*
X737551Y331591D01*
X737470Y331476D01*
X737385Y331364D01*
X737297Y331253D01*
X737206Y331145D01*
X737113Y331039D01*
X737016Y330936D01*
X736917Y330835D01*
X729615Y331153D02*
X729515Y331155D01*
X729416Y331161D01*
X729316Y331171D01*
X729218Y331184D01*
X729119Y331202D01*
X729022Y331223D01*
X728926Y331248D01*
X728830Y331277D01*
X728736Y331310D01*
X728643Y331346D01*
X728552Y331386D01*
X728462Y331430D01*
X728374Y331477D01*
X728288Y331527D01*
X728204Y331581D01*
X728122Y331638D01*
X728043Y331698D01*
X727965Y331762D01*
X727891Y331828D01*
X727819Y331897D01*
X727750Y331969D01*
X727684Y332043D01*
X727620Y332121D01*
X727560Y332200D01*
X727503Y332282D01*
X727449Y332366D01*
X727399Y332452D01*
X727352Y332540D01*
X727308Y332630D01*
X727268Y332721D01*
X727232Y332814D01*
X727199Y332908D01*
X727170Y333004D01*
X727145Y333100D01*
X727124Y333197D01*
X727106Y333296D01*
X727093Y333394D01*
X727083Y333494D01*
X727077Y333593D01*
X727075Y333693D01*
X727077Y333826D01*
X727082Y333959D01*
X727092Y334092D01*
X727105Y334225D01*
X727122Y334357D01*
X727142Y334489D01*
X727166Y334620D01*
X727194Y334750D01*
X727225Y334880D01*
X727260Y335008D01*
X727299Y335136D01*
X727341Y335262D01*
X727387Y335387D01*
X727436Y335511D01*
X727488Y335634D01*
X727544Y335755D01*
X727604Y335874D01*
X727666Y335992D01*
X727732Y336107D01*
X727801Y336221D01*
X727874Y336333D01*
X727949Y336443D01*
X728028Y336551D01*
X731838Y332422D02*
X731786Y332338D01*
X731731Y332255D01*
X731672Y332175D01*
X731611Y332097D01*
X731547Y332022D01*
X731479Y331949D01*
X731409Y331878D01*
X731337Y331811D01*
X731262Y331746D01*
X731184Y331684D01*
X731104Y331625D01*
X731022Y331569D01*
X730938Y331517D01*
X730852Y331468D01*
X730764Y331422D01*
X730674Y331379D01*
X730583Y331340D01*
X730490Y331305D01*
X730396Y331273D01*
X730301Y331245D01*
X730205Y331220D01*
X730108Y331200D01*
X730010Y331182D01*
X729912Y331169D01*
X729813Y331160D01*
X729714Y331154D01*
X729615Y331152D01*
X733742Y335915D02*
X733794Y335999D01*
X733849Y336082D01*
X733908Y336162D01*
X733969Y336240D01*
X734033Y336315D01*
X734101Y336388D01*
X734171Y336459D01*
X734243Y336526D01*
X734318Y336591D01*
X734396Y336653D01*
X734476Y336712D01*
X734558Y336768D01*
X734642Y336820D01*
X734728Y336869D01*
X734816Y336915D01*
X734906Y336958D01*
X734997Y336997D01*
X735090Y337032D01*
X735184Y337064D01*
X735279Y337092D01*
X735375Y337117D01*
X735472Y337137D01*
X735570Y337155D01*
X735668Y337168D01*
X735767Y337177D01*
X735866Y337183D01*
X735965Y337185D01*
X733743Y335915D02*
X731838Y332423D01*
X482600Y50800D02*
X469900Y50800D01*
D14*
X482600Y50800D02*
X533400Y50800D01*
D11*
X546100Y50800D01*
X546100Y76200D01*
X469900Y76200D01*
X469900Y50800D01*
D14*
X482600Y50800D02*
X483019Y50189D01*
X483452Y49588D01*
X483899Y48997D01*
X484361Y48418D01*
X484836Y47850D01*
X485326Y47294D01*
X485828Y46750D01*
X486344Y46218D01*
X486872Y45699D01*
X487413Y45193D01*
X487966Y44700D01*
X488531Y44220D01*
X489107Y43755D01*
X489695Y43304D01*
X490293Y42867D01*
X490901Y42444D01*
X491520Y42037D01*
X492148Y41644D01*
X492786Y41268D01*
X493433Y40906D01*
X494088Y40561D01*
X494751Y40231D01*
X495422Y39918D01*
X496101Y39621D01*
X496787Y39340D01*
X497479Y39076D01*
X498177Y38830D01*
X498882Y38600D01*
X499591Y38387D01*
X500306Y38192D01*
X501025Y38014D01*
X501748Y37853D01*
X502475Y37710D01*
X503205Y37585D01*
X503938Y37477D01*
X504673Y37388D01*
X505410Y37316D01*
X506149Y37262D01*
X506889Y37226D01*
X507630Y37208D01*
X508370Y37208D01*
X509111Y37226D01*
X509851Y37262D01*
X510590Y37316D01*
X511327Y37388D01*
X512062Y37477D01*
X512795Y37585D01*
X513525Y37710D01*
X514252Y37853D01*
X514975Y38014D01*
X515694Y38192D01*
X516409Y38387D01*
X517118Y38600D01*
X517823Y38830D01*
X518521Y39076D01*
X519213Y39340D01*
X519899Y39621D01*
X520578Y39918D01*
X521249Y40231D01*
X521912Y40561D01*
X522567Y40906D01*
X523214Y41268D01*
X523852Y41644D01*
X524480Y42037D01*
X525099Y42444D01*
X525707Y42867D01*
X526305Y43304D01*
X526893Y43755D01*
X527469Y44220D01*
X528034Y44700D01*
X528587Y45193D01*
X529128Y45699D01*
X529656Y46218D01*
X530172Y46750D01*
X530674Y47294D01*
X531164Y47850D01*
X531639Y48418D01*
X532101Y48997D01*
X532548Y49588D01*
X532981Y50189D01*
X533400Y50800D01*
D11*
X474802Y31090D02*
X474802Y19660D01*
X473532Y19660D02*
X476072Y19660D01*
X476072Y31090D02*
X473532Y31090D01*
X481235Y31090D02*
X481235Y19660D01*
X481235Y31090D02*
X484410Y31090D01*
X484521Y31088D01*
X484631Y31082D01*
X484742Y31073D01*
X484852Y31059D01*
X484961Y31042D01*
X485070Y31021D01*
X485178Y30996D01*
X485285Y30967D01*
X485391Y30935D01*
X485496Y30899D01*
X485599Y30859D01*
X485701Y30816D01*
X485802Y30769D01*
X485901Y30718D01*
X485998Y30665D01*
X486092Y30608D01*
X486185Y30547D01*
X486276Y30484D01*
X486365Y30417D01*
X486451Y30347D01*
X486534Y30274D01*
X486616Y30199D01*
X486694Y30121D01*
X486769Y30039D01*
X486842Y29956D01*
X486912Y29870D01*
X486979Y29781D01*
X487042Y29690D01*
X487103Y29597D01*
X487160Y29502D01*
X487213Y29406D01*
X487264Y29307D01*
X487311Y29206D01*
X487354Y29104D01*
X487394Y29001D01*
X487430Y28896D01*
X487462Y28790D01*
X487491Y28683D01*
X487516Y28575D01*
X487537Y28466D01*
X487554Y28357D01*
X487568Y28247D01*
X487577Y28136D01*
X487583Y28026D01*
X487585Y27915D01*
X487583Y27804D01*
X487577Y27694D01*
X487568Y27583D01*
X487554Y27473D01*
X487537Y27364D01*
X487516Y27255D01*
X487491Y27147D01*
X487462Y27040D01*
X487430Y26934D01*
X487394Y26829D01*
X487354Y26726D01*
X487311Y26624D01*
X487264Y26523D01*
X487213Y26424D01*
X487160Y26327D01*
X487103Y26233D01*
X487042Y26140D01*
X486979Y26049D01*
X486912Y25960D01*
X486842Y25874D01*
X486769Y25791D01*
X486694Y25709D01*
X486616Y25631D01*
X486534Y25556D01*
X486451Y25483D01*
X486365Y25413D01*
X486276Y25346D01*
X486185Y25283D01*
X486092Y25222D01*
X485998Y25165D01*
X485901Y25112D01*
X485802Y25061D01*
X485701Y25014D01*
X485599Y24971D01*
X485496Y24931D01*
X485391Y24895D01*
X485285Y24863D01*
X485178Y24834D01*
X485070Y24809D01*
X484961Y24788D01*
X484852Y24771D01*
X484742Y24757D01*
X484631Y24748D01*
X484521Y24742D01*
X484410Y24740D01*
X481235Y24740D01*
X485045Y24740D02*
X487585Y19660D01*
X492074Y18390D02*
X497154Y18390D01*
X502190Y19660D02*
X502190Y31090D01*
X505365Y31090D01*
X505476Y31088D01*
X505586Y31082D01*
X505697Y31073D01*
X505807Y31059D01*
X505916Y31042D01*
X506025Y31021D01*
X506133Y30996D01*
X506240Y30967D01*
X506346Y30935D01*
X506451Y30899D01*
X506554Y30859D01*
X506656Y30816D01*
X506757Y30769D01*
X506856Y30718D01*
X506953Y30665D01*
X507047Y30608D01*
X507140Y30547D01*
X507231Y30484D01*
X507320Y30417D01*
X507406Y30347D01*
X507489Y30274D01*
X507571Y30199D01*
X507649Y30121D01*
X507724Y30039D01*
X507797Y29956D01*
X507867Y29870D01*
X507934Y29781D01*
X507997Y29690D01*
X508058Y29597D01*
X508115Y29502D01*
X508168Y29406D01*
X508219Y29307D01*
X508266Y29206D01*
X508309Y29104D01*
X508349Y29001D01*
X508385Y28896D01*
X508417Y28790D01*
X508446Y28683D01*
X508471Y28575D01*
X508492Y28466D01*
X508509Y28357D01*
X508523Y28247D01*
X508532Y28136D01*
X508538Y28026D01*
X508540Y27915D01*
X508538Y27804D01*
X508532Y27694D01*
X508523Y27583D01*
X508509Y27473D01*
X508492Y27364D01*
X508471Y27255D01*
X508446Y27147D01*
X508417Y27040D01*
X508385Y26934D01*
X508349Y26829D01*
X508309Y26726D01*
X508266Y26624D01*
X508219Y26523D01*
X508168Y26424D01*
X508115Y26327D01*
X508058Y26233D01*
X507997Y26140D01*
X507934Y26049D01*
X507867Y25960D01*
X507797Y25874D01*
X507724Y25791D01*
X507649Y25709D01*
X507571Y25631D01*
X507489Y25556D01*
X507406Y25483D01*
X507320Y25413D01*
X507231Y25346D01*
X507140Y25283D01*
X507047Y25222D01*
X506953Y25165D01*
X506856Y25112D01*
X506757Y25061D01*
X506656Y25014D01*
X506554Y24971D01*
X506451Y24931D01*
X506346Y24895D01*
X506240Y24863D01*
X506133Y24834D01*
X506025Y24809D01*
X505916Y24788D01*
X505807Y24771D01*
X505697Y24757D01*
X505586Y24748D01*
X505476Y24742D01*
X505365Y24740D01*
X502190Y24740D01*
X506000Y24740D02*
X508540Y19660D01*
X513944Y19660D02*
X519024Y19660D01*
X513944Y19660D02*
X513944Y31090D01*
X519024Y31090D01*
X517754Y26010D02*
X513944Y26010D01*
X525946Y19660D02*
X528486Y19660D01*
X525946Y19660D02*
X525846Y19662D01*
X525747Y19668D01*
X525647Y19678D01*
X525549Y19691D01*
X525450Y19709D01*
X525353Y19730D01*
X525257Y19755D01*
X525161Y19784D01*
X525067Y19817D01*
X524974Y19853D01*
X524883Y19893D01*
X524793Y19937D01*
X524705Y19984D01*
X524619Y20034D01*
X524535Y20088D01*
X524453Y20145D01*
X524374Y20205D01*
X524296Y20269D01*
X524222Y20335D01*
X524150Y20404D01*
X524081Y20476D01*
X524015Y20550D01*
X523951Y20628D01*
X523891Y20707D01*
X523834Y20789D01*
X523780Y20873D01*
X523730Y20959D01*
X523683Y21047D01*
X523639Y21137D01*
X523599Y21228D01*
X523563Y21321D01*
X523530Y21415D01*
X523501Y21511D01*
X523476Y21607D01*
X523455Y21704D01*
X523437Y21803D01*
X523424Y21901D01*
X523414Y22001D01*
X523408Y22100D01*
X523406Y22200D01*
X523406Y28550D01*
X523408Y28650D01*
X523414Y28749D01*
X523424Y28849D01*
X523437Y28947D01*
X523455Y29046D01*
X523476Y29143D01*
X523501Y29239D01*
X523530Y29335D01*
X523563Y29429D01*
X523599Y29522D01*
X523639Y29613D01*
X523683Y29703D01*
X523730Y29791D01*
X523780Y29877D01*
X523834Y29961D01*
X523891Y30043D01*
X523951Y30122D01*
X524015Y30200D01*
X524081Y30274D01*
X524150Y30346D01*
X524222Y30415D01*
X524296Y30481D01*
X524374Y30545D01*
X524453Y30605D01*
X524535Y30662D01*
X524619Y30716D01*
X524705Y30766D01*
X524793Y30813D01*
X524883Y30857D01*
X524974Y30897D01*
X525067Y30933D01*
X525161Y30966D01*
X525257Y30995D01*
X525353Y31020D01*
X525450Y31041D01*
X525549Y31059D01*
X525647Y31072D01*
X525747Y31082D01*
X525846Y31088D01*
X525946Y31090D01*
X528486Y31090D01*
X532333Y31090D02*
X536143Y19660D01*
X539953Y31090D01*
X838100Y406400D02*
X38100Y406400D01*
X838100Y406400D02*
X838100Y766400D01*
X38100Y766400D01*
X38100Y406400D01*
X78100Y706400D02*
X798100Y706400D01*
X798100Y466400D01*
X78100Y466400D01*
X78100Y706400D01*
X98100Y686400D02*
X778100Y686400D01*
X778100Y676400D01*
X98100Y676400D01*
X98100Y686400D01*
X98100Y486400D02*
X778100Y486400D01*
X778100Y496400D01*
X98100Y496400D01*
X98100Y486400D01*
X118100Y626400D02*
X118109Y627125D01*
X118135Y627849D01*
X118179Y628573D01*
X118240Y629295D01*
X118319Y630016D01*
X118415Y630735D01*
X118528Y631451D01*
X118659Y632164D01*
X118807Y632874D01*
X118972Y633579D01*
X119154Y634281D01*
X119353Y634978D01*
X119568Y635671D01*
X119801Y636357D01*
X120050Y637038D01*
X120315Y637713D01*
X120596Y638381D01*
X120894Y639042D01*
X121207Y639696D01*
X121536Y640342D01*
X121881Y640980D01*
X122241Y641609D01*
X122616Y642229D01*
X123006Y642840D01*
X123410Y643442D01*
X123829Y644034D01*
X124263Y644615D01*
X124710Y645186D01*
X125171Y645745D01*
X125645Y646294D01*
X126132Y646830D01*
X126632Y647355D01*
X127145Y647868D01*
X127670Y648368D01*
X128206Y648855D01*
X128755Y649329D01*
X129314Y649790D01*
X129885Y650237D01*
X130466Y650671D01*
X131058Y651090D01*
X131660Y651494D01*
X132271Y651884D01*
X132891Y652259D01*
X133520Y652619D01*
X134158Y652964D01*
X134804Y653293D01*
X135458Y653606D01*
X136119Y653904D01*
X136787Y654185D01*
X137462Y654450D01*
X138143Y654699D01*
X138829Y654932D01*
X139522Y655147D01*
X140219Y655346D01*
X140921Y655528D01*
X141626Y655693D01*
X142336Y655841D01*
X143049Y655972D01*
X143765Y656085D01*
X144484Y656181D01*
X145205Y656260D01*
X145927Y656321D01*
X146651Y656365D01*
X147375Y656391D01*
X148100Y656400D01*
X118100Y626400D02*
X118100Y546400D01*
X118109Y545675D01*
X118135Y544951D01*
X118179Y544227D01*
X118240Y543505D01*
X118319Y542784D01*
X118415Y542065D01*
X118528Y541349D01*
X118659Y540636D01*
X118807Y539926D01*
X118972Y539221D01*
X119154Y538519D01*
X119353Y537822D01*
X119568Y537129D01*
X119801Y536443D01*
X120050Y535762D01*
X120315Y535087D01*
X120596Y534419D01*
X120894Y533758D01*
X121207Y533104D01*
X121536Y532458D01*
X121881Y531820D01*
X122241Y531191D01*
X122616Y530571D01*
X123006Y529960D01*
X123410Y529358D01*
X123829Y528766D01*
X124263Y528185D01*
X124710Y527614D01*
X125171Y527055D01*
X125645Y526506D01*
X126132Y525970D01*
X126632Y525445D01*
X127145Y524932D01*
X127670Y524432D01*
X128206Y523945D01*
X128755Y523471D01*
X129314Y523010D01*
X129885Y522563D01*
X130466Y522129D01*
X131058Y521710D01*
X131660Y521306D01*
X132271Y520916D01*
X132891Y520541D01*
X133520Y520181D01*
X134158Y519836D01*
X134804Y519507D01*
X135458Y519194D01*
X136119Y518896D01*
X136787Y518615D01*
X137462Y518350D01*
X138143Y518101D01*
X138829Y517868D01*
X139522Y517653D01*
X140219Y517454D01*
X140921Y517272D01*
X141626Y517107D01*
X142336Y516959D01*
X143049Y516828D01*
X143765Y516715D01*
X144484Y516619D01*
X145205Y516540D01*
X145927Y516479D01*
X146651Y516435D01*
X147375Y516409D01*
X148100Y516400D01*
X728100Y516400D01*
X728825Y516409D01*
X729549Y516435D01*
X730273Y516479D01*
X730995Y516540D01*
X731716Y516619D01*
X732435Y516715D01*
X733151Y516828D01*
X733864Y516959D01*
X734574Y517107D01*
X735279Y517272D01*
X735981Y517454D01*
X736678Y517653D01*
X737371Y517868D01*
X738057Y518101D01*
X738738Y518350D01*
X739413Y518615D01*
X740081Y518896D01*
X740742Y519194D01*
X741396Y519507D01*
X742042Y519836D01*
X742680Y520181D01*
X743309Y520541D01*
X743929Y520916D01*
X744540Y521306D01*
X745142Y521710D01*
X745734Y522129D01*
X746315Y522563D01*
X746886Y523010D01*
X747445Y523471D01*
X747994Y523945D01*
X748530Y524432D01*
X749055Y524932D01*
X749568Y525445D01*
X750068Y525970D01*
X750555Y526506D01*
X751029Y527055D01*
X751490Y527614D01*
X751937Y528185D01*
X752371Y528766D01*
X752790Y529358D01*
X753194Y529960D01*
X753584Y530571D01*
X753959Y531191D01*
X754319Y531820D01*
X754664Y532458D01*
X754993Y533104D01*
X755306Y533758D01*
X755604Y534419D01*
X755885Y535087D01*
X756150Y535762D01*
X756399Y536443D01*
X756632Y537129D01*
X756847Y537822D01*
X757046Y538519D01*
X757228Y539221D01*
X757393Y539926D01*
X757541Y540636D01*
X757672Y541349D01*
X757785Y542065D01*
X757881Y542784D01*
X757960Y543505D01*
X758021Y544227D01*
X758065Y544951D01*
X758091Y545675D01*
X758100Y546400D01*
X758100Y626400D01*
X758091Y627125D01*
X758065Y627849D01*
X758021Y628573D01*
X757960Y629295D01*
X757881Y630016D01*
X757785Y630735D01*
X757672Y631451D01*
X757541Y632164D01*
X757393Y632874D01*
X757228Y633579D01*
X757046Y634281D01*
X756847Y634978D01*
X756632Y635671D01*
X756399Y636357D01*
X756150Y637038D01*
X755885Y637713D01*
X755604Y638381D01*
X755306Y639042D01*
X754993Y639696D01*
X754664Y640342D01*
X754319Y640980D01*
X753959Y641609D01*
X753584Y642229D01*
X753194Y642840D01*
X752790Y643442D01*
X752371Y644034D01*
X751937Y644615D01*
X751490Y645186D01*
X751029Y645745D01*
X750555Y646294D01*
X750068Y646830D01*
X749568Y647355D01*
X749055Y647868D01*
X748530Y648368D01*
X747994Y648855D01*
X747445Y649329D01*
X746886Y649790D01*
X746315Y650237D01*
X745734Y650671D01*
X745142Y651090D01*
X744540Y651494D01*
X743929Y651884D01*
X743309Y652259D01*
X742680Y652619D01*
X742042Y652964D01*
X741396Y653293D01*
X740742Y653606D01*
X740081Y653904D01*
X739413Y654185D01*
X738738Y654450D01*
X738057Y654699D01*
X737371Y654932D01*
X736678Y655147D01*
X735981Y655346D01*
X735279Y655528D01*
X734574Y655693D01*
X733864Y655841D01*
X733151Y655972D01*
X732435Y656085D01*
X731716Y656181D01*
X730995Y656260D01*
X730273Y656321D01*
X729549Y656365D01*
X728825Y656391D01*
X728100Y656400D01*
X148100Y656400D01*
M02*
